<svg width="160" height="386" viewBox="0 0 160 386" fill="none" xmlns="http://www.w3.org/2000/svg">
<g clip-path="url(#clip0_407_34672)">
<g clip-path="url(#clip1_407_34672)">
<rect x="69.522" y="-0.6689" width="12.5155" height="6.23656" fill="#11140F"/>
<rect x="107.068" y="55.4601" width="6.25775" height="6.23656" fill="#11140F"/>
<rect x="113.326" y="61.6967" width="6.25775" height="12.4731" fill="#11140F"/>
<rect x="125.842" y="86.6429" width="6.25775" height="43.6559" fill="#11140F"/>
<rect x="19.46" y="86.6429" width="6.25775" height="43.6559" fill="#11140F"/>
<rect x="119.584" y="74.1698" width="6.25774" height="12.4731" fill="#11140F"/>
<rect x="25.7178" y="74.1698" width="6.25774" height="12.4731" fill="#11140F"/>
<rect x="119.584" y="155.245" width="6.25774" height="6.23654" fill="#11140F"/>
<rect x="25.7178" y="155.245" width="6.25774" height="6.23654" fill="#11140F"/>
<rect x="113.326" y="142.772" width="6.25775" height="6.23654" fill="#11140F"/>
<rect x="125.842" y="167.718" width="6.25775" height="6.23654" fill="#11140F"/>
<rect x="82.0375" y="5.56766" width="6.25774" height="6.23656" fill="#11140F"/>
<rect x="82.0375" y="30.5139" width="6.25774" height="6.23656" fill="#11140F"/>
<rect x="63.2643" y="5.56766" width="6.25775" height="6.23656" fill="#11140F"/>
<rect x="63.2643" y="30.5139" width="6.25775" height="6.23656" fill="#11140F"/>
<rect x="57.0065" y="11.8042" width="6.25774" height="18.7097" fill="#11140F"/>
<rect x="88.2952" y="11.8042" width="6.25775" height="18.7097" fill="#11140F"/>
<rect width="6.25775" height="3.11827" transform="matrix(1 0 0 -1 31.9755 74.1698)" fill="#11140F"/>
<rect width="6.25775" height="3.11828" transform="matrix(1 0 0 -1 31.9755 71.0515)" fill="#11140F"/>
<rect x="25.7178" y="130.299" width="6.25774" height="12.4731" fill="#11140F"/>
<rect x="119.584" y="130.299" width="6.25774" height="12.4731" fill="#11140F"/>
<rect x="38.2332" y="149.008" width="87.6085" height="6.23657" fill="#11140F"/>
<rect x="25.7178" y="149.008" width="12.5155" height="6.23657" fill="#11140F"/>
<rect x="31.9755" y="142.772" width="6.25775" height="6.23654" fill="#11140F"/>
<rect x="19.46" y="167.718" width="6.25775" height="6.23654" fill="#11140F"/>
<rect x="25.7178" y="173.955" width="100.124" height="6.23657" fill="#11140F"/>
<rect x="25.7178" y="248.793" width="6.25774" height="18.7097" fill="#11140F"/>
<rect x="19.46" y="267.503" width="6.25775" height="12.4731" fill="#11140F"/>
<rect x="13.2022" y="279.976" width="6.25775" height="6.23654" fill="#11140F"/>
<rect x="0.686768" y="292.449" width="6.25775" height="6.23654" fill="#11140F"/>
<rect x="13.2022" y="304.922" width="6.25775" height="12.4731" fill="#11140F"/>
<rect x="19.46" y="317.395" width="6.25775" height="24.9462" fill="#11140F"/>
<rect x="0.686768" y="361.051" width="6.25775" height="24.9462" fill="#11140F"/>
<rect x="144.615" y="361.051" width="6.25775" height="24.9462" fill="#11140F"/>
<rect x="125.842" y="317.395" width="6.25775" height="24.9462" fill="#11140F"/>
<rect x="132.099" y="304.922" width="6.25775" height="12.4731" fill="#11140F"/>
<rect x="144.615" y="292.449" width="6.25775" height="6.23654" fill="#11140F"/>
<rect x="132.099" y="342.342" width="6.25775" height="6.23654" fill="#11140F"/>
<rect x="13.2022" y="354.815" width="125.155" height="6.23654" fill="#11140F"/>
<rect x="138.357" y="348.578" width="6.25774" height="12.4731" fill="#11140F"/>
<rect x="13.2022" y="342.342" width="6.25775" height="6.23654" fill="#11140F"/>
<rect x="6.94452" y="379.761" width="137.67" height="6.23654" fill="#11140F"/>
<rect x="6.94452" y="348.578" width="6.25775" height="12.4731" fill="#11140F"/>
<rect x="6.94452" y="298.686" width="137.67" height="6.23659" fill="#11140F"/>
<rect x="6.94452" y="286.213" width="137.67" height="6.23654" fill="#11140F"/>
<rect x="132.099" y="279.976" width="6.25775" height="6.23654" fill="#11140F"/>
<rect x="125.842" y="267.503" width="6.25775" height="12.4731" fill="#11140F"/>
<rect x="119.584" y="248.793" width="6.25774" height="18.7097" fill="#11140F"/>
<rect x="31.9755" y="180.191" width="6.25775" height="5.71683" fill="#11140F"/>
<rect x="31.9755" y="185.908" width="6.25775" height="62.8853" fill="#11140F"/>
<rect x="113.326" y="180.191" width="6.25775" height="5.71683" fill="#11140F"/>
<rect x="113.326" y="185.908" width="6.25775" height="62.8853" fill="#11140F"/>
<rect x="94.553" y="161.482" width="37.5465" height="6.23657" fill="#11140F"/>
<rect x="19.46" y="161.482" width="37.5465" height="6.23657" fill="#11140F"/>
<rect x="57.0065" y="161.482" width="37.5465" height="6.23657" fill="#11140F"/>
<rect x="57.0065" y="36.7504" width="6.25774" height="6.23656" fill="#11140F"/>
<rect x="63.2643" y="36.7504" width="6.25775" height="6.23656" fill="#11140F"/>
<rect x="69.522" y="36.7504" width="25.031" height="6.23656" fill="#11140F"/>
<rect x="94.553" y="42.987" width="6.25775" height="6.23656" fill="#11140F"/>
<rect x="100.811" y="49.2236" width="6.25774" height="6.23655" fill="#11140F"/>
<rect x="44.491" y="49.2236" width="6.25775" height="6.23655" fill="#11140F"/>
<rect x="44.491" y="55.4601" width="6.25775" height="6.23656" fill="#11140F"/>
<rect x="50.7487" y="61.6967" width="6.25774" height="6.23656" fill="#11140F"/>
<rect x="57.0065" y="67.9332" width="6.25774" height="6.23656" fill="#11140F"/>
<rect x="63.2643" y="74.1698" width="6.25775" height="6.23656" fill="#11140F"/>
<rect x="69.522" y="80.4063" width="6.25774" height="6.23656" fill="#11140F"/>
<rect x="75.7797" y="80.4063" width="6.25775" height="6.23656" fill="#11140F"/>
<rect x="57.0065" y="86.6429" width="18.7732" height="6.23656" fill="#11140F"/>
<rect x="50.7487" y="80.4063" width="6.25774" height="6.23656" fill="#11140F"/>
<rect x="44.491" y="74.1698" width="6.25775" height="6.23656" fill="#11140F"/>
<rect x="38.2332" y="67.9332" width="6.25774" height="6.23656" fill="#11140F"/>
<rect x="50.7487" y="42.987" width="6.25774" height="6.23656" fill="#11140F"/>
<rect x="125.634" y="304.922" width="6.25775" height="12.4731" fill="#FF9505"/>
<rect x="125.634" y="342.342" width="6.25775" height="12.4731" fill="#FF9505"/>
<rect x="131.892" y="348.578" width="6.25775" height="6.23644" fill="#FF9505"/>
<rect x="19.2527" y="304.922" width="6.25775" height="12.4731" fill="#FF9505"/>
<rect x="19.2527" y="342.342" width="6.25775" height="12.4731" fill="#FF9505"/>
<rect x="12.9949" y="348.578" width="6.25775" height="6.23644" fill="#FF9505"/>
<rect x="36.9211" y="180.191" width="76.1976" height="106.021" fill="#FF9505"/>
<rect x="25.5103" y="304.922" width="100.124" height="49.8927" fill="#FF9505"/>
<rect x="6.73706" y="361.052" width="137.67" height="18.7096" fill="#FF9505"/>
<rect x="37.4735" y="92.8795" width="76.1976" height="56.129" fill="#FF9505"/>
<rect x="113.119" y="74.1698" width="6.81004" height="68.6021" fill="#FF9505"/>
<rect x="31.7682" y="74.1698" width="6.25761" height="68.6021" fill="#FF9505"/>
<rect x="38.026" y="74.1698" width="6.25761" height="18.7097" fill="#FF9505"/>
<rect x="63.0568" y="42.987" width="6.25761" height="31.1827" fill="#FF9505"/>
<rect x="82.489" y="42.987" width="11.8564" height="18.7096" fill="#FF9505"/>
<rect x="56.7993" y="42.987" width="6.25761" height="24.9462" fill="#FF9505"/>
<rect x="50.5415" y="49.2236" width="6.25761" height="12.473" fill="#FF9505"/>
<rect x="94.3455" y="49.2236" width="6.25761" height="12.473" fill="#FF9505"/>
<rect x="82.489" y="11.8042" width="5.59838" height="18.7097" fill="#FF9505"/>
<rect x="63.0568" y="11.8042" width="6.25761" height="18.7097" fill="#FF9505"/>
<rect x="44.2838" y="80.4063" width="6.25761" height="12.4731" fill="#FF9505"/>
<rect x="81.8299" y="61.6966" width="31.2888" height="31.1828" fill="#FF9505"/>
<rect x="69.3146" y="42.987" width="13.1745" height="37.4193" fill="#FF9505"/>
<rect x="69.3146" y="5.56766" width="13.1745" height="31.1828" fill="#FF9505"/>
<rect x="50.5415" y="86.6429" width="6.25761" height="6.23656" fill="#FF9505"/>
<rect x="100.603" y="55.4601" width="6.25761" height="6.23656" fill="#FF9505"/>
<rect x="75.5723" y="86.6429" width="6.25761" height="6.23656" fill="#FF9505"/>
<rect x="119.377" y="86.6429" width="6.25761" height="43.6559" fill="#FF9505"/>
<rect x="25.5103" y="86.6429" width="6.25761" height="43.6559" fill="#FF9505"/>
<rect x="31.7682" y="248.793" width="5.15303" height="37.4194" fill="#FF9505"/>
<rect x="113.119" y="248.793" width="6.25789" height="37.4194" fill="#FF9505"/>
<rect x="25.5103" y="267.503" width="6.25761" height="18.7096" fill="#FF9505"/>
<rect x="119.377" y="267.503" width="6.25761" height="18.7096" fill="#FF9505"/>
<rect x="19.2527" y="279.976" width="6.25761" height="6.23649" fill="#FF9505"/>
<rect x="6.73706" y="292.449" width="137.67" height="6.23649" fill="#FFB627"/>
<rect x="25.5103" y="167.718" width="100.124" height="6.23649" fill="#FFB627"/>
<rect x="31.7681" y="155.245" width="87.6083" height="6.23649" fill="#FFB627"/>
<rect x="125.634" y="279.976" width="6.25761" height="6.23649" fill="#FF9505"/>
<rect x="37.4735" y="145.752" width="76.1976" height="3.25618" fill="#E2711D"/>
<rect x="37.4735" y="142.37" width="24.7968" height="3.38187" fill="#E2711D"/>
<rect x="37.4735" y="138.781" width="20.3867" height="3.9908" fill="#E2711D"/>
<rect x="37.4735" y="135.192" width="16.9287" height="3.58931" fill="#E2711D"/>
<rect x="37.4735" y="129.094" width="12.1609" height="6.09749" fill="#E2711D"/>
<rect x="25.5103" y="86.6429" width="6.25761" height="44.0159" fill="#E2711D"/>
<rect x="31.7679" y="110.071" width="6.21903" height="32.7007" fill="#E2711D"/>
<rect x="63.0568" y="17.8608" width="3.94913" height="12.6531" fill="#E2711D"/>
<rect x="69.3146" y="30.5139" width="3.94913" height="6.23654" fill="#E2711D"/>
<rect x="67.0271" y="30.5139" width="3.94913" height="6.23654" transform="rotate(-90 67.0271 30.5139)" fill="#E2711D"/>
<rect x="19.3003" y="304.923" width="112.592" height="3.25618" fill="#E2711D"/>
<rect width="34.7651" height="3.28456" transform="matrix(-1 0 0 1 131.892 308.179)" fill="#E2711D"/>
<rect width="76.1974" height="2.03475" transform="matrix(-1 0 0 1 113.118 180.191)" fill="#E2711D"/>
<rect width="36.7167" height="6.56892" transform="matrix(-1 0 0 1 138.15 348.579)" fill="#E2711D"/>
<rect width="33.2462" height="6.42972" transform="matrix(-1 0 0 1 144.407 361.052)" fill="#E2711D"/>
<rect width="137.67" height="6.42972" transform="matrix(-1 0 0 1 144.407 361.052)" fill="#FFB627"/>
<rect opacity="0.3" width="26.6081" height="6.70925" transform="matrix(-1 0 0 1 144.407 367.482)" fill="#E2711D"/>
<rect opacity="0.3" width="18.5557" height="5.57067" transform="matrix(-1 0 0 1 144.407 374.191)" fill="#E2711D"/>
<rect width="41.8547" height="5.93278" transform="matrix(-1 0 0 1 131.892 311.463)" fill="#E2711D"/>
<rect width="40.9347" height="6.40276" transform="matrix(-1 0 0 1 131.892 342.176)" fill="#E2711D"/>
<rect width="41.0038" height="25.6106" transform="matrix(-1 0 0 1 125.634 316.731)" fill="#E2711D"/>
</g>
<rect x="36.0001" y="88.9978" width="112" height="28" fill="#A8A6A6"/>
<rect x="43.0001" y="81.9978" width="98" height="7" fill="#1E1E1E"/>
<rect x="43.0001" y="116.998" width="98" height="7" fill="#1E1E1E"/>
<path fill-rule="evenodd" clip-rule="evenodd" d="M134 95.9978H50.0001V102.998V109.998H134V102.998V95.9978Z" fill="#1E1E1E"/>
<rect x="141" y="88.9978" width="7" height="7" fill="#1E1E1E"/>
<rect x="148" y="95.9978" width="7" height="7" fill="#1E1E1E"/>
<rect x="148" y="102.998" width="7" height="7" fill="#1E1E1E"/>
<rect x="141" y="109.998" width="7" height="7" fill="#1E1E1E"/>
<rect x="36.0001" y="109.998" width="7" height="7" fill="#1E1E1E"/>
<rect x="29.0001" y="102.998" width="7" height="7" fill="#1E1E1E"/>
<rect x="29.0001" y="95.9978" width="7" height="7" fill="#1E1E1E"/>
<rect x="36.0001" y="88.9978" width="7" height="7" fill="#1E1E1E"/>
<path fill-rule="evenodd" clip-rule="evenodd" d="M107.138 211.337H83.3659V216.144H73.8572V249.791H83.3659V254.598H107.138V249.791H116.647V216.144H107.138V211.337Z" fill="#E0C45E"/>
<rect x="69.1028" y="225.757" width="4.75438" height="4.80682" fill="#A4830F"/>
<rect x="69.1028" y="220.95" width="4.75438" height="4.80682" fill="#A4830F"/>
<rect x="69.1028" y="230.564" width="4.75438" height="4.80682" fill="#A4830F"/>
<rect x="69.1028" y="235.371" width="4.75438" height="4.8068" fill="#A4830F"/>
<rect x="73.8572" y="244.984" width="4.75438" height="4.80681" fill="#A4830F"/>
<rect x="116.647" y="220.95" width="4.75437" height="4.80682" transform="rotate(180 116.647 220.95)" fill="#A4830F"/>
<rect x="69.1028" y="240.178" width="4.75438" height="4.80682" fill="#A4830F"/>
<rect x="92.8747" y="254.598" width="4.75438" height="4.80682" fill="#A4830F"/>
<rect x="97.6291" y="211.337" width="4.75438" height="4.80681" transform="rotate(180 97.6291 211.337)" fill="#A4830F"/>
<rect x="88.1203" y="254.598" width="4.75438" height="4.80682" fill="#A4830F"/>
<rect x="102.383" y="211.337" width="4.75438" height="4.80681" transform="rotate(180 102.383 211.337)" fill="#A4830F"/>
<rect x="78.6116" y="249.791" width="9.50875" height="4.80682" fill="#A4830F"/>
<rect x="111.892" y="216.144" width="9.50875" height="4.80682" transform="rotate(180 111.892 216.144)" fill="#A4830F"/>
<rect x="88.1203" y="201.723" width="4.75438" height="4.80682" fill="#A4830F"/>
<rect x="83.3659" y="201.723" width="4.75438" height="4.80682" fill="#A4830F"/>
<rect x="97.6291" y="254.598" width="4.75438" height="4.80682" fill="#A4830F"/>
<rect x="92.8747" y="211.337" width="4.75437" height="4.80681" transform="rotate(180 92.8747 211.337)" fill="#A4830F"/>
<rect x="92.8747" y="201.723" width="4.75438" height="4.80682" fill="#A4830F"/>
<rect x="97.6291" y="201.723" width="4.75438" height="4.80682" fill="#A4830F"/>
<rect x="92.8747" y="220.95" width="4.75438" height="4.80682" fill="#BD9816"/>
<rect x="88.1203" y="225.757" width="4.75438" height="4.80682" fill="#BD9816"/>
<rect x="83.3659" y="225.757" width="4.75438" height="4.80682" fill="#BD9816"/>
<rect width="4.75438" height="4.80682" transform="matrix(1 0 0 -1 92.8747 235.371)" fill="#BD9816"/>
<rect width="4.75438" height="4.8068" transform="matrix(1 0 0 -1 92.8747 240.178)" fill="#BD9816"/>
<rect width="4.75438" height="4.8068" transform="matrix(1 0 0 -1 88.1203 240.178)" fill="#BD9816"/>
<rect x="102.383" y="235.371" width="4.75438" height="4.80682" transform="rotate(-180 102.383 235.371)" fill="#BD9816"/>
<rect x="102.383" y="240.178" width="4.75438" height="4.8068" transform="rotate(-180 102.383 240.178)" fill="#BD9816"/>
<rect width="4.75438" height="4.80682" transform="matrix(1 0 0 -1 88.1203 235.371)" fill="#BD9816"/>
<rect width="4.75438" height="4.80682" transform="matrix(1 0 0 -1 92.8747 230.564)" fill="#BD9816"/>
<rect width="4.75438" height="4.80682" transform="matrix(1 0 0 -1 83.3659 244.984)" fill="#BD9816"/>
<rect width="4.75438" height="4.80682" transform="matrix(1 0 0 -1 102.383 244.984)" fill="#BD9816"/>
<rect width="4.75438" height="4.80682" transform="matrix(1 0 0 -1 97.6291 230.564)" fill="#BD9816"/>
<rect width="4.75438" height="4.80682" transform="matrix(1 0 0 -1 102.383 230.564)" fill="#BD9816"/>
<rect x="102.383" y="249.791" width="9.50875" height="4.80682" fill="#A4830F"/>
<rect x="88.1203" y="216.144" width="9.50875" height="4.80682" transform="rotate(180 88.1203 216.144)" fill="#A4830F"/>
<rect x="102.383" y="201.723" width="4.75438" height="4.80682" fill="#A4830F"/>
<rect x="107.138" y="196.916" width="4.75438" height="4.80682" fill="#A4830F"/>
<rect x="78.6116" y="196.916" width="4.75438" height="4.80682" fill="#A4830F"/>
<rect x="73.8572" y="192.11" width="4.75438" height="4.80681" fill="#A4830F"/>
<rect x="69.1028" y="187.303" width="4.75438" height="4.80682" fill="#A4830F"/>
<rect x="64.3484" y="182.496" width="4.75438" height="4.80681" fill="#A4830F"/>
<rect x="59.5941" y="177.689" width="4.75438" height="4.80681" fill="#A4830F"/>
<rect x="111.892" y="192.11" width="4.75438" height="4.80681" fill="#A4830F"/>
<rect x="116.647" y="240.178" width="4.75437" height="4.80682" fill="#A4830F"/>
<rect x="111.892" y="244.984" width="4.75438" height="4.80681" fill="#A4830F"/>
<rect x="78.6116" y="220.95" width="4.75438" height="4.80682" transform="rotate(180 78.6116 220.95)" fill="#A4830F"/>
<rect x="116.647" y="230.564" width="4.75437" height="4.80682" fill="#A4830F"/>
<rect x="116.647" y="235.371" width="4.75437" height="4.8068" fill="#A4830F"/>
<rect x="116.647" y="225.757" width="4.75437" height="4.80682" fill="#A4830F"/>
<rect x="116.647" y="220.95" width="4.75437" height="4.80682" fill="#A4830F"/>
</g>
<defs>
<clipPath id="clip0_407_34672">
<rect width="160" height="386" fill="white"/>
</clipPath>
<clipPath id="clip1_407_34672">
<rect width="207.854" height="418.197" fill="white" transform="translate(-8.44055 -32.1996)"/>
</clipPath>
</defs>
</svg>
