<svg width="251" height="504" viewBox="0 0 251 504" fill="none" xmlns="http://www.w3.org/2000/svg">
<g clip-path="url(#clip0_224_19772)">
<rect x="93.9583" y="38" width="15.0833" height="7.51613" fill="#11140F"/>
<rect x="139.208" y="105.645" width="7.54167" height="7.51613" fill="#11140F"/>
<rect x="146.75" y="113.161" width="7.54167" height="15.0323" fill="#11140F"/>
<rect x="161.833" y="143.226" width="7.54167" height="52.6129" fill="#11140F"/>
<rect x="33.625" y="143.226" width="7.54167" height="52.6129" fill="#11140F"/>
<rect x="154.292" y="128.194" width="7.54166" height="15.0323" fill="#11140F"/>
<rect x="41.1667" y="128.194" width="7.54166" height="15.0323" fill="#11140F"/>
<rect x="154.292" y="225.903" width="7.54166" height="7.51611" fill="#11140F"/>
<rect x="41.1667" y="225.903" width="7.54166" height="7.51611" fill="#11140F"/>
<rect x="146.75" y="210.871" width="7.54167" height="7.51611" fill="#11140F"/>
<rect x="161.833" y="240.936" width="7.54167" height="7.51611" fill="#11140F"/>
<rect x="109.042" y="45.5161" width="7.54166" height="7.51613" fill="#11140F"/>
<rect x="109.042" y="75.5807" width="7.54166" height="7.51613" fill="#11140F"/>
<rect x="86.4167" y="45.5161" width="7.54167" height="7.51613" fill="#11140F"/>
<rect x="86.4167" y="75.5807" width="7.54167" height="7.51613" fill="#11140F"/>
<rect x="78.875" y="53.0322" width="7.54166" height="22.5484" fill="#11140F"/>
<rect x="116.583" y="53.0322" width="7.54167" height="22.5484" fill="#11140F"/>
<rect width="7.54167" height="3.75806" transform="matrix(1 0 0 -1 48.7083 128.194)" fill="#11140F"/>
<rect width="7.54167" height="3.75807" transform="matrix(1 0 0 -1 48.7083 124.436)" fill="#11140F"/>
<rect x="41.1667" y="195.839" width="7.54166" height="15.0323" fill="#11140F"/>
<rect x="154.292" y="195.839" width="7.54166" height="15.0323" fill="#11140F"/>
<rect x="56.25" y="218.387" width="105.583" height="7.51614" fill="#11140F"/>
<rect x="41.1667" y="218.387" width="15.0833" height="7.51614" fill="#11140F"/>
<rect x="48.7083" y="210.871" width="7.54167" height="7.51611" fill="#11140F"/>
<rect x="33.625" y="240.936" width="7.54167" height="7.51611" fill="#11140F"/>
<rect x="41.1667" y="248.452" width="120.667" height="7.51614" fill="#11140F"/>
<rect x="41.1667" y="338.645" width="7.54166" height="22.5484" fill="#11140F"/>
<rect x="33.625" y="361.194" width="7.54167" height="15.0323" fill="#11140F"/>
<rect x="26.0833" y="376.226" width="7.54167" height="7.51611" fill="#11140F"/>
<rect x="11" y="391.258" width="7.54167" height="7.51611" fill="#11140F"/>
<rect x="26.0833" y="406.29" width="7.54167" height="15.0322" fill="#11140F"/>
<rect x="33.625" y="421.323" width="7.54167" height="30.0645" fill="#11140F"/>
<rect x="11" y="473.936" width="7.54167" height="30.0645" fill="#11140F"/>
<rect x="184.458" y="473.936" width="7.54167" height="30.0645" fill="#11140F"/>
<rect x="161.833" y="421.323" width="7.54167" height="30.0645" fill="#11140F"/>
<rect x="169.375" y="406.29" width="7.54167" height="15.0322" fill="#11140F"/>
<rect x="184.458" y="391.258" width="7.54167" height="7.51611" fill="#11140F"/>
<rect x="169.375" y="451.387" width="7.54167" height="7.51611" fill="#11140F"/>
<rect x="26.0833" y="466.419" width="150.833" height="7.51611" fill="#11140F"/>
<rect x="176.917" y="458.903" width="7.54166" height="15.0323" fill="#11140F"/>
<rect x="26.0833" y="451.387" width="7.54167" height="7.51611" fill="#11140F"/>
<rect x="18.5417" y="496.484" width="165.917" height="7.51611" fill="#11140F"/>
<rect x="18.5417" y="458.903" width="7.54167" height="15.0323" fill="#11140F"/>
<rect x="18.5417" y="398.774" width="165.917" height="7.51617" fill="#11140F"/>
<rect x="18.5417" y="383.742" width="165.917" height="7.51611" fill="#11140F"/>
<rect x="169.375" y="376.226" width="7.54167" height="7.51611" fill="#11140F"/>
<rect x="161.833" y="361.194" width="7.54167" height="15.0323" fill="#11140F"/>
<rect x="154.292" y="338.645" width="7.54166" height="22.5484" fill="#11140F"/>
<rect x="48.7083" y="255.968" width="7.54167" height="6.88977" fill="#11140F"/>
<rect x="48.7083" y="262.858" width="7.54167" height="75.7876" fill="#11140F"/>
<rect x="146.75" y="255.968" width="7.54167" height="6.88977" fill="#11140F"/>
<rect x="146.75" y="262.858" width="7.54167" height="75.7876" fill="#11140F"/>
<rect x="124.125" y="233.419" width="45.25" height="7.51614" fill="#11140F"/>
<rect x="33.625" y="233.419" width="45.25" height="7.51614" fill="#11140F"/>
<rect x="78.875" y="233.419" width="45.25" height="7.51614" fill="#11140F"/>
<rect x="78.875" y="83.0968" width="7.54166" height="7.51613" fill="#11140F"/>
<rect x="86.4167" y="83.0968" width="7.54167" height="7.51613" fill="#11140F"/>
<rect x="93.9583" y="83.0968" width="30.1667" height="7.51613" fill="#11140F"/>
<rect x="124.125" y="90.6129" width="7.54167" height="7.51613" fill="#11140F"/>
<rect x="131.667" y="98.129" width="7.54166" height="7.51612" fill="#11140F"/>
<rect x="63.7917" y="98.129" width="7.54167" height="7.51612" fill="#11140F"/>
<rect x="63.7917" y="105.645" width="7.54167" height="7.51613" fill="#11140F"/>
<rect x="71.3333" y="113.161" width="7.54166" height="7.51613" fill="#11140F"/>
<rect x="78.875" y="120.677" width="7.54166" height="7.51613" fill="#11140F"/>
<rect x="86.4167" y="128.194" width="7.54167" height="7.51613" fill="#11140F"/>
<rect x="93.9583" y="135.71" width="7.54166" height="7.51613" fill="#11140F"/>
<rect x="101.5" y="135.71" width="7.54167" height="7.51613" fill="#11140F"/>
<rect x="78.875" y="143.226" width="22.625" height="7.51614" fill="#11140F"/>
<rect x="71.3333" y="135.71" width="7.54166" height="7.51613" fill="#11140F"/>
<rect x="63.7917" y="128.194" width="7.54167" height="7.51613" fill="#11140F"/>
<rect x="56.25" y="120.677" width="7.54166" height="7.51613" fill="#11140F"/>
<rect x="71.3333" y="90.6129" width="7.54166" height="7.51613" fill="#11140F"/>
<rect x="161.583" y="406.29" width="7.54167" height="15.0322" fill="#FF9505"/>
<rect x="161.583" y="451.387" width="7.54167" height="15.0322" fill="#FF9505"/>
<rect x="169.125" y="458.903" width="7.54167" height="7.51599" fill="#FF9505"/>
<rect x="33.3752" y="406.29" width="7.54167" height="15.0322" fill="#FF9505"/>
<rect x="33.3752" y="451.387" width="7.54167" height="15.0322" fill="#FF9505"/>
<rect x="25.8335" y="458.903" width="7.54167" height="7.51599" fill="#FF9505"/>
<rect x="54.6687" y="255.968" width="91.8313" height="127.774" fill="#FF9505"/>
<rect x="40.9167" y="406.29" width="120.667" height="60.1293" fill="#FF9505"/>
<rect x="18.2917" y="473.936" width="165.917" height="22.5483" fill="#FF9505"/>
<rect x="55.3345" y="150.742" width="91.8313" height="67.6451" fill="#FF9505"/>
<rect x="146.5" y="128.194" width="8.20728" height="82.6773" fill="#FF9505"/>
<rect x="48.4585" y="128.194" width="7.5415" height="82.6773" fill="#FF9505"/>
<rect x="56.0002" y="128.194" width="7.5415" height="22.5484" fill="#FF9505"/>
<rect x="86.1667" y="90.6129" width="7.5415" height="37.5806" fill="#FF9505"/>
<rect x="109.586" y="90.6129" width="14.289" height="22.5484" fill="#FF9505"/>
<rect x="78.6252" y="90.6129" width="7.5415" height="30.0645" fill="#FF9505"/>
<rect x="71.0837" y="98.1292" width="7.5415" height="15.0322" fill="#FF9505"/>
<rect x="123.875" y="98.1292" width="7.5415" height="15.0322" fill="#FF9505"/>
<rect x="109.586" y="53.0322" width="6.74702" height="22.5484" fill="#FF9505"/>
<rect x="86.1667" y="53.0322" width="7.5415" height="22.5484" fill="#FF9505"/>
<rect x="63.542" y="135.71" width="7.5415" height="15.0323" fill="#FF9505"/>
<rect x="108.792" y="113.161" width="37.7084" height="37.5807" fill="#FF9505"/>
<rect x="93.7085" y="90.6129" width="15.8775" height="45.0967" fill="#FF9505"/>
<rect x="93.7085" y="45.5161" width="15.8775" height="37.5806" fill="#FF9505"/>
<rect x="71.0837" y="143.226" width="7.5415" height="7.51614" fill="#FF9505"/>
<rect x="131.417" y="105.645" width="7.5415" height="7.51614" fill="#FF9505"/>
<rect x="101.25" y="143.226" width="7.5415" height="7.51614" fill="#FF9505"/>
<rect x="154.042" y="143.226" width="7.5415" height="52.6129" fill="#FF9505"/>
<rect x="40.9167" y="143.226" width="7.5415" height="52.6129" fill="#FF9505"/>
<rect x="48.4585" y="338.645" width="6.21029" height="45.0968" fill="#FF9505"/>
<rect x="146.5" y="338.645" width="7.54183" height="45.0968" fill="#FF9505"/>
<rect x="40.9167" y="361.194" width="7.5415" height="22.5483" fill="#FF9505"/>
<rect x="154.042" y="361.194" width="7.5415" height="22.5483" fill="#FF9505"/>
<rect x="33.3752" y="376.226" width="7.5415" height="7.51605" fill="#FF9505"/>
<rect x="18.2917" y="391.258" width="165.917" height="7.51605" fill="#FFB627"/>
<rect x="40.9167" y="240.936" width="120.667" height="7.51605" fill="#FFB627"/>
<rect x="48.4585" y="225.903" width="105.583" height="7.51605" fill="#FFB627"/>
<rect x="161.583" y="376.226" width="7.5415" height="7.51605" fill="#FF9505"/>
<rect x="55.3345" y="214.463" width="91.8313" height="3.92426" fill="#E2711D"/>
<rect x="55.3345" y="210.387" width="29.8845" height="4.07574" fill="#E2711D"/>
<rect x="55.3345" y="206.061" width="24.5695" height="4.8096" fill="#E2711D"/>
<rect x="55.3345" y="201.736" width="20.402" height="4.32574" fill="#E2711D"/>
<rect x="55.3345" y="194.387" width="14.656" height="7.34853" fill="#E2711D"/>
<rect x="40.9167" y="143.226" width="7.5415" height="53.0467" fill="#E2711D"/>
<rect x="48.4583" y="171.461" width="7.495" height="39.4099" fill="#E2711D"/>
<rect x="86.1667" y="60.3315" width="4.75938" height="15.2491" fill="#E2711D"/>
<rect x="93.7085" y="75.5806" width="4.75938" height="7.51611" fill="#E2711D"/>
<rect x="90.9517" y="75.5806" width="4.75938" height="7.51611" transform="rotate(-90 90.9517 75.5806)" fill="#E2711D"/>
<rect x="33.4326" y="406.291" width="135.692" height="3.92426" fill="#E2711D"/>
<rect width="41.898" height="3.95847" transform="matrix(-1 0 0 1 169.125 410.215)" fill="#E2711D"/>
<rect width="91.8311" height="2.45222" transform="matrix(-1 0 0 1 146.5 255.968)" fill="#E2711D"/>
<rect width="44.25" height="7.91669" transform="matrix(-1 0 0 1 176.667 458.904)" fill="#E2711D"/>
<rect width="40.0674" height="7.74892" transform="matrix(-1 0 0 1 184.208 473.936)" fill="#E2711D"/>
<rect width="165.917" height="7.74892" transform="matrix(-1 0 0 1 184.208 473.936)" fill="#FFB627"/>
<rect opacity="0.3" width="32.0674" height="8.08581" transform="matrix(-1 0 0 1 184.208 481.685)" fill="#E2711D"/>
<rect opacity="0.3" width="22.3629" height="6.71362" transform="matrix(-1 0 0 1 184.208 489.771)" fill="#E2711D"/>
<rect width="50.4421" height="7.15002" transform="matrix(-1 0 0 1 169.125 414.173)" fill="#E2711D"/>
<rect width="49.3333" height="7.71643" transform="matrix(-1 0 0 1 169.125 451.187)" fill="#E2711D"/>
<rect width="49.4167" height="30.8652" transform="matrix(-1 0 0 1 161.583 420.522)" fill="#E2711D"/>
</g>
<defs>
<clipPath id="clip0_224_19772">
<rect width="250.5" height="504" fill="white"/>
</clipPath>
</defs>
</svg>
