<svg width="289" height="398" viewBox="0 0 289 398" fill="none" xmlns="http://www.w3.org/2000/svg">
<g clip-path="url(#clip0_317_30675)">
<path d="M126.542 51.1967L59.1309 93.1811L58.6328 107.056L65.1279 112.296L66.2277 118.895L80.8158 122.098L89.0863 119.252L94.8252 112.461L128.054 119.757L133.576 115.884L137.629 116.774L141.731 119.37L135.251 148.882L125.676 151.865L122.48 166.42L117.224 169.079L115.626 176.356L77.7658 199.827L73.8755 207.872L68.9355 211.025L65.8286 225.175L57.0641 228.336L49.6846 258.075L42.4021 260.29L38.0449 262.723L36.8137 272.2L38.3072 275.07L38.4074 278.483L39.4185 285.485L42.7606 289.609L42.2279 292.035L38.0558 311.036L30.0631 316.485L25.4396 320.132L21.8156 326.964L16.7869 330.521L11.5765 348.447L185.013 386.529L189.007 368.336L186.337 363.088L186.314 355.455L181.339 347.159L176.593 339.76L180.41 322.376L187.731 318.05L189.657 315.083L192.115 309.69L197.233 305.728L198.564 299.664L195.577 293.923L190.842 290.34L157.613 283.044L158.59 278.597L160.454 270.107L167.914 267.084L170.755 254.147L177.038 248.746L181.032 230.553L190.824 224.651L196.327 199.585L201.939 195.308L216.941 126.984L211.195 116.4L212.437 110.74L206.741 101.861L206.425 101.368L203.133 98.9497L200.929 99.3134C199.874 97.6692 196.36 91.1059 192.446 91.518C187.584 90.4502 184.952 83.0919 181.61 78.9679C178.936 75.6686 178.834 73.5555 179.117 72.9114L174.192 66.321L164.822 62.5685L165.443 59.7385L160.164 54.7653L156.228 47.5443L149.949 39.3852L146.595 31.4446L136.897 23.3823L137.962 18.5309L133.91 17.6411L126.542 51.1967Z" fill="#FF9505"/>
<rect x="132.526" y="19.6373" width="6.39716" height="6.38613" transform="rotate(12.3841 132.526 19.6373)" fill="#1E1E1E"/>
<rect x="133.896" y="13.3999" width="6.39716" height="6.38613" transform="rotate(12.3841 133.896 13.3999)" fill="#1E1E1E"/>
<rect x="131.156" y="25.8748" width="6.39716" height="6.38613" transform="rotate(12.3841 131.156 25.8748)" fill="#1E1E1E"/>
<rect x="128.417" y="38.3501" width="6.39716" height="6.38613" transform="rotate(12.3841 128.417 38.3501)" fill="#1E1E1E"/>
<rect x="111.812" y="54.3186" width="6.39716" height="6.38613" transform="rotate(12.3841 111.812 54.3186)" fill="#1E1E1E"/>
<rect x="131.497" y="143.638" width="6.39715" height="6.38612" transform="rotate(12.3841 131.497 143.638)" fill="#1E1E1E"/>
<rect x="49.2398" y="249.804" width="6.39716" height="6.38612" transform="rotate(12.3841 49.2398 249.804)" fill="#1E1E1E"/>
<rect x="36.1435" y="279.62" width="6.39716" height="6.38612" transform="rotate(12.3841 36.1435 279.62)" fill="#1E1E1E"/>
<rect x="186.103" y="312.547" width="6.39715" height="6.38612" transform="rotate(12.3841 186.103 312.547)" fill="#1E1E1E"/>
<rect x="39.6527" y="293.467" width="6.39716" height="6.38612" transform="rotate(12.3841 39.6527 293.467)" fill="#1E1E1E"/>
<rect x="177.115" y="323.65" width="6.39715" height="6.38612" transform="rotate(12.3841 177.115 323.65)" fill="#1E1E1E"/>
<rect x="36.9134" y="305.942" width="6.39716" height="6.38615" transform="rotate(12.3841 36.9134 305.942)" fill="#1E1E1E"/>
<rect x="174.376" y="336.125" width="6.39715" height="6.38615" transform="rotate(12.3841 174.376 336.125)" fill="#1E1E1E"/>
<rect x="29.2956" y="310.807" width="6.39716" height="6.38612" transform="rotate(12.3841 29.2956 310.807)" fill="#1E1E1E"/>
<rect x="179.255" y="343.734" width="6.39715" height="6.38612" transform="rotate(12.3841 179.255 343.734)" fill="#1E1E1E"/>
<rect x="21.6777" y="315.673" width="6.39716" height="6.38612" transform="rotate(12.3841 21.6777 315.673)" fill="#1E1E1E"/>
<rect x="184.134" y="351.344" width="6.39716" height="6.38612" transform="rotate(12.3841 184.134 351.344)" fill="#1E1E1E"/>
<rect x="20.3081" y="321.91" width="6.39716" height="6.38612" transform="rotate(12.3841 20.3081 321.91)" fill="#1E1E1E"/>
<rect x="182.764" y="357.581" width="6.39716" height="6.38612" transform="rotate(12.3841 182.764 357.581)" fill="#1E1E1E"/>
<rect x="12.6902" y="326.776" width="6.39716" height="6.38615" transform="rotate(12.3841 12.6902 326.776)" fill="#1E1E1E"/>
<rect x="187.643" y="365.191" width="6.39715" height="6.38615" transform="rotate(12.3841 187.643 365.191)" fill="#1E1E1E"/>
<rect x="11.3205" y="333.014" width="6.39716" height="6.38612" transform="rotate(12.3841 11.3205 333.014)" fill="#1E1E1E"/>
<rect x="186.273" y="371.429" width="6.39715" height="6.38612" transform="rotate(12.3841 186.273 371.429)" fill="#1E1E1E"/>
<rect x="9.95094" y="339.251" width="6.39716" height="6.38612" transform="rotate(12.3841 9.95094 339.251)" fill="#1E1E1E"/>
<rect x="184.904" y="377.666" width="6.39715" height="6.38612" transform="rotate(12.3841 184.904 377.666)" fill="#1E1E1E"/>
<rect x="8.58136" y="345.489" width="6.39716" height="6.38612" transform="rotate(12.3841 8.58136 345.489)" fill="#1E1E1E"/>
<rect x="14.8297" y="346.861" width="6.39716" height="6.38612" transform="rotate(12.3841 14.8297 346.861)" fill="#1E1E1E"/>
<rect x="77.3127" y="360.58" width="6.39716" height="6.38612" transform="rotate(12.3841 77.3127 360.58)" fill="#1E1E1E"/>
<rect x="87.4996" y="284.358" width="6.39716" height="6.38612" transform="rotate(12.3841 87.4996 284.358)" fill="#1E1E1E"/>
<rect x="70.2945" y="332.886" width="6.39716" height="6.38612" transform="rotate(12.3841 70.2945 332.886)" fill="#1E1E1E"/>
<rect x="91.6084" y="265.645" width="6.39716" height="6.38612" transform="rotate(12.3841 91.6084 265.645)" fill="#1E1E1E"/>
<rect x="139.796" y="374.3" width="6.39716" height="6.38612" transform="rotate(12.3841 139.796 374.3)" fill="#1E1E1E"/>
<rect x="149.983" y="298.078" width="6.39715" height="6.38612" transform="rotate(12.3841 149.983 298.078)" fill="#1E1E1E"/>
<rect x="132.778" y="346.606" width="6.39716" height="6.38612" transform="rotate(12.3841 132.778 346.606)" fill="#1E1E1E"/>
<rect x="154.091" y="279.365" width="6.39715" height="6.38612" transform="rotate(12.3841 154.091 279.365)" fill="#1E1E1E"/>
<rect x="46.0712" y="353.72" width="6.39716" height="6.38612" transform="rotate(12.3841 46.0712 353.72)" fill="#1E1E1E"/>
<rect x="56.258" y="277.498" width="6.39715" height="6.38612" transform="rotate(12.3841 56.258 277.498)" fill="#1E1E1E"/>
<rect x="39.053" y="326.026" width="6.39716" height="6.38612" transform="rotate(12.3841 39.053 326.026)" fill="#1E1E1E"/>
<rect x="60.3669" y="258.785" width="6.39715" height="6.38612" transform="rotate(12.3841 60.3669 258.785)" fill="#1E1E1E"/>
<rect x="108.554" y="367.44" width="6.39715" height="6.38612" transform="rotate(12.3841 108.554 367.44)" fill="#1E1E1E"/>
<rect x="118.741" y="291.218" width="6.39716" height="6.38612" transform="rotate(12.3841 118.741 291.218)" fill="#1E1E1E"/>
<rect x="101.536" y="339.746" width="6.39716" height="6.38612" transform="rotate(12.3841 101.536 339.746)" fill="#1E1E1E"/>
<rect x="122.85" y="272.505" width="6.39716" height="6.38612" transform="rotate(12.3841 122.85 272.505)" fill="#1E1E1E"/>
<rect x="171.037" y="381.16" width="6.39715" height="6.38612" transform="rotate(12.3841 171.037 381.16)" fill="#1E1E1E"/>
<rect x="21.078" y="348.233" width="6.39716" height="6.38612" transform="rotate(12.3841 21.078 348.233)" fill="#1E1E1E"/>
<rect x="83.5611" y="361.952" width="6.39715" height="6.38612" transform="rotate(12.3841 83.5611 361.952)" fill="#1E1E1E"/>
<rect x="93.7478" y="285.73" width="6.39716" height="6.38612" transform="rotate(12.3841 93.7478 285.73)" fill="#1E1E1E"/>
<rect x="76.5428" y="334.258" width="6.39716" height="6.38612" transform="rotate(12.3841 76.5428 334.258)" fill="#1E1E1E"/>
<rect x="97.8566" y="267.017" width="6.39716" height="6.38612" transform="rotate(12.3841 97.8566 267.017)" fill="#1E1E1E"/>
<rect x="146.044" y="375.672" width="6.39715" height="6.38612" transform="rotate(12.3841 146.044 375.672)" fill="#1E1E1E"/>
<rect x="156.231" y="299.45" width="6.39716" height="6.38612" transform="rotate(12.3841 156.231 299.45)" fill="#1E1E1E"/>
<rect x="139.026" y="347.978" width="6.39715" height="6.38612" transform="rotate(12.3841 139.026 347.978)" fill="#1E1E1E"/>
<rect x="160.34" y="280.737" width="6.39716" height="6.38612" transform="rotate(12.3841 160.34 280.737)" fill="#1E1E1E"/>
<rect x="52.3195" y="355.092" width="6.39715" height="6.38612" transform="rotate(12.3841 52.3195 355.092)" fill="#1E1E1E"/>
<rect x="62.5063" y="278.87" width="6.39716" height="6.38612" transform="rotate(12.3841 62.5063 278.87)" fill="#1E1E1E"/>
<rect x="45.3013" y="327.398" width="6.39715" height="6.38612" transform="rotate(12.3841 45.3013 327.398)" fill="#1E1E1E"/>
<rect x="66.6151" y="260.157" width="6.39716" height="6.38612" transform="rotate(12.3841 66.6151 260.157)" fill="#1E1E1E"/>
<rect x="114.803" y="368.812" width="6.39716" height="6.38612" transform="rotate(12.3841 114.803 368.812)" fill="#1E1E1E"/>
<rect x="124.989" y="292.59" width="6.39715" height="6.38612" transform="rotate(12.3841 124.989 292.59)" fill="#1E1E1E"/>
<rect x="107.784" y="341.118" width="6.39716" height="6.38612" transform="rotate(12.3841 107.784 341.118)" fill="#1E1E1E"/>
<rect x="129.098" y="273.877" width="6.39715" height="6.38612" transform="rotate(12.3841 129.098 273.877)" fill="#1E1E1E"/>
<rect x="177.286" y="382.532" width="6.39716" height="6.38612" transform="rotate(12.3841 177.286 382.532)" fill="#1E1E1E"/>
<rect x="27.3263" y="349.604" width="6.39716" height="6.38612" transform="rotate(12.3841 27.3263 349.604)" fill="#1E1E1E"/>
<rect x="89.8094" y="363.324" width="6.39716" height="6.38612" transform="rotate(12.3841 89.8094 363.324)" fill="#1E1E1E"/>
<rect x="99.9962" y="287.102" width="6.39715" height="6.38612" transform="rotate(12.3841 99.9962 287.102)" fill="#1E1E1E"/>
<rect x="82.7911" y="335.63" width="6.39716" height="6.38612" transform="rotate(12.3841 82.7911 335.63)" fill="#1E1E1E"/>
<rect x="104.105" y="268.389" width="6.39715" height="6.38612" transform="rotate(12.3841 104.105 268.389)" fill="#1E1E1E"/>
<rect x="152.292" y="377.044" width="6.39716" height="6.38612" transform="rotate(12.3841 152.292 377.044)" fill="#1E1E1E"/>
<rect x="162.479" y="300.821" width="6.39715" height="6.38612" transform="rotate(12.3841 162.479 300.821)" fill="#1E1E1E"/>
<rect x="145.274" y="349.35" width="6.39716" height="6.38612" transform="rotate(12.3841 145.274 349.35)" fill="#1E1E1E"/>
<rect x="166.588" y="282.109" width="6.39715" height="6.38612" transform="rotate(12.3841 166.588 282.109)" fill="#1E1E1E"/>
<rect x="58.5678" y="356.464" width="6.39716" height="6.38612" transform="rotate(12.3841 58.5678 356.464)" fill="#1E1E1E"/>
<rect x="68.7546" y="280.242" width="6.39715" height="6.38612" transform="rotate(12.3841 68.7546 280.242)" fill="#1E1E1E"/>
<rect x="51.5496" y="328.77" width="6.39716" height="6.38612" transform="rotate(12.3841 51.5496 328.77)" fill="#1E1E1E"/>
<rect x="72.8635" y="261.529" width="6.39715" height="6.38612" transform="rotate(12.3841 72.8635 261.529)" fill="#1E1E1E"/>
<rect x="121.051" y="370.184" width="6.39715" height="6.38612" transform="rotate(12.3841 121.051 370.184)" fill="#1E1E1E"/>
<rect x="131.238" y="293.962" width="6.39716" height="6.38612" transform="rotate(12.3841 131.238 293.962)" fill="#1E1E1E"/>
<rect x="114.033" y="342.49" width="6.39715" height="6.38612" transform="rotate(12.3841 114.033 342.49)" fill="#1E1E1E"/>
<rect x="135.347" y="275.249" width="6.39716" height="6.38612" transform="rotate(12.3841 135.347 275.249)" fill="#1E1E1E"/>
<rect x="183.534" y="383.903" width="6.39715" height="6.38612" transform="rotate(12.3841 183.534 383.903)" fill="#1E1E1E"/>
<rect x="33.5746" y="350.976" width="6.39716" height="6.38612" transform="rotate(12.3841 33.5746 350.976)" fill="#1E1E1E"/>
<rect x="43.7614" y="274.754" width="6.39716" height="6.38612" transform="rotate(12.3841 43.7614 274.754)" fill="#1E1E1E"/>
<rect x="26.5564" y="323.282" width="6.39716" height="6.38612" transform="rotate(12.3841 26.5564 323.282)" fill="#1E1E1E"/>
<rect x="47.8702" y="256.041" width="6.39716" height="6.38612" transform="rotate(12.3841 47.8702 256.041)" fill="#1E1E1E"/>
<rect x="96.0576" y="364.696" width="6.39716" height="6.38612" transform="rotate(12.3841 96.0576 364.696)" fill="#1E1E1E"/>
<rect x="106.244" y="288.474" width="6.39716" height="6.38612" transform="rotate(12.3841 106.244 288.474)" fill="#1E1E1E"/>
<rect x="89.0395" y="337.002" width="6.39715" height="6.38612" transform="rotate(12.3841 89.0395 337.002)" fill="#1E1E1E"/>
<rect x="110.353" y="269.761" width="6.39716" height="6.38612" transform="rotate(12.3841 110.353 269.761)" fill="#1E1E1E"/>
<rect x="158.541" y="378.416" width="6.39715" height="6.38612" transform="rotate(12.3841 158.541 378.416)" fill="#1E1E1E"/>
<rect x="168.728" y="302.193" width="6.39716" height="6.38612" transform="rotate(12.3841 168.728 302.193)" fill="#1E1E1E"/>
<rect x="151.522" y="350.722" width="6.39715" height="6.38612" transform="rotate(12.3841 151.522 350.722)" fill="#1E1E1E"/>
<rect x="174.976" y="303.565" width="6.39715" height="6.38612" transform="rotate(12.3841 174.976 303.565)" fill="#1E1E1E"/>
<rect x="157.771" y="352.093" width="6.39716" height="6.38612" transform="rotate(12.3841 157.771 352.093)" fill="#1E1E1E"/>
<rect x="164.019" y="353.465" width="6.39715" height="6.38612" transform="rotate(12.3841 164.019 353.465)" fill="#1E1E1E"/>
<rect x="170.267" y="354.837" width="6.39715" height="6.38612" transform="rotate(12.3841 170.267 354.837)" fill="#1E1E1E"/>
<rect x="176.516" y="356.209" width="6.39715" height="6.38612" transform="rotate(12.3841 176.516 356.209)" fill="#1E1E1E"/>
<rect x="181.224" y="304.937" width="6.39715" height="6.38612" transform="rotate(12.3841 181.224 304.937)" fill="#1E1E1E"/>
<rect x="172.836" y="283.481" width="6.39716" height="6.38612" transform="rotate(12.3841 172.836 283.481)" fill="#1E1E1E"/>
<rect x="179.085" y="284.853" width="6.39715" height="6.38612" transform="rotate(12.3841 179.085 284.853)" fill="#1E1E1E"/>
<rect x="185.333" y="286.225" width="6.39715" height="6.38612" transform="rotate(12.3841 185.333 286.225)" fill="#1E1E1E"/>
<rect x="64.8161" y="357.836" width="6.39716" height="6.38612" transform="rotate(12.3841 64.8161 357.836)" fill="#1E1E1E"/>
<rect x="75.0029" y="281.614" width="6.39716" height="6.38612" transform="rotate(12.3841 75.0029 281.614)" fill="#1E1E1E"/>
<rect x="57.7979" y="330.142" width="6.39715" height="6.38612" transform="rotate(12.3841 57.7979 330.142)" fill="#1E1E1E"/>
<rect x="79.1117" y="262.901" width="6.39716" height="6.38612" transform="rotate(12.3841 79.1117 262.901)" fill="#1E1E1E"/>
<rect x="127.299" y="371.556" width="6.39716" height="6.38612" transform="rotate(12.3841 127.299 371.556)" fill="#1E1E1E"/>
<rect x="137.486" y="295.334" width="6.39715" height="6.38612" transform="rotate(12.3841 137.486 295.334)" fill="#1E1E1E"/>
<rect x="120.281" y="343.862" width="6.39716" height="6.38612" transform="rotate(12.3841 120.281 343.862)" fill="#1E1E1E"/>
<rect x="141.595" y="276.621" width="6.39715" height="6.38612" transform="rotate(12.3841 141.595 276.621)" fill="#1E1E1E"/>
<rect x="39.8229" y="352.348" width="6.39715" height="6.38612" transform="rotate(12.3841 39.8229 352.348)" fill="#1E1E1E"/>
<rect x="50.0097" y="276.126" width="6.39716" height="6.38612" transform="rotate(12.3841 50.0097 276.126)" fill="#1E1E1E"/>
<rect x="32.8047" y="324.654" width="6.39716" height="6.38612" transform="rotate(12.3841 32.8047 324.654)" fill="#1E1E1E"/>
<rect x="54.1185" y="257.413" width="6.39716" height="6.38612" transform="rotate(12.3841 54.1185 257.413)" fill="#1E1E1E"/>
<rect x="102.306" y="366.068" width="6.39716" height="6.38612" transform="rotate(12.3841 102.306 366.068)" fill="#1E1E1E"/>
<rect x="112.493" y="289.846" width="6.39716" height="6.38612" transform="rotate(12.3841 112.493 289.846)" fill="#1E1E1E"/>
<rect x="95.2878" y="338.374" width="6.39716" height="6.38612" transform="rotate(12.3841 95.2878 338.374)" fill="#1E1E1E"/>
<rect x="116.602" y="271.133" width="6.39716" height="6.38612" transform="rotate(12.3841 116.602 271.133)" fill="#1E1E1E"/>
<rect x="164.789" y="379.788" width="6.39715" height="6.38612" transform="rotate(12.3841 164.789 379.788)" fill="#1E1E1E"/>
<rect x="71.0644" y="359.208" width="6.39716" height="6.38612" transform="rotate(12.3841 71.0644 359.208)" fill="#1E1E1E"/>
<rect x="81.2512" y="282.986" width="6.39716" height="6.38612" transform="rotate(12.3841 81.2512 282.986)" fill="#1E1E1E"/>
<rect x="64.0462" y="331.514" width="6.39716" height="6.38612" transform="rotate(12.3841 64.0462 331.514)" fill="#1E1E1E"/>
<rect x="85.36" y="264.273" width="6.39716" height="6.38612" transform="rotate(12.3841 85.36 264.273)" fill="#1E1E1E"/>
<rect x="133.548" y="372.928" width="6.39715" height="6.38612" transform="rotate(12.3841 133.548 372.928)" fill="#1E1E1E"/>
<rect x="143.734" y="296.706" width="6.39716" height="6.38612" transform="rotate(12.3841 143.734 296.706)" fill="#1E1E1E"/>
<rect x="126.529" y="345.234" width="6.39715" height="6.38612" transform="rotate(12.3841 126.529 345.234)" fill="#1E1E1E"/>
<rect x="147.843" y="277.993" width="6.39716" height="6.38612" transform="rotate(12.3841 147.843 277.993)" fill="#1E1E1E"/>
<rect x="37.5131" y="273.382" width="6.39716" height="6.38612" transform="rotate(12.3841 37.5131 273.382)" fill="#1E1E1E"/>
<rect x="187.473" y="306.309" width="6.39715" height="6.38612" transform="rotate(12.3841 187.473 306.309)" fill="#1E1E1E"/>
<rect x="41.0222" y="287.229" width="6.39716" height="6.38615" transform="rotate(12.3841 41.0222 287.229)" fill="#1E1E1E"/>
<rect x="178.485" y="317.412" width="6.39715" height="6.38615" transform="rotate(12.3841 178.485 317.412)" fill="#1E1E1E"/>
<rect x="38.2831" y="299.704" width="6.39716" height="6.38612" transform="rotate(12.3841 38.2831 299.704)" fill="#1E1E1E"/>
<rect x="175.746" y="329.887" width="6.39715" height="6.38612" transform="rotate(12.3841 175.746 329.887)" fill="#1E1E1E"/>
<rect x="32.6345" y="265.772" width="6.39716" height="6.38612" transform="rotate(12.3841 32.6345 265.772)" fill="#1E1E1E"/>
<rect x="195.09" y="301.443" width="6.39716" height="6.38612" transform="rotate(12.3841 195.09 301.443)" fill="#1E1E1E"/>
<rect x="34.004" y="259.535" width="6.39716" height="6.38612" transform="rotate(12.3841 34.004 259.535)" fill="#1E1E1E"/>
<rect x="196.46" y="295.206" width="6.39716" height="6.38612" transform="rotate(12.3841 196.46 295.206)" fill="#1E1E1E"/>
<rect x="41.6219" y="254.67" width="6.39716" height="6.38612" transform="rotate(12.3841 41.6219 254.67)" fill="#1E1E1E"/>
<rect x="191.581" y="287.597" width="6.39715" height="6.38612" transform="rotate(12.3841 191.581 287.597)" fill="#1E1E1E"/>
<rect x="50.6094" y="243.567" width="6.39716" height="6.38615" transform="rotate(12.3841 50.6094 243.567)" fill="#1E1E1E"/>
<rect x="51.979" y="237.329" width="6.39716" height="6.38612" transform="rotate(12.3841 51.979 237.329)" fill="#1E1E1E"/>
<rect x="53.3486" y="231.091" width="6.39716" height="6.38612" transform="rotate(12.3841 53.3486 231.091)" fill="#1E1E1E"/>
<rect x="54.7182" y="224.854" width="6.39716" height="6.38615" transform="rotate(12.3841 54.7182 224.854)" fill="#1E1E1E"/>
<rect x="62.3361" y="219.988" width="6.39716" height="6.38612" transform="rotate(12.3841 62.3361 219.988)" fill="#1E1E1E"/>
<rect x="63.7057" y="213.751" width="6.39716" height="6.38611" transform="rotate(12.3841 63.7057 213.751)" fill="#1E1E1E"/>
<rect x="65.0753" y="207.513" width="6.39716" height="6.38614" transform="rotate(12.3841 65.0753 207.513)" fill="#1E1E1E"/>
<rect x="72.6932" y="202.648" width="6.39715" height="6.38614" transform="rotate(12.3841 72.6932 202.648)" fill="#1E1E1E"/>
<rect x="74.0628" y="196.41" width="6.39715" height="6.38614" transform="rotate(12.3841 74.0628 196.41)" fill="#1E1E1E"/>
<rect x="81.6807" y="191.545" width="6.39716" height="6.38612" transform="rotate(12.3841 81.6807 191.545)" fill="#1E1E1E"/>
<rect x="89.2986" y="186.679" width="6.39715" height="6.38612" transform="rotate(12.3841 89.2986 186.679)" fill="#1E1E1E"/>
<rect x="96.9165" y="181.813" width="6.39716" height="6.38612" transform="rotate(12.3841 96.9165 181.813)" fill="#1E1E1E"/>
<rect x="104.534" y="176.948" width="6.39716" height="6.38614" transform="rotate(12.3841 104.534 176.948)" fill="#1E1E1E"/>
<rect x="112.152" y="172.082" width="6.39716" height="6.38612" transform="rotate(12.3841 112.152 172.082)" fill="#1E1E1E"/>
<rect x="113.522" y="165.845" width="6.39716" height="6.38614" transform="rotate(12.3841 113.522 165.845)" fill="#1E1E1E"/>
<rect x="121.14" y="160.979" width="6.39716" height="6.38612" transform="rotate(12.3841 121.14 160.979)" fill="#1E1E1E"/>
<rect x="122.509" y="154.741" width="6.39716" height="6.38614" transform="rotate(12.3841 122.509 154.741)" fill="#1E1E1E"/>
<rect x="123.879" y="148.504" width="6.39716" height="6.38612" transform="rotate(12.3841 123.879 148.504)" fill="#1E1E1E"/>
<rect x="132.867" y="137.401" width="6.39715" height="6.38614" transform="rotate(12.3841 132.867 137.401)" fill="#1E1E1E"/>
<rect x="134.236" y="131.164" width="6.39715" height="6.38612" transform="rotate(12.3841 134.236 131.164)" fill="#1E1E1E"/>
<rect x="135.606" y="124.926" width="6.39715" height="6.38614" transform="rotate(12.3841 135.606 124.926)" fill="#1E1E1E"/>
<rect x="136.975" y="118.688" width="6.39715" height="6.38612" transform="rotate(12.3841 136.975 118.688)" fill="#1E1E1E"/>
<rect x="138.345" y="112.451" width="6.39715" height="6.38614" transform="rotate(12.3841 138.345 112.451)" fill="#1E1E1E"/>
<rect x="132.097" y="111.079" width="6.39716" height="6.38614" transform="rotate(12.3841 132.097 111.079)" fill="#1E1E1E"/>
<rect x="124.479" y="115.944" width="6.39716" height="6.38612" transform="rotate(12.3841 124.479 115.944)" fill="#1E1E1E"/>
<rect x="118.23" y="114.572" width="6.39716" height="6.38612" transform="rotate(12.3841 118.23 114.572)" fill="#1E1E1E"/>
<rect x="111.982" y="113.2" width="6.39716" height="6.38612" transform="rotate(12.3841 111.982 113.2)" fill="#1E1E1E"/>
<rect x="105.734" y="111.828" width="6.39715" height="6.38612" transform="rotate(12.3841 105.734 111.828)" fill="#1E1E1E"/>
<rect x="99.4855" y="110.456" width="6.39716" height="6.38612" transform="rotate(12.3841 99.4855 110.456)" fill="#1E1E1E"/>
<rect x="93.2372" y="109.085" width="6.39715" height="6.38612" transform="rotate(12.3841 93.2372 109.085)" fill="#1E1E1E"/>
<rect x="85.6193" y="113.95" width="6.39716" height="6.38614" transform="rotate(12.3841 85.6193 113.95)" fill="#1E1E1E"/>
<rect x="78.0013" y="118.816" width="6.39716" height="6.38612" transform="rotate(12.3841 78.0013 118.816)" fill="#1E1E1E"/>
<rect x="71.753" y="117.444" width="6.39716" height="6.38612" transform="rotate(12.3841 71.753 117.444)" fill="#1E1E1E"/>
<rect x="65.5047" y="116.072" width="6.39716" height="6.38612" transform="rotate(12.3841 65.5047 116.072)" fill="#1E1E1E"/>
<rect x="60.626" y="108.462" width="6.39716" height="6.38614" transform="rotate(12.3841 60.626 108.462)" fill="#1E1E1E"/>
<rect x="55.7473" y="100.853" width="6.39716" height="6.38612" transform="rotate(12.3841 55.7473 100.853)" fill="#1E1E1E"/>
<rect x="57.1169" y="94.6153" width="6.39716" height="6.38614" transform="rotate(12.3841 57.1169 94.6153)" fill="#1E1E1E"/>
<rect x="58.4865" y="88.3778" width="6.39716" height="6.38612" transform="rotate(12.3841 58.4865 88.3778)" fill="#1E1E1E"/>
<rect x="66.1043" y="83.5123" width="6.39716" height="6.38613" transform="rotate(12.3841 66.1043 83.5123)" fill="#1E1E1E"/>
<rect x="73.7223" y="78.6464" width="6.39716" height="6.38613" transform="rotate(12.3841 73.7223 78.6464)" fill="#1E1E1E"/>
<rect x="81.3402" y="73.7809" width="6.39716" height="6.38613" transform="rotate(12.3841 81.3402 73.7809)" fill="#1E1E1E"/>
<rect x="88.9581" y="68.9154" width="6.39716" height="6.38612" transform="rotate(12.3841 88.9581 68.9154)" fill="#1E1E1E"/>
<rect x="96.576" y="64.0499" width="6.39716" height="6.38613" transform="rotate(12.3841 96.576 64.0499)" fill="#1E1E1E"/>
<rect x="104.194" y="59.1844" width="6.39715" height="6.38613" transform="rotate(12.3841 104.194 59.1844)" fill="#1E1E1E"/>
<rect x="119.43" y="49.4531" width="6.39715" height="6.38613" transform="rotate(12.3841 119.43 49.4531)" fill="#1E1E1E"/>
<rect x="127.048" y="44.5876" width="6.39716" height="6.38613" transform="rotate(12.3841 127.048 44.5876)" fill="#1E1E1E"/>
<rect x="129.787" y="32.1127" width="6.39716" height="6.38613" transform="rotate(12.3841 129.787 32.1127)" fill="#1E1E1E"/>
<rect x="138.774" y="21.0093" width="6.39716" height="6.38613" transform="rotate(12.3841 138.774 21.0093)" fill="#1E1E1E"/>
<rect x="143.653" y="28.6187" width="6.39716" height="6.38613" transform="rotate(12.3841 143.653 28.6187)" fill="#1E1E1E"/>
<rect x="148.532" y="36.2285" width="6.39716" height="6.38613" transform="rotate(12.3841 148.532 36.2285)" fill="#1E1E1E"/>
<rect x="153.41" y="43.838" width="6.39715" height="6.38613" transform="rotate(12.3841 153.41 43.838)" fill="#1E1E1E"/>
<rect x="198.704" y="283.023" width="7.419" height="6.06359" transform="rotate(12.3841 198.704 283.023)" fill="#1E1E1E"/>
<rect x="208.551" y="272.769" width="7.419" height="6.06359" transform="rotate(12.3841 208.551 272.769)" fill="#1E1E1E"/>
<rect x="219.699" y="256.592" width="7.41899" height="6.06361" transform="rotate(12.3841 219.699 256.592)" fill="#1E1E1E"/>
<rect x="232.147" y="234.493" width="7.419" height="6.06361" transform="rotate(12.3841 232.147 234.493)" fill="#1E1E1E"/>
<rect x="245.895" y="206.472" width="7.419" height="6.06359" transform="rotate(12.3841 245.895 206.472)" fill="#1E1E1E"/>
<rect x="252.397" y="176.859" width="7.419" height="6.06361" transform="rotate(12.3841 252.397 176.859)" fill="#1E1E1E"/>
<rect x="200.004" y="277.1" width="7.419" height="6.06362" transform="rotate(12.3841 200.004 277.1)" fill="#1E1E1E"/>
<rect x="209.851" y="266.846" width="7.419" height="6.06362" transform="rotate(12.3841 209.851 266.846)" fill="#1E1E1E"/>
<rect x="220.999" y="250.67" width="7.41899" height="6.06361" transform="rotate(12.3841 220.999 250.67)" fill="#1E1E1E"/>
<rect x="233.447" y="228.571" width="7.419" height="6.06361" transform="rotate(12.3841 233.447 228.571)" fill="#1E1E1E"/>
<rect x="247.196" y="200.549" width="7.419" height="6.06361" transform="rotate(12.3841 247.196 200.549)" fill="#1E1E1E"/>
<rect x="253.698" y="170.937" width="7.419" height="6.06361" transform="rotate(12.3841 253.698 170.937)" fill="#1E1E1E"/>
<rect x="211.152" y="260.923" width="7.419" height="6.06359" transform="rotate(12.3841 211.152 260.923)" fill="#1E1E1E"/>
<rect x="222.299" y="244.747" width="7.41899" height="6.06361" transform="rotate(12.3841 222.299 244.747)" fill="#1E1E1E"/>
<rect x="234.748" y="222.648" width="7.419" height="6.06361" transform="rotate(12.3841 234.748 222.648)" fill="#1E1E1E"/>
<rect x="248.496" y="194.627" width="7.419" height="6.06361" transform="rotate(12.3841 248.496 194.627)" fill="#1E1E1E"/>
<rect x="254.998" y="165.014" width="7.419" height="6.06361" transform="rotate(12.3841 254.998 165.014)" fill="#1E1E1E"/>
<rect x="251.653" y="145.655" width="7.419" height="6.06361" transform="rotate(12.3841 251.653 145.655)" fill="#1E1E1E"/>
<rect x="223.6" y="238.825" width="7.41899" height="6.06361" transform="rotate(12.3841 223.6 238.825)" fill="#1E1E1E"/>
<rect x="236.048" y="216.726" width="7.419" height="6.06361" transform="rotate(12.3841 236.048 216.726)" fill="#1E1E1E"/>
<rect x="249.797" y="188.704" width="7.419" height="6.06361" transform="rotate(12.3841 249.797 188.704)" fill="#1E1E1E"/>
<rect x="256.299" y="159.091" width="7.419" height="6.06361" transform="rotate(12.3841 256.299 159.091)" fill="#1E1E1E"/>
<rect x="252.954" y="139.733" width="7.419" height="6.06361" transform="rotate(12.3841 252.954 139.733)" fill="#1E1E1E"/>
<rect x="248.308" y="126.297" width="7.41899" height="6.06361" transform="rotate(12.3841 248.308 126.297)" fill="#1E1E1E"/>
<rect x="243.663" y="112.86" width="7.419" height="6.06361" transform="rotate(12.3841 243.663 112.86)" fill="#1E1E1E"/>
<rect x="237.348" y="210.803" width="7.419" height="6.06361" transform="rotate(12.3841 237.348 210.803)" fill="#1E1E1E"/>
<rect x="251.097" y="182.782" width="7.419" height="6.06361" transform="rotate(12.3841 251.097 182.782)" fill="#1E1E1E"/>
<rect x="257.599" y="153.169" width="7.419" height="6.06361" transform="rotate(12.3841 257.599 153.169)" fill="#1E1E1E"/>
<rect x="254.254" y="133.81" width="7.419" height="6.0636" transform="rotate(12.3841 254.254 133.81)" fill="#1E1E1E"/>
<rect x="249.608" y="120.374" width="7.41899" height="6.06361" transform="rotate(12.3841 249.608 120.374)" fill="#1E1E1E"/>
<rect x="244.963" y="106.938" width="7.419" height="6.06361" transform="rotate(12.3841 244.963 106.938)" fill="#1E1E1E"/>
<rect x="239.017" y="99.4245" width="7.419" height="6.06361" transform="rotate(12.3841 239.017 99.4245)" fill="#1E1E1E"/>
<rect x="233.071" y="91.9109" width="7.419" height="6.0636" transform="rotate(12.3841 233.071 91.9109)" fill="#1E1E1E"/>
<rect x="227.125" y="84.3973" width="7.419" height="6.06361" transform="rotate(12.3841 227.125 84.3973)" fill="#1E1E1E"/>
<rect x="221.179" y="76.8838" width="7.41899" height="6.06361" transform="rotate(12.3841 221.179 76.8838)" fill="#1E1E1E"/>
<rect x="215.233" y="69.3698" width="7.41901" height="6.06361" transform="rotate(12.3841 215.233 69.3698)" fill="#1E1E1E"/>
<rect x="209.287" y="61.8562" width="7.419" height="6.06361" transform="rotate(12.3841 209.287 61.8562)" fill="#1E1E1E"/>
<rect x="196.095" y="52.7516" width="7.419" height="6.06361" transform="rotate(12.3841 196.095 52.7516)" fill="#1E1E1E"/>
<rect x="202.041" y="60.2651" width="7.419" height="6.06361" transform="rotate(12.3841 202.041 60.2651)" fill="#1E1E1E"/>
<rect x="188.849" y="51.1605" width="7.419" height="6.06361" transform="rotate(12.3841 188.849 51.1605)" fill="#1E1E1E"/>
<rect x="181.602" y="49.5694" width="7.419" height="6.06361" transform="rotate(12.3841 181.602 49.5694)" fill="#1E1E1E"/>
<rect x="158.563" y="50.7185" width="7.419" height="6.06361" transform="rotate(12.3841 158.563 50.7185)" fill="#1E1E1E"/>
<rect x="167.109" y="46.3872" width="14.838" height="6.06361" transform="rotate(12.3841 167.109 46.3872)" fill="#FEF57D"/>
<rect x="165.809" y="52.3096" width="37.095" height="6.06361" transform="rotate(12.3841 165.809 52.3096)" fill="#FEF57D"/>
<rect x="164.509" y="58.232" width="51.933" height="6.06361" transform="rotate(12.3841 164.509 58.232)" fill="#FEF57D"/>
<rect x="170.454" y="65.746" width="51.933" height="6.06361" transform="rotate(12.3841 170.454 65.746)" fill="#FEF57D"/>
<rect x="176.4" y="73.2596" width="51.933" height="6.06361" transform="rotate(12.3841 176.4 73.2596)" fill="#FEF57D"/>
<rect x="182.346" y="80.7731" width="51.933" height="6.0636" transform="rotate(12.3841 182.346 80.7731)" fill="#FEF57D"/>
<rect x="194.238" y="95.8002" width="51.933" height="6.06361" transform="rotate(12.3841 194.238 95.8002)" fill="#FEF57D"/>
<rect x="192.938" y="101.723" width="51.933" height="6.06361" transform="rotate(12.3841 192.938 101.723)" fill="#FEF57D"/>
<rect x="198.884" y="109.237" width="51.933" height="6.06361" transform="rotate(12.3841 198.884 109.237)" fill="#FEF57D"/>
<rect x="197.583" y="115.159" width="51.933" height="6.06361" transform="rotate(12.3841 197.583 115.159)" fill="#FEF57D"/>
<rect x="203.529" y="122.673" width="51.933" height="6.0636" transform="rotate(12.3841 203.529 122.673)" fill="#FEF57D"/>
<rect x="202.229" y="128.595" width="51.933" height="6.06361" transform="rotate(12.3841 202.229 128.595)" fill="#FEF57D"/>
<rect x="200.929" y="134.518" width="51.933" height="6.06361" transform="rotate(12.3841 200.929 134.518)" fill="#FEF57D"/>
<rect x="206.875" y="142.031" width="51.933" height="6.06361" transform="rotate(12.3841 206.875 142.031)" fill="#FEF57D"/>
<rect x="205.574" y="147.954" width="51.933" height="6.06361" transform="rotate(12.3841 205.574 147.954)" fill="#FEF57D"/>
<rect x="204.274" y="153.876" width="51.933" height="6.06361" transform="rotate(12.3841 204.274 153.876)" fill="#FEF57D"/>
<rect x="202.973" y="159.799" width="51.933" height="6.06361" transform="rotate(12.3841 202.973 159.799)" fill="#FEF57D"/>
<rect x="201.673" y="165.721" width="51.933" height="6.06361" transform="rotate(12.3841 201.673 165.721)" fill="#FEF57D"/>
<rect x="200.372" y="171.644" width="51.933" height="6.06361" transform="rotate(12.3841 200.372 171.644)" fill="#FEF57D"/>
<rect x="199.072" y="177.566" width="51.933" height="6.06361" transform="rotate(12.3841 199.072 177.566)" fill="#FEF57D"/>
<rect x="197.772" y="183.489" width="51.933" height="6.06361" transform="rotate(12.3841 197.772 183.489)" fill="#FEF57D"/>
<rect x="196.471" y="189.412" width="51.933" height="6.06361" transform="rotate(12.3841 196.471 189.412)" fill="#FEF57D"/>
<rect x="195.171" y="195.334" width="51.933" height="6.06359" transform="rotate(12.3841 195.171 195.334)" fill="#FEF57D"/>
<rect x="186.624" y="199.665" width="51.933" height="6.06361" transform="rotate(12.3841 186.624 199.665)" fill="#FEF57D"/>
<rect x="185.323" y="205.588" width="51.933" height="6.06361" transform="rotate(12.3841 185.323 205.588)" fill="#FEF57D"/>
<rect x="184.023" y="211.51" width="51.933" height="6.06361" transform="rotate(12.3841 184.023 211.51)" fill="#FEF57D"/>
<rect x="182.723" y="217.433" width="51.933" height="6.06361" transform="rotate(12.3841 182.723 217.433)" fill="#FEF57D"/>
<rect x="181.422" y="223.355" width="51.933" height="6.06361" transform="rotate(12.3841 181.422 223.355)" fill="#FEF57D"/>
<rect x="172.875" y="227.687" width="51.933" height="6.06361" transform="rotate(12.3841 172.875 227.687)" fill="#FEF57D"/>
<rect x="171.575" y="233.609" width="51.933" height="6.06361" transform="rotate(12.3841 171.575 233.609)" fill="#FEF57D"/>
<rect x="170.274" y="239.532" width="51.933" height="6.06361" transform="rotate(12.3841 170.274 239.532)" fill="#FEF57D"/>
<rect x="168.974" y="245.454" width="51.933" height="6.06361" transform="rotate(12.3841 168.974 245.454)" fill="#FEF57D"/>
<rect x="160.427" y="249.786" width="51.933" height="6.06359" transform="rotate(12.3841 160.427 249.786)" fill="#FEF57D"/>
<rect x="159.127" y="255.708" width="51.933" height="6.06362" transform="rotate(12.3841 159.127 255.708)" fill="#FEF57D"/>
<rect x="157.826" y="261.631" width="51.933" height="6.06359" transform="rotate(12.3841 157.826 261.631)" fill="#FEF57D"/>
<rect x="149.28" y="265.962" width="51.933" height="6.06362" transform="rotate(12.3841 149.28 265.962)" fill="#FEF57D"/>
<rect x="147.979" y="271.885" width="51.933" height="6.06359" transform="rotate(12.3841 147.979 271.885)" fill="#FEF57D"/>
<rect x="188.292" y="88.2867" width="51.933" height="6.06361" transform="rotate(12.3841 188.292 88.2867)" fill="#FEF57D"/>
<rect x="159.863" y="44.7961" width="7.419" height="6.06361" transform="rotate(12.3841 159.863 44.7961)" fill="#1E1E1E"/>
<rect x="161.163" y="38.8736" width="7.419" height="6.06361" transform="rotate(12.3841 161.163 38.8736)" fill="#1E1E1E"/>
<rect x="168.41" y="40.4647" width="7.419" height="6.06361" transform="rotate(12.3841 168.41 40.4647)" fill="#1E1E1E"/>
<rect x="175.656" y="42.0558" width="7.419" height="6.06361" transform="rotate(12.3841 175.656 42.0558)" fill="#1E1E1E"/>
<rect x="206.686" y="73.7015" width="7.419" height="6.06361" transform="rotate(12.3841 206.686 73.7015)" fill="#E6DA3C"/>
<rect x="212.632" y="81.2151" width="7.41901" height="6.06361" transform="rotate(12.3841 212.632 81.2151)" fill="#E6DA3C"/>
<rect x="218.578" y="88.7286" width="7.41899" height="6.0636" transform="rotate(12.3841 218.578 88.7286)" fill="#E6DA3C"/>
<rect x="224.524" y="96.2423" width="7.419" height="6.06361" transform="rotate(12.3841 224.524 96.2423)" fill="#E6DA3C"/>
<rect x="230.47" y="103.756" width="7.419" height="6.06361" transform="rotate(12.3841 230.47 103.756)" fill="#E6DA3C"/>
<rect x="229.17" y="109.678" width="7.419" height="6.06361" transform="rotate(12.3841 229.17 109.678)" fill="#E6DA3C"/>
<rect x="235.116" y="117.192" width="7.419" height="6.06361" transform="rotate(12.3841 235.116 117.192)" fill="#E6DA3C"/>
<rect x="233.815" y="123.115" width="7.419" height="6.06361" transform="rotate(12.3841 233.815 123.115)" fill="#E6DA3C"/>
<rect x="239.761" y="130.628" width="7.419" height="6.0636" transform="rotate(12.3841 239.761 130.628)" fill="#E6DA3C"/>
<rect x="125.064" y="134.941" width="5.23897" height="5.23897" transform="rotate(12.3841 125.064 134.941)" fill="#4E3B72"/>
<rect x="123.94" y="140.058" width="5.23897" height="5.23897" transform="rotate(12.3841 123.94 140.058)" fill="#4E3B72"/>
<rect x="117.699" y="144.052" width="5.23896" height="5.23897" transform="rotate(12.3841 117.699 144.052)" fill="#4E3B72"/>
<rect x="116.576" y="149.169" width="5.23896" height="5.23897" transform="rotate(12.3841 116.576 149.169)" fill="#4E3B72"/>
<rect x="115.452" y="154.286" width="5.23896" height="5.23897" transform="rotate(12.3841 115.452 154.286)" fill="#4E3B72"/>
<rect x="114.329" y="159.403" width="5.23896" height="5.23897" transform="rotate(12.3841 114.329 159.403)" fill="#4E3B72"/>
<rect x="193.332" y="166.022" width="5.23897" height="5.23897" transform="rotate(12.3841 193.332 166.022)" fill="#9673D7"/>
<rect x="192.208" y="171.139" width="5.23897" height="5.23897" transform="rotate(12.3841 192.208 171.139)" fill="#9673D7"/>
<rect x="191.085" y="176.256" width="5.23897" height="5.23897" transform="rotate(12.3841 191.085 176.256)" fill="#9673D7"/>
<rect x="118.322" y="165.643" width="5.23897" height="5.23897" transform="rotate(12.3841 118.322 165.643)" fill="#4E3B72"/>
<rect x="117.199" y="170.761" width="5.23897" height="5.23897" transform="rotate(12.3841 117.199 170.761)" fill="#4E3B72"/>
<rect x="121.192" y="177.001" width="5.23897" height="5.23897" transform="rotate(12.3841 121.192 177.001)" fill="#4E3B72"/>
<rect x="126.309" y="178.125" width="5.23896" height="5.23897" transform="rotate(12.3841 126.309 178.125)" fill="#4E3B72"/>
<rect x="131.304" y="130.948" width="5.23897" height="5.23897" transform="rotate(12.3841 131.304 130.948)" fill="#4E3B72"/>
<rect x="136.421" y="132.071" width="5.23896" height="5.23897" transform="rotate(12.3841 136.421 132.071)" fill="#4E3B72"/>
<rect x="140.415" y="138.312" width="5.23898" height="5.23897" transform="rotate(12.3841 140.415 138.312)" fill="#9673D7"/>
<rect x="144.408" y="144.552" width="5.23896" height="5.23897" transform="rotate(12.3841 144.408 144.552)" fill="#4E3B72"/>
<rect x="148.402" y="150.793" width="5.23898" height="5.23897" transform="rotate(12.3841 148.402 150.793)" fill="#9673D7"/>
<rect x="175.111" y="151.294" width="5.23897" height="5.23897" transform="rotate(12.3841 175.111 151.294)" fill="#4E3B72"/>
<rect x="169.994" y="150.17" width="5.23895" height="5.23897" transform="rotate(12.3841 169.994 150.17)" fill="#4E3B72"/>
<rect x="163.753" y="154.164" width="5.23898" height="5.23897" transform="rotate(12.3841 163.753 154.164)" fill="#9673D7"/>
<rect x="158.636" y="153.04" width="5.23896" height="5.23897" transform="rotate(12.3841 158.636 153.04)" fill="#9673D7"/>
<rect x="153.519" y="151.917" width="5.23896" height="5.23897" transform="rotate(12.3841 153.519 151.917)" fill="#9673D7"/>
<rect x="147.278" y="155.91" width="5.23898" height="5.23897" transform="rotate(12.3841 147.278 155.91)" fill="#9673D7"/>
<rect x="162.629" y="159.281" width="5.23898" height="5.23897" transform="rotate(12.3841 162.629 159.281)" fill="#9673D7"/>
<rect x="157.512" y="158.157" width="5.23896" height="5.23897" transform="rotate(12.3841 157.512 158.157)" fill="#9673D7"/>
<rect x="152.395" y="157.034" width="5.23896" height="5.23897" transform="rotate(12.3841 152.395 157.034)" fill="#9673D7"/>
<rect x="146.155" y="161.027" width="5.23898" height="5.23897" transform="rotate(12.3841 146.155 161.027)" fill="#9673D7"/>
<rect x="161.506" y="164.398" width="5.23898" height="5.23897" transform="rotate(12.3841 161.506 164.398)" fill="#9673D7"/>
<rect x="156.389" y="163.274" width="5.23896" height="5.23897" transform="rotate(12.3841 156.389 163.274)" fill="#9673D7"/>
<rect x="151.272" y="162.151" width="5.23896" height="5.23897" transform="rotate(12.3841 151.272 162.151)" fill="#9673D7"/>
<rect x="173.987" y="156.411" width="5.23897" height="5.23897" transform="rotate(12.3841 173.987 156.411)" fill="#9673D7"/>
<rect x="189.338" y="159.782" width="5.23897" height="5.23897" transform="rotate(12.3841 189.338 159.782)" fill="#9673D7"/>
<rect x="184.221" y="158.658" width="5.23894" height="5.23897" transform="rotate(12.3841 184.221 158.658)" fill="#9673D7"/>
<rect x="179.104" y="157.534" width="5.23898" height="5.23897" transform="rotate(12.3841 179.104 157.534)" fill="#9673D7"/>
<rect x="180.228" y="152.417" width="5.23898" height="5.23897" transform="rotate(12.3841 180.228 152.417)" fill="#9673D7"/>
<rect x="180.228" y="152.417" width="10.4779" height="5.23897" transform="rotate(12.3841 180.228 152.417)" fill="#9673D7"/>
<rect x="180.228" y="152.417" width="15.7169" height="5.23897" transform="rotate(12.3841 180.228 152.417)" fill="#9673D7"/>
<rect x="181.351" y="147.3" width="15.7169" height="5.23897" transform="rotate(12.3841 181.351 147.3)" fill="#9673D7"/>
<rect x="172.863" y="161.528" width="5.23897" height="5.23897" transform="rotate(12.3841 172.863 161.528)" fill="#9673D7"/>
<rect x="188.215" y="164.899" width="5.23897" height="5.23897" transform="rotate(12.3841 188.215 164.899)" fill="#9673D7"/>
<rect x="183.098" y="163.775" width="5.23894" height="5.23897" transform="rotate(12.3841 183.098 163.775)" fill="#9673D7"/>
<rect x="177.981" y="162.652" width="5.23898" height="5.23897" transform="rotate(12.3841 177.981 162.652)" fill="#9673D7"/>
<rect x="171.74" y="166.645" width="5.23897" height="5.23897" transform="rotate(12.3841 171.74 166.645)" fill="#9673D7"/>
<rect x="187.091" y="170.016" width="5.23897" height="5.23897" transform="rotate(12.3841 187.091 170.016)" fill="#9673D7"/>
<rect x="181.974" y="168.892" width="5.23894" height="5.23897" transform="rotate(12.3841 181.974 168.892)" fill="#9673D7"/>
<rect x="176.857" y="167.769" width="5.23898" height="5.23897" transform="rotate(12.3841 176.857 167.769)" fill="#9673D7"/>
<rect x="170.616" y="171.762" width="5.23897" height="5.23897" transform="rotate(12.3841 170.616 171.762)" fill="#9673D7"/>
<rect x="185.968" y="175.133" width="5.23897" height="5.23897" transform="rotate(12.3841 185.968 175.133)" fill="#9673D7"/>
<rect x="180.85" y="174.009" width="5.23894" height="5.23897" transform="rotate(12.3841 180.85 174.009)" fill="#9673D7"/>
<rect x="175.733" y="172.886" width="5.23898" height="5.23897" transform="rotate(12.3841 175.733 172.886)" fill="#9673D7"/>
<rect x="169.493" y="176.879" width="5.23897" height="5.23897" transform="rotate(12.3841 169.493 176.879)" fill="#9673D7"/>
<rect x="184.844" y="180.25" width="5.23897" height="5.23897" transform="rotate(12.3841 184.844 180.25)" fill="#4E3B72"/>
<rect x="179.727" y="179.126" width="5.23894" height="5.23897" transform="rotate(12.3841 179.727 179.126)" fill="#9673D7"/>
<rect x="174.61" y="178.003" width="5.23898" height="5.23897" transform="rotate(12.3841 174.61 178.003)" fill="#9673D7"/>
<rect x="168.369" y="181.996" width="5.23897" height="5.23897" transform="rotate(12.3841 168.369 181.996)" fill="#9673D7"/>
<rect x="183.72" y="185.367" width="5.23897" height="5.23897" transform="rotate(12.3841 183.72 185.367)" fill="#4E3B72"/>
<rect x="178.603" y="184.243" width="5.23894" height="5.23897" transform="rotate(12.3841 178.603 184.243)" fill="#9673D7"/>
<rect x="173.486" y="183.12" width="5.23898" height="5.23897" transform="rotate(12.3841 173.486 183.12)" fill="#9673D7"/>
<rect x="122.816" y="145.175" width="5.23897" height="5.23897" transform="rotate(12.3841 122.816 145.175)" fill="#9673D7"/>
<rect x="138.168" y="148.546" width="5.23898" height="5.23897" transform="rotate(12.3841 138.168 148.546)" fill="#9673D7"/>
<rect x="133.051" y="147.422" width="5.23896" height="5.23897" transform="rotate(12.3841 133.051 147.422)" fill="#9673D7"/>
<rect x="127.933" y="146.299" width="5.23897" height="5.23897" transform="rotate(12.3841 127.933 146.299)" fill="#9673D7"/>
<rect x="139.291" y="143.429" width="5.23898" height="5.23897" transform="rotate(12.3841 139.291 143.429)" fill="#9673D7"/>
<rect x="134.174" y="142.305" width="5.23896" height="5.23897" transform="rotate(12.3841 134.174 142.305)" fill="#9673D7"/>
<rect x="129.057" y="141.182" width="5.23897" height="5.23897" transform="rotate(12.3841 129.057 141.182)" fill="#9673D7"/>
<rect x="140.415" y="138.312" width="5.23898" height="5.23897" transform="rotate(12.3841 140.415 138.312)" fill="#4E3B72"/>
<rect x="135.298" y="137.188" width="5.23896" height="5.23897" transform="rotate(12.3841 135.298 137.188)" fill="#9673D7"/>
<rect x="130.181" y="136.065" width="5.23897" height="5.23897" transform="rotate(12.3841 130.181 136.065)" fill="#9673D7"/>
<rect x="121.693" y="150.292" width="5.23897" height="5.23897" transform="rotate(12.3841 121.693 150.292)" fill="#9673D7"/>
<rect x="137.044" y="153.663" width="5.23898" height="5.23897" transform="rotate(12.3841 137.044 153.663)" fill="#9673D7"/>
<rect x="131.927" y="152.539" width="5.23896" height="5.23897" transform="rotate(12.3841 131.927 152.539)" fill="#9673D7"/>
<rect x="126.81" y="151.416" width="5.23897" height="5.23897" transform="rotate(12.3841 126.81 151.416)" fill="#9673D7"/>
<rect x="120.569" y="155.409" width="5.23897" height="5.23897" transform="rotate(12.3841 120.569 155.409)" fill="#9673D7"/>
<rect x="135.92" y="158.78" width="5.23898" height="5.23897" transform="rotate(12.3841 135.92 158.78)" fill="#9673D7"/>
<rect x="130.803" y="157.656" width="5.23896" height="5.23897" transform="rotate(12.3841 130.803 157.656)" fill="#9673D7"/>
<rect x="125.686" y="156.533" width="5.23897" height="5.23897" transform="rotate(12.3841 125.686 156.533)" fill="#9673D7"/>
<rect x="119.446" y="160.526" width="5.23897" height="5.23897" transform="rotate(12.3841 119.446 160.526)" fill="#9673D7"/>
<rect x="134.797" y="163.897" width="5.23898" height="5.23897" transform="rotate(12.3841 134.797 163.897)" fill="#9673D7"/>
<rect x="129.68" y="162.774" width="5.23896" height="5.23897" transform="rotate(12.3841 129.68 162.774)" fill="#9673D7"/>
<rect x="124.563" y="161.65" width="5.23897" height="5.23897" transform="rotate(12.3841 124.563 161.65)" fill="#9673D7"/>
<rect x="133.673" y="169.014" width="5.23898" height="5.23897" transform="rotate(12.3841 133.673 169.014)" fill="#9673D7"/>
<rect x="128.556" y="167.891" width="5.23896" height="5.23897" transform="rotate(12.3841 128.556 167.891)" fill="#9673D7"/>
<rect x="123.439" y="166.767" width="5.23897" height="5.23897" transform="rotate(12.3841 123.439 166.767)" fill="#9673D7"/>
<rect x="132.55" y="174.131" width="5.23898" height="5.23897" transform="rotate(12.3841 132.55 174.131)" fill="#9673D7"/>
<rect x="127.433" y="173.008" width="5.23896" height="5.23897" transform="rotate(12.3841 127.433 173.008)" fill="#9673D7"/>
<rect x="122.316" y="171.884" width="5.23897" height="5.23897" transform="rotate(12.3841 122.316 171.884)" fill="#9673D7"/>
<rect x="182.475" y="142.183" width="5.23898" height="5.23897" transform="rotate(12.3841 182.475 142.183)" fill="#4E3B72"/>
<rect x="187.592" y="143.307" width="5.23894" height="5.23897" transform="rotate(12.3841 187.592 143.307)" fill="#4E3B72"/>
<rect x="192.709" y="144.43" width="5.23897" height="20.9559" transform="rotate(12.3841 192.709 144.43)" fill="#4E3B72"/>
<rect x="172.363" y="188.237" width="5.23898" height="5.23897" transform="rotate(12.3841 172.363 188.237)" fill="#4E3B72"/>
<rect x="177.48" y="189.36" width="5.23894" height="5.23897" transform="rotate(12.3841 177.48 189.36)" fill="#4E3B72"/>
<rect x="182.597" y="190.484" width="5.23897" height="5.23897" transform="rotate(12.3841 182.597 190.484)" fill="#4E3B72"/>
<rect x="132.55" y="174.131" width="5.23898" height="5.23897" transform="rotate(12.3841 132.55 174.131)" fill="#4E3B72"/>
<rect x="149.025" y="172.385" width="5.23896" height="5.23897" transform="rotate(12.3841 149.025 172.385)" fill="#9673D7"/>
<rect x="154.142" y="173.508" width="5.23896" height="5.23897" transform="rotate(12.3841 154.142 173.508)" fill="#9673D7"/>
<rect x="154.642" y="146.8" width="5.23896" height="5.23897" transform="rotate(12.3841 154.642 146.8)" fill="#9673D7"/>
<rect x="159.759" y="147.923" width="5.23896" height="5.23897" transform="rotate(12.3841 159.759 147.923)" fill="#9673D7"/>
<rect x="165.499" y="170.639" width="5.23895" height="5.23897" transform="rotate(12.3841 165.499 170.639)" fill="#9673D7"/>
<rect x="138.79" y="170.138" width="5.23896" height="5.23897" transform="rotate(12.3841 138.79 170.138)" fill="#4E3B72"/>
<rect x="168.369" y="181.996" width="5.23897" height="5.23897" transform="rotate(12.3841 168.369 181.996)" fill="#4E3B72"/>
<rect x="164.376" y="175.756" width="10.4779" height="5.23897" transform="rotate(12.3841 164.376 175.756)" fill="#9673D7"/>
<rect x="139.914" y="165.021" width="10.4779" height="5.23897" transform="rotate(12.3841 139.914 165.021)" fill="#9673D7"/>
<rect x="150.148" y="167.268" width="15.7169" height="5.23897" transform="rotate(12.3841 150.148 167.268)" fill="#9673D7"/>
<rect x="181.351" y="147.3" width="5.23898" height="10.4779" transform="rotate(12.3841 181.351 147.3)" fill="#4E3B72"/>
<rect x="194.455" y="160.905" width="5.23897" height="20.9559" transform="rotate(12.3841 194.455 160.905)" fill="#4E3B72"/>
<rect x="164.376" y="175.756" width="5.23897" height="5.23897" transform="rotate(12.3841 164.376 175.756)" fill="#4E3B72"/>
<rect x="79.866" y="79.9958" width="6.39716" height="6.38613" transform="rotate(12.3841 79.866 79.9958)" fill="#E2711D"/>
<rect x="85.5391" y="81.2415" width="6.39716" height="6.38613" transform="rotate(12.3841 85.5391 81.2415)" fill="#E2711D"/>
<rect x="87.6939" y="75.2972" width="12.4463" height="6.62265" transform="rotate(12.3841 87.6939 75.2972)" fill="#E2711D"/>
<rect x="94.7873" y="70.0743" width="6.63805" height="7.45048" transform="rotate(12.3841 94.7873 70.0743)" fill="#E2711D"/>
<rect x="102.691" y="65.0294" width="6.63805" height="13.2453" transform="rotate(12.3841 102.691 65.0294)" fill="#E2711D"/>
<rect x="110.595" y="59.9844" width="6.63805" height="13.2453" transform="rotate(12.3841 110.595 59.9844)" fill="#E2711D"/>
<rect x="117.511" y="55.57" width="6.63805" height="5.79482" transform="rotate(12.3841 117.511 55.57)" fill="#E2711D"/>
<rect x="78.5472" y="86.0021" width="6.39716" height="6.38613" transform="rotate(12.3841 78.5472 86.0021)" fill="#E2711D"/>
<rect x="77.3044" y="91.6623" width="6.39716" height="6.38613" transform="rotate(12.3841 77.3044 91.6623)" fill="#E2711D"/>
<rect x="64.9701" y="89.8014" width="6.63805" height="19.0401" transform="rotate(12.3841 64.9701 89.8014)" fill="#E2711D"/>
<rect x="71.2531" y="84.4005" width="8.29757" height="33.1133" transform="rotate(12.3841 71.2531 84.4005)" fill="#E2711D"/>
<rect x="71.8779" y="112.507" width="6.63805" height="5.79481" transform="rotate(12.3841 71.8779 112.507)" fill="#E2711D"/>
<rect x="78.3615" y="113.931" width="7.46781" height="5.79481" transform="rotate(12.3841 78.3615 113.931)" fill="#E2711D"/>
<rect x="86.4429" y="108.077" width="6.63805" height="7.45049" transform="rotate(12.3841 86.4429 108.077)" fill="#E2711D"/>
<rect x="110.129" y="178.176" width="6.39716" height="6.38614" transform="rotate(12.3841 110.129 178.176)" fill="#E2711D"/>
<rect x="103.137" y="182.937" width="6.39716" height="6.38612" transform="rotate(12.3841 103.137 182.937)" fill="#E2711D"/>
<rect x="108.81" y="184.183" width="6.39716" height="6.38612" transform="rotate(12.3841 108.81 184.183)" fill="#E2711D"/>
<rect x="95.4108" y="187.173" width="19.0844" height="6.62266" transform="rotate(12.3841 95.4108 187.173)" fill="#E2711D"/>
<rect x="87.5069" y="192.218" width="25.7225" height="6.62264" transform="rotate(12.3841 87.5069 192.218)" fill="#E2711D"/>
<rect x="80.4134" y="197.441" width="25.7225" height="6.62266" transform="rotate(12.3841 80.4134 197.441)" fill="#E2711D"/>
<rect x="78.993" y="203.91" width="25.7225" height="6.62264" transform="rotate(12.3841 78.993 203.91)" fill="#E2711D"/>
<rect x="71.0891" y="208.955" width="25.7225" height="6.62266" transform="rotate(12.3841 71.0891 208.955)" fill="#E2711D"/>
<rect x="69.6688" y="215.423" width="19.0844" height="6.62266" transform="rotate(12.3841 69.6688 215.423)" fill="#E2711D"/>
<rect x="68.426" y="221.083" width="10.7868" height="6.62266" transform="rotate(12.3841 68.426 221.083)" fill="#E2711D"/>
<rect x="60.5221" y="226.128" width="17.4249" height="6.62263" transform="rotate(12.3841 60.5221 226.128)" fill="#E2711D"/>
<rect x="59.1018" y="232.597" width="17.4249" height="6.62266" transform="rotate(12.3841 59.1018 232.597)" fill="#E2711D"/>
<rect x="57.6814" y="239.065" width="23.2332" height="6.62266" transform="rotate(12.3841 57.6814 239.065)" fill="#E2711D"/>
<rect x="56.2611" y="245.534" width="29.8712" height="6.62266" transform="rotate(12.3841 56.2611 245.534)" fill="#E2711D"/>
<rect x="55.0183" y="251.194" width="34.02" height="6.62266" transform="rotate(12.3841 55.0183 251.194)" fill="#E2711D"/>
<rect x="42.5986" y="280.674" width="34.02" height="6.62266" transform="rotate(12.3841 42.5986 280.674)" fill="#E2711D"/>
<rect x="46.8515" y="288.388" width="34.02" height="6.62266" transform="rotate(12.3841 46.8515 288.388)" fill="#E2711D"/>
<rect x="45.6087" y="294.048" width="28.2117" height="6.62266" transform="rotate(12.3841 45.6087 294.048)" fill="#E2711D"/>
<rect x="44.1884" y="300.517" width="23.2332" height="6.62263" transform="rotate(12.3841 44.1884 300.517)" fill="#E2711D"/>
<rect x="42.7681" y="306.985" width="14.9356" height="6.62266" transform="rotate(12.3841 42.7681 306.985)" fill="#E2711D"/>
<rect x="35.8521" y="311.4" width="14.9356" height="6.62266" transform="rotate(12.3841 35.8521 311.4)" fill="#E2711D"/>
<rect x="27.1377" y="316.267" width="14.9356" height="8.27832" transform="rotate(12.3841 27.1377 316.267)" fill="#E2711D"/>
</g>
<defs>
<clipPath id="clip0_317_30675">
<rect width="216.373" height="358.404" fill="white" transform="translate(77.0954 0.927551) rotate(12.3841)"/>
</clipPath>
</defs>
</svg>
