<svg width="111" height="67" viewBox="0 0 111 67" fill="none" xmlns="http://www.w3.org/2000/svg">
<rect x="31.084" y="23.304" width="42.6683" height="6.10929" transform="rotate(-13.6497 31.084 23.304)" fill="#C4C4C4"/>
<rect x="25.1606" y="24.7424" width="6.09547" height="6.10929" transform="rotate(-13.6497 25.1606 24.7424)" fill="#A8A6A6"/>
<rect x="19.2373" y="26.1809" width="6.09547" height="6.10929" transform="rotate(-13.6497 19.2373 26.1809)" fill="#A8A6A6"/>
<rect x="13.3141" y="27.6194" width="6.09547" height="6.10929" transform="rotate(-13.6497 13.3141 27.6194)" fill="#A8A6A6"/>
<rect x="8.6759" y="60.1799" width="6.09547" height="6.10929" transform="rotate(-13.6497 8.6759 60.1799)" fill="#A8A6A6"/>
<rect x="7.23425" y="54.2432" width="6.09547" height="6.10929" transform="rotate(-13.6497 7.23425 54.2432)" fill="#A8A6A6"/>
<rect x="5.79248" y="48.3064" width="6.09547" height="6.10929" transform="rotate(-13.6497 5.79248 48.3064)" fill="#A8A6A6"/>
<rect x="4.35083" y="42.3696" width="6.09547" height="6.10929" transform="rotate(-13.6497 4.35083 42.3696)" fill="#A8A6A6"/>
<rect x="14.5992" y="58.7415" width="6.09547" height="6.10929" transform="rotate(-13.6497 14.5992 58.7415)" fill="#A8A6A6"/>
<rect x="13.1575" y="52.8047" width="6.09547" height="6.10929" transform="rotate(-13.6497 13.1575 52.8047)" fill="#A8A6A6"/>
<rect x="11.7159" y="46.8682" width="6.09547" height="6.10929" transform="rotate(-13.6497 11.7159 46.8682)" fill="#A8A6A6"/>
<rect x="10.2742" y="40.9312" width="6.09547" height="6.10929" transform="rotate(-13.6497 10.2742 40.9312)" fill="#A8A6A6"/>
<rect x="14.7557" y="33.5559" width="6.09547" height="6.10929" transform="rotate(-13.6497 14.7557 33.5559)" fill="#A8A6A6"/>
<rect x="8.8324" y="34.9944" width="6.09547" height="6.10929" transform="rotate(-13.6497 8.8324 34.9944)" fill="#A8A6A6"/>
<rect x="20.5226" y="57.303" width="6.09547" height="6.10929" transform="rotate(-13.6497 20.5226 57.303)" fill="#A8A6A6"/>
<rect x="19.0808" y="51.3662" width="6.09547" height="6.10929" transform="rotate(-13.6497 19.0808 51.3662)" fill="#A8A6A6"/>
<rect x="17.6392" y="45.4297" width="6.09547" height="6.10929" transform="rotate(-13.6497 17.6392 45.4297)" fill="#A8A6A6"/>
<rect x="16.1975" y="39.4929" width="6.09547" height="6.10929" transform="rotate(-13.6497 16.1975 39.4929)" fill="#A8A6A6"/>
<rect x="20.6791" y="32.1177" width="6.09547" height="6.10929" transform="rotate(-13.6497 20.6791 32.1177)" fill="#A8A6A6"/>
<rect x="26.4459" y="55.8645" width="6.09547" height="6.10929" transform="rotate(-13.6497 26.4459 55.8645)" fill="#A8A6A6"/>
<rect x="25.0042" y="49.9277" width="6.09547" height="6.10929" transform="rotate(-13.6497 25.0042 49.9277)" fill="#A8A6A6"/>
<rect x="30.9275" y="48.4893" width="60.9547" height="6.10929" transform="rotate(-13.6497 30.9275 48.4893)" fill="#C4C4C4"/>
<rect x="23.5625" y="43.9912" width="6.09547" height="6.10929" transform="rotate(-13.6497 23.5625 43.9912)" fill="#A8A6A6"/>
<rect x="29.4857" y="42.5527" width="60.9547" height="6.10929" transform="rotate(-13.6497 29.4857 42.5527)" fill="#C4C4C4"/>
<rect x="22.1207" y="38.0544" width="6.09547" height="6.10929" transform="rotate(-13.6497 22.1207 38.0544)" fill="#A8A6A6"/>
<rect x="28.0441" y="36.616" width="60.9547" height="6.10929" transform="rotate(-13.6497 28.0441 36.616)" fill="#C4C4C4"/>
<rect x="26.6023" y="30.6792" width="6.09547" height="6.10929" transform="rotate(-13.6497 26.6023 30.6792)" fill="#A8A6A6"/>
<rect x="32.5256" y="29.2407" width="48.7637" height="6.10929" transform="rotate(-13.6497 32.5256 29.2407)" fill="#C4C4C4"/>
<rect x="32.3691" y="54.4263" width="79.2411" height="6.10929" transform="rotate(-13.6497 32.3691 54.4263)" fill="#534A4A"/>
<rect x="29.6423" y="17.3672" width="35.4974" height="6.10929" transform="rotate(-13.6497 29.6423 17.3672)" fill="#C4C4C4"/>
<rect x="23.7189" y="18.8057" width="6.09547" height="6.10929" transform="rotate(-13.6497 23.7189 18.8057)" fill="#A8A6A6"/>
<rect x="17.7957" y="20.2441" width="6.09547" height="6.10929" transform="rotate(-13.6497 17.7957 20.2441)" fill="#A8A6A6"/>
</svg>
