<svg width="229" height="490" viewBox="0 0 229 490" fill="none" xmlns="http://www.w3.org/2000/svg">
<rect x="34.5293" y="396.131" width="6.70588" height="13.4099" fill="black"/>
<rect x="41.2354" y="409.541" width="6.70588" height="26.8197" fill="black"/>
<rect x="182.059" y="409.541" width="6.70589" height="26.8197" fill="black"/>
<rect x="188.765" y="396.131" width="6.70587" height="13.4099" fill="black"/>
<rect x="188.765" y="436.361" width="6.70587" height="6.70493" fill="black"/>
<rect x="34.5293" y="436.361" width="6.70588" height="6.70493" fill="black"/>
<rect x="47.9412" y="101.115" width="6.70588" height="6.70492" fill="#1E1E1E"/>
<rect x="47.9412" y="107.82" width="6.70588" height="6.70492" fill="#1E1E1E"/>
<rect x="47.9412" y="114.525" width="6.70588" height="6.70492" fill="#1E1E1E"/>
<rect x="47.9412" y="121.23" width="6.70588" height="6.70492" fill="#1E1E1E"/>
<rect x="68.0588" y="101.115" width="6.70589" height="6.70492" fill="#1E1E1E"/>
<rect x="68.0588" y="107.82" width="6.70589" height="6.70492" fill="#1E1E1E"/>
<rect x="47.9412" y="127.934" width="6.70588" height="6.70491" fill="#1E1E1E"/>
<rect x="61.353" y="154.754" width="6.70588" height="6.70492" fill="#1E1E1E"/>
<rect x="68.0588" y="154.754" width="6.70589" height="6.70492" fill="#1E1E1E"/>
<rect x="81.4707" y="154.754" width="6.70589" height="6.70492" fill="#1E1E1E"/>
<rect x="74.7646" y="154.754" width="6.70588" height="6.70492" fill="#1E1E1E"/>
<rect x="88.1765" y="154.754" width="6.70588" height="6.70492" fill="#1E1E1E"/>
<rect x="81.4707" y="127.934" width="6.70589" height="6.70491" fill="#1E1E1E"/>
<rect x="74.7646" y="127.934" width="6.70588" height="6.70491" fill="#1E1E1E"/>
<rect x="88.1765" y="127.934" width="6.70588" height="6.70491" fill="#1E1E1E"/>
<rect x="94.8823" y="127.934" width="6.70588" height="6.70491" fill="#1E1E1E"/>
<rect x="135.118" y="127.934" width="6.70589" height="6.70491" fill="#1E1E1E"/>
<rect x="128.412" y="127.934" width="6.70588" height="6.70491" fill="#1E1E1E"/>
<rect x="141.823" y="127.934" width="6.70589" height="6.70491" fill="#1E1E1E"/>
<rect x="148.529" y="127.934" width="6.70587" height="6.70491" fill="#1E1E1E"/>
<rect x="94.8823" y="154.754" width="6.70588" height="6.70492" fill="#1E1E1E"/>
<rect x="101.588" y="154.754" width="6.70589" height="6.70492" fill="#1E1E1E"/>
<rect x="108.294" y="154.754" width="6.70588" height="6.70492" fill="#1E1E1E"/>
<rect x="115" y="154.754" width="6.70589" height="6.70492" fill="#1E1E1E"/>
<rect x="47.9412" y="134.639" width="6.70588" height="6.70493" fill="#1E1E1E"/>
<rect x="47.9412" y="141.344" width="6.70588" height="6.70491" fill="#1E1E1E"/>
<rect x="47.9412" y="148.049" width="6.70588" height="6.70492" fill="#1E1E1E"/>
<rect x="148.529" y="154.754" width="6.70587" height="6.70492" fill="#1E1E1E"/>
<rect x="74.7646" y="94.4102" width="6.70588" height="6.70492" fill="#1E1E1E"/>
<rect x="68.0588" y="114.525" width="6.70589" height="6.70492" fill="#1E1E1E"/>
<rect x="68.0588" y="121.23" width="6.70589" height="6.70492" fill="#1E1E1E"/>
<rect x="101.588" y="101.115" width="6.70589" height="6.70492" fill="#1E1E1E"/>
<rect x="101.588" y="107.82" width="6.70589" height="6.70492" fill="#1E1E1E"/>
<rect x="101.588" y="114.525" width="6.70589" height="6.70492" fill="#1E1E1E"/>
<rect x="101.588" y="121.23" width="6.70589" height="6.70492" fill="#1E1E1E"/>
<rect x="121.706" y="101.115" width="6.70588" height="6.70492" fill="#1E1E1E"/>
<rect x="121.706" y="107.82" width="6.70588" height="6.70492" fill="#1E1E1E"/>
<rect x="121.706" y="114.525" width="6.70588" height="6.70492" fill="#1E1E1E"/>
<rect x="121.706" y="121.23" width="6.70588" height="6.70492" fill="#1E1E1E"/>
<rect x="47.9412" y="154.754" width="6.70588" height="6.70492" fill="#1E1E1E"/>
<rect x="54.647" y="154.754" width="6.70588" height="6.70492" fill="#1E1E1E"/>
<rect x="128.412" y="154.754" width="6.70588" height="6.70492" fill="#1E1E1E"/>
<rect x="141.823" y="154.754" width="6.70589" height="6.70492" fill="#1E1E1E"/>
<rect x="135.118" y="154.754" width="6.70589" height="6.70492" fill="#1E1E1E"/>
<rect x="168.647" y="154.754" width="6.7059" height="6.70492" fill="#1E1E1E"/>
<rect x="161.941" y="154.754" width="6.70587" height="6.70492" fill="#1E1E1E"/>
<rect x="155.235" y="154.754" width="6.70589" height="6.70492" fill="#1E1E1E"/>
<rect x="168.647" y="154.754" width="6.7059" height="6.70492" fill="#1E1E1E"/>
<rect x="175.353" y="154.754" width="6.70587" height="6.70492" fill="#1E1E1E"/>
<rect x="161.941" y="154.754" width="6.70587" height="6.70492" fill="#1E1E1E"/>
<rect x="155.235" y="154.754" width="6.70589" height="6.70492" fill="#1E1E1E"/>
<rect x="121.706" y="154.754" width="6.70588" height="6.70492" fill="#1E1E1E"/>
<rect x="54.647" y="443.066" width="6.70588" height="6.7049" fill="#1E1E1E"/>
<rect x="61.353" y="443.066" width="6.70588" height="6.7049" fill="#1E1E1E"/>
<rect x="74.7646" y="443.066" width="6.70588" height="6.7049" fill="#1E1E1E"/>
<rect x="68.0588" y="443.066" width="6.70589" height="6.7049" fill="#1E1E1E"/>
<rect x="81.4707" y="443.066" width="6.70589" height="6.7049" fill="#1E1E1E"/>
<rect x="88.1765" y="443.066" width="6.70588" height="6.7049" fill="#1E1E1E"/>
<rect x="94.8823" y="443.066" width="6.70588" height="6.7049" fill="#1E1E1E"/>
<rect x="101.588" y="443.066" width="6.70589" height="6.7049" fill="#1E1E1E"/>
<rect x="108.294" y="443.066" width="6.70588" height="6.7049" fill="#1E1E1E"/>
<rect x="41.2354" y="443.066" width="6.70588" height="6.7049" fill="#1E1E1E"/>
<rect x="34.5293" y="443.066" width="6.70588" height="6.7049" fill="#1E1E1E"/>
<rect x="27.8235" y="443.066" width="6.70588" height="6.7049" fill="#1E1E1E"/>
<rect x="21.1177" y="449.77" width="6.70588" height="6.70493" fill="#1E1E1E"/>
<rect x="21.1177" y="456.475" width="6.70588" height="6.70493" fill="#1E1E1E"/>
<rect x="1" y="469.885" width="6.70588" height="6.7049" fill="#1E1E1E"/>
<rect x="1" y="476.59" width="6.70588" height="6.70496" fill="#1E1E1E"/>
<rect x="202.177" y="449.77" width="6.70589" height="6.70493" fill="#1E1E1E"/>
<rect x="202.177" y="456.475" width="6.70589" height="6.70493" fill="#1E1E1E"/>
<rect x="222.294" y="469.885" width="6.70589" height="6.7049" fill="#1E1E1E"/>
<rect x="222.294" y="476.59" width="6.70589" height="6.70496" fill="#1E1E1E"/>
<rect x="47.9412" y="443.066" width="6.70588" height="6.7049" fill="#1E1E1E"/>
<rect x="121.706" y="443.066" width="6.70588" height="6.7049" fill="#1E1E1E"/>
<rect x="115" y="443.066" width="6.70589" height="6.7049" fill="#1E1E1E"/>
<rect x="128.412" y="443.066" width="6.70588" height="6.7049" fill="#1E1E1E"/>
<rect x="141.823" y="443.066" width="6.70589" height="6.7049" fill="#1E1E1E"/>
<rect x="135.118" y="443.066" width="6.70589" height="6.7049" fill="#1E1E1E"/>
<rect x="148.529" y="443.066" width="6.70587" height="6.7049" fill="#1E1E1E"/>
<rect x="155.235" y="443.066" width="6.70589" height="6.7049" fill="#1E1E1E"/>
<rect x="168.647" y="443.066" width="6.7059" height="6.7049" fill="#1E1E1E"/>
<rect x="161.941" y="443.066" width="6.70587" height="6.7049" fill="#1E1E1E"/>
<rect x="195.471" y="443.066" width="6.70589" height="6.7049" fill="#1E1E1E"/>
<rect x="188.765" y="443.066" width="6.70587" height="6.7049" fill="#1E1E1E"/>
<rect x="54.647" y="463.18" width="6.70588" height="6.70493" fill="#1E1E1E"/>
<rect x="61.353" y="463.18" width="6.70588" height="6.70493" fill="#1E1E1E"/>
<rect x="74.7646" y="463.18" width="6.70588" height="6.70493" fill="#1E1E1E"/>
<rect x="68.0588" y="463.18" width="6.70589" height="6.70493" fill="#1E1E1E"/>
<rect x="81.4707" y="463.18" width="6.70589" height="6.70493" fill="#1E1E1E"/>
<rect x="88.1765" y="463.18" width="6.70588" height="6.70493" fill="#1E1E1E"/>
<rect x="94.8823" y="463.18" width="6.70588" height="6.70493" fill="#1E1E1E"/>
<rect x="101.588" y="463.18" width="6.70589" height="6.70493" fill="#1E1E1E"/>
<rect x="108.294" y="463.18" width="6.70588" height="6.70493" fill="#1E1E1E"/>
<rect x="41.2354" y="463.18" width="6.70588" height="6.70493" fill="#1E1E1E"/>
<rect x="34.5293" y="463.18" width="6.70588" height="6.70493" fill="#1E1E1E"/>
<rect x="27.8235" y="463.18" width="6.70588" height="6.70493" fill="#1E1E1E"/>
<rect x="21.1177" y="463.18" width="6.70588" height="6.70493" fill="#1E1E1E"/>
<rect x="14.4119" y="463.18" width="6.70588" height="6.70493" fill="#1E1E1E"/>
<rect x="7.70581" y="463.18" width="6.70588" height="6.70493" fill="#1E1E1E"/>
<rect x="47.9412" y="463.18" width="6.70588" height="6.70493" fill="#1E1E1E"/>
<rect x="121.706" y="463.18" width="6.70588" height="6.70493" fill="#1E1E1E"/>
<rect x="115" y="463.18" width="6.70589" height="6.70493" fill="#1E1E1E"/>
<rect x="128.412" y="463.18" width="6.70588" height="6.70493" fill="#1E1E1E"/>
<rect x="141.823" y="463.18" width="6.70589" height="6.70493" fill="#1E1E1E"/>
<rect x="135.118" y="463.18" width="6.70589" height="6.70493" fill="#1E1E1E"/>
<rect x="148.529" y="463.18" width="6.70587" height="6.70493" fill="#1E1E1E"/>
<rect x="155.235" y="463.18" width="6.70589" height="6.70493" fill="#1E1E1E"/>
<rect x="168.647" y="463.18" width="6.7059" height="6.70493" fill="#1E1E1E"/>
<rect x="161.941" y="463.18" width="6.70587" height="6.70493" fill="#1E1E1E"/>
<rect x="195.471" y="463.18" width="6.70589" height="6.70493" fill="#1E1E1E"/>
<rect x="188.765" y="463.18" width="6.70587" height="6.70493" fill="#1E1E1E"/>
<rect x="202.177" y="463.18" width="6.70589" height="6.70493" fill="#1E1E1E"/>
<rect x="215.588" y="463.18" width="6.70587" height="6.70493" fill="#1E1E1E"/>
<rect x="208.882" y="463.18" width="6.70589" height="6.70493" fill="#1E1E1E"/>
<rect x="54.647" y="463.18" width="6.70588" height="6.70493" fill="#1E1E1E"/>
<rect x="61.353" y="463.18" width="6.70588" height="6.70493" fill="#1E1E1E"/>
<rect x="74.7646" y="463.18" width="6.70588" height="6.70493" fill="#1E1E1E"/>
<rect x="68.0588" y="463.18" width="6.70589" height="6.70493" fill="#1E1E1E"/>
<rect x="81.4707" y="463.18" width="6.70589" height="6.70493" fill="#1E1E1E"/>
<rect x="88.1765" y="463.18" width="6.70588" height="6.70493" fill="#1E1E1E"/>
<rect x="94.8823" y="463.18" width="6.70588" height="6.70493" fill="#1E1E1E"/>
<rect x="101.588" y="463.18" width="6.70589" height="6.70493" fill="#1E1E1E"/>
<rect x="108.294" y="463.18" width="6.70588" height="6.70493" fill="#1E1E1E"/>
<rect x="41.2354" y="463.18" width="6.70588" height="6.70493" fill="#1E1E1E"/>
<rect x="34.5293" y="463.18" width="6.70588" height="6.70493" fill="#1E1E1E"/>
<rect x="27.8235" y="463.18" width="6.70588" height="6.70493" fill="#1E1E1E"/>
<rect x="21.1177" y="463.18" width="6.70588" height="6.70493" fill="#1E1E1E"/>
<rect x="14.4119" y="463.18" width="6.70588" height="6.70493" fill="#1E1E1E"/>
<rect x="7.70581" y="463.18" width="6.70588" height="6.70493" fill="#1E1E1E"/>
<rect x="47.9412" y="463.18" width="6.70588" height="6.70493" fill="#1E1E1E"/>
<rect x="121.706" y="463.18" width="6.70588" height="6.70493" fill="#1E1E1E"/>
<rect x="115" y="463.18" width="6.70589" height="6.70493" fill="#1E1E1E"/>
<rect x="128.412" y="463.18" width="6.70588" height="6.70493" fill="#1E1E1E"/>
<rect x="141.823" y="463.18" width="6.70589" height="6.70493" fill="#1E1E1E"/>
<rect x="135.118" y="463.18" width="6.70589" height="6.70493" fill="#1E1E1E"/>
<rect x="148.529" y="463.18" width="6.70587" height="6.70493" fill="#1E1E1E"/>
<rect x="155.235" y="463.18" width="6.70589" height="6.70493" fill="#1E1E1E"/>
<rect x="168.647" y="463.18" width="6.7059" height="6.70493" fill="#1E1E1E"/>
<rect x="175.353" y="463.18" width="6.70587" height="6.70493" fill="#1E1E1E"/>
<rect x="175.353" y="463.18" width="6.70587" height="6.70493" fill="#1E1E1E"/>
<rect x="182.059" y="463.18" width="6.70589" height="6.70493" fill="#1E1E1E"/>
<rect x="182.059" y="463.18" width="6.70589" height="6.70493" fill="#1E1E1E"/>
<rect x="161.941" y="463.18" width="6.70587" height="6.70493" fill="#1E1E1E"/>
<rect x="195.471" y="463.18" width="6.70589" height="6.70493" fill="#1E1E1E"/>
<rect x="188.765" y="463.18" width="6.70587" height="6.70493" fill="#1E1E1E"/>
<rect x="202.177" y="463.18" width="6.70589" height="6.70493" fill="#1E1E1E"/>
<rect x="215.588" y="463.18" width="6.70587" height="6.70493" fill="#1E1E1E"/>
<rect x="208.882" y="463.18" width="6.70589" height="6.70493" fill="#1E1E1E"/>
<rect x="54.647" y="483.295" width="6.70588" height="6.7049" fill="#1E1E1E"/>
<rect x="61.353" y="483.295" width="6.70588" height="6.7049" fill="#1E1E1E"/>
<rect x="74.7646" y="483.295" width="6.70588" height="6.7049" fill="#1E1E1E"/>
<rect x="68.0588" y="483.295" width="6.70589" height="6.7049" fill="#1E1E1E"/>
<rect x="81.4707" y="483.295" width="6.70589" height="6.7049" fill="#1E1E1E"/>
<rect x="88.1765" y="483.295" width="6.70588" height="6.7049" fill="#1E1E1E"/>
<rect x="94.8823" y="483.295" width="6.70588" height="6.7049" fill="#1E1E1E"/>
<rect x="101.588" y="483.295" width="6.70589" height="6.7049" fill="#1E1E1E"/>
<rect x="108.294" y="483.295" width="6.70588" height="6.7049" fill="#1E1E1E"/>
<rect x="41.2354" y="483.295" width="6.70588" height="6.7049" fill="#1E1E1E"/>
<rect x="34.5293" y="483.295" width="6.70588" height="6.7049" fill="#1E1E1E"/>
<rect x="27.8235" y="483.295" width="6.70588" height="6.7049" fill="#1E1E1E"/>
<rect x="21.1177" y="483.295" width="6.70588" height="6.7049" fill="#1E1E1E"/>
<rect x="14.4119" y="483.295" width="6.70588" height="6.7049" fill="#1E1E1E"/>
<rect x="7.70581" y="483.295" width="6.70588" height="6.7049" fill="#1E1E1E"/>
<rect x="47.9412" y="483.295" width="6.70588" height="6.7049" fill="#1E1E1E"/>
<rect x="121.706" y="483.295" width="6.70588" height="6.7049" fill="#1E1E1E"/>
<rect x="115" y="483.295" width="6.70589" height="6.7049" fill="#1E1E1E"/>
<rect x="128.412" y="483.295" width="6.70588" height="6.7049" fill="#1E1E1E"/>
<rect x="141.823" y="483.295" width="6.70589" height="6.7049" fill="#1E1E1E"/>
<rect x="135.118" y="483.295" width="6.70589" height="6.7049" fill="#1E1E1E"/>
<rect x="148.529" y="483.295" width="6.70587" height="6.7049" fill="#1E1E1E"/>
<rect x="155.235" y="483.295" width="6.70589" height="6.7049" fill="#1E1E1E"/>
<rect x="168.647" y="483.295" width="6.7059" height="6.7049" fill="#1E1E1E"/>
<rect x="161.941" y="483.295" width="6.70587" height="6.7049" fill="#1E1E1E"/>
<rect x="195.471" y="483.295" width="6.70589" height="6.7049" fill="#1E1E1E"/>
<rect x="188.765" y="483.295" width="6.70587" height="6.7049" fill="#1E1E1E"/>
<rect x="202.177" y="483.295" width="6.70589" height="6.7049" fill="#1E1E1E"/>
<rect x="215.588" y="483.295" width="6.70587" height="6.7049" fill="#1E1E1E"/>
<rect x="208.882" y="483.295" width="6.70589" height="6.7049" fill="#1E1E1E"/>
<rect x="54.647" y="483.295" width="6.70588" height="6.7049" fill="#1E1E1E"/>
<rect x="61.353" y="483.295" width="6.70588" height="6.7049" fill="#1E1E1E"/>
<rect x="74.7646" y="483.295" width="6.70588" height="6.7049" fill="#1E1E1E"/>
<rect x="68.0588" y="483.295" width="6.70589" height="6.7049" fill="#1E1E1E"/>
<rect x="81.4707" y="483.295" width="6.70589" height="6.7049" fill="#1E1E1E"/>
<rect x="88.1765" y="483.295" width="6.70588" height="6.7049" fill="#1E1E1E"/>
<rect x="94.8823" y="483.295" width="6.70588" height="6.7049" fill="#1E1E1E"/>
<rect x="101.588" y="483.295" width="6.70589" height="6.7049" fill="#1E1E1E"/>
<rect x="108.294" y="483.295" width="6.70588" height="6.7049" fill="#1E1E1E"/>
<rect x="41.2354" y="483.295" width="6.70588" height="6.7049" fill="#1E1E1E"/>
<rect x="34.5293" y="483.295" width="6.70588" height="6.7049" fill="#1E1E1E"/>
<rect x="27.8235" y="483.295" width="6.70588" height="6.7049" fill="#1E1E1E"/>
<rect x="21.1177" y="483.295" width="6.70588" height="6.7049" fill="#1E1E1E"/>
<rect x="14.4119" y="483.295" width="6.70588" height="6.7049" fill="#1E1E1E"/>
<rect x="7.70581" y="483.295" width="6.70588" height="6.7049" fill="#1E1E1E"/>
<rect x="47.9412" y="483.295" width="6.70588" height="6.7049" fill="#1E1E1E"/>
<rect x="121.706" y="483.295" width="6.70588" height="6.7049" fill="#1E1E1E"/>
<rect x="115" y="483.295" width="6.70589" height="6.7049" fill="#1E1E1E"/>
<rect x="128.412" y="483.295" width="6.70588" height="6.7049" fill="#1E1E1E"/>
<rect x="141.823" y="483.295" width="6.70589" height="6.7049" fill="#1E1E1E"/>
<rect x="135.118" y="483.295" width="6.70589" height="6.7049" fill="#1E1E1E"/>
<rect x="148.529" y="483.295" width="6.70587" height="6.7049" fill="#1E1E1E"/>
<rect x="155.235" y="483.295" width="6.70589" height="6.7049" fill="#1E1E1E"/>
<rect x="168.647" y="483.295" width="6.7059" height="6.7049" fill="#1E1E1E"/>
<rect x="161.941" y="483.295" width="6.70587" height="6.7049" fill="#1E1E1E"/>
<rect x="182.059" y="483.295" width="6.70589" height="6.7049" fill="#1E1E1E"/>
<rect x="175.353" y="483.295" width="6.70587" height="6.7049" fill="#1E1E1E"/>
<rect x="182.059" y="483.295" width="6.70589" height="6.7049" fill="#1E1E1E"/>
<rect x="175.353" y="483.295" width="6.70587" height="6.7049" fill="#1E1E1E"/>
<rect x="182.059" y="443.066" width="6.70589" height="6.7049" fill="#1E1E1E"/>
<rect x="175.353" y="443.066" width="6.70587" height="6.7049" fill="#1E1E1E"/>
<rect x="182.059" y="443.066" width="6.70589" height="6.7049" fill="#1E1E1E"/>
<rect x="175.353" y="443.066" width="6.70587" height="6.7049" fill="#1E1E1E"/>
<rect x="195.471" y="483.295" width="6.70589" height="6.7049" fill="#1E1E1E"/>
<rect x="188.765" y="483.295" width="6.70587" height="6.7049" fill="#1E1E1E"/>
<rect x="202.177" y="483.295" width="6.70589" height="6.7049" fill="#1E1E1E"/>
<rect x="215.588" y="483.295" width="6.70587" height="6.7049" fill="#1E1E1E"/>
<rect x="208.882" y="483.295" width="6.70589" height="6.7049" fill="#1E1E1E"/>
<rect x="34.5293" y="362.607" width="6.70588" height="6.7049" fill="#1E1E1E"/>
<rect x="21.1177" y="376.016" width="6.70588" height="6.70493" fill="#1E1E1E"/>
<rect x="21.1177" y="382.721" width="6.70588" height="6.70493" fill="#1E1E1E"/>
<rect x="188.765" y="362.607" width="6.70587" height="6.7049" fill="#1E1E1E"/>
<rect x="202.177" y="376.016" width="6.70589" height="6.70493" fill="#1E1E1E"/>
<rect x="202.177" y="382.721" width="6.70589" height="6.70493" fill="#1E1E1E"/>
<rect x="74.7646" y="369.311" width="6.70588" height="6.70493" fill="#1E1E1E"/>
<rect x="81.4707" y="369.311" width="6.70589" height="6.70493" fill="#1E1E1E"/>
<rect x="94.8823" y="369.311" width="6.70588" height="6.70493" fill="#1E1E1E"/>
<rect x="88.1765" y="369.311" width="6.70588" height="6.70493" fill="#1E1E1E"/>
<rect x="101.588" y="369.311" width="6.70589" height="6.70493" fill="#1E1E1E"/>
<rect x="108.294" y="369.311" width="6.70588" height="6.70493" fill="#1E1E1E"/>
<rect x="115" y="369.311" width="6.70589" height="6.70493" fill="#1E1E1E"/>
<rect x="121.706" y="369.311" width="6.70588" height="6.70493" fill="#1E1E1E"/>
<rect x="128.412" y="369.311" width="6.70588" height="6.70493" fill="#1E1E1E"/>
<rect x="61.353" y="369.311" width="6.70588" height="6.70493" fill="#1E1E1E"/>
<rect x="54.647" y="369.311" width="6.70588" height="6.70493" fill="#1E1E1E"/>
<rect x="47.9412" y="369.311" width="6.70588" height="6.70493" fill="#1E1E1E"/>
<rect x="34.5293" y="369.311" width="6.70588" height="6.70493" fill="#1E1E1E"/>
<rect x="41.2354" y="369.311" width="6.70588" height="6.70493" fill="#1E1E1E"/>
<rect x="27.8235" y="369.311" width="6.70588" height="6.70493" fill="#1E1E1E"/>
<rect x="68.0588" y="369.311" width="6.70589" height="6.70493" fill="#1E1E1E"/>
<rect x="141.823" y="369.311" width="6.70589" height="6.70493" fill="#1E1E1E"/>
<rect x="135.118" y="369.311" width="6.70589" height="6.70493" fill="#1E1E1E"/>
<rect x="148.529" y="369.311" width="6.70587" height="6.70493" fill="#1E1E1E"/>
<rect x="161.941" y="369.311" width="6.70587" height="6.70493" fill="#1E1E1E"/>
<rect x="155.235" y="369.311" width="6.70589" height="6.70493" fill="#1E1E1E"/>
<rect x="168.647" y="369.311" width="6.7059" height="6.70493" fill="#1E1E1E"/>
<rect x="175.353" y="369.311" width="6.70587" height="6.70493" fill="#1E1E1E"/>
<rect x="188.765" y="369.311" width="6.70587" height="6.70493" fill="#1E1E1E"/>
<rect x="188.765" y="389.426" width="6.70587" height="6.7049" fill="#1E1E1E"/>
<rect x="182.059" y="369.311" width="6.70589" height="6.70493" fill="#1E1E1E"/>
<rect x="195.471" y="369.311" width="6.70589" height="6.70493" fill="#1E1E1E"/>
<rect x="195.471" y="389.426" width="6.70589" height="6.7049" fill="#1E1E1E"/>
<rect x="74.7646" y="369.311" width="6.70588" height="6.70493" fill="#1E1E1E"/>
<rect x="81.4707" y="369.311" width="6.70589" height="6.70493" fill="#1E1E1E"/>
<rect x="94.8823" y="369.311" width="6.70588" height="6.70493" fill="#1E1E1E"/>
<rect x="88.1765" y="369.311" width="6.70588" height="6.70493" fill="#1E1E1E"/>
<rect x="101.588" y="369.311" width="6.70589" height="6.70493" fill="#1E1E1E"/>
<rect x="108.294" y="369.311" width="6.70588" height="6.70493" fill="#1E1E1E"/>
<rect x="115" y="369.311" width="6.70589" height="6.70493" fill="#1E1E1E"/>
<rect x="121.706" y="369.311" width="6.70588" height="6.70493" fill="#1E1E1E"/>
<rect x="128.412" y="369.311" width="6.70588" height="6.70493" fill="#1E1E1E"/>
<rect x="61.353" y="369.311" width="6.70588" height="6.70493" fill="#1E1E1E"/>
<rect x="54.647" y="369.311" width="6.70588" height="6.70493" fill="#1E1E1E"/>
<rect x="47.9412" y="369.311" width="6.70588" height="6.70493" fill="#1E1E1E"/>
<rect x="34.5293" y="369.311" width="6.70588" height="6.70493" fill="#1E1E1E"/>
<rect x="41.2354" y="369.311" width="6.70588" height="6.70493" fill="#1E1E1E"/>
<rect x="27.8235" y="369.311" width="6.70588" height="6.70493" fill="#1E1E1E"/>
<rect x="68.0588" y="369.311" width="6.70589" height="6.70493" fill="#1E1E1E"/>
<rect x="141.823" y="369.311" width="6.70589" height="6.70493" fill="#1E1E1E"/>
<rect x="135.118" y="369.311" width="6.70589" height="6.70493" fill="#1E1E1E"/>
<rect x="148.529" y="369.311" width="6.70587" height="6.70493" fill="#1E1E1E"/>
<rect x="161.941" y="369.311" width="6.70587" height="6.70493" fill="#1E1E1E"/>
<rect x="155.235" y="369.311" width="6.70589" height="6.70493" fill="#1E1E1E"/>
<rect x="168.647" y="369.311" width="6.7059" height="6.70493" fill="#1E1E1E"/>
<rect x="175.353" y="369.311" width="6.70587" height="6.70493" fill="#1E1E1E"/>
<rect x="188.765" y="369.311" width="6.70587" height="6.70493" fill="#1E1E1E"/>
<rect x="188.765" y="389.426" width="6.70587" height="6.7049" fill="#1E1E1E"/>
<rect x="182.059" y="369.311" width="6.70589" height="6.70493" fill="#1E1E1E"/>
<rect x="195.471" y="369.311" width="6.70589" height="6.70493" fill="#1E1E1E"/>
<rect x="195.471" y="389.426" width="6.70589" height="6.7049" fill="#1E1E1E"/>
<rect x="74.7646" y="389.426" width="6.70588" height="6.7049" fill="#1E1E1E"/>
<rect x="81.4707" y="389.426" width="6.70589" height="6.7049" fill="#1E1E1E"/>
<rect x="94.8823" y="389.426" width="6.70588" height="6.7049" fill="#1E1E1E"/>
<rect x="88.1765" y="389.426" width="6.70588" height="6.7049" fill="#1E1E1E"/>
<rect x="101.588" y="389.426" width="6.70589" height="6.7049" fill="#1E1E1E"/>
<rect x="108.294" y="389.426" width="6.70588" height="6.7049" fill="#1E1E1E"/>
<rect x="115" y="389.426" width="6.70589" height="6.7049" fill="#1E1E1E"/>
<rect x="121.706" y="389.426" width="6.70588" height="6.7049" fill="#1E1E1E"/>
<rect x="128.412" y="389.426" width="6.70588" height="6.7049" fill="#1E1E1E"/>
<rect x="61.353" y="389.426" width="6.70588" height="6.7049" fill="#1E1E1E"/>
<rect x="54.647" y="389.426" width="6.70588" height="6.7049" fill="#1E1E1E"/>
<rect x="47.9412" y="389.426" width="6.70588" height="6.7049" fill="#1E1E1E"/>
<rect x="34.5293" y="389.426" width="6.70588" height="6.7049" fill="#1E1E1E"/>
<rect x="41.2354" y="389.426" width="6.70588" height="6.7049" fill="#1E1E1E"/>
<rect x="27.8235" y="389.426" width="6.70588" height="6.7049" fill="#1E1E1E"/>
<rect x="68.0588" y="389.426" width="6.70589" height="6.7049" fill="#1E1E1E"/>
<rect x="141.823" y="389.426" width="6.70589" height="6.7049" fill="#1E1E1E"/>
<rect x="135.118" y="389.426" width="6.70589" height="6.7049" fill="#1E1E1E"/>
<rect x="148.529" y="389.426" width="6.70587" height="6.7049" fill="#1E1E1E"/>
<rect x="161.941" y="389.426" width="6.70587" height="6.7049" fill="#1E1E1E"/>
<rect x="155.235" y="389.426" width="6.70589" height="6.7049" fill="#1E1E1E"/>
<rect x="168.647" y="389.426" width="6.7059" height="6.7049" fill="#1E1E1E"/>
<rect x="175.353" y="389.426" width="6.70587" height="6.7049" fill="#1E1E1E"/>
<rect x="182.059" y="389.426" width="6.70589" height="6.7049" fill="#1E1E1E"/>
<rect x="74.7646" y="389.426" width="6.70588" height="6.7049" fill="#1E1E1E"/>
<rect x="81.4707" y="389.426" width="6.70589" height="6.7049" fill="#1E1E1E"/>
<rect x="94.8823" y="389.426" width="6.70588" height="6.7049" fill="#1E1E1E"/>
<rect x="88.1765" y="389.426" width="6.70588" height="6.7049" fill="#1E1E1E"/>
<rect x="101.588" y="389.426" width="6.70589" height="6.7049" fill="#1E1E1E"/>
<rect x="108.294" y="389.426" width="6.70588" height="6.7049" fill="#1E1E1E"/>
<rect x="115" y="389.426" width="6.70589" height="6.7049" fill="#1E1E1E"/>
<rect x="121.706" y="389.426" width="6.70588" height="6.7049" fill="#1E1E1E"/>
<rect x="128.412" y="389.426" width="6.70588" height="6.7049" fill="#1E1E1E"/>
<rect x="61.353" y="389.426" width="6.70588" height="6.7049" fill="#1E1E1E"/>
<rect x="54.647" y="389.426" width="6.70588" height="6.7049" fill="#1E1E1E"/>
<rect x="47.9412" y="389.426" width="6.70588" height="6.7049" fill="#1E1E1E"/>
<rect x="34.5293" y="389.426" width="6.70588" height="6.7049" fill="#1E1E1E"/>
<rect x="41.2354" y="389.426" width="6.70588" height="6.7049" fill="#1E1E1E"/>
<rect x="27.8235" y="389.426" width="6.70588" height="6.7049" fill="#1E1E1E"/>
<rect x="68.0588" y="389.426" width="6.70589" height="6.7049" fill="#1E1E1E"/>
<rect x="141.823" y="389.426" width="6.70589" height="6.7049" fill="#1E1E1E"/>
<rect x="135.118" y="389.426" width="6.70589" height="6.7049" fill="#1E1E1E"/>
<rect x="148.529" y="389.426" width="6.70587" height="6.7049" fill="#1E1E1E"/>
<rect x="161.941" y="389.426" width="6.70587" height="6.7049" fill="#1E1E1E"/>
<rect x="155.235" y="389.426" width="6.70589" height="6.7049" fill="#1E1E1E"/>
<rect x="168.647" y="389.426" width="6.7059" height="6.7049" fill="#1E1E1E"/>
<rect x="175.353" y="389.426" width="6.70587" height="6.7049" fill="#1E1E1E"/>
<rect x="182.059" y="389.426" width="6.70589" height="6.7049" fill="#1E1E1E"/>
<rect x="54.647" y="161.459" width="6.70588" height="6.70492" fill="#1E1E1E"/>
<rect x="61.353" y="168.164" width="6.70588" height="6.70492" fill="#1E1E1E"/>
<rect x="168.647" y="161.459" width="6.7059" height="6.70492" fill="#1E1E1E"/>
<rect x="161.941" y="168.164" width="6.70587" height="6.70492" fill="#1E1E1E"/>
<rect x="68.0588" y="174.869" width="6.70589" height="6.70493" fill="#1E1E1E"/>
<rect x="155.235" y="174.869" width="6.70589" height="6.70493" fill="#1E1E1E"/>
<rect x="81.4707" y="181.574" width="6.70589" height="6.7049" fill="#1E1E1E"/>
<rect x="74.7646" y="181.574" width="6.70588" height="6.7049" fill="#1E1E1E"/>
<rect x="68.0588" y="181.574" width="6.70589" height="6.7049" fill="#1E1E1E"/>
<rect x="74.7646" y="201.689" width="6.70588" height="6.70491" fill="#1E1E1E"/>
<rect x="68.0588" y="201.689" width="6.70589" height="6.70491" fill="#1E1E1E"/>
<rect x="88.1765" y="181.574" width="6.70588" height="6.7049" fill="#1E1E1E"/>
<rect x="101.588" y="181.574" width="6.70589" height="6.7049" fill="#1E1E1E"/>
<rect x="94.8823" y="181.574" width="6.70588" height="6.7049" fill="#1E1E1E"/>
<rect x="108.294" y="181.574" width="6.70588" height="6.7049" fill="#1E1E1E"/>
<rect x="115" y="181.574" width="6.70589" height="6.7049" fill="#1E1E1E"/>
<rect x="128.412" y="181.574" width="6.70588" height="6.7049" fill="#1E1E1E"/>
<rect x="121.706" y="181.574" width="6.70588" height="6.7049" fill="#1E1E1E"/>
<rect x="135.118" y="181.574" width="6.70589" height="6.7049" fill="#1E1E1E"/>
<rect x="141.823" y="181.574" width="6.70589" height="6.7049" fill="#1E1E1E"/>
<rect x="81.4707" y="201.689" width="6.70589" height="6.70491" fill="#1E1E1E"/>
<rect x="88.1765" y="201.689" width="6.70588" height="6.70491" fill="#1E1E1E"/>
<rect x="101.588" y="201.689" width="6.70589" height="6.70491" fill="#1E1E1E"/>
<rect x="94.8823" y="201.689" width="6.70588" height="6.70491" fill="#1E1E1E"/>
<rect x="108.294" y="201.689" width="6.70588" height="6.70491" fill="#1E1E1E"/>
<rect x="115" y="201.689" width="6.70589" height="6.70491" fill="#1E1E1E"/>
<rect x="128.412" y="201.689" width="6.70588" height="6.70491" fill="#1E1E1E"/>
<rect x="121.706" y="201.689" width="6.70588" height="6.70491" fill="#1E1E1E"/>
<rect x="135.118" y="201.689" width="6.70589" height="6.70491" fill="#1E1E1E"/>
<rect x="61.353" y="188.279" width="6.70588" height="6.70493" fill="#1E1E1E"/>
<rect x="61.353" y="194.984" width="6.70588" height="6.70493" fill="#1E1E1E"/>
<rect x="161.941" y="188.279" width="6.70587" height="6.70493" fill="#1E1E1E"/>
<rect x="161.941" y="194.984" width="6.70587" height="6.70493" fill="#1E1E1E"/>
<rect x="68.0588" y="208.393" width="6.70589" height="6.70492" fill="#1E1E1E"/>
<rect x="68.0588" y="215.098" width="6.70589" height="6.70493" fill="#1E1E1E"/>
<rect x="68.0588" y="228.508" width="6.70589" height="6.70493" fill="#1E1E1E"/>
<rect x="141.823" y="201.689" width="6.70589" height="6.70491" fill="#1E1E1E"/>
<rect x="148.529" y="201.689" width="6.70587" height="6.70491" fill="#1E1E1E"/>
<rect x="155.235" y="201.689" width="6.70589" height="6.70491" fill="#1E1E1E"/>
<rect x="148.529" y="181.574" width="6.70587" height="6.7049" fill="#1E1E1E"/>
<rect x="155.235" y="181.574" width="6.70589" height="6.7049" fill="#1E1E1E"/>
<rect x="155.235" y="208.393" width="6.70589" height="6.70492" fill="#1E1E1E"/>
<rect x="155.235" y="215.098" width="6.70589" height="6.70493" fill="#1E1E1E"/>
<rect x="68.0588" y="228.508" width="6.70589" height="6.70493" fill="#1E1E1E"/>
<rect x="68.0588" y="221.803" width="6.70589" height="6.70491" fill="#1E1E1E"/>
<rect x="61.353" y="228.508" width="6.70588" height="6.70493" fill="#1E1E1E"/>
<rect x="54.647" y="248.623" width="6.70588" height="6.70493" fill="#1E1E1E"/>
<rect x="54.647" y="255.328" width="6.70588" height="6.70493" fill="#1E1E1E"/>
<rect x="54.647" y="262.033" width="6.70588" height="6.70491" fill="#1E1E1E"/>
<rect x="54.647" y="288.852" width="6.70588" height="6.70491" fill="#1E1E1E"/>
<rect x="54.647" y="268.738" width="6.70588" height="6.70493" fill="#1E1E1E"/>
<rect x="54.647" y="275.443" width="6.70588" height="6.70493" fill="#1E1E1E"/>
<rect x="54.647" y="282.148" width="6.70588" height="6.7049" fill="#1E1E1E"/>
<rect x="54.647" y="235.213" width="6.70588" height="6.70491" fill="#1E1E1E"/>
<rect x="54.647" y="241.918" width="6.70588" height="6.70491" fill="#1E1E1E"/>
<rect x="54.647" y="295.557" width="6.70588" height="6.70494" fill="#1E1E1E"/>
<rect x="54.647" y="302.262" width="6.70588" height="6.70491" fill="#1E1E1E"/>
<rect x="54.647" y="308.967" width="6.70588" height="6.70491" fill="#1E1E1E"/>
<rect x="168.647" y="248.623" width="6.7059" height="6.70493" fill="#1E1E1E"/>
<rect x="168.647" y="255.328" width="6.7059" height="6.70493" fill="#1E1E1E"/>
<rect x="168.647" y="262.033" width="6.7059" height="6.70491" fill="#1E1E1E"/>
<rect x="168.647" y="288.852" width="6.7059" height="6.70491" fill="#1E1E1E"/>
<rect x="168.647" y="268.738" width="6.7059" height="6.70493" fill="#1E1E1E"/>
<rect x="168.647" y="275.443" width="6.7059" height="6.70493" fill="#1E1E1E"/>
<rect x="168.647" y="282.148" width="6.7059" height="6.7049" fill="#1E1E1E"/>
<rect x="168.647" y="235.213" width="6.7059" height="6.70491" fill="#1E1E1E"/>
<rect x="168.647" y="241.918" width="6.7059" height="6.70491" fill="#1E1E1E"/>
<rect x="168.647" y="295.557" width="6.7059" height="6.70494" fill="#1E1E1E"/>
<rect x="168.647" y="302.262" width="6.7059" height="6.70491" fill="#1E1E1E"/>
<rect x="168.647" y="308.967" width="6.7059" height="6.70491" fill="#1E1E1E"/>
<rect x="54.647" y="315.672" width="6.70588" height="6.70494" fill="#1E1E1E"/>
<rect x="54.647" y="322.377" width="6.70588" height="6.70491" fill="#1E1E1E"/>
<rect x="47.9412" y="329.082" width="6.70588" height="6.70491" fill="#1E1E1E"/>
<rect x="47.9412" y="335.787" width="6.70588" height="6.70494" fill="#1E1E1E"/>
<rect x="47.9412" y="342.492" width="6.70588" height="6.7049" fill="#1E1E1E"/>
<rect x="41.2354" y="355.902" width="6.70588" height="6.70493" fill="#1E1E1E"/>
<rect x="41.2354" y="355.902" width="6.70588" height="6.70493" fill="#1E1E1E"/>
<rect x="41.2354" y="349.197" width="6.70588" height="6.70493" fill="#1E1E1E"/>
<rect x="175.353" y="335.787" width="6.70587" height="6.70494" fill="#1E1E1E"/>
<rect x="175.353" y="342.492" width="6.70587" height="6.7049" fill="#1E1E1E"/>
<rect x="182.059" y="355.902" width="6.70589" height="6.70493" fill="#1E1E1E"/>
<rect x="182.059" y="355.902" width="6.70589" height="6.70493" fill="#1E1E1E"/>
<rect x="182.059" y="349.197" width="6.70589" height="6.70493" fill="#1E1E1E"/>
<rect x="168.647" y="315.672" width="6.7059" height="6.70494" fill="#1E1E1E"/>
<rect x="168.647" y="322.377" width="6.7059" height="6.70491" fill="#1E1E1E"/>
<rect x="175.353" y="329.082" width="6.70587" height="6.70491" fill="#1E1E1E"/>
<rect x="161.941" y="228.508" width="6.70587" height="6.70493" fill="#1E1E1E"/>
<rect x="155.235" y="228.508" width="6.70589" height="6.70493" fill="#1E1E1E"/>
<rect x="155.235" y="228.508" width="6.70589" height="6.70493" fill="#1E1E1E"/>
<rect x="155.235" y="221.803" width="6.70589" height="6.70491" fill="#1E1E1E"/>
<rect x="41.2354" y="94.4102" width="6.70588" height="6.70492" fill="#1E1E1E"/>
<rect x="41.2354" y="94.4102" width="6.70588" height="6.70492" fill="#1E1E1E"/>
<rect x="41.2354" y="87.7051" width="6.70588" height="6.70492" fill="#1E1E1E"/>
<rect x="47.9412" y="81" width="6.70588" height="6.70492" fill="#1E1E1E"/>
<rect x="54.647" y="81" width="6.70588" height="6.70492" fill="#1E1E1E"/>
<rect x="61.353" y="81" width="6.70588" height="6.70492" fill="#1E1E1E"/>
<rect x="68.0588" y="81" width="6.70589" height="6.70492" fill="#1E1E1E"/>
<rect x="74.7646" y="87.7051" width="6.70588" height="6.70492" fill="#1E1E1E"/>
<rect x="128.412" y="94.4102" width="6.70588" height="6.70492" fill="#1E1E1E"/>
<rect x="94.8823" y="94.4102" width="6.70588" height="6.70492" fill="#1E1E1E"/>
<rect x="94.8823" y="94.4102" width="6.70588" height="6.70492" fill="#1E1E1E"/>
<rect x="94.8823" y="87.7051" width="6.70588" height="6.70492" fill="#1E1E1E"/>
<rect x="101.588" y="81" width="6.70589" height="6.70492" fill="#1E1E1E"/>
<rect x="108.294" y="81" width="6.70588" height="6.70492" fill="#1E1E1E"/>
<rect x="115" y="81" width="6.70589" height="6.70492" fill="#1E1E1E"/>
<rect x="121.706" y="81" width="6.70588" height="6.70492" fill="#1E1E1E"/>
<rect x="128.412" y="87.7051" width="6.70588" height="6.70492" fill="#1E1E1E"/>
<rect x="182.059" y="94.4102" width="6.70589" height="6.70492" fill="#1E1E1E"/>
<rect x="148.529" y="94.4102" width="6.70587" height="6.70492" fill="#1E1E1E"/>
<rect x="148.529" y="94.4102" width="6.70587" height="6.70492" fill="#1E1E1E"/>
<rect x="148.529" y="87.7051" width="6.70587" height="6.70492" fill="#1E1E1E"/>
<rect x="155.235" y="81" width="6.70589" height="6.70492" fill="#1E1E1E"/>
<rect x="161.941" y="81" width="6.70587" height="6.70492" fill="#1E1E1E"/>
<rect x="168.647" y="81" width="6.7059" height="6.70492" fill="#1E1E1E"/>
<rect x="175.353" y="81" width="6.70587" height="6.70492" fill="#1E1E1E"/>
<rect x="182.059" y="87.7051" width="6.70589" height="6.70492" fill="#1E1E1E"/>
<rect x="155.235" y="101.115" width="6.70589" height="6.70492" fill="#1E1E1E"/>
<rect x="155.235" y="107.82" width="6.70589" height="6.70492" fill="#1E1E1E"/>
<rect x="155.235" y="114.525" width="6.70589" height="6.70492" fill="#1E1E1E"/>
<rect x="155.235" y="121.23" width="6.70589" height="6.70492" fill="#1E1E1E"/>
<rect x="175.353" y="101.115" width="6.70587" height="6.70492" fill="#1E1E1E"/>
<rect x="175.353" y="107.82" width="6.70587" height="6.70492" fill="#1E1E1E"/>
<rect x="175.353" y="114.525" width="6.70587" height="6.70492" fill="#1E1E1E"/>
<rect x="175.353" y="121.23" width="6.70587" height="6.70492" fill="#1E1E1E"/>
<rect x="175.353" y="127.934" width="6.70587" height="6.70491" fill="#1E1E1E"/>
<rect x="175.353" y="134.639" width="6.70587" height="6.70493" fill="#1E1E1E"/>
<rect x="175.353" y="141.344" width="6.70587" height="6.70491" fill="#1E1E1E"/>
<rect x="175.353" y="148.049" width="6.70587" height="6.70492" fill="#1E1E1E"/>
<rect x="60" y="235" width="109" height="135" fill="#FF9505"/>
<rect x="48" y="396" width="134" height="48" fill="#FF9505"/>
<rect x="27" y="449" width="176" height="15" fill="#E2711D"/>
<rect x="26" y="376" width="176" height="14" fill="#E2711D"/>
<rect x="7" y="469" width="216" height="15" fill="#FF9505"/>
<rect x="74" y="208" width="82" height="27" fill="#FF9505"/>
<rect x="74" y="161" width="82" height="21" fill="#FF9505"/>
<rect x="68" y="161" width="6" height="14" fill="#FF9505"/>
<rect x="54" y="87" width="14" height="48" fill="#FF9505"/>
<rect x="68" y="87" width="7" height="14" fill="#FF9505"/>
<rect x="48" y="87" width="6" height="14" fill="#FF9505"/>
<rect x="101" y="87" width="7" height="14" fill="#FF9505"/>
<rect x="155" y="87" width="7" height="14" fill="#FF9505"/>
<rect x="122" y="87" width="7" height="14" fill="#FF9505"/>
<rect x="122" y="128" width="7" height="6" fill="#FF9505"/>
<rect x="101" y="128" width="7" height="6" fill="#FF9505"/>
<rect x="68" y="128" width="7" height="6" fill="#FF9505"/>
<rect x="155" y="128" width="7" height="6" fill="#FF9505"/>
<rect x="176" y="87" width="7" height="14" fill="#FF9505"/>
<rect x="108" y="87" width="14" height="48" fill="#FF9505"/>
<rect x="54" y="134" width="122" height="21" fill="#FF9505"/>
<rect x="162" y="87" width="14" height="49" fill="#FF9505"/>
<rect x="156" y="161" width="6" height="14" fill="#FF9505"/>
<rect x="162" y="161" width="7" height="8" fill="#FF9505"/>
<rect x="61" y="161" width="7" height="8" fill="#FF9505"/>
<rect x="68" y="188" width="94" height="14" fill="#E2711D"/>
<rect x="54" y="329" width="6" height="41" fill="#FF9505"/>
<rect x="48" y="349" width="6" height="21" fill="#FF9505"/>
<rect x="176" y="349" width="6" height="21" fill="#FF9505"/>
<rect x="41" y="362" width="7" height="8" fill="#FF9505"/>
<rect x="41" y="396" width="7" height="14" fill="#FF9505"/>
<rect x="182" y="396" width="7" height="14" fill="#FF9505"/>
<rect x="41" y="436" width="7" height="8" fill="#FF9505"/>
<rect x="182" y="436" width="7" height="8" fill="#FF9505"/>
<rect x="182" y="362" width="7" height="8" fill="#FF9505"/>
<rect x="169" y="329" width="7" height="41" fill="#FF9505"/>
<rect x="41" y="396" width="7" height="14" fill="#CC5803"/>
<rect x="48" y="397" width="1" height="1" fill="#CC5803"/>
<rect x="48" y="398" width="1" height="1" fill="#CC5803"/>
<rect x="49" y="402" width="1" height="8" fill="#CC5803"/>
<rect x="50" y="402" width="1" height="8" fill="#CC5803"/>
<rect x="51" y="406" width="2" height="30" fill="#CC5803"/>
<rect x="53" y="410" width="2" height="26" fill="#CC5803"/>
<rect x="55" y="411" width="1" height="24" fill="#CC5803"/>
<rect x="55" y="410" width="1" height="1" fill="#CC5803"/>
<rect x="56" y="412" width="1" height="1" fill="#CC5803"/>
<rect x="56" y="413" width="1" height="1" fill="#CC5803"/>
<rect x="56" y="414" width="1" height="17" fill="#CC5803"/>
<rect x="56" y="431" width="1" height="4" fill="#CC5803"/>
<rect x="60" y="416" width="1" height="10" fill="#CC5803"/>
<rect x="60" y="426" width="1" height="4" fill="#CC5803"/>
<rect x="63" y="421" width="1" height="4" fill="#CC5803"/>
<rect x="57" y="415" width="3" height="15" fill="#CC5803"/>
<rect x="57" y="430" width="3" height="1" fill="#CC5803"/>
<rect x="61" y="420" width="2" height="5" fill="#CC5803"/>
<rect x="61" y="425" width="2" height="1" fill="#CC5803"/>
<rect x="48" y="436" width="2" height="1" fill="#CC5803"/>
<rect x="48" y="399" width="1" height="11" fill="#CC5803"/>
<rect width="3" height="26" transform="matrix(1 0 0 -1 48 436)" fill="#CC5803"/>
<rect x="41" y="436" width="7" height="8" fill="#CC5803"/>
</svg>
