<svg width="1440" height="1040" viewBox="0 0 1440 1040" fill="none" xmlns="http://www.w3.org/2000/svg">
<g opacity="0.35" clip-path="url(#clip0_318_36136)">
<rect x="-66" y="-28" width="302" height="302" fill="#A9DEF9"/>
<rect x="-66" y="272" width="302" height="302" fill="#7FBDDC"/>
<rect x="236" y="-28" width="302" height="302" fill="#7FBDDC"/>
<rect x="236" y="272" width="302" height="302" fill="#A9DEF9"/>
<rect x="-66" y="574" width="302" height="302" fill="#A9DEF9"/>
<rect x="-66" y="874" width="302" height="302" fill="#7FBDDC"/>
<rect x="236" y="574" width="302" height="302" fill="#7FBDDC"/>
<rect x="236" y="874" width="302" height="302" fill="#A9DEF9"/>
<rect x="538" y="-28" width="302" height="302" fill="#A9DEF9"/>
<rect x="538" y="272" width="302" height="302" fill="#7FBDDC"/>
<rect x="840" y="-28" width="302" height="302" fill="#7FBDDC"/>
<rect x="840" y="272" width="302" height="302" fill="#A9DEF9"/>
<rect x="538" y="574" width="302" height="302" fill="#A9DEF9"/>
<rect x="538" y="874" width="302" height="302" fill="#7FBDDC"/>
<rect x="840" y="574" width="302" height="302" fill="#7FBDDC"/>
<rect x="840" y="874" width="302" height="302" fill="#A9DEF9"/>
<rect x="1142" y="-28" width="302" height="302" fill="#A9DEF9"/>
<rect x="1142" y="272" width="302" height="302" fill="#7FBDDC"/>
<rect x="1142" y="574" width="302" height="302" fill="#A9DEF9"/>
<rect x="1142" y="874" width="302" height="302" fill="#7FBDDC"/>
</g>
<defs>
<clipPath id="clip0_318_36136">
<rect width="1812" height="1068" fill="white" transform="translate(-66 -28)"/>
</clipPath>
</defs>
</svg>
