<svg width="110" height="59" viewBox="0 0 110 59" fill="none" xmlns="http://www.w3.org/2000/svg">
<path fill-rule="evenodd" clip-rule="evenodd" d="M35.2588 11.3694L19.804 7.22827L14.3688 27.5127L17.2665 28.2892L16.4901 31.1869L32.9108 35.5869L33.6873 32.6891L37.551 33.7244L39.1039 27.9288L44.8994 29.4817L45.6759 26.584L48.5737 27.3604L51.4207 16.7352L48.5229 15.9588L48.7817 14.9928L42.9862 13.4399L35.2588 11.3694Z" fill="#A9DEF9"/>
<path fill-rule="evenodd" clip-rule="evenodd" d="M80.6574 23.5339L67.1344 19.9105L66.8756 20.8764L63.9778 20.0999L61.1308 30.7251L64.0286 31.5016L63.2521 34.3994L69.0477 35.9523L67.4948 41.7478L71.3585 42.7831L70.582 45.6809L87.0027 50.0808L87.7792 47.183L90.677 47.9595L96.1122 27.6751L80.6574 23.5339Z" fill="#A9DEF9"/>
<path fill-rule="evenodd" clip-rule="evenodd" d="M34.7762 7.09904L30.3605 5.91586L29.1774 10.3315L33.593 11.5147L38.0087 12.6979L42.4243 13.881L46.84 15.0642L45.6568 19.4799L50.0725 20.663L51.2557 16.2474L52.4388 11.8317L48.0232 10.6486L43.6075 9.46538L39.1919 8.28221L34.7762 7.09904ZM12.6979 1.18317L17.1135 2.36634L15.9304 6.78201L14.7472 11.1977L13.564 15.6133L9.14837 14.4302L10.3315 10.0145L5.91588 8.83132L7.09905 4.41566L11.5147 5.59883L12.6979 1.18317ZM21.5292 3.54952L17.1135 2.36634L15.9304 6.78201L14.7472 11.1977L13.564 15.6133L12.3809 20.029L11.1977 24.4446L15.6134 25.6278L16.7965 21.2122L17.9797 16.7965L19.1629 12.3808L20.346 7.96518L24.7617 9.14835L29.1774 10.3315L30.3605 5.91586L25.9449 4.73269L21.5292 3.54952ZM104.244 30.4455L108.659 31.6286L107.476 36.0443L103.06 34.8611L104.244 30.4455ZM104.244 30.4455L99.8279 29.2623L101.011 24.8466L96.5954 23.6635L92.1798 22.4803L87.7641 21.2971L83.3485 20.1139L82.1653 24.5296L86.581 25.7128L90.9966 26.8959L95.4123 28.0791L94.2291 32.4948L93.0459 36.9104L91.8628 41.3261L90.6796 45.7418L95.0953 46.9249L96.2784 42.5093L97.4616 38.0936L101.877 39.2768L103.06 34.8611L104.244 30.4455ZM11.1977 24.4446L10.0145 28.8603L14.4302 30.0435L13.247 34.4591L17.6627 35.6423L22.0783 36.8255L23.2615 32.4098L18.8458 31.2267L20.029 26.811L15.6134 25.6278L11.1977 24.4446ZM60.087 18.6137L55.6713 17.4306L51.2557 16.2474L50.0725 20.663L48.8893 25.0787L47.7062 29.4944L52.1218 30.6775L53.305 26.2619L57.7206 27.4451L56.5375 31.8607L60.9531 33.0439L59.77 37.4595L64.1856 38.6427L68.6013 39.8259L69.7845 35.4102L65.3688 34.2271L66.552 29.8114L62.1363 28.6282L63.3195 24.2126L67.7351 25.3957L68.9183 20.9801L73.334 22.1633L77.7496 23.3464L82.1653 24.5296L83.3485 20.1139L78.9328 18.9308L74.5171 17.7476L70.1015 16.5644L65.6858 15.3812L64.5026 19.7969L60.087 18.6137ZM44.4737 23.8955L48.8893 25.0787L47.7062 29.4944L46.523 33.91L42.1073 32.7268L37.6916 31.5437L38.8748 27.128L43.2905 28.3112L44.4737 23.8955ZM93.9121 51.3406L95.0953 46.9249L90.6796 45.7418L86.2639 44.5586L85.0807 48.9743L80.6651 47.7911L76.2494 46.6079L75.0663 51.0236L79.4819 52.2067L83.8976 53.3899L88.3132 54.5731L89.4964 50.1574L93.9121 51.3406ZM23.2615 32.4098L27.6772 33.593L32.0928 34.7762L33.276 30.3605L37.6916 31.5437L42.1073 32.7268L40.9241 37.1425L36.5085 35.9593L35.3253 40.375L30.9096 39.1918L26.494 38.0087L22.0783 36.8255L23.2615 32.4098ZM66.2349 48.6572L70.6506 49.8404L75.0663 51.0236L76.2494 46.6079L71.8338 45.4247L73.0169 41.0091L68.6013 39.8259L64.1856 38.6427L63.0024 43.0584L67.4181 44.2416L66.2349 48.6572Z" fill="#11140F"/>
</svg>
