<svg width="113" height="76" viewBox="0 0 113 76" fill="none" xmlns="http://www.w3.org/2000/svg">
<path fill-rule="evenodd" clip-rule="evenodd" d="M94.2688 42.9841L17.0499 51.4818L17.8129 58.4154L17.8129 58.4154L17.8939 59.1514L9.95314 60.0252L11.1295 70.7147L102.393 60.6714L101.216 49.9819L95.1128 50.6536L95.0318 49.9176L94.6449 46.4019L94.2688 42.9841Z" fill="#F694C1"/>
<path fill-rule="evenodd" clip-rule="evenodd" d="M68.9526 8.60728L32.4473 12.6246L32.9524 17.2143L23.0961 18.2989L23.6012 22.8888L19.768 23.3106L21.8608 42.3277L86.3115 35.235L84.2187 16.218L79.0891 16.7825L78.584 12.1926L69.4577 13.1969L68.9526 8.60728Z" fill="#F694C1"/>
<rect x="31.9421" y="8.03467" width="4.59071" height="4.61748" transform="rotate(-6.28 31.9421 8.03467)" fill="#F694C1"/>
<rect x="36.5054" y="7.53247" width="4.59071" height="4.61748" transform="rotate(-6.28 36.5054 7.53247)" fill="#F694C1"/>
<rect x="45.6316" y="6.52808" width="4.59072" height="4.61748" transform="rotate(-6.28 45.6316 6.52808)" fill="#F694C1"/>
<rect x="50.1948" y="6.02588" width="4.59071" height="4.61748" transform="rotate(-6.28 50.1948 6.02588)" fill="#F694C1"/>
<rect x="54.7581" y="5.52368" width="4.59071" height="4.61748" transform="rotate(-6.28 54.7581 5.52368)" fill="#F694C1"/>
<rect x="59.321" y="5.02173" width="4.59071" height="4.61748" transform="rotate(-6.28 59.321 5.02173)" fill="#F694C1"/>
<rect x="63.8843" y="4.51953" width="4.59072" height="4.61748" transform="rotate(-6.28 63.8843 4.51953)" fill="#F694C1"/>
<rect x="27.884" y="13.1267" width="4.59071" height="4.61748" transform="rotate(-6.28 27.884 13.1267)" fill="#F694C1"/>
<rect x="23.3208" y="13.6287" width="4.59071" height="4.61748" transform="rotate(-6.28 23.3208 13.6287)" fill="#F694C1"/>
<rect x="19.2629" y="18.7207" width="4.59071" height="4.61748" transform="rotate(-6.28 19.2629 18.7207)" fill="#F694C1"/>
<rect x="68.9526" y="8.60718" width="4.59071" height="4.61748" transform="rotate(-6.28 68.9526 8.60718)" fill="#F694C1"/>
<rect x="73.5156" y="8.10474" width="4.59071" height="4.61748" transform="rotate(-6.28 73.5156 8.10474)" fill="#F694C1"/>
<rect x="78.584" y="12.1924" width="4.59071" height="4.61748" transform="rotate(-6.28 78.584 12.1924)" fill="#F694C1"/>
<rect x="83.6521" y="16.28" width="4.59071" height="4.61748" transform="rotate(-6.28 83.6521 16.28)" fill="#F694C1"/>
<rect x="84.1572" y="20.8699" width="4.59071" height="4.61748" transform="rotate(-6.28 84.1572 20.8699)" fill="#F694C1"/>
<rect x="84.6624" y="25.4597" width="4.59071" height="4.61748" transform="rotate(-6.28 84.6624 25.4597)" fill="#F694C1"/>
<rect x="85.1675" y="30.0493" width="4.59071" height="4.61748" transform="rotate(-6.28 85.1675 30.0493)" fill="#F694C1"/>
<rect x="85.6726" y="34.6394" width="4.59071" height="4.61748" transform="rotate(-6.28 85.6726 34.6394)" fill="#E85E9D"/>
<rect x="86.1777" y="39.229" width="4.59071" height="4.61748" transform="rotate(-6.28 86.1777 39.229)" fill="#E85E9D"/>
<rect x="15.2048" y="23.8125" width="4.59071" height="4.61748" transform="rotate(-6.28 15.2048 23.8125)" fill="#F694C1"/>
<rect x="15.71" y="28.4023" width="4.59071" height="4.61748" transform="rotate(-6.28 15.71 28.4023)" fill="#F694C1"/>
<rect x="16.2148" y="32.9922" width="4.59071" height="4.61748" transform="rotate(-6.28 16.2148 32.9922)" fill="#F694C1"/>
<rect x="16.72" y="37.582" width="4.59071" height="4.61748" transform="rotate(-6.28 16.72 37.582)" fill="#F694C1"/>
<rect x="17.2251" y="42.1716" width="4.59071" height="4.61748" transform="rotate(-6.28 17.2251 42.1716)" fill="#E85E9D"/>
<rect x="17.7302" y="46.7615" width="4.59071" height="4.61748" transform="rotate(-6.28 17.7302 46.7615)" fill="#E85E9D"/>
<rect x="22.2935" y="46.2593" width="4.59071" height="4.61748" transform="rotate(-6.28 22.2935 46.2593)" fill="#E85E9D"/>
<rect x="26.8564" y="45.7571" width="4.59071" height="4.61748" transform="rotate(-6.28 26.8564 45.7571)" fill="#E85E9D"/>
<rect x="31.4197" y="45.2551" width="4.59071" height="4.61748" transform="rotate(-6.28 31.4197 45.2551)" fill="#E85E9D"/>
<rect x="35.9829" y="44.7529" width="4.59071" height="4.61748" transform="rotate(-6.28 35.9829 44.7529)" fill="#E85E9D"/>
<rect x="40.5461" y="44.2505" width="4.59071" height="4.61748" transform="rotate(-6.28 40.5461 44.2505)" fill="#E85E9D"/>
<rect x="45.1091" y="43.7485" width="4.59071" height="4.61748" transform="rotate(-6.28 45.1091 43.7485)" fill="#E85E9D"/>
<rect x="49.6724" y="43.2463" width="4.59072" height="4.61748" transform="rotate(-6.28 49.6724 43.2463)" fill="#E85E9D"/>
<rect x="54.2356" y="42.7441" width="4.59071" height="4.61748" transform="rotate(-6.28 54.2356 42.7441)" fill="#E85E9D"/>
<rect x="58.7988" y="42.2419" width="4.59071" height="4.61748" transform="rotate(-6.28 58.7988 42.2419)" fill="#E85E9D"/>
<rect x="63.3618" y="41.7397" width="4.59071" height="4.61748" transform="rotate(-6.28 63.3618 41.7397)" fill="#E85E9D"/>
<rect x="67.925" y="41.2378" width="4.59072" height="4.61748" transform="rotate(-6.28 67.925 41.2378)" fill="#E85E9D"/>
<rect x="72.4883" y="40.7356" width="4.59071" height="4.61748" transform="rotate(-6.28 72.4883 40.7356)" fill="#E85E9D"/>
<rect x="77.0513" y="40.2332" width="4.59071" height="4.61748" transform="rotate(-6.28 77.0513 40.2332)" fill="#E85E9D"/>
<rect x="81.6145" y="39.7312" width="4.59071" height="4.61748" transform="rotate(-6.28 81.6145 39.7312)" fill="#E85E9D"/>
<rect x="21.7883" y="41.6694" width="4.59071" height="4.61748" transform="rotate(-6.28 21.7883 41.6694)" fill="#E85E9D"/>
<rect x="26.3516" y="41.1675" width="4.59071" height="4.61748" transform="rotate(-6.28 26.3516 41.1675)" fill="#E85E9D"/>
<rect x="30.9146" y="40.6653" width="4.59071" height="4.61748" transform="rotate(-6.28 30.9146 40.6653)" fill="#E85E9D"/>
<rect x="35.4778" y="40.1631" width="4.59071" height="4.61748" transform="rotate(-6.28 35.4778 40.1631)" fill="#E85E9D"/>
<rect x="40.041" y="39.6609" width="4.59071" height="4.61748" transform="rotate(-6.28 40.041 39.6609)" fill="#E85E9D"/>
<rect x="44.6042" y="39.1587" width="4.59071" height="4.61748" transform="rotate(-6.28 44.6042 39.1587)" fill="#E85E9D"/>
<rect x="49.1672" y="38.6565" width="4.59072" height="4.61748" transform="rotate(-6.28 49.1672 38.6565)" fill="#E85E9D"/>
<rect x="53.7305" y="38.1543" width="4.59071" height="4.61748" transform="rotate(-6.28 53.7305 38.1543)" fill="#E85E9D"/>
<rect x="58.2937" y="37.6521" width="4.59071" height="4.61748" transform="rotate(-6.28 58.2937 37.6521)" fill="#E85E9D"/>
<rect x="62.8567" y="37.1501" width="4.59071" height="4.61748" transform="rotate(-6.28 62.8567 37.1501)" fill="#E85E9D"/>
<rect x="67.4199" y="36.6479" width="4.59072" height="4.61748" transform="rotate(-6.28 67.4199 36.6479)" fill="#E85E9D"/>
<rect x="71.9832" y="36.1458" width="4.59071" height="4.61748" transform="rotate(-6.28 71.9832 36.1458)" fill="#E85E9D"/>
<rect x="76.5464" y="35.6436" width="4.59071" height="4.61748" transform="rotate(-6.28 76.5464 35.6436)" fill="#E85E9D"/>
<rect x="81.1094" y="35.1414" width="4.59071" height="4.61748" transform="rotate(-6.28 81.1094 35.1414)" fill="#E85E9D"/>
<rect x="91.2458" y="43.3167" width="4.59071" height="4.61748" transform="rotate(-6.28 91.2458 43.3167)" fill="#F694C1"/>
<rect x="96.3142" y="47.4043" width="4.59072" height="4.61748" transform="rotate(-6.28 96.3142 47.4043)" fill="#F694C1"/>
<rect x="91.751" y="47.9062" width="4.59071" height="4.61748" transform="rotate(-6.28 91.751 47.9062)" fill="#F694C1"/>
<rect x="101.383" y="51.4917" width="4.59072" height="4.61748" transform="rotate(-6.28 101.383 51.4917)" fill="#F694C1"/>
<rect x="83.635" y="58.0901" width="4.59071" height="4.61748" transform="rotate(-6.28 83.635 58.0901)" fill="#F694C1"/>
<rect x="101.888" y="56.0815" width="4.59072" height="4.61748" transform="rotate(-6.28 101.888 56.0815)" fill="#F694C1"/>
<rect x="106.451" y="55.5793" width="4.59071" height="4.61748" transform="rotate(-6.28 106.451 55.5793)" fill="#F694C1"/>
<rect x="13.6721" y="51.8535" width="4.59071" height="4.61748" transform="rotate(-6.28 13.6721 51.8535)" fill="#F694C1"/>
<rect x="9.61426" y="56.9453" width="4.59071" height="4.61748" transform="rotate(-6.28 9.61426 56.9453)" fill="#F694C1"/>
<rect x="14.1772" y="56.4431" width="4.59071" height="4.61748" transform="rotate(-6.28 14.1772 56.4431)" fill="#F694C1"/>
<rect x="6.06104" y="66.627" width="4.59071" height="4.61748" transform="rotate(-6.28 6.06104 66.627)" fill="#F694C1"/>
<path d="M10.6243 66.1248L15.1874 65.6226L15.6925 70.2124L11.1294 70.7145L10.6243 66.1248Z" fill="#F694C1"/>
<path d="M15.1875 65.6228L19.7507 65.1206L20.2558 69.7104L15.6926 70.2126L15.1875 65.6228Z" fill="#F694C1"/>
<path d="M19.7507 65.1206L24.3139 64.6184L24.819 69.2082L20.2558 69.7104L19.7507 65.1206Z" fill="#F694C1"/>
<path d="M24.3137 64.6184L28.8769 64.1162L29.382 68.706L24.8188 69.2082L24.3137 64.6184Z" fill="#F694C1"/>
<path d="M28.877 64.1162L33.4401 63.614L33.9452 68.2038L29.382 68.706L28.877 64.1162Z" fill="#F694C1"/>
<path d="M33.4402 63.614L38.0033 63.1118L38.5084 67.7016L33.9453 68.2038L33.4402 63.614Z" fill="#F694C1"/>
<path d="M38.0032 63.1121L42.5663 62.6099L43.0714 67.1997L38.5083 67.7018L38.0032 63.1121Z" fill="#F694C1"/>
<path d="M43.0715 67.1995L47.6347 66.6973L48.1398 71.2871L43.5766 71.7892L43.0715 67.1995Z" fill="#F694C1"/>
<path d="M47.6348 66.6973L52.1979 66.1951L52.703 70.7849L48.1399 71.287L47.6348 66.6973Z" fill="#F694C1"/>
<path d="M52.1978 66.1951L56.7609 65.6929L57.266 70.2827L52.7028 70.7848L52.1978 66.1951Z" fill="#F694C1"/>
<path d="M56.761 65.6931L61.3241 65.191L61.8292 69.7807L57.2661 70.2829L56.761 65.6931Z" fill="#F694C1"/>
<path d="M61.3242 65.1909L65.8874 64.6888L66.3925 69.2785L61.8293 69.7807L61.3242 65.1909Z" fill="#F694C1"/>
<path d="M61.3242 65.1909L70.4505 64.1866L70.9556 68.7764L61.8293 69.7807L61.3242 65.1909Z" fill="#F694C1"/>
<path d="M69.9453 59.5967L83.6348 58.0902L84.1399 62.6799L70.4504 64.1864L69.9453 59.5967Z" fill="#F694C1"/>
<path d="M88.198 57.5881L101.887 56.0816L102.393 60.6714L88.7031 62.1779L88.198 57.5881Z" fill="#F694C1"/>
<rect x="5.55615" y="62.0374" width="4.59071" height="4.61748" transform="rotate(-6.28 5.55615 62.0374)" fill="#F694C1"/>
<rect x="32.9351" y="59.0244" width="4.59071" height="4.61748" transform="rotate(-6.28 32.9351 59.0244)" fill="#F694C1"/>
<rect x="41.0686" y="7.03027" width="4.59071" height="4.61748" transform="rotate(-6.28 41.0686 7.03027)" fill="#F694C1"/>
<rect x="31.9421" y="8.03467" width="4.59071" height="4.61748" transform="rotate(-6.28 31.9421 8.03467)" fill="#F694C1"/>
<rect x="36.5054" y="7.53247" width="4.59071" height="4.61748" transform="rotate(-6.28 36.5054 7.53247)" fill="#F694C1"/>
<rect x="45.6316" y="6.52808" width="4.59072" height="4.61748" transform="rotate(-6.28 45.6316 6.52808)" fill="#F694C1"/>
<rect x="50.1948" y="6.02588" width="4.59071" height="4.61748" transform="rotate(-6.28 50.1948 6.02588)" fill="#F694C1"/>
<rect x="54.7581" y="5.52368" width="4.59071" height="4.61748" transform="rotate(-6.28 54.7581 5.52368)" fill="#F694C1"/>
<rect x="59.321" y="5.02173" width="4.59071" height="4.61748" transform="rotate(-6.28 59.321 5.02173)" fill="#F694C1"/>
<rect x="63.8843" y="4.51953" width="4.59072" height="4.61748" transform="rotate(-6.28 63.8843 4.51953)" fill="#F694C1"/>
<rect x="27.884" y="13.1267" width="4.59071" height="4.61748" transform="rotate(-6.28 27.884 13.1267)" fill="#F694C1"/>
<rect x="23.3208" y="13.6287" width="4.59071" height="4.61748" transform="rotate(-6.28 23.3208 13.6287)" fill="#F694C1"/>
<rect x="19.2629" y="18.7207" width="4.59071" height="4.61748" transform="rotate(-6.28 19.2629 18.7207)" fill="#F694C1"/>
<rect x="68.9526" y="8.60718" width="4.59071" height="4.61748" transform="rotate(-6.28 68.9526 8.60718)" fill="#F694C1"/>
<rect x="73.5156" y="8.10474" width="4.59071" height="4.61748" transform="rotate(-6.28 73.5156 8.10474)" fill="#F694C1"/>
<rect x="78.584" y="12.1924" width="4.59071" height="4.61748" transform="rotate(-6.28 78.584 12.1924)" fill="#F694C1"/>
<rect x="83.6521" y="16.28" width="4.59071" height="4.61748" transform="rotate(-6.28 83.6521 16.28)" fill="#F694C1"/>
<rect x="84.1572" y="20.8699" width="4.59071" height="4.61748" transform="rotate(-6.28 84.1572 20.8699)" fill="#F694C1"/>
<rect x="84.6624" y="25.4597" width="4.59071" height="4.61748" transform="rotate(-6.28 84.6624 25.4597)" fill="#F694C1"/>
<rect x="85.1675" y="30.0493" width="4.59071" height="4.61748" transform="rotate(-6.28 85.1675 30.0493)" fill="#F694C1"/>
<rect x="85.6726" y="34.6394" width="4.59071" height="4.61748" transform="rotate(-6.28 85.6726 34.6394)" fill="#E85E9D"/>
<rect x="86.1777" y="39.229" width="4.59071" height="4.61748" transform="rotate(-6.28 86.1777 39.229)" fill="#E85E9D"/>
<rect x="15.2048" y="23.8125" width="4.59071" height="4.61748" transform="rotate(-6.28 15.2048 23.8125)" fill="#F694C1"/>
<rect x="15.71" y="28.4023" width="4.59071" height="4.61748" transform="rotate(-6.28 15.71 28.4023)" fill="#F694C1"/>
<rect x="16.2148" y="32.9922" width="4.59071" height="4.61748" transform="rotate(-6.28 16.2148 32.9922)" fill="#F694C1"/>
<rect x="16.72" y="37.582" width="4.59071" height="4.61748" transform="rotate(-6.28 16.72 37.582)" fill="#F694C1"/>
<rect x="17.2251" y="42.1716" width="4.59071" height="4.61748" transform="rotate(-6.28 17.2251 42.1716)" fill="#E85E9D"/>
<rect x="17.7302" y="46.7615" width="4.59071" height="4.61748" transform="rotate(-6.28 17.7302 46.7615)" fill="#E85E9D"/>
<rect x="22.2935" y="46.2593" width="4.59071" height="4.61748" transform="rotate(-6.28 22.2935 46.2593)" fill="#E85E9D"/>
<rect x="26.8564" y="45.7571" width="4.59071" height="4.61748" transform="rotate(-6.28 26.8564 45.7571)" fill="#E85E9D"/>
<rect x="31.4197" y="45.2551" width="4.59071" height="4.61748" transform="rotate(-6.28 31.4197 45.2551)" fill="#E85E9D"/>
<rect x="35.9829" y="44.7529" width="4.59071" height="4.61748" transform="rotate(-6.28 35.9829 44.7529)" fill="#E85E9D"/>
<rect x="40.5461" y="44.2505" width="4.59071" height="4.61748" transform="rotate(-6.28 40.5461 44.2505)" fill="#E85E9D"/>
<rect x="45.1091" y="43.7485" width="4.59071" height="4.61748" transform="rotate(-6.28 45.1091 43.7485)" fill="#E85E9D"/>
<rect x="49.6724" y="43.2463" width="4.59072" height="4.61748" transform="rotate(-6.28 49.6724 43.2463)" fill="#E85E9D"/>
<rect x="54.2356" y="42.7441" width="4.59071" height="4.61748" transform="rotate(-6.28 54.2356 42.7441)" fill="#E85E9D"/>
<rect x="58.7988" y="42.2419" width="4.59071" height="4.61748" transform="rotate(-6.28 58.7988 42.2419)" fill="#E85E9D"/>
<rect x="63.3618" y="41.7397" width="4.59071" height="4.61748" transform="rotate(-6.28 63.3618 41.7397)" fill="#E85E9D"/>
<rect x="67.925" y="41.2378" width="4.59072" height="4.61748" transform="rotate(-6.28 67.925 41.2378)" fill="#E85E9D"/>
<rect x="72.4883" y="40.7356" width="4.59071" height="4.61748" transform="rotate(-6.28 72.4883 40.7356)" fill="#E85E9D"/>
<rect x="77.0513" y="40.2332" width="4.59071" height="4.61748" transform="rotate(-6.28 77.0513 40.2332)" fill="#E85E9D"/>
<rect x="81.6145" y="39.7312" width="4.59071" height="4.61748" transform="rotate(-6.28 81.6145 39.7312)" fill="#E85E9D"/>
<rect x="21.7883" y="41.6694" width="4.59071" height="4.61748" transform="rotate(-6.28 21.7883 41.6694)" fill="#E85E9D"/>
<rect x="26.3516" y="41.1675" width="4.59071" height="4.61748" transform="rotate(-6.28 26.3516 41.1675)" fill="#E85E9D"/>
<rect x="30.9146" y="40.6653" width="4.59071" height="4.61748" transform="rotate(-6.28 30.9146 40.6653)" fill="#E85E9D"/>
<rect x="35.4778" y="40.1631" width="4.59071" height="4.61748" transform="rotate(-6.28 35.4778 40.1631)" fill="#E85E9D"/>
<rect x="40.041" y="39.6609" width="4.59071" height="4.61748" transform="rotate(-6.28 40.041 39.6609)" fill="#E85E9D"/>
<rect x="44.6042" y="39.1587" width="4.59071" height="4.61748" transform="rotate(-6.28 44.6042 39.1587)" fill="#E85E9D"/>
<rect x="49.1672" y="38.6565" width="4.59072" height="4.61748" transform="rotate(-6.28 49.1672 38.6565)" fill="#E85E9D"/>
<rect x="53.7305" y="38.1543" width="4.59071" height="4.61748" transform="rotate(-6.28 53.7305 38.1543)" fill="#E85E9D"/>
<rect x="58.2937" y="37.6521" width="4.59071" height="4.61748" transform="rotate(-6.28 58.2937 37.6521)" fill="#E85E9D"/>
<rect x="62.8567" y="37.1501" width="4.59071" height="4.61748" transform="rotate(-6.28 62.8567 37.1501)" fill="#E85E9D"/>
<rect x="67.4199" y="36.6479" width="4.59072" height="4.61748" transform="rotate(-6.28 67.4199 36.6479)" fill="#E85E9D"/>
<rect x="71.9832" y="36.1458" width="4.59071" height="4.61748" transform="rotate(-6.28 71.9832 36.1458)" fill="#E85E9D"/>
<rect x="76.5464" y="35.6436" width="4.59071" height="4.61748" transform="rotate(-6.28 76.5464 35.6436)" fill="#E85E9D"/>
<rect x="81.1094" y="35.1414" width="4.59071" height="4.61748" transform="rotate(-6.28 81.1094 35.1414)" fill="#E85E9D"/>
<rect x="91.2458" y="43.3167" width="4.59071" height="4.61748" transform="rotate(-6.28 91.2458 43.3167)" fill="#F694C1"/>
<rect x="96.3142" y="47.4043" width="4.59072" height="4.61748" transform="rotate(-6.28 96.3142 47.4043)" fill="#F694C1"/>
<rect x="91.751" y="47.9062" width="4.59071" height="4.61748" transform="rotate(-6.28 91.751 47.9062)" fill="#F694C1"/>
<rect x="101.383" y="51.4917" width="4.59072" height="4.61748" transform="rotate(-6.28 101.383 51.4917)" fill="#F694C1"/>
<rect x="83.635" y="58.0901" width="4.59071" height="4.61748" transform="rotate(-6.28 83.635 58.0901)" fill="#F694C1"/>
<rect x="101.888" y="56.0815" width="4.59072" height="4.61748" transform="rotate(-6.28 101.888 56.0815)" fill="#F694C1"/>
<rect x="106.451" y="55.5793" width="4.59071" height="4.61748" transform="rotate(-6.28 106.451 55.5793)" fill="#F694C1"/>
<rect x="13.6721" y="51.8535" width="4.59071" height="4.61748" transform="rotate(-6.28 13.6721 51.8535)" fill="#F694C1"/>
<rect x="9.61426" y="56.9453" width="4.59071" height="4.61748" transform="rotate(-6.28 9.61426 56.9453)" fill="#F694C1"/>
<rect x="14.1772" y="56.4431" width="4.59071" height="4.61748" transform="rotate(-6.28 14.1772 56.4431)" fill="#F694C1"/>
<rect x="6.06104" y="66.627" width="4.59071" height="4.61748" transform="rotate(-6.28 6.06104 66.627)" fill="#F694C1"/>
<path d="M10.6243 66.1248L15.1874 65.6226L15.6925 70.2124L11.1294 70.7145L10.6243 66.1248Z" fill="#F694C1"/>
<path d="M15.1875 65.6228L19.7507 65.1206L20.2558 69.7104L15.6926 70.2126L15.1875 65.6228Z" fill="#F694C1"/>
<path d="M19.7507 65.1206L24.3139 64.6184L24.819 69.2082L20.2558 69.7104L19.7507 65.1206Z" fill="#F694C1"/>
<path d="M24.3137 64.6184L28.8769 64.1162L29.382 68.706L24.8188 69.2082L24.3137 64.6184Z" fill="#F694C1"/>
<path d="M28.877 64.1162L33.4401 63.614L33.9452 68.2038L29.382 68.706L28.877 64.1162Z" fill="#F694C1"/>
<path d="M33.4402 63.614L38.0033 63.1118L38.5084 67.7016L33.9453 68.2038L33.4402 63.614Z" fill="#F694C1"/>
<path d="M38.0032 63.1121L42.5663 62.6099L43.0714 67.1997L38.5083 67.7018L38.0032 63.1121Z" fill="#F694C1"/>
<path d="M43.0715 67.1995L47.6347 66.6973L48.1398 71.2871L43.5766 71.7892L43.0715 67.1995Z" fill="#F694C1"/>
<path d="M47.6348 66.6973L52.1979 66.1951L52.703 70.7849L48.1399 71.287L47.6348 66.6973Z" fill="#F694C1"/>
<path d="M52.1978 66.1951L56.7609 65.6929L57.266 70.2827L52.7028 70.7848L52.1978 66.1951Z" fill="#F694C1"/>
<path d="M56.761 65.6931L61.3241 65.191L61.8292 69.7807L57.2661 70.2829L56.761 65.6931Z" fill="#F694C1"/>
<path d="M61.3242 65.1909L65.8874 64.6888L66.3925 69.2785L61.8293 69.7807L61.3242 65.1909Z" fill="#F694C1"/>
<path d="M61.3242 65.1909L70.4505 64.1866L70.9556 68.7764L61.8293 69.7807L61.3242 65.1909Z" fill="#F694C1"/>
<path d="M69.9453 59.5967L83.6348 58.0902L84.1399 62.6799L70.4504 64.1864L69.9453 59.5967Z" fill="#F694C1"/>
<path d="M88.198 57.5881L101.887 56.0816L102.393 60.6714L88.7031 62.1779L88.198 57.5881Z" fill="#F694C1"/>
<rect x="5.55615" y="62.0374" width="4.59071" height="4.61748" transform="rotate(-6.28 5.55615 62.0374)" fill="#F694C1"/>
<rect x="32.9351" y="59.0244" width="4.59071" height="4.61748" transform="rotate(-6.28 32.9351 59.0244)" fill="#F694C1"/>
<rect x="41.0686" y="7.03027" width="4.59071" height="4.61748" transform="rotate(-6.28 41.0686 7.03027)" fill="#F694C1"/>
</svg>
