<svg width="213" height="213" viewBox="0 0 213 213" fill="none" xmlns="http://www.w3.org/2000/svg">
<g clip-path="url(#clip0_319_34876)">
<rect width="19.4009" height="19.4009" transform="translate(26.5021 84.7047) rotate(-30)" fill="#FFD5E1"/>
<rect width="19.4009" height="19.4009" transform="translate(43.3037 75.0043) rotate(-30)" fill="#FFD5E1"/>
<rect width="19.4009" height="19.4009" transform="translate(76.9071 55.6034) rotate(-30)" fill="#FFD5E1"/>
<rect width="19.4009" height="19.4009" transform="translate(93.7087 45.903) rotate(-30)" fill="#FFD5E1"/>
<rect width="19.4009" height="19.4009" transform="translate(19.4009 111.207) rotate(-30)" fill="#FFD5E1"/>
<rect width="19.4009" height="19.4009" transform="translate(36.2025 101.506) rotate(-30)" fill="#FFD5E1"/>
<rect width="19.4009" height="19.4009" transform="translate(53.0042 91.8059) rotate(-30)" fill="#FFD5E1"/>
<rect width="19.4009" height="19.4009" transform="translate(69.8058 82.1055) rotate(-30)" fill="#FFD5E1"/>
<rect width="19.4009" height="19.4009" transform="translate(86.6075 72.4051) rotate(-30)" fill="#FFD5E1"/>
<rect width="19.4009" height="19.4009" transform="translate(103.409 62.7047) rotate(-30)" fill="#FFD5E1"/>
<rect width="19.4009" height="19.4009" transform="translate(120.211 53.0042) rotate(-30)" fill="#FFD5E1"/>
<rect width="19.4009" height="19.4009" transform="translate(29.1013 128.009) rotate(-30)" fill="#FFD5E1"/>
<rect width="19.4009" height="19.4009" transform="translate(45.903 118.308) rotate(-30)" fill="#FFD5E1"/>
<rect width="19.4009" height="19.4009" transform="translate(62.7046 108.608) rotate(-30)" fill="#FFD5E1"/>
<rect width="19.4009" height="19.4009" transform="translate(79.5062 98.9072) rotate(-30)" fill="#FFD5E1"/>
<rect width="19.4009" height="19.4009" transform="translate(96.308 89.2067) rotate(-30)" fill="#FFD5E1"/>
<rect width="19.4009" height="19.4009" transform="translate(113.11 79.5063) rotate(-30)" fill="#FFD5E1"/>
<rect width="19.4009" height="19.4009" transform="translate(129.911 69.8058) rotate(-30)" fill="#FFD5E1"/>
<rect width="19.4009" height="19.4009" transform="translate(38.8018 144.81) rotate(-30)" fill="#FFD5E1"/>
<rect width="19.4009" height="19.4009" transform="translate(55.6034 135.11) rotate(-30)" fill="#FFD5E1"/>
<rect width="19.4009" height="19.4009" transform="translate(72.405 125.409) rotate(-30)" fill="#FFD5E1"/>
<rect width="19.4009" height="19.4009" transform="translate(89.2068 115.709) rotate(-30)" fill="#FFD5E1"/>
<rect width="19.4009" height="19.4009" transform="translate(106.008 106.008) rotate(-30)" fill="#FFD5E1"/>
<rect width="19.4009" height="19.4009" transform="translate(122.81 96.308) rotate(-30)" fill="#FFD5E1"/>
<rect width="19.4009" height="19.4009" transform="translate(139.612 86.6075) rotate(-30)" fill="#FF89AC"/>
<rect width="19.4009" height="19.4009" transform="translate(65.3038 151.911) rotate(-30)" fill="#FFD5E1"/>
<rect width="19.4009" height="19.4009" transform="translate(82.1056 142.211) rotate(-30)" fill="#FFD5E1"/>
<rect width="19.4009" height="19.4009" transform="translate(98.9072 132.51) rotate(-30)" fill="#FFD5E1"/>
<rect width="19.4009" height="19.4009" transform="translate(115.709 122.81) rotate(-30)" fill="#FFD5E1"/>
<rect width="19.4009" height="19.4009" transform="translate(132.51 113.11) rotate(-30)" fill="#FF89AC"/>
<rect width="19.4009" height="19.4009" transform="translate(91.806 159.013) rotate(-30)" fill="#FFD5E1"/>
<rect width="19.4009" height="19.4009" transform="translate(108.608 149.312) rotate(-30)" fill="#FFD5E1"/>
<rect width="19.4009" height="19.4009" transform="translate(125.409 139.612) rotate(-30)" fill="#FF89AC"/>
<rect width="19.4009" height="19.4009" transform="translate(118.308 166.114) rotate(-30)" fill="#FF89AC"/>
</g>
<defs>
<clipPath id="clip0_319_34876">
<rect width="155.207" height="155.207" fill="white" transform="translate(0 77.6035) rotate(-30)"/>
</clipPath>
</defs>
</svg>
