<svg width="84" height="84" viewBox="0 0 84 84" fill="none" xmlns="http://www.w3.org/2000/svg">
<g clip-path="url(#clip0_318_36871)">
<rect width="7.40911" height="7.40911" transform="translate(10.4778 42.1219) rotate(-45.3839)" fill="#FFD5E1"/>
<rect width="7.40911" height="7.40911" transform="translate(15.6816 36.8479) rotate(-45.3839)" fill="#FFD5E1"/>
<rect width="7.40911" height="7.40911" transform="translate(26.0892 26.2999) rotate(-45.3839)" fill="#FFD5E1"/>
<rect width="7.40911" height="7.40911" transform="translate(31.293 21.0259) rotate(-45.3839)" fill="#FFD5E1"/>
<rect width="7.40911" height="7.40911" transform="translate(10.548 52.5998) rotate(-45.3839)" fill="#FFD5E1"/>
<rect width="7.40911" height="7.40911" transform="translate(15.7518 47.3258) rotate(-45.3839)" fill="#FFD5E1"/>
<rect width="7.40911" height="7.40911" transform="translate(20.9556 42.0518) rotate(-45.3839)" fill="#FFD5E1"/>
<rect width="7.40911" height="7.40911" transform="translate(26.1594 36.7777) rotate(-45.3839)" fill="#FFD5E1"/>
<rect width="7.40911" height="7.40911" transform="translate(31.3633 31.5037) rotate(-45.3839)" fill="#FFD5E1"/>
<rect width="7.40911" height="7.40911" transform="translate(36.567 26.2297) rotate(-45.3839)" fill="#FFD5E1"/>
<rect width="7.40911" height="7.40911" transform="translate(41.7709 20.9557) rotate(-45.3839)" fill="#FFD5E1"/>
<rect width="7.40911" height="7.40911" transform="translate(15.822 57.8036) rotate(-45.3839)" fill="#FFD5E1"/>
<rect width="7.40911" height="7.40911" transform="translate(21.0258 52.5296) rotate(-45.3839)" fill="#FFD5E1"/>
<rect width="7.40911" height="7.40911" transform="translate(26.2297 47.2556) rotate(-45.3839)" fill="#FFD5E1"/>
<rect width="7.40911" height="7.40911" transform="translate(31.4335 41.9815) rotate(-45.3839)" fill="#FFD5E1"/>
<rect width="7.40911" height="7.40911" transform="translate(36.6373 36.7075) rotate(-45.3839)" fill="#FFD5E1"/>
<rect width="7.40911" height="7.40911" transform="translate(41.8411 31.4335) rotate(-45.3839)" fill="#FFD5E1"/>
<rect width="7.40911" height="7.40911" transform="translate(47.0449 26.1595) rotate(-45.3839)" fill="#FFD5E1"/>
<rect width="7.40911" height="7.40911" transform="translate(21.0961 63.0074) rotate(-45.3839)" fill="#FFD5E1"/>
<rect width="7.40911" height="7.40911" transform="translate(26.2999 57.7334) rotate(-45.3839)" fill="#FFD5E1"/>
<rect width="7.40911" height="7.40911" transform="translate(31.5037 52.4594) rotate(-45.3839)" fill="#FFD5E1"/>
<rect width="7.40911" height="7.40911" transform="translate(36.7075 47.1854) rotate(-45.3839)" fill="#FFD5E1"/>
<rect width="7.40911" height="7.40911" transform="translate(41.9113 41.9113) rotate(-45.3839)" fill="#FFD5E1"/>
<rect width="7.40911" height="7.40911" transform="translate(47.1151 36.6373) rotate(-45.3839)" fill="#FFD5E1"/>
<rect width="7.40911" height="7.40911" transform="translate(52.3189 31.3633) rotate(-45.3839)" fill="#FF89AC"/>
<rect width="7.40911" height="7.40911" transform="translate(31.5739 62.9372) rotate(-45.3839)" fill="#FFD5E1"/>
<rect width="7.40911" height="7.40911" transform="translate(36.7776 57.6632) rotate(-45.3839)" fill="#FFD5E1"/>
<rect width="7.40911" height="7.40911" transform="translate(41.9814 52.3892) rotate(-45.3839)" fill="#FFD5E1"/>
<rect width="7.40911" height="7.40911" transform="translate(47.1853 47.1151) rotate(-45.3839)" fill="#FFD5E1"/>
<rect width="7.40911" height="7.40911" transform="translate(52.3891 41.8412) rotate(-45.3839)" fill="#FF89AC"/>
<rect width="7.40911" height="7.40911" transform="translate(42.0517 62.867) rotate(-45.3839)" fill="#FFD5E1"/>
<rect width="7.40911" height="7.40911" transform="translate(47.2555 57.593) rotate(-45.3839)" fill="#FFD5E1"/>
<rect width="7.40911" height="7.40911" transform="translate(52.4594 52.319) rotate(-45.3839)" fill="#FF89AC"/>
<rect width="7.40911" height="7.40911" transform="translate(52.5295 62.7968) rotate(-45.3839)" fill="#FF89AC"/>
</g>
<defs>
<clipPath id="clip0_318_36871">
<rect width="59.2729" height="59.2729" fill="white" transform="translate(0 42.1921) rotate(-45.3839)"/>
</clipPath>
</defs>
</svg>
