<svg width="111" height="111" viewBox="0 0 111 111" fill="none" xmlns="http://www.w3.org/2000/svg">
<g clip-path="url(#clip0_318_36834)">
<rect width="10.25" height="10.25" transform="translate(42.235 13.8257) rotate(27.5123)" fill="#FFD5E1"/>
<rect width="10.25" height="10.25" transform="translate(51.3258 18.5606) rotate(27.5123)" fill="#FFD5E1"/>
<rect width="10.25" height="10.25" transform="translate(69.5075 28.0303) rotate(27.5123)" fill="#FFD5E1"/>
<rect width="10.25" height="10.25" transform="translate(78.5983 32.7652) rotate(27.5123)" fill="#FFD5E1"/>
<rect width="10.25" height="10.25" transform="translate(28.4092 18.1817) rotate(27.5123)" fill="#FFD5E1"/>
<rect width="10.25" height="10.25" transform="translate(37.5001 22.9166) rotate(27.5123)" fill="#FFD5E1"/>
<rect width="10.25" height="10.25" transform="translate(46.5909 27.6514) rotate(27.5123)" fill="#FFD5E1"/>
<rect width="10.25" height="10.25" transform="translate(55.6818 32.3863) rotate(27.5123)" fill="#FFD5E1"/>
<rect width="10.25" height="10.25" transform="translate(64.7726 37.1212) rotate(27.5123)" fill="#FFD5E1"/>
<rect width="10.25" height="10.25" transform="translate(73.8635 41.856) rotate(27.5123)" fill="#FFD5E1"/>
<rect width="10.25" height="10.25" transform="translate(82.9543 46.5909) rotate(27.5123)" fill="#FFD5E1"/>
<rect width="10.25" height="10.25" transform="translate(23.6744 27.2726) rotate(27.5123)" fill="#FFD5E1"/>
<rect width="10.25" height="10.25" transform="translate(32.7652 32.0074) rotate(27.5123)" fill="#FFD5E1"/>
<rect width="10.25" height="10.25" transform="translate(41.8561 36.7423) rotate(27.5123)" fill="#FFD5E1"/>
<rect width="10.25" height="10.25" transform="translate(50.9469 41.4771) rotate(27.5123)" fill="#FFD5E1"/>
<rect width="10.25" height="10.25" transform="translate(60.0378 46.212) rotate(27.5123)" fill="#FFD5E1"/>
<rect width="10.25" height="10.25" transform="translate(69.1286 50.9469) rotate(27.5123)" fill="#FFD5E1"/>
<rect width="10.25" height="10.25" transform="translate(78.2195 55.6818) rotate(27.5123)" fill="#FFD5E1"/>
<rect width="10.25" height="10.25" transform="translate(18.9395 36.3634) rotate(27.5123)" fill="#FFD5E1"/>
<rect width="10.25" height="10.25" transform="translate(28.0303 41.0983) rotate(27.5123)" fill="#FFD5E1"/>
<rect width="10.25" height="10.25" transform="translate(37.1212 45.8331) rotate(27.5123)" fill="#FFD5E1"/>
<rect width="10.25" height="10.25" transform="translate(46.212 50.568) rotate(27.5123)" fill="#FFD5E1"/>
<rect width="10.25" height="10.25" transform="translate(55.3029 55.3029) rotate(27.5123)" fill="#FFD5E1"/>
<rect width="10.25" height="10.25" transform="translate(64.3937 60.0378) rotate(27.5123)" fill="#FFD5E1"/>
<rect width="10.25" height="10.25" transform="translate(73.4846 64.7726) rotate(27.5123)" fill="#FF89AC"/>
<rect width="10.25" height="10.25" transform="translate(23.2955 50.1891) rotate(27.5123)" fill="#FFD5E1"/>
<rect width="10.25" height="10.25" transform="translate(32.3863 54.924) rotate(27.5123)" fill="#FFD5E1"/>
<rect width="10.25" height="10.25" transform="translate(41.4772 59.6588) rotate(27.5123)" fill="#FFD5E1"/>
<rect width="10.25" height="10.25" transform="translate(50.568 64.3937) rotate(27.5123)" fill="#FFD5E1"/>
<rect width="10.25" height="10.25" transform="translate(59.6589 69.1286) rotate(27.5123)" fill="#FF89AC"/>
<rect width="10.25" height="10.25" transform="translate(27.6515 64.0148) rotate(27.5123)" fill="#FFD5E1"/>
<rect width="10.25" height="10.25" transform="translate(36.7423 68.7497) rotate(27.5123)" fill="#FFD5E1"/>
<rect width="10.25" height="10.25" transform="translate(45.8331 73.4846) rotate(27.5123)" fill="#FF89AC"/>
<rect width="10.25" height="10.25" transform="translate(32.0074 77.8405) rotate(27.5123)" fill="#FF89AC"/>
</g>
<defs>
<clipPath id="clip0_318_36834">
<rect width="82" height="82" fill="white" transform="translate(37.879) rotate(27.5123)"/>
</clipPath>
</defs>
</svg>
