<svg width="16" height="32" viewBox="0 0 16 32" fill="none" xmlns="http://www.w3.org/2000/svg">
<g clip-path="url(#clip0_317_36124)">
<rect x="4.67126" y="0.546021" width="6.79461" height="10.1139" fill="#FFBC61"/>
<rect x="4.0343" y="13.9935" width="8.0686" height="7.39477" fill="#FFBC61"/>
<rect x="11.4659" y="1.21823" width="0.636994" height="8.76221" fill="#FFBC61"/>
<rect x="4.0343" y="1.21823" width="0.636995" height="8.76221" fill="#FFBC61"/>
<rect x="12.1028" y="2.56299" width="0.672383" height="6.05145" fill="#FFBC61"/>
<rect x="3.36188" y="2.56299" width="0.672383" height="6.05853" fill="#FFBC61"/>
<rect x="12.7753" y="3.23538" width="0.672379" height="4.70668" fill="#FFBC61"/>
<rect x="2.68945" y="3.23538" width="0.707772" height="4.70668" fill="#FFBC61"/>
<rect x="3.31238" y="11.304" width="9.46291" height="0.672384" fill="#FFC75A"/>
<rect x="4.67126" y="10.3266" width="6.79461" height="0.333297" fill="#FCA25F"/>
<rect x="4.67126" y="9.98044" width="1.8151" height="0.346165" fill="#FCA25F"/>
<rect x="4.0343" y="9.61304" width="2.08676" height="0.367396" fill="#FCA25F"/>
<rect x="4.0343" y="9.24567" width="1.7328" height="0.367395" fill="#FCA25F"/>
<rect x="4.0343" y="8.62152" width="1.24477" height="0.624129" fill="#FCA25F"/>
<rect x="3.36188" y="7.94205" width="1.24477" height="0.67946" fill="#FCA25F"/>
<rect x="2.68994" y="3.23538" width="0.707319" height="4.70666" fill="#FCA25F"/>
<rect x="3.39771" y="5.83472" width="0.63657" height="2.10732" fill="#FCA25F"/>
<rect x="2.63287" y="12.6487" width="10.8148" height="0.672382" fill="#FFC75A"/>
<rect x="1.34473" y="22.0621" width="13.4477" height="1.34479" fill="#FFC75A"/>
<rect x="0.672302" y="30.1307" width="14.7924" height="1.3448" fill="#FFBC61"/>
<rect x="2.01715" y="24.0792" width="12.1029" height="0.672411" fill="#FFBC61"/>
<rect x="2.68945" y="24.7516" width="10.7581" height="0.672411" fill="#FFBC61"/>
<rect x="3.36188" y="25.424" width="9.41337" height="4.03431" fill="#FFBC61"/>
<rect x="3.36188" y="20.045" width="0.672383" height="1.34477" fill="#FFBC61"/>
<rect x="2.68945" y="28.1135" width="0.672384" height="1.34477" fill="#FFBC61"/>
<rect x="12.1028" y="20.045" width="0.672383" height="1.34477" fill="#FFBC61"/>
<rect x="12.7753" y="28.1135" width="0.672383" height="1.34477" fill="#FFBC61"/>
<rect x="2.68945" y="20.7173" width="0.672384" height="0.672384" fill="#FFBC61"/>
<rect x="2.01715" y="28.7859" width="0.672384" height="0.672384" fill="#FFBC61"/>
<rect x="12.7753" y="20.7173" width="0.672383" height="0.672384" fill="#FFBC61"/>
<rect x="13.4476" y="28.7859" width="0.672383" height="0.672384" fill="#FFBC61"/>
<rect x="2.01715" y="24.0822" width="12.1029" height="0.333298" fill="#FCA25F"/>
<rect width="3.73704" height="0.336203" transform="matrix(-1 0 0 1 14.12 24.4154)" fill="#FCA25F"/>
<rect width="3.75827" height="0.672384" transform="matrix(-1 0 0 1 14.12 28.7859)" fill="#FCA25F"/>
<rect width="3.40303" height="0.65814" transform="matrix(-1 0 0 1 15.4634 30.1308)" fill="#FCA25F"/>
<rect width="2.72357" height="0.68675" transform="matrix(-1 0 0 1 15.4634 30.7889)" fill="#FCA25F"/>
<rect width="4.19001" height="0.672411" transform="matrix(-1 0 0 1 13.4476 24.7516)" fill="#FCA25F"/>
<rect width="4.19001" height="0.672379" transform="matrix(-1 0 0 1 13.4476 28.1135)" fill="#FCA25F"/>
<rect width="4.19709" height="2.68947" transform="matrix(-1 0 0 1 12.7753 25.424)" fill="#FCA25F"/>
<rect x="11.4305" y="9.95923" width="0.672383" height="0.672384" fill="#E88908"/>
<rect x="4.0343" y="9.95923" width="0.672383" height="0.672384" fill="#E88908"/>
<rect x="11.4305" y="0.545868" width="0.672383" height="0.672383" fill="#E88908"/>
<rect x="12.7753" y="7.94208" width="0.672383" height="0.672383" fill="#E88908"/>
<rect x="2.68951" y="7.94208" width="0.672383" height="0.672383" fill="#E88908"/>
<rect x="12.7753" y="2.56302" width="0.672383" height="0.672383" fill="#E88908"/>
<rect x="12.1029" y="8.61444" width="0.672384" height="1.34477" fill="#E88908"/>
<rect x="3.36194" y="8.61444" width="0.672383" height="1.34477" fill="#E88908"/>
<rect x="12.1029" y="1.21823" width="0.672384" height="1.34477" fill="#E88908"/>
<rect x="13.4477" y="7.26968" width="0.672383" height="0.672383" fill="#E88908"/>
<rect x="2.01715" y="7.26968" width="0.672383" height="0.672383" fill="#E88908"/>
<rect x="2.68951" y="2.56302" width="0.672383" height="0.672383" fill="#E88908"/>
<rect x="3.36194" y="1.21823" width="0.672383" height="1.34477" fill="#E88908"/>
<rect x="4.0343" y="0.545868" width="0.672383" height="0.672383" fill="#E88908"/>
<rect x="13.4477" y="6.59732" width="0.672383" height="0.672383" fill="#E88908"/>
<rect x="2.01715" y="6.59732" width="0.672383" height="0.672383" fill="#E88908"/>
<rect x="13.4477" y="5.92493" width="0.672383" height="0.672383" fill="#E88908"/>
<rect x="2.01715" y="5.92493" width="0.672383" height="0.672383" fill="#E88908"/>
<rect x="13.4477" y="5.25253" width="0.672383" height="0.672383" fill="#E88908"/>
<rect x="2.01715" y="5.25253" width="0.672383" height="0.672383" fill="#E88908"/>
<rect x="13.4477" y="3.23538" width="0.672383" height="2.01715" fill="#E88908"/>
<rect x="2.01715" y="3.23538" width="0.672383" height="2.01715" fill="#E88908"/>
<rect x="4.70667" y="-0.126526" width="6.72383" height="0.672383" fill="#E88908"/>
<rect x="3.36194" y="10.6316" width="0.672383" height="0.672382" fill="#E88908"/>
<rect x="11.4305" y="10.6316" width="0.672383" height="0.672382" fill="#E88908"/>
<rect x="2.68951" y="25.424" width="0.672383" height="2.01715" fill="#E88908"/>
<rect x="12.7753" y="25.424" width="0.672383" height="2.01715" fill="#E88908"/>
<rect x="3.36194" y="13.9935" width="0.672383" height="6.05145" fill="#E88908"/>
<rect x="12.1029" y="13.9935" width="0.672384" height="6.05145" fill="#E88908"/>
<rect x="2.01715" y="28.1136" width="0.672383" height="0.672383" fill="#E88908"/>
<rect x="2.68951" y="27.4412" width="0.672383" height="0.672381" fill="#E88908"/>
<rect x="2.01715" y="24.7516" width="0.672383" height="0.672383" fill="#E88908"/>
<rect x="1.34479" y="24.0793" width="0.672383" height="0.672383" fill="#E88908"/>
<rect x="0.672363" y="22.7345" width="0.672383" height="0.672385" fill="#E88908"/>
<rect x="14.7924" y="22.7345" width="0.672382" height="0.672385" fill="#E88908"/>
<rect x="0.672363" y="22.0621" width="0.672383" height="0.672383" fill="#E88908"/>
<rect x="2.01715" y="20.7173" width="0.672383" height="0.672385" fill="#E88908"/>
<rect x="2.68951" y="20.045" width="0.672383" height="0.672383" fill="#E88908"/>
<rect x="13.4477" y="20.7173" width="0.672383" height="0.672385" fill="#E88908"/>
<rect x="12.7753" y="20.045" width="0.672383" height="0.672383" fill="#E88908"/>
<rect x="14.7924" y="22.0621" width="0.672382" height="0.672383" fill="#E88908"/>
<rect x="1.34479" y="28.7859" width="0.672383" height="0.672385" fill="#E88908"/>
<rect x="13.4477" y="28.1136" width="0.672383" height="0.672383" fill="#E88908"/>
<rect x="12.7753" y="27.4412" width="0.672383" height="0.672381" fill="#E88908"/>
<rect x="13.4477" y="24.7516" width="0.672383" height="0.672383" fill="#E88908"/>
<rect x="14.1201" y="24.0793" width="0.672384" height="0.672383" fill="#E88908"/>
<rect x="14.1201" y="28.7859" width="0.672384" height="0.672385" fill="#E88908"/>
<rect x="12.7753" y="11.304" width="0.672383" height="0.672384" fill="#E88908"/>
<rect x="2.68951" y="11.304" width="0.672383" height="0.672384" fill="#E88908"/>
<rect x="13.4477" y="12.6487" width="0.672383" height="0.672383" fill="#E88908"/>
<rect x="4.0343" y="10.6316" width="9.41337" height="0.672382" fill="#E88908"/>
<rect x="2.68951" y="10.6316" width="1.34477" height="0.672382" fill="#E88908"/>
<rect x="2.01715" y="12.6487" width="0.672383" height="0.672383" fill="#E88908"/>
<rect x="2.68951" y="13.3211" width="10.7581" height="0.672383" fill="#E88908"/>
<rect y="30.1307" width="0.672383" height="2.01715" fill="#E88908"/>
<rect x="15.4648" y="30.1307" width="0.672384" height="2.01715" fill="#E88908"/>
<rect x="0.672363" y="29.4583" width="14.7924" height="0.672383" fill="#E88908"/>
<rect x="1.34479" y="21.3897" width="13.4477" height="0.672381" fill="#E88908"/>
<rect x="0.672363" y="31.4755" width="14.7924" height="0.672383" fill="#E88908"/>
<rect x="1.34479" y="23.4069" width="13.4477" height="0.672383" fill="#E88908"/>
<rect x="10.0858" y="11.9764" width="4.0343" height="0.672383" fill="#E88908"/>
<rect x="2.01715" y="11.9764" width="4.0343" height="0.672383" fill="#E88908"/>
<rect x="6.05145" y="11.9764" width="4.0343" height="0.672383" fill="#E88908"/>
</g>
<defs>
<clipPath id="clip0_317_36124">
<rect width="15.7193" height="32" fill="white"/>
</clipPath>
</defs>
</svg>
