<svg width="212" height="520" viewBox="0 0 212 520" fill="none" xmlns="http://www.w3.org/2000/svg">
<rect width="26.375" height="6.58209" transform="matrix(0.999999 -0.00114829 0.00115236 0.999999 92.7898 0.0302734)" fill="black"/>
<rect width="26.3284" height="6.59375" transform="matrix(-0.00619076 -0.999981 0.999981 -0.00616887 53.413 65.9574)" fill="black"/>
<rect width="26.3283" height="6.59376" transform="matrix(0.00408514 0.999992 -0.999992 0.00407069 158.75 39.4808)" fill="black"/>
<rect width="6.59375" height="13.1642" transform="matrix(0.999999 -0.00114829 0.00115236 0.999999 119.172 6.58203)" fill="black"/>
<rect width="6.58209" height="13.1875" transform="matrix(-0.00619076 -0.999981 0.999981 -0.00616887 59.8435 39.5889)" fill="black"/>
<rect width="6.58208" height="13.1875" transform="matrix(0.00408513 0.999992 -0.999992 0.00407069 152.264 65.8358)" fill="black"/>
<rect width="6.59375" height="13.1642" transform="matrix(0.999999 -0.00114829 0.00115236 0.999999 86.2036 6.61987)" fill="black"/>
<rect width="6.58208" height="13.1875" transform="matrix(-0.00619076 -0.999981 0.999981 -0.00616887 60.0473 72.4988)" fill="black"/>
<rect width="6.58209" height="13.1875" transform="matrix(0.00408513 0.999992 -0.999992 0.0040707 152.129 32.9255)" fill="black"/>
<rect width="6.59375" height="19.7463" transform="matrix(0.999999 -0.00114829 0.00115236 0.999999 92.8125 19.7765)" fill="black"/>
<rect width="6.58209" height="19.7813" transform="matrix(-0.00619075 -0.999981 0.999981 -0.00616888 73.1938 65.8354)" fill="black"/>
<rect width="6.58209" height="19.7813" transform="matrix(0.00408513 0.999992 -0.999992 0.00407069 138.969 39.5614)" fill="black"/>
<rect width="6.59375" height="19.7463" transform="matrix(0.999999 -0.00114829 0.00115236 0.999999 112.594 19.7539)" fill="black"/>
<rect width="6.58209" height="19.7813" transform="matrix(-0.00619075 -0.999981 0.999981 -0.00616887 73.0717 46.0895)" fill="black"/>
<rect width="6.58209" height="19.7813" transform="matrix(0.00408513 0.999992 -0.999992 0.00407069 139.049 59.3075)" fill="black"/>
<rect x="46.6562" y="125.075" width="6.59375" height="6.58209" fill="black"/>
<rect x="53.25" y="164.567" width="6.59375" height="19.7463" fill="black"/>
<rect x="40.0625" y="131.657" width="6.59375" height="19.7463" fill="black"/>
<rect x="46.6562" y="151.403" width="6.59375" height="13.1642" fill="black"/>
<rect x="59.8438" y="184.314" width="6.59375" height="26.3284" fill="black"/>
<rect x="53.25" y="217.224" width="6.59375" height="13.1642" fill="black"/>
<rect x="46.6562" y="276.463" width="6.59375" height="72.403" fill="black"/>
<rect x="40.0625" y="348.866" width="6.59375" height="26.3284" fill="black"/>
<rect x="165.344" y="348.866" width="6.59375" height="26.3284" fill="black"/>
<rect x="33.4688" y="375.194" width="6.59375" height="19.7463" fill="black"/>
<rect x="171.938" y="375.194" width="6.59375" height="19.7463" fill="black"/>
<rect x="26.875" y="394.94" width="6.59375" height="13.1642" fill="black"/>
<rect x="13.6875" y="441.015" width="6.59375" height="13.1642" fill="black"/>
<rect x="20.2812" y="454.179" width="6.59375" height="19.7462" fill="black"/>
<rect x="185.125" y="454.179" width="6.59375" height="19.7462" fill="black"/>
<rect x="191.719" y="441.015" width="6.59375" height="13.1642" fill="black"/>
<rect x="7.09375" y="421.269" width="6.59375" height="13.1642" fill="black"/>
<rect x="0.5" y="493.672" width="6.59375" height="19.7463" fill="black"/>
<rect x="204.906" y="493.672" width="6.59375" height="19.7463" fill="black"/>
<rect x="198.312" y="421.269" width="6.59375" height="13.1642" fill="black"/>
<rect x="178.531" y="394.94" width="6.59375" height="13.1642" fill="black"/>
<rect x="20.2812" y="408.104" width="6.59375" height="6.58209" fill="black"/>
<rect x="13.6875" y="473.925" width="6.59375" height="6.58209" fill="black"/>
<rect x="7.09375" y="480.507" width="6.59375" height="6.58209" fill="black"/>
<rect x="198.312" y="480.507" width="6.59375" height="6.58209" fill="black"/>
<rect x="191.719" y="473.925" width="6.59375" height="6.58209" fill="black"/>
<rect x="185.125" y="408.104" width="6.59375" height="6.58209" fill="black"/>
<rect x="158.75" y="276.463" width="6.59375" height="72.403" fill="black"/>
<rect x="40.0625" y="236.97" width="6.59375" height="13.1642" fill="black"/>
<rect x="33.4688" y="256.717" width="6.59375" height="13.1642" fill="black"/>
<rect x="171.938" y="256.717" width="6.59375" height="13.1642" fill="black"/>
<rect x="165.344" y="236.97" width="6.59375" height="13.1642" fill="black"/>
<rect x="152.156" y="217.224" width="6.59375" height="13.1642" fill="black"/>
<rect x="145.562" y="184.314" width="6.59375" height="26.3284" fill="black"/>
<rect x="165.344" y="131.657" width="6.59375" height="19.7463" fill="black"/>
<rect x="158.75" y="151.403" width="6.59375" height="13.1642" fill="black"/>
<rect x="158.75" y="125.075" width="6.59375" height="6.58209" fill="black"/>
<rect x="152.156" y="164.567" width="6.59375" height="19.7463" fill="black"/>
<rect x="79.625" y="98.7465" width="52.75" height="6.58208" fill="black"/>
<rect x="53.25" y="118.493" width="105.5" height="6.58208" fill="black"/>
<rect x="59.8438" y="210.642" width="92.3125" height="6.58208" fill="black"/>
<rect x="46.6562" y="230.388" width="118.688" height="6.58208" fill="black"/>
<rect x="33.4688" y="250.134" width="145.062" height="6.58209" fill="black"/>
<rect x="40.0625" y="269.881" width="131.875" height="6.58209" fill="black"/>
<rect x="13.6875" y="414.687" width="184.625" height="6.58206" fill="black"/>
<rect x="13.6875" y="434.433" width="184.625" height="6.58206" fill="black"/>
<rect x="7.09375" y="487.09" width="197.812" height="6.58206" fill="black"/>
<rect x="0.5" y="513.418" width="211" height="6.58209" fill="black"/>
<rect x="92.8125" y="65.8359" width="6.59375" height="19.7463" fill="black"/>
<rect x="86.2188" y="85.5823" width="6.59375" height="13.1642" fill="black"/>
<rect x="73.0312" y="105.328" width="6.59375" height="13.1642" fill="black"/>
<rect x="132.375" y="105.328" width="6.59375" height="13.1642" fill="black"/>
<rect x="119.188" y="85.5823" width="6.59375" height="13.1642" fill="black"/>
<rect x="112.594" y="65.8359" width="6.59375" height="19.7463" fill="black"/>
<rect x="112.594" y="65.8359" width="6.59375" height="19.7463" fill="black"/>
<rect x="66.5" y="125" width="79" height="86" fill="#FF9505"/>
<rect x="59.5" y="217" width="93" height="14" fill="#FF9505"/>
<rect x="46.5" y="237" width="119" height="14" fill="#FFB627"/>
<rect x="39.5" y="256" width="133" height="14" fill="#FFB627"/>
<rect x="12.5" y="421" width="186" height="14" fill="#FFB627"/>
<rect x="6.5" y="493" width="199" height="21" fill="#FFB627"/>
<rect x="145.5" y="125" width="7" height="60" fill="#FF9505"/>
<rect x="152.5" y="125" width="7" height="40" fill="#FF9505"/>
<rect x="52.5" y="125" width="7" height="40" fill="#FF9505"/>
<rect x="159.5" y="131" width="6" height="21" fill="#FF9505"/>
<rect x="79.5" y="105" width="53" height="14" fill="#FF9505"/>
<rect x="92.5" y="85" width="27" height="14" fill="#FF9505"/>
<rect x="99.5" y="65" width="13" height="20" fill="#FF9505"/>
<rect width="14" height="27" transform="matrix(1 0 0 -1 138.5 66)" fill="#FF9505"/>
<rect width="14" height="27" transform="matrix(1 0 0 -1 59.5 66)" fill="#FF9505"/>
<rect width="19" height="14" transform="matrix(1 0 0 -1 73.5 60)" fill="#FF9505"/>
<rect width="19" height="14" transform="matrix(1 0 0 -1 119.5 60)" fill="#FF9505"/>
<rect width="27" height="27" transform="matrix(1 0 0 -1 92.5 66)" fill="#FF9505"/>
<rect x="99.5" y="20" width="13" height="20" fill="#FF9505"/>
<rect x="92.5" y="6" width="27" height="14" fill="#FF9505"/>
<rect x="46.5" y="131" width="6" height="21" fill="#FF9505"/>
<rect x="59.5" y="125" width="7" height="60" fill="#FF9505"/>
<rect width="6" height="66" transform="matrix(-1 0 0 1 165.5 349)" fill="#FF9505"/>
<rect x="46.5" y="349" width="5" height="66" fill="#FF9505"/>
<rect width="7" height="40" transform="matrix(-1 0 0 1 172.5 375)" fill="#FF9505"/>
<rect x="39.5" y="375" width="7" height="40" fill="#FF9505"/>
<rect width="6" height="20" transform="matrix(-1 0 0 1 178.5 395)" fill="#FF9505"/>
<rect x="33.5" y="395" width="6" height="20" fill="#FF9505"/>
<rect width="7" height="7" transform="matrix(-1 0 0 1 185.5 408)" fill="#FF9505"/>
<rect x="26.5" y="408" width="7" height="7" fill="#FF9505"/>
<rect x="20.5" y="441" width="6" height="13" fill="#FF9505"/>
<rect x="185.5" y="441" width="6" height="13" fill="#FF9505"/>
<rect x="13.5" y="480" width="6" height="7" fill="#FF9505"/>
<rect x="192.5" y="480" width="6" height="7" fill="#FF9505"/>
<rect x="19.5" y="474" width="7" height="13" fill="#FF9505"/>
<rect x="185.5" y="474" width="7" height="13" fill="#FF9505"/>
<rect x="51.5" y="276" width="108" height="139" fill="#FF9505"/>
<rect x="26.5" y="441" width="159" height="46" fill="#FF9505"/>
<rect x="92.5" y="85" width="5" height="14" fill="#E2711D"/>
<rect x="52.5" y="125" width="5" height="40" fill="#E2711D"/>
<rect x="57.5" y="125" width="2" height="40" fill="#E2711D"/>
<rect x="59.5" y="125" width="2" height="60" fill="#E2711D"/>
<rect x="61.5" y="149" width="5" height="36" fill="#E2711D"/>
<rect x="64.5" y="162" width="6" height="23" fill="#E2711D"/>
<rect x="62.5" y="181" width="8" height="6" fill="#E2711D"/>
<rect x="66.5" y="187" width="10" height="6" fill="#E2711D"/>
<rect width="4" height="18" transform="matrix(-1 0 0 1 70.5 193)" fill="#E2711D"/>
<rect width="11" height="18" transform="matrix(-1 0 0 1 81.5 193)" fill="#E2711D"/>
<rect x="72.5" y="206" width="73" height="5" fill="#E2711D"/>
<rect x="46.5" y="131" width="6" height="21" fill="#E2711D"/>
<rect x="59.5" y="39" width="5" height="27" fill="#E2711D"/>
<rect x="97.5" y="90" width="2" height="9" fill="#E2711D"/>
<rect x="99.5" y="93" width="2" height="6" fill="#E2711D"/>
<rect x="101.5" y="97" width="18" height="2" fill="#E2711D"/>
<rect x="64.5" y="53" width="2" height="13" fill="#E2711D"/>
<rect x="66.5" y="58" width="2" height="8" fill="#E2711D"/>
<rect x="67.5" y="64" width="6" height="2" fill="#E2711D"/>
<rect x="6.5" y="500" width="199" height="14" fill="#FF9505"/>
<rect x="20.5" y="441" width="171" height="7" fill="#E2711D"/>
<rect x="156.5" y="447" width="35" height="7" fill="#E2711D"/>
<rect x="149.5" y="454" width="36" height="5" fill="#E2711D"/>
<rect x="144.5" y="459" width="41" height="9" fill="#E2711D"/>
<rect x="144.5" y="467" width="41" height="9" fill="#E2711D"/>
<rect x="149.5" y="474" width="43" height="7" fill="#E2711D"/>
<rect x="156.5" y="480" width="42" height="7" fill="#E2711D"/>
<rect x="163.5" y="500" width="42" height="7" fill="#E2711D"/>
<rect x="175.5" y="507" width="30" height="7" fill="#E2711D"/>
</svg>
