<svg width="270" height="467" viewBox="0 0 270 467" fill="none" xmlns="http://www.w3.org/2000/svg">
<path d="M80.1856 81.2377L11.6856 148.082L14.6856 164.544L23.6856 169.034L26.6856 176.516H44.6856L53.6856 171.029L58.6856 161.551H99.6856L105.186 155.565H110.186L115.686 157.56V193.976L105.186 199.962V217.92L99.6856 222.409V231.389L61.1856 268.801L58.6856 279.277L53.6856 284.266V301.725L44.1856 307.711L43.1856 344.625L35.1856 349.115L30.6856 353.105L31.6856 364.579L34.1856 367.572L35.1856 371.562L38.1856 379.544L43.1856 383.535V386.528V409.973L35.1856 418.453L30.6856 423.941L28.1856 432.92L23.1856 438.407L21.6856 460.855H235.686V438.407L231.186 432.92L229.186 423.941L221.186 415.46L213.686 407.978V386.528L221.186 379.544L222.686 375.553L224.186 368.569L229.186 362.583V355.101L224.186 349.115L217.686 346.122H176.686V340.634V330.159L184.686 324.672V308.709L190.686 300.727V278.279L200.686 268.801V237.873L206.186 231.389V147.085L196.686 136.11V129.126L187.686 120.147L187.186 119.648L182.686 117.653L180.186 118.651C178.519 116.988 172.686 110.17 168.186 111.667C162.186 111.667 157.186 103.685 152.186 99.6948C148.186 96.5022 147.519 94.0413 147.686 93.2099L140.186 86.7249L128.186 84.7296V81.2377L120.686 76.7481L114.186 69.2655L104.686 61.2841L98.6856 52.8038L85.1856 45.8201V39.834H80.1856V81.2377Z" fill="#FF9505"/>
<rect x="79.0727" y="42.541" width="7.70968" height="7.69639" fill="#1E1E1E"/>
<rect x="79.0727" y="34.8457" width="7.70968" height="7.69639" fill="#1E1E1E"/>
<rect x="79.0727" y="50.2383" width="7.70968" height="7.69639" fill="#1E1E1E"/>
<rect x="79.0727" y="65.6309" width="7.70968" height="7.69639" fill="#1E1E1E"/>
<rect x="63.6533" y="88.7197" width="7.70968" height="7.69639" fill="#1E1E1E"/>
<rect x="109.911" y="188.773" width="7.70967" height="7.69638" fill="#1E1E1E"/>
<rect x="40.5243" y="335.004" width="7.70968" height="7.69638" fill="#1E1E1E"/>
<rect x="32.8146" y="373.486" width="7.70968" height="7.69638" fill="#1E1E1E"/>
<rect x="217.847" y="373.486" width="7.70967" height="7.69638" fill="#1E1E1E"/>
<rect x="40.5243" y="388.879" width="7.70968" height="7.69638" fill="#1E1E1E"/>
<rect x="210.137" y="388.879" width="7.70967" height="7.69638" fill="#1E1E1E"/>
<rect x="40.5243" y="404.271" width="7.70968" height="7.69641" fill="#1E1E1E"/>
<rect x="210.137" y="404.271" width="7.70967" height="7.69641" fill="#1E1E1E"/>
<rect x="32.8146" y="411.969" width="7.70968" height="7.69638" fill="#1E1E1E"/>
<rect x="217.847" y="411.969" width="7.70967" height="7.69638" fill="#1E1E1E"/>
<rect x="25.105" y="419.664" width="7.70968" height="7.69638" fill="#1E1E1E"/>
<rect x="225.557" y="419.664" width="7.70969" height="7.69638" fill="#1E1E1E"/>
<rect x="25.105" y="427.361" width="7.70968" height="7.69638" fill="#1E1E1E"/>
<rect x="225.557" y="427.361" width="7.70969" height="7.69638" fill="#1E1E1E"/>
<rect x="17.3953" y="435.057" width="7.70968" height="7.69641" fill="#1E1E1E"/>
<rect x="233.266" y="435.057" width="7.70967" height="7.69641" fill="#1E1E1E"/>
<rect x="17.3953" y="442.754" width="7.70968" height="7.69638" fill="#1E1E1E"/>
<rect x="233.266" y="442.754" width="7.70967" height="7.69638" fill="#1E1E1E"/>
<rect x="17.3953" y="450.45" width="7.70968" height="7.69638" fill="#1E1E1E"/>
<rect x="233.266" y="450.45" width="7.70967" height="7.69638" fill="#1E1E1E"/>
<rect x="17.3953" y="458.146" width="7.70968" height="7.69638" fill="#1E1E1E"/>
<rect x="25.105" y="458.146" width="7.70968" height="7.69638" fill="#1E1E1E"/>
<rect x="102.202" y="458.146" width="7.70968" height="7.69638" fill="#1E1E1E"/>
<rect x="94.4921" y="365.79" width="7.70968" height="7.69638" fill="#1E1E1E"/>
<rect x="86.7823" y="427.361" width="7.70968" height="7.69638" fill="#1E1E1E"/>
<rect x="94.4921" y="342.701" width="7.70968" height="7.69638" fill="#1E1E1E"/>
<rect x="179.299" y="458.146" width="7.70969" height="7.69638" fill="#1E1E1E"/>
<rect x="171.589" y="365.79" width="7.70967" height="7.69638" fill="#1E1E1E"/>
<rect x="163.879" y="427.361" width="7.70969" height="7.69638" fill="#1E1E1E"/>
<rect x="171.589" y="342.701" width="7.70967" height="7.69638" fill="#1E1E1E"/>
<rect x="63.6533" y="458.146" width="7.70968" height="7.69638" fill="#1E1E1E"/>
<rect x="55.9437" y="365.79" width="7.70967" height="7.69638" fill="#1E1E1E"/>
<rect x="48.234" y="427.361" width="7.70968" height="7.69638" fill="#1E1E1E"/>
<rect x="55.9437" y="342.701" width="7.70967" height="7.69638" fill="#1E1E1E"/>
<rect x="140.75" y="458.146" width="7.70967" height="7.69638" fill="#1E1E1E"/>
<rect x="133.04" y="365.79" width="7.70968" height="7.69638" fill="#1E1E1E"/>
<rect x="125.331" y="427.361" width="7.70968" height="7.69638" fill="#1E1E1E"/>
<rect x="133.04" y="342.701" width="7.70968" height="7.69638" fill="#1E1E1E"/>
<rect x="217.847" y="458.146" width="7.70967" height="7.69638" fill="#1E1E1E"/>
<rect x="32.8146" y="458.146" width="7.70968" height="7.69638" fill="#1E1E1E"/>
<rect x="109.911" y="458.146" width="7.70967" height="7.69638" fill="#1E1E1E"/>
<rect x="102.202" y="365.79" width="7.70968" height="7.69638" fill="#1E1E1E"/>
<rect x="94.4921" y="427.361" width="7.70968" height="7.69638" fill="#1E1E1E"/>
<rect x="102.202" y="342.701" width="7.70968" height="7.69638" fill="#1E1E1E"/>
<rect x="187.008" y="458.146" width="7.70967" height="7.69638" fill="#1E1E1E"/>
<rect x="179.299" y="365.79" width="7.70969" height="7.69638" fill="#1E1E1E"/>
<rect x="171.589" y="427.361" width="7.70967" height="7.69638" fill="#1E1E1E"/>
<rect x="179.299" y="342.701" width="7.70969" height="7.69638" fill="#1E1E1E"/>
<rect x="71.363" y="458.146" width="7.70967" height="7.69638" fill="#1E1E1E"/>
<rect x="63.6533" y="365.79" width="7.70968" height="7.69638" fill="#1E1E1E"/>
<rect x="55.9437" y="427.361" width="7.70967" height="7.69638" fill="#1E1E1E"/>
<rect x="63.6533" y="342.701" width="7.70968" height="7.69638" fill="#1E1E1E"/>
<rect x="148.46" y="458.146" width="7.70969" height="7.69638" fill="#1E1E1E"/>
<rect x="140.75" y="365.79" width="7.70967" height="7.69638" fill="#1E1E1E"/>
<rect x="133.04" y="427.361" width="7.70968" height="7.69638" fill="#1E1E1E"/>
<rect x="140.75" y="342.701" width="7.70967" height="7.69638" fill="#1E1E1E"/>
<rect x="225.557" y="458.146" width="7.70969" height="7.69638" fill="#1E1E1E"/>
<rect x="40.5243" y="458.146" width="7.70968" height="7.69638" fill="#1E1E1E"/>
<rect x="117.621" y="458.146" width="7.70968" height="7.69638" fill="#1E1E1E"/>
<rect x="109.911" y="365.79" width="7.70967" height="7.69638" fill="#1E1E1E"/>
<rect x="102.202" y="427.361" width="7.70968" height="7.69638" fill="#1E1E1E"/>
<rect x="109.911" y="342.701" width="7.70967" height="7.69638" fill="#1E1E1E"/>
<rect x="194.718" y="458.146" width="7.70969" height="7.69638" fill="#1E1E1E"/>
<rect x="187.008" y="365.79" width="7.70967" height="7.69638" fill="#1E1E1E"/>
<rect x="179.299" y="427.361" width="7.70969" height="7.69638" fill="#1E1E1E"/>
<rect x="187.008" y="342.701" width="7.70967" height="7.69638" fill="#1E1E1E"/>
<rect x="79.0727" y="458.146" width="7.70968" height="7.69638" fill="#1E1E1E"/>
<rect x="71.363" y="365.79" width="7.70967" height="7.69638" fill="#1E1E1E"/>
<rect x="63.6533" y="427.361" width="7.70968" height="7.69638" fill="#1E1E1E"/>
<rect x="71.363" y="342.701" width="7.70967" height="7.69638" fill="#1E1E1E"/>
<rect x="156.169" y="458.146" width="7.70967" height="7.69638" fill="#1E1E1E"/>
<rect x="148.46" y="365.79" width="7.70969" height="7.69638" fill="#1E1E1E"/>
<rect x="140.75" y="427.361" width="7.70967" height="7.69638" fill="#1E1E1E"/>
<rect x="148.46" y="342.701" width="7.70969" height="7.69638" fill="#1E1E1E"/>
<rect x="233.266" y="458.146" width="7.70967" height="7.69638" fill="#1E1E1E"/>
<rect x="48.234" y="458.146" width="7.70968" height="7.69638" fill="#1E1E1E"/>
<rect x="40.5243" y="365.79" width="7.70968" height="7.69638" fill="#1E1E1E"/>
<rect x="32.8146" y="427.361" width="7.70968" height="7.69638" fill="#1E1E1E"/>
<rect x="40.5243" y="342.701" width="7.70968" height="7.69638" fill="#1E1E1E"/>
<rect x="125.331" y="458.146" width="7.70968" height="7.69638" fill="#1E1E1E"/>
<rect x="117.621" y="365.79" width="7.70968" height="7.69638" fill="#1E1E1E"/>
<rect x="109.911" y="427.361" width="7.70967" height="7.69638" fill="#1E1E1E"/>
<rect x="117.621" y="342.701" width="7.70968" height="7.69638" fill="#1E1E1E"/>
<rect x="202.428" y="458.146" width="7.70967" height="7.69638" fill="#1E1E1E"/>
<rect x="194.718" y="365.79" width="7.70969" height="7.69638" fill="#1E1E1E"/>
<rect x="187.008" y="427.361" width="7.70967" height="7.69638" fill="#1E1E1E"/>
<rect x="202.428" y="365.79" width="7.70967" height="7.69638" fill="#1E1E1E"/>
<rect x="194.718" y="427.361" width="7.70969" height="7.69638" fill="#1E1E1E"/>
<rect x="202.428" y="427.361" width="7.70967" height="7.69638" fill="#1E1E1E"/>
<rect x="210.137" y="427.361" width="7.70967" height="7.69638" fill="#1E1E1E"/>
<rect x="217.847" y="427.361" width="7.70967" height="7.69638" fill="#1E1E1E"/>
<rect x="210.137" y="365.79" width="7.70967" height="7.69638" fill="#1E1E1E"/>
<rect x="194.718" y="342.701" width="7.70969" height="7.69638" fill="#1E1E1E"/>
<rect x="202.428" y="342.701" width="7.70967" height="7.69638" fill="#1E1E1E"/>
<rect x="210.137" y="342.701" width="7.70967" height="7.69638" fill="#1E1E1E"/>
<rect x="86.7823" y="458.146" width="7.70968" height="7.69638" fill="#1E1E1E"/>
<rect x="79.0727" y="365.79" width="7.70968" height="7.69638" fill="#1E1E1E"/>
<rect x="71.363" y="427.361" width="7.70967" height="7.69638" fill="#1E1E1E"/>
<rect x="79.0727" y="342.701" width="7.70968" height="7.69638" fill="#1E1E1E"/>
<rect x="163.879" y="458.146" width="7.70969" height="7.69638" fill="#1E1E1E"/>
<rect x="156.169" y="365.79" width="7.70967" height="7.69638" fill="#1E1E1E"/>
<rect x="148.46" y="427.361" width="7.70969" height="7.69638" fill="#1E1E1E"/>
<rect x="156.169" y="342.701" width="7.70967" height="7.69638" fill="#1E1E1E"/>
<rect x="55.9437" y="458.146" width="7.70967" height="7.69638" fill="#1E1E1E"/>
<rect x="48.234" y="365.79" width="7.70968" height="7.69638" fill="#1E1E1E"/>
<rect x="40.5243" y="427.361" width="7.70968" height="7.69638" fill="#1E1E1E"/>
<rect x="48.234" y="342.701" width="7.70968" height="7.69638" fill="#1E1E1E"/>
<rect x="133.04" y="458.146" width="7.70968" height="7.69638" fill="#1E1E1E"/>
<rect x="125.331" y="365.79" width="7.70968" height="7.69638" fill="#1E1E1E"/>
<rect x="117.621" y="427.361" width="7.70968" height="7.69638" fill="#1E1E1E"/>
<rect x="125.331" y="342.701" width="7.70968" height="7.69638" fill="#1E1E1E"/>
<rect x="210.137" y="458.146" width="7.70967" height="7.69638" fill="#1E1E1E"/>
<rect x="94.4921" y="458.146" width="7.70968" height="7.69638" fill="#1E1E1E"/>
<rect x="86.7823" y="365.79" width="7.70968" height="7.69638" fill="#1E1E1E"/>
<rect x="79.0727" y="427.361" width="7.70968" height="7.69638" fill="#1E1E1E"/>
<rect x="86.7823" y="342.701" width="7.70968" height="7.69638" fill="#1E1E1E"/>
<rect x="171.589" y="458.146" width="7.70967" height="7.69638" fill="#1E1E1E"/>
<rect x="163.879" y="365.79" width="7.70969" height="7.69638" fill="#1E1E1E"/>
<rect x="156.169" y="427.361" width="7.70967" height="7.69638" fill="#1E1E1E"/>
<rect x="163.879" y="342.701" width="7.70969" height="7.69638" fill="#1E1E1E"/>
<rect x="32.8146" y="365.79" width="7.70968" height="7.69638" fill="#1E1E1E"/>
<rect x="217.847" y="365.79" width="7.70967" height="7.69638" fill="#1E1E1E"/>
<rect x="40.5243" y="381.183" width="7.70968" height="7.69641" fill="#1E1E1E"/>
<rect x="210.137" y="381.183" width="7.70967" height="7.69641" fill="#1E1E1E"/>
<rect x="40.5243" y="396.575" width="7.70968" height="7.69638" fill="#1E1E1E"/>
<rect x="210.137" y="396.575" width="7.70967" height="7.69638" fill="#1E1E1E"/>
<rect x="25.105" y="358.094" width="7.70968" height="7.69638" fill="#1E1E1E"/>
<rect x="225.557" y="358.094" width="7.70969" height="7.69638" fill="#1E1E1E"/>
<rect x="25.105" y="350.396" width="7.70968" height="7.69638" fill="#1E1E1E"/>
<rect x="225.557" y="350.396" width="7.70969" height="7.69638" fill="#1E1E1E"/>
<rect x="32.8146" y="342.701" width="7.70968" height="7.69638" fill="#1E1E1E"/>
<rect x="217.847" y="342.701" width="7.70967" height="7.69638" fill="#1E1E1E"/>
<rect x="40.5243" y="327.309" width="7.70968" height="7.69641" fill="#1E1E1E"/>
<rect x="40.5243" y="319.611" width="7.70968" height="7.69638" fill="#1E1E1E"/>
<rect x="40.5243" y="311.915" width="7.70968" height="7.69638" fill="#1E1E1E"/>
<rect x="40.5243" y="304.219" width="7.70968" height="7.69641" fill="#1E1E1E"/>
<rect x="48.234" y="296.522" width="7.70968" height="7.69638" fill="#1E1E1E"/>
<rect x="48.234" y="288.826" width="7.70968" height="7.69637" fill="#1E1E1E"/>
<rect x="48.234" y="281.129" width="7.70968" height="7.6964" fill="#1E1E1E"/>
<rect x="55.9437" y="273.434" width="7.70967" height="7.6964" fill="#1E1E1E"/>
<rect x="55.9437" y="265.736" width="7.70967" height="7.6964" fill="#1E1E1E"/>
<rect x="63.6533" y="258.041" width="7.70968" height="7.69638" fill="#1E1E1E"/>
<rect x="71.363" y="250.344" width="7.70967" height="7.69638" fill="#1E1E1E"/>
<rect x="79.0727" y="242.647" width="7.70968" height="7.69638" fill="#1E1E1E"/>
<rect x="86.7823" y="234.951" width="7.70968" height="7.6964" fill="#1E1E1E"/>
<rect x="94.4921" y="227.255" width="7.70968" height="7.69638" fill="#1E1E1E"/>
<rect x="94.4921" y="219.559" width="7.70968" height="7.6964" fill="#1E1E1E"/>
<rect x="102.202" y="211.862" width="7.70968" height="7.69638" fill="#1E1E1E"/>
<rect x="102.202" y="204.166" width="7.70968" height="7.6964" fill="#1E1E1E"/>
<rect x="102.202" y="196.469" width="7.70968" height="7.69638" fill="#1E1E1E"/>
<rect x="109.911" y="181.076" width="7.70967" height="7.6964" fill="#1E1E1E"/>
<rect x="109.911" y="173.381" width="7.70967" height="7.69638" fill="#1E1E1E"/>
<rect x="109.911" y="165.684" width="7.70967" height="7.6964" fill="#1E1E1E"/>
<rect x="109.911" y="157.987" width="7.70967" height="7.69638" fill="#1E1E1E"/>
<rect x="109.911" y="150.291" width="7.70967" height="7.6964" fill="#1E1E1E"/>
<rect x="102.202" y="150.291" width="7.70968" height="7.6964" fill="#1E1E1E"/>
<rect x="94.4921" y="157.987" width="7.70968" height="7.69638" fill="#1E1E1E"/>
<rect x="86.7823" y="157.987" width="7.70968" height="7.69638" fill="#1E1E1E"/>
<rect x="79.0727" y="157.987" width="7.70968" height="7.69638" fill="#1E1E1E"/>
<rect x="71.363" y="157.987" width="7.70967" height="7.69638" fill="#1E1E1E"/>
<rect x="63.6533" y="157.987" width="7.70968" height="7.69638" fill="#1E1E1E"/>
<rect x="55.9437" y="157.987" width="7.70967" height="7.69638" fill="#1E1E1E"/>
<rect x="48.234" y="165.684" width="7.70968" height="7.6964" fill="#1E1E1E"/>
<rect x="40.5243" y="173.381" width="7.70968" height="7.69638" fill="#1E1E1E"/>
<rect x="32.8146" y="173.381" width="7.70968" height="7.69638" fill="#1E1E1E"/>
<rect x="25.105" y="173.381" width="7.70968" height="7.69638" fill="#1E1E1E"/>
<rect x="17.3953" y="165.684" width="7.70968" height="7.6964" fill="#1E1E1E"/>
<rect x="9.68561" y="157.987" width="7.70968" height="7.69638" fill="#1E1E1E"/>
<rect x="9.68561" y="150.291" width="7.70968" height="7.6964" fill="#1E1E1E"/>
<rect x="9.68561" y="142.595" width="7.70968" height="7.69638" fill="#1E1E1E"/>
<rect x="17.3953" y="134.898" width="7.70968" height="7.69639" fill="#1E1E1E"/>
<rect x="25.105" y="127.201" width="7.70968" height="7.69639" fill="#1E1E1E"/>
<rect x="32.8146" y="119.506" width="7.70968" height="7.69639" fill="#1E1E1E"/>
<rect x="40.5243" y="111.809" width="7.70968" height="7.69638" fill="#1E1E1E"/>
<rect x="48.234" y="104.113" width="7.70968" height="7.69639" fill="#1E1E1E"/>
<rect x="55.9437" y="96.416" width="7.70967" height="7.69639" fill="#1E1E1E"/>
<rect x="71.363" y="81.0234" width="7.70967" height="7.69639" fill="#1E1E1E"/>
<rect x="79.0727" y="73.3271" width="7.70968" height="7.69638" fill="#1E1E1E"/>
<rect x="79.0727" y="57.9346" width="7.70968" height="7.69639" fill="#1E1E1E"/>
<rect x="86.7823" y="42.541" width="7.70968" height="7.69639" fill="#1E1E1E"/>
<rect x="94.4921" y="50.2383" width="7.70968" height="7.69639" fill="#1E1E1E"/>
<rect x="102.202" y="57.9346" width="7.70968" height="7.69639" fill="#1E1E1E"/>
<rect x="109.911" y="65.6309" width="7.70967" height="7.69639" fill="#1E1E1E"/>
<rect x="225.049" y="335.476" width="8.94118" height="7.30768" fill="#1E1E1E"/>
<rect x="233.99" y="320.86" width="8.94118" height="7.30768" fill="#1E1E1E"/>
<rect x="242.931" y="298.938" width="8.94117" height="7.30769" fill="#1E1E1E"/>
<rect x="251.872" y="269.706" width="8.94118" height="7.30769" fill="#1E1E1E"/>
<rect x="260.813" y="233.168" width="8.94118" height="7.30768" fill="#1E1E1E"/>
<rect x="260.813" y="196.629" width="8.94118" height="7.30769" fill="#1E1E1E"/>
<rect x="225.049" y="328.168" width="8.94118" height="7.30771" fill="#1E1E1E"/>
<rect x="233.99" y="313.553" width="8.94118" height="7.30771" fill="#1E1E1E"/>
<rect x="242.931" y="291.629" width="8.94117" height="7.30769" fill="#1E1E1E"/>
<rect x="251.872" y="262.398" width="8.94118" height="7.30769" fill="#1E1E1E"/>
<rect x="260.813" y="225.86" width="8.94118" height="7.30769" fill="#1E1E1E"/>
<rect x="260.813" y="189.322" width="8.94118" height="7.30769" fill="#1E1E1E"/>
<rect x="233.99" y="306.244" width="8.94118" height="7.30768" fill="#1E1E1E"/>
<rect x="242.931" y="284.322" width="8.94117" height="7.30769" fill="#1E1E1E"/>
<rect x="251.872" y="255.091" width="8.94118" height="7.30769" fill="#1E1E1E"/>
<rect x="260.813" y="218.553" width="8.94118" height="7.30769" fill="#1E1E1E"/>
<rect x="260.813" y="182.014" width="8.94118" height="7.30769" fill="#1E1E1E"/>
<rect x="251.872" y="160.091" width="8.94118" height="7.30769" fill="#1E1E1E"/>
<rect x="242.931" y="277.014" width="8.94117" height="7.30769" fill="#1E1E1E"/>
<rect x="251.872" y="247.783" width="8.94118" height="7.30769" fill="#1E1E1E"/>
<rect x="260.813" y="211.244" width="8.94118" height="7.30769" fill="#1E1E1E"/>
<rect x="260.813" y="174.706" width="8.94118" height="7.30769" fill="#1E1E1E"/>
<rect x="251.872" y="152.783" width="8.94118" height="7.30769" fill="#1E1E1E"/>
<rect x="242.931" y="138.168" width="8.94117" height="7.30769" fill="#1E1E1E"/>
<rect x="233.99" y="123.553" width="8.94118" height="7.30769" fill="#1E1E1E"/>
<rect x="251.872" y="240.476" width="8.94118" height="7.30769" fill="#1E1E1E"/>
<rect x="260.813" y="203.938" width="8.94118" height="7.30769" fill="#1E1E1E"/>
<rect x="260.813" y="167.398" width="8.94118" height="7.30769" fill="#1E1E1E"/>
<rect x="251.872" y="145.476" width="8.94118" height="7.30769" fill="#1E1E1E"/>
<rect x="242.931" y="130.86" width="8.94117" height="7.30769" fill="#1E1E1E"/>
<rect x="233.99" y="116.244" width="8.94118" height="7.30769" fill="#1E1E1E"/>
<rect x="225.049" y="108.938" width="8.94118" height="7.30769" fill="#1E1E1E"/>
<rect x="216.108" y="101.629" width="8.94118" height="7.30769" fill="#1E1E1E"/>
<rect x="207.166" y="94.3223" width="8.94118" height="7.30769" fill="#1E1E1E"/>
<rect x="198.225" y="87.0137" width="8.94117" height="7.30769" fill="#1E1E1E"/>
<rect x="189.284" y="79.7061" width="8.94118" height="7.30769" fill="#1E1E1E"/>
<rect x="180.343" y="72.3984" width="8.94117" height="7.30769" fill="#1E1E1E"/>
<rect x="162.461" y="65.0908" width="8.94118" height="7.30769" fill="#1E1E1E"/>
<rect x="171.402" y="72.3984" width="8.94118" height="7.30769" fill="#1E1E1E"/>
<rect x="153.519" y="65.0908" width="8.94118" height="7.30769" fill="#1E1E1E"/>
<rect x="144.578" y="65.0908" width="8.94118" height="7.30769" fill="#1E1E1E"/>
<rect x="117.755" y="72.3984" width="8.94118" height="7.30769" fill="#1E1E1E"/>
<rect x="126.696" y="65.0908" width="17.8824" height="7.30769" fill="#FEF57D"/>
<rect x="126.696" y="72.3984" width="44.7059" height="7.30769" fill="#FEF57D"/>
<rect x="126.696" y="79.7061" width="62.5882" height="7.30769" fill="#FEF57D"/>
<rect x="135.637" y="87.0137" width="62.5882" height="7.30769" fill="#FEF57D"/>
<rect x="144.578" y="94.3223" width="62.5882" height="7.30769" fill="#FEF57D"/>
<rect x="153.519" y="101.629" width="62.5882" height="7.30769" fill="#FEF57D"/>
<rect x="171.402" y="116.244" width="62.5882" height="7.30769" fill="#FEF57D"/>
<rect x="171.402" y="123.553" width="62.5882" height="7.30769" fill="#FEF57D"/>
<rect x="180.343" y="130.86" width="62.5882" height="7.30769" fill="#FEF57D"/>
<rect x="180.343" y="138.168" width="62.5882" height="7.30769" fill="#FEF57D"/>
<rect x="189.284" y="145.476" width="62.5882" height="7.30769" fill="#FEF57D"/>
<rect x="189.284" y="152.783" width="62.5882" height="7.30769" fill="#FEF57D"/>
<rect x="189.284" y="160.091" width="62.5882" height="7.30769" fill="#FEF57D"/>
<rect x="198.225" y="167.398" width="62.5882" height="7.30769" fill="#FEF57D"/>
<rect x="198.225" y="174.706" width="62.5882" height="7.30769" fill="#FEF57D"/>
<rect x="198.225" y="182.014" width="62.5882" height="7.30769" fill="#FEF57D"/>
<rect x="198.225" y="189.322" width="62.5882" height="7.30769" fill="#FEF57D"/>
<rect x="198.225" y="196.629" width="62.5882" height="7.30769" fill="#FEF57D"/>
<rect x="198.225" y="203.938" width="62.5882" height="7.30769" fill="#FEF57D"/>
<rect x="198.225" y="211.244" width="62.5882" height="7.30769" fill="#FEF57D"/>
<rect x="198.225" y="218.553" width="62.5882" height="7.30769" fill="#FEF57D"/>
<rect x="198.225" y="225.86" width="62.5882" height="7.30769" fill="#FEF57D"/>
<rect x="198.225" y="233.168" width="62.5882" height="7.30768" fill="#FEF57D"/>
<rect x="189.284" y="240.476" width="62.5882" height="7.30769" fill="#FEF57D"/>
<rect x="189.284" y="247.783" width="62.5882" height="7.30769" fill="#FEF57D"/>
<rect x="189.284" y="255.091" width="62.5882" height="7.30769" fill="#FEF57D"/>
<rect x="189.284" y="262.398" width="62.5882" height="7.30769" fill="#FEF57D"/>
<rect x="189.284" y="269.706" width="62.5882" height="7.30769" fill="#FEF57D"/>
<rect x="180.343" y="277.014" width="62.5882" height="7.30769" fill="#FEF57D"/>
<rect x="180.343" y="284.322" width="62.5882" height="7.30769" fill="#FEF57D"/>
<rect x="180.343" y="291.629" width="62.5882" height="7.30769" fill="#FEF57D"/>
<rect x="180.343" y="298.938" width="62.5882" height="7.30769" fill="#FEF57D"/>
<rect x="171.402" y="306.244" width="62.5882" height="7.30768" fill="#FEF57D"/>
<rect x="171.402" y="313.553" width="62.5882" height="7.30771" fill="#FEF57D"/>
<rect x="171.402" y="320.86" width="62.5882" height="7.30768" fill="#FEF57D"/>
<rect x="162.461" y="328.168" width="62.5882" height="7.30771" fill="#FEF57D"/>
<rect x="162.461" y="335.476" width="62.5882" height="7.30768" fill="#FEF57D"/>
<rect x="162.461" y="108.938" width="62.5882" height="7.30769" fill="#FEF57D"/>
<rect x="117.755" y="65.0908" width="8.94118" height="7.30769" fill="#1E1E1E"/>
<rect x="117.755" y="57.7832" width="8.94118" height="7.30769" fill="#1E1E1E"/>
<rect x="126.696" y="57.7832" width="8.94118" height="7.30769" fill="#1E1E1E"/>
<rect x="135.637" y="57.7832" width="8.94118" height="7.30769" fill="#1E1E1E"/>
<rect x="180.343" y="87.0137" width="8.94117" height="7.30769" fill="#E6DA3C"/>
<rect x="189.284" y="94.3223" width="8.94118" height="7.30769" fill="#E6DA3C"/>
<rect x="198.225" y="101.629" width="8.94117" height="7.30769" fill="#E6DA3C"/>
<rect x="207.166" y="108.938" width="8.94118" height="7.30769" fill="#E6DA3C"/>
<rect x="216.108" y="116.244" width="8.94118" height="7.30769" fill="#E6DA3C"/>
<rect x="216.108" y="123.553" width="8.94118" height="7.30769" fill="#E6DA3C"/>
<rect x="225.049" y="130.86" width="8.94118" height="7.30769" fill="#E6DA3C"/>
<rect x="225.049" y="138.168" width="8.94118" height="7.30769" fill="#E6DA3C"/>
<rect x="233.99" y="145.476" width="8.94118" height="7.30769" fill="#E6DA3C"/>
<rect x="32.6856" y="127.202" width="7.70968" height="7.69639" fill="#E2711D"/>
<rect x="39.6856" y="127.202" width="7.70968" height="7.69639" fill="#E2711D"/>
<rect x="40.6856" y="119.648" width="15" height="7.98144" fill="#E2711D"/>
<rect x="47.6856" y="111.667" width="8" height="8.97912" fill="#E2711D"/>
<rect x="55.6856" y="103.686" width="8" height="15.9629" fill="#E2711D"/>
<rect x="63.6856" y="95.7041" width="8" height="15.9629" fill="#E2711D"/>
<rect x="70.6856" y="88.7197" width="8" height="6.98376" fill="#E2711D"/>
<rect x="32.6856" y="134.613" width="7.70968" height="7.69639" fill="#E2711D"/>
<rect x="32.6856" y="141.598" width="7.70968" height="7.69639" fill="#E2711D"/>
<rect x="17.6856" y="142.595" width="8" height="22.9466" fill="#E2711D"/>
<rect x="23.6856" y="134.613" width="10" height="39.9072" fill="#E2711D"/>
<rect x="31.6856" y="167.537" width="8" height="6.98375" fill="#E2711D"/>
<rect x="39.6856" y="167.537" width="9" height="6.98375" fill="#E2711D"/>
<rect x="47.6856" y="158.558" width="8" height="8.97913" fill="#E2711D"/>
<rect x="93.6856" y="234.951" width="7.70968" height="7.6964" fill="#E2711D"/>
<rect x="86.6856" y="242.363" width="7.70968" height="7.69638" fill="#E2711D"/>
<rect x="93.6856" y="242.363" width="7.70968" height="7.69638" fill="#E2711D"/>
<rect x="78.6856" y="249.346" width="23" height="7.98145" fill="#E2711D"/>
<rect x="70.6856" y="257.328" width="31" height="7.98143" fill="#E2711D"/>
<rect x="63.6856" y="265.309" width="31" height="7.98145" fill="#E2711D"/>
<rect x="63.6856" y="273.291" width="31" height="7.98143" fill="#E2711D"/>
<rect x="55.6856" y="281.271" width="31" height="7.98145" fill="#E2711D"/>
<rect x="55.6856" y="289.254" width="23" height="7.98145" fill="#E2711D"/>
<rect x="55.6856" y="296.237" width="13" height="7.98145" fill="#E2711D"/>
<rect x="47.6856" y="304.219" width="21" height="7.98141" fill="#E2711D"/>
<rect x="47.6856" y="312.2" width="21" height="7.98145" fill="#E2711D"/>
<rect x="47.6856" y="320.182" width="28" height="7.98145" fill="#E2711D"/>
<rect x="47.6856" y="328.163" width="36" height="7.98145" fill="#E2711D"/>
<rect x="47.6856" y="335.146" width="41" height="7.98145" fill="#E2711D"/>
<rect x="40.6856" y="373.059" width="41" height="7.98145" fill="#E2711D"/>
<rect x="47.6856" y="381.04" width="41" height="7.98145" fill="#E2711D"/>
<rect x="47.6856" y="388.023" width="34" height="7.98145" fill="#E2711D"/>
<rect x="47.6856" y="396.005" width="28" height="7.98141" fill="#E2711D"/>
<rect x="47.6856" y="403.986" width="18" height="7.98145" fill="#E2711D"/>
<rect x="40.6856" y="410.971" width="18" height="7.98145" fill="#E2711D"/>
<rect x="31.6856" y="418.952" width="18" height="9.97681" fill="#E2711D"/>
</svg>
