<svg width="229" height="438" viewBox="0 0 229 438" fill="none" xmlns="http://www.w3.org/2000/svg">
<rect x="55" y="65.9185" width="80" height="119.081" fill="#FF9505"/>
<rect x="47.5" y="224.25" width="95" height="87.0662" fill="#FF9505"/>
<rect x="135" y="73.8333" width="7.49998" height="103.167" fill="#FF9505"/>
<rect x="47.5" y="73.8333" width="7.5" height="103.167" fill="#FF9505"/>
<rect x="142.5" y="89.6667" width="7.91667" height="71.25" fill="#FF9505"/>
<rect x="39.5834" y="89.6667" width="7.91667" height="71.3333" fill="#FF9505"/>
<rect x="150.417" y="97.5833" width="7.91663" height="55.4167" fill="#FF9505"/>
<rect x="31.6666" y="97.5833" width="8.33333" height="55.4167" fill="#FF9505"/>
<rect x="39" y="192.583" width="111.417" height="7.91667" fill="#FFB627"/>
<rect x="55" y="181.076" width="80" height="3.92426" fill="#E2711D"/>
<rect x="55" y="177" width="21.371" height="4.07574" fill="#E2711D"/>
<rect x="47.5" y="172.674" width="24.5695" height="4.32574" fill="#E2711D"/>
<rect x="47.5" y="168.349" width="20.402" height="4.32574" fill="#E2711D"/>
<rect x="47.5" y="161" width="14.656" height="7.34853" fill="#E2711D"/>
<rect x="39.5834" y="153" width="14.656" height="8" fill="#E2711D"/>
<rect x="31.672" y="97.5833" width="8.32801" height="55.4163" fill="#E2711D"/>
<rect x="40.005" y="128.188" width="7.495" height="24.8116" fill="#E2711D"/>
<rect x="31" y="208.417" width="127.333" height="7.91666" fill="#FFB627"/>
<rect x="15.8334" y="319.25" width="158.333" height="15.8336" fill="#FFB627"/>
<rect x="7.91663" y="414.25" width="174.167" height="15.8336" fill="#FF9505"/>
<rect x="23.75" y="343" width="142.5" height="7.91696" fill="#FF9505"/>
<rect x="31.6666" y="350.917" width="126.667" height="7.91696" fill="#FF9505"/>
<rect x="39.5834" y="358.833" width="110.833" height="47.5002" fill="#FF9505"/>
<rect x="39.5834" y="295.5" width="7.91667" height="15.8333" fill="#FF9505"/>
<rect x="31.6666" y="390.5" width="7.91667" height="15.8333" fill="#FF9505"/>
<rect x="142.5" y="295.5" width="7.91667" height="15.8333" fill="#FF9505"/>
<rect x="150.417" y="390.5" width="7.91667" height="15.8333" fill="#FF9505"/>
<rect x="31.6666" y="303.417" width="7.91667" height="7.91669" fill="#FF9505"/>
<rect x="23.75" y="398.416" width="7.91667" height="7.91669" fill="#FF9505"/>
<rect x="150.417" y="303.417" width="7.91667" height="7.91669" fill="#FF9505"/>
<rect x="158.333" y="398.416" width="7.91667" height="7.91669" fill="#FF9505"/>
<rect x="23.75" y="343.034" width="142.5" height="3.92426" fill="#E2711D"/>
<rect width="44" height="3.95847" transform="matrix(-1 0 0 1 166.25 346.958)" fill="#E2711D"/>
<rect width="44.25" height="7.91669" transform="matrix(-1 0 0 1 166.25 398.416)" fill="#E2711D"/>
<rect width="40.0674" height="7.74892" transform="matrix(-1 0 0 1 182.067 414.251)" fill="#E2711D"/>
<rect width="32.0674" height="8.08581" transform="matrix(-1 0 0 1 182.067 422)" fill="#E2711D"/>
<rect width="49.3333" height="7.91696" transform="matrix(-1 0 0 1 158.333 350.917)" fill="#E2711D"/>
<rect width="49.3333" height="7.91663" transform="matrix(-1 0 0 1 158.333 390.5)" fill="#E2711D"/>
<rect width="49.4167" height="31.666" transform="matrix(-1 0 0 1 150.417 358.833)" fill="#E2711D"/>
</svg>
