<svg width="177" height="332" viewBox="0 0 177 332" fill="none" xmlns="http://www.w3.org/2000/svg">
<g clip-path="url(#clip0_407_34673)">
<rect x="19.9576" y="26.0754" width="66.3805" height="98.8086" transform="rotate(-19.0645 19.9576 26.0754)" fill="#FF9505"/>
<rect x="56.9876" y="152.279" width="78.8269" height="72.2438" transform="rotate(-19.0645 56.9876 152.279)" fill="#FF9505"/>
<rect x="84.8423" y="10.6005" width="6.22316" height="85.6032" transform="rotate(-19.0645 84.8423 10.6005)" fill="#FF9505"/>
<rect x="16.2208" y="34.3152" width="6.22317" height="85.6032" transform="rotate(-19.0645 16.2208 34.3152)" fill="#FF9505"/>
<rect x="95.0154" y="20.985" width="6.56891" height="59.1202" transform="rotate(-19.0645 95.0154 20.985)" fill="#FF9505"/>
<rect x="14.3034" y="48.878" width="6.56891" height="59.1893" transform="rotate(-19.0645 14.3034 48.878)" fill="#FF9505"/>
<rect x="103.37" y="25.048" width="6.56887" height="45.9823" transform="rotate(-19.0645 103.37 25.048)" fill="#FF9505"/>
<rect x="10.2404" y="57.2323" width="6.91464" height="45.9823" transform="rotate(-19.0645 10.2404 57.2323)" fill="#FF9505"/>
<rect x="41.739" y="129.748" width="92.4487" height="6.56891" transform="rotate(-19.0645 41.739 129.748)" fill="#FFB627"/>
<rect x="51.1681" y="116.387" width="66.3805" height="3.25618" transform="rotate(-19.0645 51.1681 116.387)" fill="#E2711D"/>
<rect x="50.0635" y="113.19" width="17.7327" height="3.38187" transform="rotate(-19.0645 50.0635 113.19)" fill="#E2711D"/>
<rect x="43.0092" y="111.831" width="20.3867" height="3.58931" transform="rotate(-19.0645 43.0092 111.831)" fill="#E2711D"/>
<rect x="41.8368" y="108.438" width="16.9287" height="3.58931" transform="rotate(-19.0645 41.8368 108.438)" fill="#E2711D"/>
<rect x="39.8452" y="102.675" width="12.1609" height="6.09749" transform="rotate(-19.0645 39.8452 102.675)" fill="#E2711D"/>
<rect x="31.4684" y="98.5469" width="12.1609" height="6.63805" transform="rotate(-19.0645 31.4684 98.5469)" fill="#E2711D"/>
<rect x="10.2446" y="57.2308" width="6.91022" height="45.9821" transform="rotate(-19.0645 10.2446 57.2308)" fill="#E2711D"/>
<rect x="25.0744" y="78.974" width="6.21903" height="20.5876" transform="rotate(-19.0645 25.0744 78.974)" fill="#E2711D"/>
<rect x="39.7563" y="144.334" width="105.656" height="6.5689" transform="rotate(-19.0645 39.7563 144.334)" fill="#FFB627"/>
<rect x="57.9005" y="235.365" width="131.378" height="13.1381" transform="rotate(-19.0645 57.9005 235.365)" fill="#FFB627"/>
<rect x="77.4393" y="312.013" width="144.516" height="13.1381" transform="rotate(-19.0645 77.4393 312.013)" fill="#FF9505"/>
<rect x="70.546" y="251.845" width="118.24" height="6.56915" transform="rotate(-19.0645 70.546 251.845)" fill="#FF9505"/>
<rect x="78.9001" y="255.908" width="105.102" height="6.56915" transform="rotate(-19.0645 78.9001 255.908)" fill="#FF9505"/>
<rect x="87.2545" y="259.971" width="91.9647" height="39.4136" transform="rotate(-19.0645 87.2545 259.971)" fill="#FF9505"/>
<rect x="70.0895" y="210.302" width="6.56891" height="13.1378" transform="rotate(-19.0645 70.0895 210.302)" fill="#FF9505"/>
<rect x="89.6282" y="286.95" width="6.56891" height="13.1378" transform="rotate(-19.0645 89.6282 286.95)" fill="#FF9505"/>
<rect x="150.801" y="182.409" width="6.56891" height="13.1378" transform="rotate(-19.0645 150.801 182.409)" fill="#FF9505"/>
<rect x="66.0266" y="218.656" width="6.56891" height="6.56892" transform="rotate(-19.0645 66.0266 218.656)" fill="#FF9505"/>
<rect x="85.5652" y="295.305" width="6.56891" height="6.56892" transform="rotate(-19.0645 85.5652 295.305)" fill="#FF9505"/>
<rect x="159.156" y="186.472" width="6.56891" height="6.56892" transform="rotate(-19.0645 159.156 186.472)" fill="#FF9505"/>
<rect x="70.5553" y="251.872" width="118.24" height="3.25618" transform="rotate(-19.0645 70.5553 251.872)" fill="#E2711D"/>
<rect width="36.5093" height="3.28456" transform="matrix(-0.945151 0.326633 0.326633 0.945151 183.374 216.328)" fill="#E2711D"/>
<rect width="36.7167" height="6.56892" transform="matrix(-0.945151 0.326633 0.326633 0.945151 197.32 256.683)" fill="#E2711D"/>
<rect width="40.9346" height="6.56915" transform="matrix(-0.945151 0.326633 0.326633 0.945151 178.238 221.578)" fill="#E2711D"/>
<rect width="40.9347" height="6.56887" transform="matrix(-0.945151 0.326633 0.326633 0.945151 188.966 252.62)" fill="#E2711D"/>
<rect width="41.0038" height="26.2751" transform="matrix(-0.945151 0.326633 0.326633 0.945151 174.175 229.932)" fill="#E2711D"/>
<rect x="112.409" y="91.4253" width="6.56891" height="6.56891" transform="rotate(-19.0645 112.409 91.4253)" fill="#11140F"/>
<rect x="44.1138" y="115.027" width="6.5689" height="6.56891" transform="rotate(-19.0645 44.1138 115.027)" fill="#11140F"/>
<rect x="82.3699" y="4.50476" width="6.56891" height="6.56891" transform="rotate(-19.0645 82.3699 4.50476)" fill="#11140F"/>
<rect x="118.389" y="68.5082" width="6.5689" height="6.56891" transform="rotate(-19.0645 118.389 68.5082)" fill="#11140F"/>
<rect x="25.2598" y="100.693" width="6.5689" height="6.56891" transform="rotate(-19.0645 25.2598 100.693)" fill="#11140F"/>
<rect x="101.224" y="18.8393" width="6.5689" height="6.5689" transform="rotate(-19.0645 101.224 18.8393)" fill="#11140F"/>
<rect x="114.326" y="76.8625" width="6.56891" height="13.1378" transform="rotate(-19.0645 114.326 76.8625)" fill="#11140F"/>
<rect x="33.614" y="104.756" width="6.56891" height="13.1378" transform="rotate(-19.0645 33.614 104.756)" fill="#11140F"/>
<rect x="90.7241" y="8.56775" width="6.56891" height="13.1378" transform="rotate(-19.0645 90.7241 8.56775)" fill="#11140F"/>
<rect x="122.452" y="60.154" width="6.56891" height="6.5689" transform="rotate(-19.0645 122.452 60.154)" fill="#11140F"/>
<rect x="16.9056" y="96.6295" width="6.56891" height="6.5689" transform="rotate(-19.0645 16.9056 96.6295)" fill="#11140F"/>
<rect x="8.09479" y="51.0236" width="6.5689" height="6.5689" transform="rotate(-19.0645 8.09479 51.0236)" fill="#11140F"/>
<rect x="10.0122" y="36.4608" width="6.56891" height="13.1378" transform="rotate(-19.0645 10.0122 36.4608)" fill="#11140F"/>
<rect x="14.0752" y="28.1066" width="6.5689" height="6.56891" transform="rotate(-19.0645 14.0752 28.1066)" fill="#11140F"/>
<rect x="120.306" y="53.9454" width="6.56891" height="6.56891" transform="rotate(-19.0645 120.306 53.9454)" fill="#11140F"/>
<rect x="14.7599" y="90.4209" width="6.56891" height="6.56891" transform="rotate(-19.0645 14.7599 90.4209)" fill="#11140F"/>
<rect x="118.161" y="47.7368" width="6.56891" height="6.5689" transform="rotate(-19.0645 118.161 47.7368)" fill="#11140F"/>
<rect x="12.6143" y="84.2123" width="6.56891" height="6.5689" transform="rotate(-19.0645 12.6143 84.2123)" fill="#11140F"/>
<rect x="116.015" y="41.5282" width="6.56891" height="6.5689" transform="rotate(-19.0645 116.015 41.5282)" fill="#11140F"/>
<rect x="10.4687" y="78.0037" width="6.56891" height="6.5689" transform="rotate(-19.0645 10.4687 78.0037)" fill="#11140F"/>
<rect x="109.578" y="22.9023" width="6.56891" height="19.7067" transform="rotate(-19.0645 109.578 22.9023)" fill="#11140F"/>
<rect x="4.0318" y="59.3779" width="6.56891" height="19.7067" transform="rotate(-19.0645 4.0318 59.3779)" fill="#11140F"/>
<rect x="18.1382" y="19.7523" width="65.6891" height="6.56891" transform="rotate(-19.0645 18.1382 19.7523)" fill="#11140F"/>
<rect x="40.0508" y="123.381" width="6.56891" height="6.5689" transform="rotate(-19.0645 40.0508 123.381)" fill="#11140F"/>
<rect x="114.554" y="97.6339" width="6.56891" height="6.5689" transform="rotate(-19.0645 114.554 97.6339)" fill="#11140F"/>
<rect x="81.0459" y="262.116" width="6.5689" height="19.7067" transform="rotate(-19.0645 81.0459 262.116)" fill="#11140F"/>
<rect x="174.175" y="229.932" width="6.5689" height="19.7067" transform="rotate(-19.0645 174.175 229.932)" fill="#11140F"/>
<rect x="50.7789" y="154.424" width="6.56891" height="59.1202" transform="rotate(-19.0645 50.7789 154.424)" fill="#11140F"/>
<rect x="131.491" y="126.531" width="6.56891" height="59.1202" transform="rotate(-19.0645 131.491 126.531)" fill="#11140F"/>
<rect x="83.4197" y="289.096" width="6.56891" height="6.5689" transform="rotate(-19.0645 83.4197 289.096)" fill="#11140F"/>
<rect x="87.4828" y="280.742" width="6.5689" height="6.5689" transform="rotate(-19.0645 87.4828 280.742)" fill="#11140F"/>
<rect x="72.6917" y="258.053" width="6.56891" height="6.56892" transform="rotate(-19.0645 72.6917 258.053)" fill="#11140F"/>
<rect x="64.3374" y="253.99" width="6.5689" height="6.5689" transform="rotate(-19.0645 64.3374 253.99)" fill="#11140F"/>
<rect x="53.8376" y="243.719" width="6.56891" height="6.56892" transform="rotate(-19.0645 53.8376 243.719)" fill="#11140F"/>
<rect x="51.692" y="237.51" width="6.56891" height="6.5689" transform="rotate(-19.0645 51.692 237.51)" fill="#11140F"/>
<rect x="59.8179" y="220.802" width="6.56891" height="6.56892" transform="rotate(-19.0645 59.8179 220.802)" fill="#11140F"/>
<rect x="63.8809" y="212.447" width="6.5689" height="6.5689" transform="rotate(-19.0645 63.8809 212.447)" fill="#11140F"/>
<rect x="165.364" y="184.326" width="6.56891" height="6.56892" transform="rotate(-19.0645 165.364 184.326)" fill="#11140F"/>
<rect x="157.01" y="180.263" width="6.5689" height="6.5689" transform="rotate(-19.0645 157.01 180.263)" fill="#11140F"/>
<rect x="79.3568" y="297.451" width="6.5689" height="6.56892" transform="rotate(-19.0645 79.3568 297.451)" fill="#11140F"/>
<rect x="129.117" y="99.5513" width="6.5689" height="6.56891" transform="rotate(-19.0645 129.117 99.5513)" fill="#11140F"/>
<rect x="35.9879" y="131.736" width="6.5689" height="6.56891" transform="rotate(-19.0645 35.9879 131.736)" fill="#11140F"/>
<rect x="139.617" y="109.823" width="6.56891" height="6.5689" transform="rotate(-19.0645 139.617 109.823)" fill="#11140F"/>
<rect x="46.2595" y="121.236" width="91.9647" height="6.5689" transform="rotate(-19.0645 46.2595 121.236)" fill="#11140F"/>
<rect x="33.8423" y="125.527" width="13.1378" height="6.5689" transform="rotate(-19.0645 33.8423 125.527)" fill="#11140F"/>
<rect x="34.0706" y="146.298" width="6.56891" height="6.5689" transform="rotate(-19.0645 34.0706 146.298)" fill="#11140F"/>
<rect x="42.4247" y="150.361" width="105.102" height="6.56891" transform="rotate(-19.0645 42.4247 150.361)" fill="#11140F"/>
<rect x="71.2308" y="314.159" width="6.56891" height="19.7067" transform="rotate(-19.0645 71.2308 314.159)" fill="#11140F"/>
<rect x="75.2938" y="305.805" width="144.516" height="6.5689" transform="rotate(-19.0645 75.2938 305.805)" fill="#11140F"/>
<rect x="55.7549" y="229.156" width="131.378" height="6.5689" transform="rotate(-19.0645 55.7549 229.156)" fill="#11140F"/>
<rect x="81.7307" y="324.431" width="144.516" height="6.5689" transform="rotate(-19.0645 81.7307 324.431)" fill="#11140F"/>
<rect x="62.1918" y="247.782" width="131.378" height="6.5689" transform="rotate(-19.0645 62.1918 247.782)" fill="#11140F"/>
<rect x="106.428" y="114.342" width="39.4134" height="6.56891" transform="rotate(-19.0645 106.428 114.342)" fill="#11140F"/>
<rect x="31.9249" y="140.09" width="39.4134" height="6.56891" transform="rotate(-19.0645 31.9249 140.09)" fill="#11140F"/>
<rect x="69.1766" y="127.216" width="39.4134" height="6.56891" transform="rotate(-19.0645 69.1766 127.216)" fill="#11140F"/>
<rect x="27.8678" y="59.4907" width="6.43226" height="6.43226" transform="rotate(-29.9825 27.8678 59.4907)" fill="#1E1E1E"/>
<rect x="31.0822" y="65.0622" width="6.43226" height="6.43226" transform="rotate(-29.9825 31.0822 65.0622)" fill="#1E1E1E"/>
<rect x="8.79626" y="77.9199" width="6.43226" height="6.43226" transform="rotate(-29.9825 8.79626 77.9199)" fill="#1E1E1E"/>
<rect x="8.79626" y="77.9199" width="12.8645" height="6.43226" transform="rotate(-29.9825 8.79626 77.9199)" fill="#1E1E1E"/>
<rect x="15.2252" y="89.0628" width="19.2968" height="6.43226" transform="rotate(-29.9825 15.2252 89.0628)" fill="#1E1E1E"/>
<rect x="12.0107" y="83.4913" width="19.2968" height="6.43226" transform="rotate(-29.9825 12.0107 83.4913)" fill="#1E1E1E"/>
<rect x="34.2966" y="70.6336" width="6.43226" height="6.43226" transform="rotate(-29.9825 34.2966 70.6336)" fill="#1E1E1E"/>
<rect x="47.7967" y="55.4189" width="6.43226" height="6.43226" transform="rotate(-29.9825 47.7967 55.4189)" fill="#1E1E1E"/>
<rect x="51.0111" y="60.9904" width="6.43226" height="6.43226" transform="rotate(-29.9825 51.0111 60.9904)" fill="#1E1E1E"/>
<rect x="25.5107" y="68.2766" width="6.43226" height="6.43226" transform="rotate(-29.9825 25.5107 68.2766)" fill="#1E1E1E"/>
<rect x="28.7252" y="73.8481" width="6.43226" height="6.43226" transform="rotate(-29.9825 28.7252 73.8481)" fill="#1E1E1E"/>
<rect x="31.0822" y="65.0622" width="6.43226" height="6.43226" transform="rotate(-29.9825 31.0822 65.0622)" fill="#1E1E1E"/>
<rect x="34.2966" y="70.6336" width="6.43226" height="6.43226" transform="rotate(-29.9825 34.2966 70.6336)" fill="#1E1E1E"/>
<rect x="42.2252" y="58.6333" width="6.43226" height="6.43226" transform="rotate(-29.9825 42.2252 58.6333)" fill="#1E1E1E"/>
<rect x="45.4396" y="64.2048" width="6.43226" height="6.43226" transform="rotate(-29.9825 45.4396 64.2048)" fill="#1E1E1E"/>
<rect x="36.6537" y="61.8477" width="6.43226" height="6.43226" transform="rotate(-29.9825 36.6537 61.8477)" fill="#1E1E1E"/>
<rect x="39.8681" y="67.4192" width="6.43226" height="6.43226" transform="rotate(-29.9825 39.8681 67.4192)" fill="#1E1E1E"/>
<rect x="37.511" y="76.2051" width="6.43226" height="6.43226" transform="rotate(-29.9825 37.511 76.2051)" fill="#1E1E1E"/>
<rect x="37.511" y="76.2051" width="6.43226" height="6.43226" transform="rotate(-29.9825 37.511 76.2051)" fill="#1E1E1E"/>
<rect x="48.6541" y="69.7763" width="6.43226" height="6.43226" transform="rotate(-29.9825 48.6541 69.7763)" fill="#1E1E1E"/>
<rect x="43.0825" y="72.9907" width="6.43226" height="6.43226" transform="rotate(-29.9825 43.0825 72.9907)" fill="#1E1E1E"/>
<rect x="31.9396" y="79.4196" width="6.43226" height="6.43226" transform="rotate(-29.9825 31.9396 79.4196)" fill="#1E1E1E"/>
<rect x="35.1541" y="84.991" width="6.43226" height="6.43226" transform="rotate(-29.9825 35.1541 84.991)" fill="#1E1E1E"/>
<rect x="95.5829" y="35.2749" width="6.43226" height="6.43226" transform="rotate(-29.9825 95.5829 35.2749)" fill="#1E1E1E"/>
<rect x="107.583" y="43.2035" width="6.43225" height="6.43226" transform="rotate(-29.9825 107.583 43.2035)" fill="#1E1E1E"/>
<rect x="89.1541" y="24.132" width="6.43226" height="6.43226" transform="rotate(-29.9825 89.1541 24.132)" fill="#1E1E1E"/>
<rect x="92.3685" y="29.7034" width="6.43226" height="6.43226" transform="rotate(-29.9825 92.3685 29.7034)" fill="#1E1E1E"/>
<rect x="98.7974" y="40.8464" width="6.43226" height="6.43226" transform="rotate(-29.9825 98.7974 40.8464)" fill="#1E1E1E"/>
<rect x="98.7974" y="40.8464" width="6.43226" height="6.43226" transform="rotate(-29.9825 98.7974 40.8464)" fill="#1E1E1E"/>
<rect x="90.0114" y="38.4893" width="6.43226" height="6.43226" transform="rotate(-29.9825 90.0114 38.4893)" fill="#1E1E1E"/>
<rect x="86.797" y="32.9179" width="6.43226" height="6.43226" transform="rotate(-29.9825 86.797 32.9179)" fill="#1E1E1E"/>
<rect x="93.2258" y="44.0608" width="6.43226" height="6.43226" transform="rotate(-29.9825 93.2258 44.0608)" fill="#1E1E1E"/>
<rect x="93.2258" y="44.0608" width="6.43226" height="6.43226" transform="rotate(-29.9825 93.2258 44.0608)" fill="#1E1E1E"/>
<rect x="101.154" y="32.0605" width="6.43225" height="6.43226" transform="rotate(-29.9825 101.154 32.0605)" fill="#1E1E1E"/>
<rect x="97.94" y="26.489" width="6.43225" height="6.43226" transform="rotate(-29.9825 97.94 26.489)" fill="#1E1E1E"/>
<rect x="104.369" y="37.632" width="6.43225" height="6.43226" transform="rotate(-29.9825 104.369 37.632)" fill="#1E1E1E"/>
<rect x="104.369" y="37.632" width="6.43225" height="6.43226" transform="rotate(-29.9825 104.369 37.632)" fill="#1E1E1E"/>
<rect x="78.8685" y="44.9182" width="6.43226" height="6.43226" transform="rotate(-29.9825 78.8685 44.9182)" fill="#1E1E1E"/>
<rect x="75.6541" y="39.3467" width="6.43226" height="6.43226" transform="rotate(-29.9825 75.6541 39.3467)" fill="#1E1E1E"/>
<rect x="73.297" y="48.1326" width="6.43225" height="6.43226" transform="rotate(-29.9825 73.297 48.1326)" fill="#1E1E1E"/>
<rect x="70.0826" y="42.5612" width="6.43225" height="6.43226" transform="rotate(-29.9825 70.0826 42.5612)" fill="#1E1E1E"/>
<rect x="106.726" y="28.8461" width="6.43226" height="6.43226" transform="rotate(-29.9825 106.726 28.8461)" fill="#1E1E1E"/>
<rect x="103.511" y="23.2746" width="6.43226" height="6.43226" transform="rotate(-29.9825 103.511 23.2746)" fill="#1E1E1E"/>
<rect x="82.0829" y="50.4897" width="6.43226" height="6.43226" transform="rotate(-29.9825 82.0829 50.4897)" fill="#1E1E1E"/>
<rect x="82.0829" y="50.4897" width="6.43226" height="6.43226" transform="rotate(-29.9825 82.0829 50.4897)" fill="#1E1E1E"/>
<rect x="84.4399" y="41.7038" width="6.43226" height="6.43226" transform="rotate(-29.9825 84.4399 41.7038)" fill="#1E1E1E"/>
<rect x="81.2255" y="36.1323" width="6.43226" height="6.43226" transform="rotate(-29.9825 81.2255 36.1323)" fill="#1E1E1E"/>
<rect x="87.6544" y="47.2753" width="6.43226" height="6.43226" transform="rotate(-29.9825 87.6544 47.2753)" fill="#1E1E1E"/>
<rect x="87.6544" y="47.2753" width="6.43226" height="6.43226" transform="rotate(-29.9825 87.6544 47.2753)" fill="#1E1E1E"/>
<rect x="11.1534" y="69.134" width="6.43226" height="6.43226" transform="rotate(-29.9825 11.1534 69.134)" fill="#1E1E1E"/>
<rect x="33.4393" y="56.2762" width="6.43226" height="6.43226" transform="rotate(-29.9825 33.4393 56.2762)" fill="#1E1E1E"/>
<rect x="22.2963" y="62.7051" width="6.43226" height="6.43226" transform="rotate(-29.9825 22.2963 62.7051)" fill="#1E1E1E"/>
<rect x="16.7248" y="65.9195" width="6.43226" height="6.43226" transform="rotate(-29.9825 16.7248 65.9195)" fill="#1E1E1E"/>
<rect x="19.9393" y="71.491" width="6.43226" height="6.43226" transform="rotate(-29.9825 19.9393 71.491)" fill="#1E1E1E"/>
<rect x="5.58185" y="72.3484" width="6.43226" height="6.43226" transform="rotate(-29.9825 5.58185 72.3484)" fill="#1E1E1E"/>
<rect x="0.010376" y="75.5628" width="6.43226" height="6.43226" transform="rotate(-29.9825 0.010376 75.5628)" fill="#1E1E1E"/>
<rect x="3.22479" y="81.1343" width="6.43226" height="6.43226" transform="rotate(-29.9825 3.22479 81.1343)" fill="#1E1E1E"/>
<rect x="12.0107" y="83.4913" width="6.43226" height="6.43226" transform="rotate(-29.9825 12.0107 83.4913)" fill="#1E1E1E"/>
<rect x="20.7966" y="85.8484" width="6.43226" height="6.43226" transform="rotate(-29.9825 20.7966 85.8484)" fill="#1E1E1E"/>
<rect x="29.5825" y="88.2055" width="6.43226" height="6.43226" transform="rotate(-29.9825 29.5825 88.2055)" fill="#1E1E1E"/>
<rect x="40.7255" y="81.7766" width="6.43226" height="6.43226" transform="rotate(-29.9825 40.7255 81.7766)" fill="#1E1E1E"/>
<rect x="46.2969" y="78.5622" width="6.43226" height="6.43226" transform="rotate(-29.9825 46.2969 78.5622)" fill="#1E1E1E"/>
<rect x="51.8685" y="75.3477" width="6.43226" height="6.43226" transform="rotate(-29.9825 51.8685 75.3477)" fill="#1E1E1E"/>
<rect x="90.8688" y="52.8467" width="6.43226" height="6.43226" transform="rotate(-29.9825 90.8688 52.8467)" fill="#1E1E1E"/>
<rect x="85.2974" y="56.0612" width="6.43226" height="6.43226" transform="rotate(-29.9825 85.2974 56.0612)" fill="#1E1E1E"/>
<rect x="96.4402" y="49.6323" width="6.43226" height="6.43226" transform="rotate(-29.9825 96.4402 49.6323)" fill="#1E1E1E"/>
<rect x="102.012" y="46.4179" width="6.43226" height="6.43226" transform="rotate(-29.9825 102.012 46.4179)" fill="#1E1E1E"/>
<rect x="107.583" y="43.2035" width="6.43225" height="6.43226" transform="rotate(-29.9825 107.583 43.2035)" fill="#1E1E1E"/>
<rect x="109.94" y="34.4176" width="6.43226" height="6.43226" transform="rotate(-29.9825 109.94 34.4176)" fill="#1E1E1E"/>
<rect x="112.297" y="25.6316" width="6.43226" height="6.43226" transform="rotate(-29.9825 112.297 25.6316)" fill="#1E1E1E"/>
<rect x="109.083" y="20.0602" width="6.43226" height="6.43226" transform="rotate(-29.9825 109.083 20.0602)" fill="#1E1E1E"/>
<rect x="54.2255" y="66.5618" width="6.43226" height="6.43226" transform="rotate(-29.9825 54.2255 66.5618)" fill="#1E1E1E"/>
<rect x="76.5114" y="53.7041" width="6.43225" height="6.43226" transform="rotate(-29.9825 76.5114 53.7041)" fill="#1E1E1E"/>
<rect x="56.5825" y="57.7759" width="6.43226" height="6.43226" transform="rotate(-29.9825 56.5825 57.7759)" fill="#1E1E1E"/>
<rect x="53.3681" y="52.2045" width="6.43226" height="6.43226" transform="rotate(-29.9825 53.3681 52.2045)" fill="#1E1E1E"/>
<rect x="67.7255" y="51.3471" width="6.43226" height="6.43226" transform="rotate(-29.9825 67.7255 51.3471)" fill="#1E1E1E"/>
<rect x="64.5111" y="45.7756" width="6.43226" height="6.43226" transform="rotate(-29.9825 64.5111 45.7756)" fill="#1E1E1E"/>
<rect x="11.1534" y="69.134" width="6.43226" height="6.43226" transform="rotate(-29.9825 11.1534 69.134)" fill="#1E1E1E"/>
<rect x="39.0107" y="53.0618" width="6.43226" height="6.43226" transform="rotate(-29.9825 39.0107 53.0618)" fill="#1E1E1E"/>
<rect x="50.1537" y="46.633" width="6.43226" height="6.43226" transform="rotate(-29.9825 50.1537 46.633)" fill="#1E1E1E"/>
<rect x="44.5822" y="49.8474" width="6.43226" height="6.43226" transform="rotate(-29.9825 44.5822 49.8474)" fill="#1E1E1E"/>
<rect x="55.7252" y="43.4185" width="6.43226" height="6.43226" transform="rotate(-29.9825 55.7252 43.4185)" fill="#1E1E1E"/>
<rect x="66.8682" y="36.9897" width="6.43225" height="6.43226" transform="rotate(-29.9825 66.8682 36.9897)" fill="#1E1E1E"/>
<rect x="61.2967" y="40.2041" width="6.43226" height="6.43226" transform="rotate(-29.9825 61.2967 40.2041)" fill="#1E1E1E"/>
<rect x="72.4396" y="33.7753" width="6.43226" height="6.43226" transform="rotate(-29.9825 72.4396 33.7753)" fill="#1E1E1E"/>
<rect x="83.5826" y="27.3464" width="6.43226" height="6.43226" transform="rotate(-29.9825 83.5826 27.3464)" fill="#1E1E1E"/>
<rect x="78.0111" y="30.5608" width="6.43226" height="6.43226" transform="rotate(-29.9825 78.0111 30.5608)" fill="#1E1E1E"/>
<rect x="94.7256" y="20.9175" width="6.43225" height="6.43226" transform="rotate(-29.9825 94.7256 20.9175)" fill="#1E1E1E"/>
<rect x="105.869" y="14.4887" width="6.43226" height="6.43226" transform="rotate(-29.9825 105.869 14.4887)" fill="#1E1E1E"/>
<rect x="100.297" y="17.7031" width="6.43226" height="6.43226" transform="rotate(-29.9825 100.297 17.7031)" fill="#1E1E1E"/>
<rect x="19.9393" y="71.491" width="6.43226" height="6.43226" transform="rotate(-29.9825 19.9393 71.491)" fill="white"/>
<rect x="28.7252" y="73.8481" width="6.43226" height="6.43226" transform="rotate(-29.9825 28.7252 73.8481)" fill="white"/>
<path d="M37.511 76.2051L43.0825 72.9907L46.297 78.5622L40.7255 81.7766L37.511 76.2051Z" fill="white"/>
<rect x="61.0001" y="148.875" width="10.0484" height="9.21417" transform="rotate(-18.9782 61.0001 148.875)" fill="#100E55"/>
<rect x="70.5019" y="145.607" width="10.0484" height="9.21417" transform="rotate(-18.9782 70.5019 145.607)" fill="#100E55"/>
<rect x="80.0043" y="142.339" width="10.0484" height="9.21417" transform="rotate(-18.9782 80.0043 142.339)" fill="#100E55"/>
<rect x="89.5065" y="139.071" width="10.0484" height="9.21417" transform="rotate(-18.9782 89.5065 139.071)" fill="#100E55"/>
<rect x="99.0084" y="135.803" width="10.0484" height="9.21417" transform="rotate(-18.9782 99.0084 135.803)" fill="#100E55"/>
<rect x="108.511" y="132.535" width="10.0484" height="9.21417" transform="rotate(-18.9782 108.511 132.535)" fill="#100E55"/>
<rect x="73.4984" y="154.32" width="10.0484" height="9.21417" transform="rotate(-18.9782 73.4984 154.32)" fill="#100E55"/>
<rect x="85.9974" y="159.766" width="10.0484" height="9.21417" transform="rotate(-18.9782 85.9974 159.766)" fill="#100E55"/>
<rect x="105.001" y="153.23" width="10.0484" height="9.21417" transform="rotate(-18.9782 105.001 153.23)" fill="#100E55"/>
<rect x="111.508" y="141.249" width="10.0484" height="9.21417" transform="rotate(-18.9782 111.508 141.249)" fill="#100E55"/>
<rect x="118.013" y="129.268" width="10.0484" height="9.21417" transform="rotate(-18.9782 118.013 129.268)" fill="#100E55"/>
<rect x="106.973" y="220.759" width="10.0484" height="9.21417" transform="rotate(-18.9782 106.973 220.759)" fill="#100E55"/>
<rect x="119.472" y="226.204" width="10.0484" height="9.21417" transform="rotate(-18.9782 119.472 226.204)" fill="#100E55"/>
<rect x="125.977" y="214.223" width="10.0484" height="9.21417" transform="rotate(-18.9782 125.977 214.223)" fill="#100E55"/>
<rect x="132.483" y="202.242" width="10.0484" height="9.21417" transform="rotate(-18.9782 132.483 202.242)" fill="#100E55"/>
<rect x="79.4915" y="171.747" width="10.0484" height="9.21417" transform="rotate(-18.9782 79.4915 171.747)" fill="#100E55"/>
<rect x="117.501" y="158.675" width="10.0484" height="9.21417" transform="rotate(-18.9782 117.501 158.675)" fill="#100E55"/>
<rect x="82.488" y="180.46" width="10.0484" height="9.21417" transform="rotate(-18.9782 82.488 180.46)" fill="#100E55"/>
<rect x="120.497" y="167.389" width="10.0484" height="9.21417" transform="rotate(-18.9782 120.497 167.389)" fill="#100E55"/>
<rect x="85.4845" y="189.173" width="10.0484" height="9.21417" transform="rotate(-18.9782 85.4845 189.173)" fill="#100E55"/>
<rect x="123.494" y="176.102" width="10.0484" height="9.21417" transform="rotate(-18.9782 123.494 176.102)" fill="#100E55"/>
<rect width="10.0484" height="9.21417" transform="matrix(-0.945642 0.325209 0.325209 0.945642 97.9834 194.619)" fill="#100E55"/>
<rect width="10.0484" height="9.21417" transform="matrix(-0.945642 0.325209 0.325209 0.945642 135.992 181.548)" fill="#100E55"/>
<rect width="10.0484" height="9.21417" transform="matrix(-0.945642 0.325209 0.325209 0.945642 100.98 203.332)" fill="#100E55"/>
<rect width="10.0484" height="9.21417" transform="matrix(-0.945642 0.325209 0.325209 0.945642 138.988 190.261)" fill="#100E55"/>
<rect width="10.0484" height="9.21417" transform="matrix(-0.945642 0.325209 0.325209 0.945642 103.977 212.045)" fill="#100E55"/>
<rect x="61.0001" y="148.875" width="10.0484" height="9.21417" transform="rotate(-18.9782 61.0001 148.875)" fill="#100E55"/>
<rect x="70.5019" y="145.607" width="10.0484" height="9.21417" transform="rotate(-18.9782 70.5019 145.607)" fill="#100E55"/>
<rect x="80.0043" y="142.339" width="10.0484" height="9.21417" transform="rotate(-18.9782 80.0043 142.339)" fill="#100E55"/>
<rect x="89.5065" y="139.071" width="10.0484" height="9.21417" transform="rotate(-18.9782 89.5065 139.071)" fill="#100E55"/>
<rect x="99.0084" y="135.803" width="10.0484" height="9.21417" transform="rotate(-18.9782 99.0084 135.803)" fill="#100E55"/>
<rect x="108.511" y="132.535" width="10.0484" height="9.21417" transform="rotate(-18.9782 108.511 132.535)" fill="#100E55"/>
<rect x="73.4984" y="154.32" width="10.0484" height="9.21417" transform="rotate(-18.9782 73.4984 154.32)" fill="#100E55"/>
<path fill-rule="evenodd" clip-rule="evenodd" d="M83.0007 151.052L111.508 141.249L114.504 149.962L85.9973 159.766L83.0007 151.052ZM107.998 161.943L117.501 158.675L135.48 210.955L125.978 214.223L128.974 222.936L119.472 226.204L116.475 217.491L106.973 220.759L88.9938 168.479L98.4961 165.211L95.4995 156.498L105.002 153.23L107.998 161.943Z" fill="#2FADF3"/>
<rect x="95.4995" y="156.498" width="10.0486" height="73.7134" transform="rotate(-18.9782 95.4995 156.498)" fill="#0602C2"/>
<rect x="85.9974" y="159.766" width="10.0484" height="9.21417" transform="rotate(-18.9782 85.9974 159.766)" fill="#100E55"/>
<rect x="105.001" y="153.23" width="10.0484" height="9.21417" transform="rotate(-18.9782 105.001 153.23)" fill="#100E55"/>
<rect x="111.508" y="141.249" width="10.0484" height="9.21417" transform="rotate(-18.9782 111.508 141.249)" fill="#100E55"/>
<rect x="118.013" y="129.268" width="10.0484" height="9.21417" transform="rotate(-18.9782 118.013 129.268)" fill="#100E55"/>
<rect x="106.973" y="220.759" width="10.0484" height="9.21417" transform="rotate(-18.9782 106.973 220.759)" fill="#100E55"/>
<rect x="119.472" y="226.204" width="10.0484" height="9.21417" transform="rotate(-18.9782 119.472 226.204)" fill="#100E55"/>
<rect x="125.977" y="214.223" width="10.0484" height="9.21417" transform="rotate(-18.9782 125.977 214.223)" fill="#100E55"/>
<rect x="132.483" y="202.242" width="10.0484" height="9.21417" transform="rotate(-18.9782 132.483 202.242)" fill="#100E55"/>
<rect x="79.4915" y="171.747" width="10.0484" height="9.21417" transform="rotate(-18.9782 79.4915 171.747)" fill="#100E55"/>
<rect x="117.501" y="158.675" width="10.0484" height="9.21417" transform="rotate(-18.9782 117.501 158.675)" fill="#100E55"/>
<rect x="82.488" y="180.46" width="10.0484" height="9.21417" transform="rotate(-18.9782 82.488 180.46)" fill="#100E55"/>
<rect x="120.497" y="167.389" width="10.0484" height="9.21417" transform="rotate(-18.9782 120.497 167.389)" fill="#100E55"/>
<rect x="85.4845" y="189.173" width="10.0484" height="9.21417" transform="rotate(-18.9782 85.4845 189.173)" fill="#100E55"/>
<rect x="123.494" y="176.102" width="10.0484" height="9.21417" transform="rotate(-18.9782 123.494 176.102)" fill="#100E55"/>
<rect width="10.0484" height="9.21417" transform="matrix(-0.945642 0.325209 0.325209 0.945642 97.9834 194.619)" fill="#100E55"/>
<rect width="10.0484" height="9.21417" transform="matrix(-0.945642 0.325209 0.325209 0.945642 135.992 181.548)" fill="#100E55"/>
<rect width="10.0484" height="9.21417" transform="matrix(-0.945642 0.325209 0.325209 0.945642 100.98 203.332)" fill="#100E55"/>
<rect width="10.0484" height="9.21417" transform="matrix(-0.945642 0.325209 0.325209 0.945642 138.988 190.261)" fill="#100E55"/>
<rect width="10.0484" height="9.21417" transform="matrix(-0.945642 0.325209 0.325209 0.945642 103.977 212.045)" fill="#100E55"/>
</g>
<defs>
<clipPath id="clip0_407_34673">
<rect width="226" height="332" fill="white"/>
</clipPath>
</defs>
</svg>
