<svg width="193" height="487" viewBox="0 0 193 487" fill="none" xmlns="http://www.w3.org/2000/svg">
<rect width="7" height="46" transform="matrix(-1 0 0 1 129 44)" fill="#E2711D"/>
<rect width="7" height="34" transform="matrix(-1 0 0 1 123 44)" fill="#E2711D"/>
<rect x="135" y="83" width="32" height="8" fill="#FF9505"/>
<rect width="7" height="7" transform="matrix(-1 0 0 1 97 6)" fill="#FF9505"/>
<rect width="6" height="7" transform="matrix(-1 0 0 1 103 6)" fill="#FF9505"/>
<rect x="6.43335" y="480.592" width="6.43333" height="6.4079" fill="#11140F"/>
<rect y="480.592" width="6.43333" height="6.4079" fill="#11140F"/>
<rect x="186.567" y="480.592" width="6.43333" height="6.4079" fill="#11140F"/>
<rect x="32.1667" y="198.645" width="6.43333" height="6.4079" fill="#11140F"/>
<rect x="6.43335" y="454.961" width="6.43333" height="6.4079" fill="#11140F"/>
<rect x="32" y="179" width="7" height="7" fill="#11140F"/>
<rect y="467.776" width="6.43333" height="6.4079" fill="#11140F"/>
<rect y="474.184" width="6.43333" height="6.4079" fill="#11140F"/>
<rect x="25.7334" y="192.237" width="6.43333" height="6.40788" fill="#11140F"/>
<rect x="38.6001" y="173.013" width="6.43333" height="6.4079" fill="#11140F"/>
<rect x="32.1667" y="422.921" width="6.43333" height="6.4079" fill="#11140F"/>
<rect width="6.43332" height="6.4079" transform="matrix(-1 0 0 1 160.833 422.921)" fill="#11140F"/>
<rect x="32.1667" y="429.329" width="6.43333" height="6.4079" fill="#11140F"/>
<rect width="6.43332" height="6.4079" transform="matrix(-1 0 0 1 160.833 429.329)" fill="#11140F"/>
<rect width="7" height="20" transform="matrix(-1 0 0 1 161 435)" fill="#FF9505"/>
<rect x="25.7334" y="435.737" width="6.43333" height="6.4079" fill="#11140F"/>
<rect x="32" y="435.737" width="6.43333" height="6.4079" fill="#E2711D"/>
<rect width="6" height="8" transform="matrix(-1 0 0 1 167 435)" fill="#11140F"/>
<rect x="19.3" y="442.145" width="6.43333" height="6.4079" fill="#11140F"/>
<rect x="25" y="442" width="13" height="7" fill="#E2711D"/>
<rect width="6.43333" height="6.4079" transform="matrix(-1 0 0 1 173.7 442.145)" fill="#11140F"/>
<rect width="6.43333" height="6.4079" transform="matrix(-1 0 0 1 167.433 442.145)" fill="#FF9505"/>
<rect x="19.3" y="448.553" width="6.43333" height="6.4079" fill="#11140F"/>
<rect x="25" y="449" width="13" height="6" fill="#E2711D"/>
<rect width="6.43333" height="6.4079" transform="matrix(-1 0 0 1 173.7 448.553)" fill="#11140F"/>
<rect width="6.43333" height="6.4079" transform="matrix(-1 0 0 1 167.433 448.553)" fill="#FF9505"/>
<rect x="32" y="410" width="7" height="7" fill="#11140F"/>
<rect width="6.43332" height="6.4079" transform="matrix(-1 0 0 1 160.833 410.105)" fill="#11140F"/>
<rect y="384.474" width="6.43333" height="6.40787" fill="#11140F"/>
<rect x="13" y="365" width="6" height="7" fill="#11140F"/>
<rect x="19" y="365" width="7" height="7" fill="#E2711D"/>
<rect width="7" height="7" transform="matrix(-1 0 0 1 179 365)" fill="#11140F"/>
<rect width="7" height="7" transform="matrix(-1 0 0 1 174 365)" fill="#FF9505"/>
<rect x="186.567" y="384.474" width="6.43333" height="6.40787" fill="#11140F"/>
<rect x="186.567" y="467.776" width="6.43333" height="6.4079" fill="#11140F"/>
<rect x="186.567" y="474.184" width="6.43333" height="6.4079" fill="#11140F"/>
<rect x="160.833" y="192.237" width="6.43333" height="6.40788" fill="#11140F"/>
<rect x="147.967" y="173.013" width="6.43335" height="6.4079" fill="#11140F"/>
<rect y="461.368" width="6.43333" height="6.40787" fill="#11140F"/>
<rect x="25.7334" y="185.829" width="6.43333" height="6.4079" fill="#11140F"/>
<rect x="38.6001" y="166.605" width="6.43333" height="6.40788" fill="#11140F"/>
<rect x="45.0334" y="153.789" width="6.43334" height="6.4079" fill="#11140F"/>
<rect width="6.43332" height="6.4079" transform="matrix(-1 0 0 1 147.967 153.789)" fill="#11140F"/>
<rect x="38" y="135" width="7" height="6" fill="#11140F"/>
<rect width="6.43335" height="6.4079" transform="matrix(-1 0 0 1 154.4 134.566)" fill="#11140F"/>
<rect x="19" y="96" width="8" height="7" fill="#11140F"/>
<rect width="7" height="7" transform="matrix(-1 0 0 1 174 96)" fill="#11140F"/>
<rect x="45.0334" y="147.382" width="6.43334" height="6.4079" fill="#11140F"/>
<rect width="6.43332" height="6.4079" transform="matrix(-1 0 0 1 147.967 147.382)" fill="#11140F"/>
<rect x="38" y="128" width="7" height="7" fill="#11140F"/>
<rect width="6.43335" height="6.40788" transform="matrix(-1 0 0 1 154.4 128.158)" fill="#11140F"/>
<rect x="19" y="90" width="8" height="6" fill="#11140F"/>
<rect width="7" height="6" transform="matrix(-1 0 0 1 174 90)" fill="#11140F"/>
<rect x="32.1667" y="115.342" width="6.43333" height="6.40789" fill="#11140F"/>
<rect width="6.43332" height="6.40789" transform="matrix(-1 0 0 1 160.833 115.342)" fill="#11140F"/>
<rect x="45.0334" y="140.974" width="6.43334" height="6.4079" fill="#11140F"/>
<rect width="6.43332" height="6.4079" transform="matrix(-1 0 0 1 147.967 140.974)" fill="#11140F"/>
<rect width="6.43335" height="6.4079" transform="matrix(-1 0 0 1 154.4 121.75)" fill="#11140F"/>
<rect x="19" y="83" width="8" height="7" fill="#11140F"/>
<rect width="7" height="7" transform="matrix(-1 0 0 1 174 83)" fill="#11140F"/>
<rect x="25.7334" y="76.8948" width="6.43333" height="6.4079" fill="#11140F"/>
<rect x="32.1667" y="70.4868" width="6.43333" height="6.4079" fill="#11140F"/>
<rect width="6" height="7" transform="matrix(-1 0 0 1 161 70)" fill="#11140F"/>
<rect x="38.6001" y="70.4868" width="6.43333" height="6.4079" fill="#E2711D"/>
<rect width="6.43335" height="6.4079" transform="matrix(-1 0 0 1 154.4 70.4868)" fill="#E2711D"/>
<rect width="6.43332" height="6.4079" transform="matrix(-1 0 0 1 147.967 70.4868)" fill="#E2711D"/>
<rect width="6.43335" height="6.4079" transform="matrix(-1 0 0 1 141.533 76.8948)" fill="#E2711D"/>
<rect x="57.8999" y="83.3026" width="6.43333" height="6.40789" fill="#E2711D"/>
<rect width="6.43332" height="6.40789" transform="matrix(-1 0 0 1 135.1 83.3026)" fill="#E2711D"/>
<rect x="64.3333" y="83.3026" width="6.43333" height="6.40789" fill="#E2711D"/>
<rect width="6.43334" height="6.40789" transform="matrix(-1 0 0 1 128.667 83.3026)" fill="#E2711D"/>
<rect x="70.7666" y="76.8948" width="6.43333" height="6.4079" fill="#E2711D"/>
<rect x="77.2" y="70.4868" width="6.43333" height="6.4079" fill="#E2711D"/>
<rect x="83.6333" y="70.4868" width="6.43333" height="6.4079" fill="#E2711D"/>
<rect x="90.0667" y="70.4868" width="6.43333" height="6.4079" fill="#E2711D"/>
<rect x="96.5" y="70.4868" width="6.43334" height="6.4079" fill="#E2711D"/>
<rect x="102.933" y="70.4868" width="6.43333" height="6.4079" fill="#E2711D"/>
<rect x="109.367" y="70.4868" width="6.43333" height="6.4079" fill="#E2711D"/>
<rect x="115.8" y="76.8948" width="6.43333" height="6.4079" fill="#E2711D"/>
<rect x="32.1667" y="108.934" width="6.43333" height="6.4079" fill="#11140F"/>
<rect width="6.43332" height="6.4079" transform="matrix(-1 0 0 1 160.833 108.934)" fill="#11140F"/>
<rect x="25.7334" y="102.526" width="6.43333" height="6.4079" fill="#11140F"/>
<rect width="6.43333" height="6.4079" transform="matrix(-1 0 0 1 167.267 102.526)" fill="#11140F"/>
<rect x="38.6001" y="70.4868" width="6.43333" height="6.4079" fill="#11140F"/>
<rect width="7" height="7" transform="matrix(-1 0 0 1 155 70)" fill="#11140F"/>
<rect width="7" height="7" transform="matrix(-1 0 0 1 155 76)" fill="#FF9505"/>
<rect width="7" height="7" transform="matrix(-1 0 0 1 161 76)" fill="#FF9505"/>
<rect x="38.6001" y="64.079" width="6.43333" height="6.40789" fill="#11140F"/>
<rect width="7" height="6" transform="matrix(-1 0 0 1 155 64)" fill="#11140F"/>
<rect x="45.0334" y="57.671" width="6.43334" height="6.40789" fill="#11140F"/>
<rect width="6.43332" height="6.40789" transform="matrix(-1 0 0 1 147.967 57.671)" fill="#11140F"/>
<rect x="57.8999" y="44.8552" width="6.43333" height="6.40789" fill="#11140F"/>
<rect x="51.4666" y="51.2632" width="6.43333" height="6.4079" fill="#11140F"/>
<rect width="7" height="7" transform="matrix(-1 0 0 1 142 51)" fill="#11140F"/>
<rect width="6.43334" height="6.40789" transform="matrix(-1 0 0 1 102.933 32.0395)" fill="#E2711D"/>
<rect x="64.3333" y="38.4474" width="6.43333" height="6.40789" fill="#11140F"/>
<rect width="6.43333" height="6.40789" transform="matrix(-1 0 0 1 122.233 38.4474)" fill="#11140F"/>
<rect width="6.43334" height="6.40789" transform="matrix(-1 0 0 1 128.667 38.4474)" fill="#11140F"/>
<rect width="6.43333" height="6.40789" transform="matrix(-1 0 0 1 96.5 32.0395)" fill="#E2711D"/>
<rect width="6.43333" height="6.40789" transform="matrix(-1 0 0 1 115.8 32.0395)" fill="#11140F"/>
<rect width="6.43333" height="6.40789" transform="matrix(-1 0 0 1 90.0667 32.0395)" fill="#E2711D"/>
<rect width="6.43333" height="6.4079" transform="matrix(-1 0 0 1 90.0667 25.6316)" fill="#11140F"/>
<rect width="6.43333" height="6.4079" transform="matrix(-1 0 0 1 90.0667 12.8158)" fill="#11140F"/>
<rect width="6.43333" height="6.40789" transform="matrix(-1 0 0 1 90.0667 6.4079)" fill="#11140F"/>
<rect width="6.43333" height="6.4079" transform="matrix(-1 0 0 1 96.5 25.6316)" fill="#11140F"/>
<rect width="6.43333" height="6.4079" transform="matrix(-1 0 0 1 96.5 12.8158)" fill="#11140F"/>
<rect width="6.43333" height="6.40789" transform="matrix(-1 0 0 1 96.5 0)" fill="#11140F"/>
<rect width="6.43333" height="6.40789" transform="matrix(-1 0 0 1 96.5 19.2237)" fill="#11140F"/>
<rect width="6.43334" height="6.40789" transform="matrix(-1 0 0 1 102.933 19.2237)" fill="#11140F"/>
<rect width="6.43334" height="6.4079" transform="matrix(-1 0 0 1 102.933 25.6316)" fill="#11140F"/>
<rect width="6.43334" height="6.4079" transform="matrix(-1 0 0 1 102.933 12.8158)" fill="#11140F"/>
<rect width="6.43334" height="6.40789" transform="matrix(-1 0 0 1 102.933 0)" fill="#11140F"/>
<rect width="6.43333" height="6.4079" transform="matrix(-1 0 0 1 109.367 25.6316)" fill="#11140F"/>
<rect width="6.43333" height="6.4079" transform="matrix(-1 0 0 1 109.367 12.8158)" fill="#11140F"/>
<rect width="6.43333" height="6.40789" transform="matrix(-1 0 0 1 109.367 6.4079)" fill="#11140F"/>
<rect x="70.7666" y="38.4474" width="6.43333" height="6.40789" fill="#11140F"/>
<rect width="6.43333" height="6.40789" transform="matrix(-1 0 0 1 109.367 32.0395)" fill="#E2711D"/>
<rect width="6.43333" height="6.40789" transform="matrix(-1 0 0 1 83.6333 32.0395)" fill="#11140F"/>
<rect x="32.1667" y="416.513" width="6.43333" height="6.4079" fill="#11140F"/>
<rect width="6.43332" height="6.4079" transform="matrix(-1 0 0 1 160.833 416.513)" fill="#11140F"/>
<rect x="25.7334" y="397.289" width="6.43333" height="6.4079" fill="#11140F"/>
<rect width="6.43333" height="6.4079" transform="matrix(-1 0 0 1 167.267 397.289)" fill="#11140F"/>
<rect x="25.7334" y="403.697" width="6.43333" height="6.4079" fill="#11140F"/>
<rect width="6.43333" height="6.4079" transform="matrix(-1 0 0 1 167.267 403.697)" fill="#11140F"/>
<rect x="19" y="358" width="8" height="7" fill="#11140F"/>
<rect width="7" height="6" transform="matrix(-1 0 0 1 174 359)" fill="#11140F"/>
<rect y="378.066" width="6.43333" height="6.4079" fill="#11140F"/>
<rect x="26" y="358" width="6" height="14" fill="#E2711D"/>
<rect width="6" height="8" transform="matrix(-1 0 0 1 167 352)" fill="#11140F"/>
<rect width="6" height="14" transform="matrix(-1 0 0 1 167 358)" fill="#FF9505"/>
<rect x="32.1667" y="326.803" width="6.43333" height="6.4079" fill="#11140F"/>
<rect x="38.6001" y="301.171" width="6.43333" height="6.4079" fill="#11140F"/>
<rect x="45.0334" y="256.316" width="6.43334" height="6.4079" fill="#11140F"/>
<rect width="6.43332" height="6.4079" transform="matrix(-1 0 0 1 160.833 326.803)" fill="#11140F"/>
<rect width="6.43335" height="6.4079" transform="matrix(-1 0 0 1 154.4 301.171)" fill="#11140F"/>
<rect width="6.43335" height="6.4079" transform="matrix(-1 0 0 1 154.4 295)" fill="#11140F"/>
<rect width="6.43332" height="6.4079" transform="matrix(-1 0 0 1 147.967 256.316)" fill="#11140F"/>
<rect x="32.1667" y="339.618" width="6.43333" height="6.40787" fill="#11140F"/>
<rect width="6.43332" height="6.40787" transform="matrix(-1 0 0 1 160.833 339.618)" fill="#11140F"/>
<rect x="38.6001" y="313.987" width="6.43333" height="6.4079" fill="#11140F"/>
<rect x="38.6001" y="319" width="6.43333" height="6.4079" fill="#11140F"/>
<rect x="45.0334" y="269.132" width="6.43334" height="6.4079" fill="#11140F"/>
<rect x="45.0334" y="288.355" width="6.43334" height="6.4079" fill="#11140F"/>
<rect x="45.0334" y="243.5" width="6.43334" height="6.4079" fill="#11140F"/>
<rect x="45.0334" y="230.684" width="6.43334" height="6.40788" fill="#11140F"/>
<rect x="45.0334" y="217.868" width="6.43334" height="6.4079" fill="#11140F"/>
<rect width="6.43335" height="6.4079" transform="matrix(-1 0 0 1 154.4 313.987)" fill="#11140F"/>
<rect width="6.43332" height="6.4079" transform="matrix(-1 0 0 1 147.967 269.132)" fill="#11140F"/>
<rect width="6.43332" height="6.4079" transform="matrix(-1 0 0 1 147.967 288.355)" fill="#11140F"/>
<rect width="6.43332" height="6.4079" transform="matrix(-1 0 0 1 147.967 243.5)" fill="#11140F"/>
<rect width="6.43332" height="6.40788" transform="matrix(-1 0 0 1 147.967 230.684)" fill="#11140F"/>
<rect width="6.43332" height="6.4079" transform="matrix(-1 0 0 1 147.967 217.868)" fill="#11140F"/>
<rect x="26" y="346" width="6" height="6" fill="#11140F"/>
<rect width="6" height="6" transform="matrix(-1 0 0 1 167 346)" fill="#11140F"/>
<rect x="32.1667" y="320.395" width="6.43333" height="6.4079" fill="#11140F"/>
<rect x="45.0334" y="275.539" width="6.43334" height="6.4079" fill="#11140F"/>
<rect x="38.6001" y="294.763" width="6.43333" height="6.4079" fill="#11140F"/>
<rect x="45.0334" y="249.908" width="6.43334" height="6.4079" fill="#11140F"/>
<rect width="7" height="9" transform="matrix(-1 0 0 1 161 320)" fill="#11140F"/>
<rect width="6.43332" height="6.4079" transform="matrix(-1 0 0 1 147.967 275.539)" fill="#11140F"/>
<rect width="6.43332" height="6.4079" transform="matrix(-1 0 0 1 147.967 294.763)" fill="#E2711D"/>
<rect width="6.43332" height="6.4079" transform="matrix(-1 0 0 1 147.967 249.908)" fill="#11140F"/>
<rect x="32.1667" y="333.211" width="6.43333" height="6.4079" fill="#11140F"/>
<rect width="6.43332" height="6.4079" transform="matrix(-1 0 0 1 160.833 333.211)" fill="#11140F"/>
<rect x="38.6001" y="307.579" width="6.43333" height="6.4079" fill="#11140F"/>
<rect x="45.0334" y="262.724" width="6.43334" height="6.40787" fill="#11140F"/>
<rect x="45.0334" y="281.947" width="6.43334" height="6.4079" fill="#11140F"/>
<rect x="45.0334" y="237.092" width="6.43334" height="6.4079" fill="#11140F"/>
<rect x="45.0334" y="224.276" width="6.43334" height="6.4079" fill="#11140F"/>
<rect x="45.0334" y="211.461" width="6.43334" height="6.4079" fill="#11140F"/>
<rect x="45.0334" y="205.053" width="6.43334" height="6.4079" fill="#11140F"/>
<rect width="6.43335" height="6.4079" transform="matrix(-1 0 0 1 154.4 307.579)" fill="#11140F"/>
<rect width="6.43332" height="6.40787" transform="matrix(-1 0 0 1 147.967 262.724)" fill="#11140F"/>
<rect width="6.43332" height="6.4079" transform="matrix(-1 0 0 1 147.967 281.947)" fill="#11140F"/>
<rect width="6.43332" height="6.4079" transform="matrix(-1 0 0 1 147.967 237.092)" fill="#11140F"/>
<rect width="6.43332" height="6.4079" transform="matrix(-1 0 0 1 147.967 224.276)" fill="#11140F"/>
<rect width="6.43332" height="6.4079" transform="matrix(-1 0 0 1 147.967 211.461)" fill="#11140F"/>
<rect width="6.43332" height="6.4079" transform="matrix(-1 0 0 1 147.967 205.053)" fill="#11140F"/>
<rect x="186.567" y="378.066" width="6.43333" height="6.4079" fill="#11140F"/>
<rect x="186.567" y="461.368" width="6.43333" height="6.40787" fill="#11140F"/>
<rect x="160.833" y="185.829" width="6.43333" height="6.4079" fill="#11140F"/>
<rect x="147.967" y="166.605" width="6.43335" height="6.40788" fill="#11140F"/>
<rect x="96.5" y="480.592" width="6.43334" height="6.4079" fill="#11140F"/>
<rect x="135.1" y="198.645" width="6.43335" height="6.4079" fill="#11140F"/>
<rect x="96.5" y="390.882" width="6.43334" height="6.4079" fill="#11140F"/>
<rect x="96.5" y="371.658" width="6.43334" height="6.4079" fill="#11140F"/>
<rect x="96.5" y="454.961" width="6.43334" height="6.4079" fill="#11140F"/>
<rect x="135" y="179" width="7" height="7" fill="#11140F"/>
<rect x="135.1" y="160.197" width="6.43335" height="6.4079" fill="#11140F"/>
<rect x="45.0334" y="480.592" width="6.43334" height="6.4079" fill="#11140F"/>
<rect x="83.6333" y="198.645" width="6.43333" height="6.4079" fill="#11140F"/>
<rect x="45.0334" y="390.882" width="6.43334" height="6.4079" fill="#11140F"/>
<rect x="45.0334" y="371.658" width="6.43334" height="6.4079" fill="#11140F"/>
<rect x="32.1667" y="371.658" width="6.43333" height="6.4079" fill="#11140F"/>
<rect x="26" y="372" width="7" height="6" fill="#11140F"/>
<rect x="13" y="371" width="6" height="7" fill="#11140F"/>
<rect x="12.8667" y="390.882" width="6.43333" height="6.4079" fill="#11140F"/>
<rect x="180.133" y="390.882" width="6.43333" height="6.4079" fill="#11140F"/>
<rect x="19" y="372" width="7" height="6" fill="#11140F"/>
<rect x="6" y="372" width="7" height="6" fill="#11140F"/>
<rect x="6.43335" y="390.882" width="6.43333" height="6.4079" fill="#11140F"/>
<rect x="173.7" y="390.882" width="6.43333" height="6.4079" fill="#11140F"/>
<rect x="45.0334" y="454.961" width="6.43334" height="6.4079" fill="#11140F"/>
<rect x="84" y="179" width="6" height="7" fill="#11140F"/>
<rect x="83.6333" y="160.197" width="6.43333" height="6.4079" fill="#11140F"/>
<rect x="147.967" y="480.592" width="6.43335" height="6.4079" fill="#11140F"/>
<rect x="147.967" y="390.882" width="6.43335" height="6.4079" fill="#11140F"/>
<rect x="147.967" y="454.961" width="6.43335" height="6.4079" fill="#11140F"/>
<rect x="19.3" y="480.592" width="6.43333" height="6.4079" fill="#11140F"/>
<rect x="57.8999" y="198.645" width="6.43333" height="6.4079" fill="#11140F"/>
<rect x="19.3" y="390.882" width="6.43333" height="6.4079" fill="#11140F"/>
<rect x="19.3" y="454.961" width="6.43333" height="6.4079" fill="#11140F"/>
<rect x="58" y="179" width="6" height="7" fill="#11140F"/>
<rect x="57.8999" y="160.197" width="6.43333" height="6.4079" fill="#11140F"/>
<rect x="122.233" y="480.592" width="6.43334" height="6.4079" fill="#11140F"/>
<rect x="122.233" y="390.882" width="6.43334" height="6.4079" fill="#11140F"/>
<rect x="122.233" y="371.658" width="6.43334" height="6.4079" fill="#11140F"/>
<rect x="122.233" y="454.961" width="6.43334" height="6.4079" fill="#11140F"/>
<rect x="70.7666" y="480.592" width="6.43333" height="6.4079" fill="#11140F"/>
<rect x="109.367" y="198.645" width="6.43333" height="6.4079" fill="#11140F"/>
<rect x="70.7666" y="390.882" width="6.43333" height="6.4079" fill="#11140F"/>
<rect x="70.7666" y="371.658" width="6.43333" height="6.4079" fill="#11140F"/>
<rect x="70.7666" y="454.961" width="6.43333" height="6.4079" fill="#11140F"/>
<rect x="109" y="179" width="7" height="7" fill="#11140F"/>
<rect x="109.367" y="160.197" width="6.43333" height="6.4079" fill="#11140F"/>
<rect x="173.7" y="480.592" width="6.43333" height="6.4079" fill="#11140F"/>
<rect x="173.7" y="454.961" width="6.43333" height="6.4079" fill="#11140F"/>
<rect x="45.0334" y="198.645" width="6.43334" height="6.4079" fill="#11140F"/>
<rect x="45" y="179" width="6" height="7" fill="#11140F"/>
<rect x="45.0334" y="160.197" width="6.43334" height="6.4079" fill="#11140F"/>
<rect x="109.367" y="480.592" width="6.43333" height="6.4079" fill="#11140F"/>
<rect x="147.967" y="198.645" width="6.43335" height="6.4079" fill="#11140F"/>
<rect x="109.367" y="390.882" width="6.43333" height="6.4079" fill="#11140F"/>
<rect x="109.367" y="371.658" width="6.43333" height="6.4079" fill="#11140F"/>
<rect x="109.367" y="454.961" width="6.43333" height="6.4079" fill="#11140F"/>
<rect x="148" y="179" width="6" height="7" fill="#11140F"/>
<rect x="57.8999" y="480.592" width="6.43333" height="6.4079" fill="#11140F"/>
<rect x="96.5" y="198.645" width="6.43334" height="6.4079" fill="#11140F"/>
<rect x="57.8999" y="390.882" width="6.43333" height="6.4079" fill="#11140F"/>
<rect x="57.8999" y="371.658" width="6.43333" height="6.4079" fill="#11140F"/>
<rect x="57.8999" y="454.961" width="6.43333" height="6.4079" fill="#11140F"/>
<rect x="97" y="179" width="6" height="7" fill="#11140F"/>
<rect x="96.5" y="160.197" width="6.43334" height="6.4079" fill="#11140F"/>
<rect x="160.833" y="480.592" width="6.43333" height="6.4079" fill="#11140F"/>
<rect x="160.833" y="390.882" width="6.43333" height="6.4079" fill="#11140F"/>
<rect x="160.833" y="454.961" width="6.43333" height="6.4079" fill="#11140F"/>
<rect x="32.1667" y="480.592" width="6.43333" height="6.4079" fill="#11140F"/>
<rect x="70.7666" y="198.645" width="6.43333" height="6.4079" fill="#11140F"/>
<rect x="32.1667" y="390.882" width="6.43333" height="6.4079" fill="#11140F"/>
<rect x="32.1667" y="454.961" width="6.43333" height="6.4079" fill="#11140F"/>
<rect x="71" y="179" width="6" height="7" fill="#11140F"/>
<rect x="70.7666" y="160.197" width="6.43333" height="6.4079" fill="#11140F"/>
<rect x="135.1" y="480.592" width="6.43335" height="6.4079" fill="#11140F"/>
<rect x="135.1" y="390.882" width="6.43335" height="6.4079" fill="#11140F"/>
<rect x="135.1" y="371.658" width="6.43335" height="6.4079" fill="#11140F"/>
<rect x="147.967" y="371.658" width="6.43335" height="6.4079" fill="#11140F"/>
<rect x="135.1" y="454.961" width="6.43335" height="6.4079" fill="#11140F"/>
<rect x="83.6333" y="480.592" width="6.43333" height="6.4079" fill="#11140F"/>
<rect x="122.233" y="198.645" width="6.43334" height="6.4079" fill="#11140F"/>
<rect x="83.6333" y="390.882" width="6.43333" height="6.4079" fill="#11140F"/>
<rect x="83.6333" y="371.658" width="6.43333" height="6.4079" fill="#11140F"/>
<rect x="83.6333" y="454.961" width="6.43333" height="6.4079" fill="#11140F"/>
<rect x="122" y="179" width="7" height="7" fill="#11140F"/>
<rect x="122.233" y="160.197" width="6.43334" height="6.4079" fill="#11140F"/>
<rect x="38.6001" y="198.645" width="6.43333" height="6.4079" fill="#11140F"/>
<rect x="39" y="179" width="6" height="7" fill="#11140F"/>
<rect x="102.933" y="480.592" width="6.43333" height="6.4079" fill="#11140F"/>
<rect x="141.533" y="198.645" width="6.43332" height="6.4079" fill="#11140F"/>
<rect x="102.933" y="390.882" width="6.43333" height="6.4079" fill="#11140F"/>
<rect x="102.933" y="371.658" width="6.43333" height="6.4079" fill="#11140F"/>
<rect x="102.933" y="454.961" width="6.43333" height="6.4079" fill="#11140F"/>
<rect x="142" y="179" width="6" height="7" fill="#11140F"/>
<rect x="141.533" y="160.197" width="6.43332" height="6.4079" fill="#11140F"/>
<rect x="51.4666" y="480.592" width="6.43333" height="6.4079" fill="#11140F"/>
<rect x="90.0667" y="198.645" width="6.43333" height="6.4079" fill="#11140F"/>
<rect x="51.4666" y="390.882" width="6.43333" height="6.4079" fill="#11140F"/>
<rect x="51.4666" y="371.658" width="6.43333" height="6.4079" fill="#11140F"/>
<rect x="38.6001" y="371.658" width="6.43333" height="6.4079" fill="#11140F"/>
<rect x="51.4666" y="454.961" width="6.43333" height="6.4079" fill="#11140F"/>
<rect x="90" y="179" width="7" height="7" fill="#11140F"/>
<rect x="90.0667" y="160.197" width="6.43333" height="6.4079" fill="#11140F"/>
<rect x="154.4" y="480.592" width="6.43332" height="6.4079" fill="#11140F"/>
<rect x="154.4" y="390.882" width="6.43332" height="6.4079" fill="#11140F"/>
<rect x="154.4" y="454.961" width="6.43332" height="6.4079" fill="#11140F"/>
<rect x="25.7334" y="480.592" width="6.43333" height="6.4079" fill="#11140F"/>
<rect x="64.3333" y="198.645" width="6.43333" height="6.4079" fill="#11140F"/>
<rect x="25.7334" y="390.882" width="6.43333" height="6.4079" fill="#11140F"/>
<rect x="25.7334" y="454.961" width="6.43333" height="6.4079" fill="#11140F"/>
<rect x="64" y="179" width="7" height="7" fill="#11140F"/>
<rect x="64.3333" y="160.197" width="6.43333" height="6.4079" fill="#11140F"/>
<rect x="128.667" y="480.592" width="6.43332" height="6.4079" fill="#11140F"/>
<rect x="128.667" y="390.882" width="6.43332" height="6.4079" fill="#11140F"/>
<rect x="128.667" y="371.658" width="6.43332" height="6.4079" fill="#11140F"/>
<rect x="128.667" y="454.961" width="6.43332" height="6.4079" fill="#11140F"/>
<rect x="77.2" y="480.592" width="6.43333" height="6.4079" fill="#11140F"/>
<rect x="115.8" y="198.645" width="6.43333" height="6.4079" fill="#11140F"/>
<rect x="77.2" y="390.882" width="6.43333" height="6.4079" fill="#11140F"/>
<rect x="77.2" y="371.658" width="6.43333" height="6.4079" fill="#11140F"/>
<rect x="77.2" y="454.961" width="6.43333" height="6.4079" fill="#11140F"/>
<rect x="116" y="179" width="6" height="7" fill="#11140F"/>
<rect x="115.8" y="160.197" width="6.43333" height="6.4079" fill="#11140F"/>
<rect x="12.8667" y="480.592" width="6.43333" height="6.4079" fill="#11140F"/>
<rect x="51.4666" y="198.645" width="6.43333" height="6.4079" fill="#11140F"/>
<rect x="12.8667" y="454.961" width="6.43333" height="6.4079" fill="#11140F"/>
<rect x="51" y="179" width="7" height="7" fill="#11140F"/>
<rect x="51.4666" y="160.197" width="6.43333" height="6.4079" fill="#11140F"/>
<rect x="115.8" y="480.592" width="6.43333" height="6.4079" fill="#11140F"/>
<rect x="154.4" y="198.645" width="6.43332" height="6.4079" fill="#11140F"/>
<rect x="115.8" y="390.882" width="6.43333" height="6.4079" fill="#11140F"/>
<rect x="115.8" y="371.658" width="6.43333" height="6.4079" fill="#11140F"/>
<rect x="115.8" y="454.961" width="6.43333" height="6.4079" fill="#11140F"/>
<rect x="154" y="179" width="7" height="7" fill="#11140F"/>
<rect x="64.3333" y="480.592" width="6.43333" height="6.4079" fill="#11140F"/>
<rect x="102.933" y="198.645" width="6.43333" height="6.4079" fill="#11140F"/>
<rect x="64.3333" y="390.882" width="6.43333" height="6.4079" fill="#11140F"/>
<rect x="64.3333" y="371.658" width="6.43333" height="6.4079" fill="#11140F"/>
<rect x="64.3333" y="454.961" width="6.43333" height="6.4079" fill="#11140F"/>
<rect x="103" y="179" width="6" height="7" fill="#11140F"/>
<rect x="102.933" y="160.197" width="6.43333" height="6.4079" fill="#11140F"/>
<rect x="167.267" y="480.592" width="6.43333" height="6.4079" fill="#11140F"/>
<rect x="167.267" y="390.882" width="6.43333" height="6.4079" fill="#11140F"/>
<rect x="167.267" y="454.961" width="6.43333" height="6.4079" fill="#11140F"/>
<rect x="38.6001" y="480.592" width="6.43333" height="6.4079" fill="#11140F"/>
<rect x="77.2" y="198.645" width="6.43333" height="6.4079" fill="#11140F"/>
<rect x="38.6001" y="390.882" width="6.43333" height="6.4079" fill="#11140F"/>
<rect x="38.6001" y="454.961" width="6.43333" height="6.4079" fill="#11140F"/>
<rect x="77" y="179" width="7" height="7" fill="#11140F"/>
<rect x="77.2" y="160.197" width="6.43333" height="6.4079" fill="#11140F"/>
<rect x="141.533" y="480.592" width="6.43332" height="6.4079" fill="#11140F"/>
<rect x="141.533" y="390.882" width="6.43332" height="6.4079" fill="#11140F"/>
<rect x="141.533" y="371.658" width="6.43332" height="6.4079" fill="#11140F"/>
<rect x="154.4" y="371.658" width="6.43332" height="6.4079" fill="#11140F"/>
<rect x="160" y="372" width="8" height="6" fill="#11140F"/>
<rect x="174" y="372" width="6" height="6" fill="#11140F"/>
<rect x="180" y="372" width="7" height="6" fill="#11140F"/>
<rect x="167" y="372" width="7" height="6" fill="#11140F"/>
<rect x="141.533" y="454.961" width="6.43332" height="6.4079" fill="#11140F"/>
<rect x="90.0667" y="480.592" width="6.43333" height="6.4079" fill="#11140F"/>
<rect x="128.667" y="198.645" width="6.43332" height="6.4079" fill="#11140F"/>
<rect x="90.0667" y="390.882" width="6.43333" height="6.4079" fill="#11140F"/>
<rect x="90.0667" y="371.658" width="6.43333" height="6.4079" fill="#11140F"/>
<rect x="90.0667" y="454.961" width="6.43333" height="6.4079" fill="#11140F"/>
<rect x="129" y="179" width="6" height="7" fill="#11140F"/>
<rect x="128.667" y="160.197" width="6.43332" height="6.4079" fill="#11140F"/>
<rect x="180.133" y="480.592" width="6.43333" height="6.4079" fill="#11140F"/>
<rect x="180.133" y="454.961" width="6.43333" height="6.4079" fill="#11140F"/>
<rect width="6" height="6" transform="matrix(-1 0 0 1 167 77)" fill="#11140F"/>
<rect width="6.43332" height="6.40789" transform="matrix(-1 0 0 1 135.1 44.8552)" fill="#11140F"/>
<rect x="26" y="352" width="5" height="6" fill="#11140F"/>
<rect x="32" y="76.8948" width="6.43333" height="6.4079" fill="#E2711D"/>
<rect x="26" y="83" width="6" height="6" fill="#E2711D"/>
<rect x="38" y="76.8948" width="6.43333" height="6.4079" fill="#E2711D"/>
<rect x="38" y="83.0048" width="6.43333" height="6.4079" fill="#FF9505"/>
<rect x="34" y="83.0048" width="6.43333" height="6.4079" fill="#FF9505"/>
<rect x="38" y="89.0048" width="6.43333" height="6.4079" fill="#FF9505"/>
<rect x="34" y="89.0048" width="6.43333" height="6.4079" fill="#FF9505"/>
<rect x="32" y="95" width="9" height="8" fill="#FF9505"/>
<rect x="32" y="87" width="9" height="8" fill="#FF9505"/>
<rect x="32" y="83" width="9" height="8" fill="#FF9505"/>
<rect x="44" y="76.8948" width="6.43333" height="6.4079" fill="#FF9505"/>
<rect x="44" y="83.0048" width="6.43333" height="6.4079" fill="#FF9505"/>
<rect x="44" y="89.0048" width="6.43333" height="6.4079" fill="#FF9505"/>
<rect x="41" y="95" width="8" height="8" fill="#FF9505"/>
<rect x="50" y="76.8948" width="6.43333" height="6.4079" fill="#FF9505"/>
<rect x="51" y="57.671" width="6.43334" height="6.40789" fill="#E2711D"/>
<rect x="57.8999" y="50" width="6.43333" height="6.40789" fill="#E2711D"/>
<rect x="57" y="55" width="7" height="8" fill="#E2711D"/>
<rect x="57" y="62" width="7" height="8" fill="#E2711D"/>
<rect x="57" y="68" width="7" height="8" fill="#E2711D"/>
<rect x="57" y="75" width="7" height="8" fill="#E2711D"/>
<rect x="57" y="76" width="14" height="14" fill="#E2711D"/>
<rect x="64" y="76" width="8" height="6" fill="#E2711D"/>
<rect width="6" height="7" transform="matrix(-1 0 0 1 148 64)" fill="#E2711D"/>
<rect x="92" y="44" width="24" height="33" fill="#E2711D"/>
<rect x="64" y="44" width="28" height="33" fill="#E2711D"/>
<rect width="7" height="33" transform="matrix(-1 0 0 1 84 38)" fill="#E2711D"/>
<rect width="6" height="33" transform="matrix(-1 0 0 1 109 38)" fill="#E2711D"/>
<rect width="6" height="33" transform="matrix(-1 0 0 1 90 38)" fill="#E2711D"/>
<rect width="7" height="33" transform="matrix(-1 0 0 1 116 38)" fill="#E2711D"/>
<rect width="7" height="39" transform="matrix(-1 0 0 1 135 51)" fill="#E2711D"/>
<rect width="7" height="25" transform="matrix(-1 0 0 1 142 58)" fill="#E2711D"/>
<rect width="7" height="33" transform="matrix(-1 0 0 1 97 38)" fill="#E2711D"/>
<rect width="6" height="33" transform="matrix(-1 0 0 1 103 38)" fill="#E2711D"/>
<rect x="44" y="77" width="7" height="6" fill="#11140F"/>
<rect x="50" y="83" width="7" height="6" fill="#11140F"/>
<rect x="50" y="89" width="7" height="6" fill="#11140F"/>
<rect x="48" y="95" width="10" height="8" fill="#FF9505"/>
<rect x="58" y="95" width="10" height="8" fill="#FF9505"/>
<rect x="68" y="95" width="99" height="8" fill="#FF9505"/>
<rect x="32" y="101" width="129" height="8" fill="#FF9505"/>
<rect x="38" y="108" width="117" height="14" fill="#FF9505"/>
<rect x="45" y="122" width="103" height="19" fill="#FF9505"/>
<rect x="51" y="141" width="91" height="20" fill="#FF9505"/>
<rect x="45" y="166" width="103" height="14" fill="#E2711D"/>
<rect x="32" y="186" width="129" height="13" fill="#E2711D"/>
<rect x="6" y="378" width="181" height="13" fill="#E2711D"/>
<rect x="6" y="461" width="181" height="21" fill="#E2711D"/>
<rect x="31" y="397" width="130" height="13" fill="#FF9505"/>
<rect x="38" y="410" width="117" height="45" fill="#FF9505"/>
<rect x="51" y="205" width="91" height="89" fill="#FF9505"/>
<rect x="45" y="294" width="103" height="27" fill="#FF9505"/>
<rect x="38" y="321" width="117" height="25" fill="#FF9505"/>
<rect x="31" y="346" width="130" height="26" fill="#FF9505"/>
<rect x="68" y="90" width="99" height="6" fill="#FF9505"/>
<rect x="71" y="83" width="51" height="7" fill="#FF9505"/>
<rect x="77" y="77" width="39" height="7" fill="#FF9505"/>
<rect x="142" y="76" width="6" height="7" fill="#11140F"/>
<rect x="51" y="64" width="6" height="19" fill="#E2711D"/>
<rect x="45" y="64" width="6" height="13" fill="#E2711D"/>
<rect x="57" y="90" width="14" height="5" fill="#11140F"/>
<rect x="122" y="90" width="14" height="5" fill="#11140F"/>
<rect x="71" y="83" width="6" height="12" fill="#11140F"/>
<rect x="116" y="83" width="6" height="12" fill="#11140F"/>
<rect x="135" y="83" width="7" height="12" fill="#11140F"/>
<rect x="142" y="76" width="6" height="12" fill="#11140F"/>
<rect x="77" y="77" width="39" height="6" fill="#11140F"/>
<rect x="25" y="442" width="13" height="13" fill="#E2711D"/>
<rect x="31" y="397" width="20" height="13" fill="#E2711D"/>
<rect x="38" y="410" width="13" height="45" fill="#E2711D"/>
<rect x="51" y="403" width="6.43333" height="6.4079" fill="#E2711D"/>
<rect x="51" y="409" width="6.43333" height="6.4079" fill="#E2711D"/>
<rect x="31" y="365" width="6" height="7" fill="#E2711D"/>
<rect x="49" y="365" width="6" height="7" fill="#E2711D"/>
<rect x="31" y="358" width="6" height="7" fill="#E2711D"/>
<rect x="31" y="351" width="6" height="7" fill="#E2711D"/>
<rect x="51" y="415" width="6.43333" height="6.4079" fill="#E2711D"/>
<rect x="51" y="421" width="6.43333" height="6.4079" fill="#E2711D"/>
<rect x="51" y="427" width="6.43333" height="6.4079" fill="#E2711D"/>
<rect x="37" y="365" width="6" height="7" fill="#E2711D"/>
<rect x="55" y="365" width="6" height="7" fill="#E2711D"/>
<rect x="43" y="365" width="6" height="7" fill="#E2711D"/>
<rect x="43" y="358" width="6" height="7" fill="#E2711D"/>
<rect x="45" y="321" width="6" height="7" fill="#E2711D"/>
<rect x="45" y="328" width="6" height="7" fill="#E2711D"/>
<rect x="63" y="217" width="6" height="7" fill="#E2711D"/>
<rect x="63" y="210" width="6" height="7" fill="#E2711D"/>
<rect x="63" y="205" width="6" height="7" fill="#E2711D"/>
<rect x="69" y="210" width="6" height="7" fill="#E2711D"/>
<rect x="69" y="205" width="6" height="7" fill="#E2711D"/>
<rect x="75" y="205" width="6" height="7" fill="#E2711D"/>
<rect x="81" y="205" width="6" height="7" fill="#E2711D"/>
<rect x="26" y="88" width="6" height="7" fill="#E2711D"/>
<rect x="26" y="93" width="6" height="10" fill="#E2711D"/>
<rect x="32" y="103" width="6" height="6" fill="#E2711D"/>
<rect x="38" y="103" width="6" height="6" fill="#E2711D"/>
<rect x="44" y="116" width="7" height="6" fill="#E2711D"/>
<rect x="58" y="142" width="7" height="6" fill="#E2711D"/>
<rect x="45" y="122" width="6" height="6" fill="#E2711D"/>
<rect x="45" y="128" width="6" height="6" fill="#E2711D"/>
<rect x="45" y="134" width="6" height="7" fill="#E2711D"/>
<rect x="51" y="122" width="7" height="6" fill="#E2711D"/>
<rect x="51" y="128" width="7" height="6" fill="#E2711D"/>
<rect x="51" y="134" width="7" height="7" fill="#E2711D"/>
<rect x="51" y="141" width="7" height="7" fill="#E2711D"/>
<rect x="51" y="148" width="7" height="7" fill="#E2711D"/>
<rect x="51" y="154" width="7" height="7" fill="#E2711D"/>
<rect x="58" y="154" width="7" height="7" fill="#E2711D"/>
<rect x="65" y="154" width="7" height="7" fill="#E2711D"/>
<rect x="71" y="154" width="7" height="7" fill="#E2711D"/>
<rect x="58" y="148" width="7" height="7" fill="#E2711D"/>
<rect x="65" y="148" width="7" height="7" fill="#E2711D"/>
<rect x="38" y="109" width="6" height="13" fill="#E2711D"/>
<rect x="32" y="82" width="6" height="6" fill="#E2711D"/>
<rect x="32" y="97" width="6" height="6" fill="#E2711D"/>
<rect x="51" y="321" width="6" height="7" fill="#E2711D"/>
<rect x="48" y="358" width="6" height="7" fill="#E2711D"/>
<rect x="37" y="358" width="6" height="7" fill="#E2711D"/>
<rect x="38" y="321" width="7" height="44" fill="#E2711D"/>
<rect x="45" y="294" width="6" height="27" fill="#E2711D"/>
<rect x="51" y="294" width="6" height="27" fill="#E2711D"/>
<rect x="51" y="205" width="6" height="89" fill="#E2711D"/>
<rect x="57" y="205" width="6" height="83" fill="#E2711D"/>
<rect x="37" y="351" width="6" height="7" fill="#E2711D"/>
<rect x="31" y="346" width="8" height="7" fill="#E2711D"/>
<rect x="38" y="122" width="7" height="6" fill="#11140F"/>
</svg>
