<svg width="312" height="258" viewBox="0 0 312 258" fill="none" xmlns="http://www.w3.org/2000/svg">
<g clip-path="url(#clip0_407_34779)">
<rect width="6.6016" height="43.382" transform="matrix(0.625693 0.780069 0.780069 -0.625693 51.1065 164.727)" fill="#E2711D"/>
<rect width="6.6016" height="32.0649" transform="matrix(0.625693 0.780069 0.780069 -0.625693 54.6471 169.141)" fill="#E2711D"/>
<rect x="76.2573" y="137.299" width="30.1787" height="7.54469" transform="rotate(-128.733 76.2573 137.299)" fill="#FF9505"/>
<rect width="6.6016" height="6.6016" transform="matrix(0.625693 0.780069 0.780069 -0.625693 42.0336 210.691)" fill="#FF9505"/>
<rect width="5.65851" height="6.6016" transform="matrix(0.625693 0.780069 0.780069 -0.625693 38.4931 206.277)" fill="#FF9505"/>
<rect x="222.014" y="144.711" width="6.06719" height="6.0432" transform="rotate(-128.733 222.014 144.711)" fill="#11140F"/>
<rect x="207.66" y="156.426" width="6.6016" height="6.6016" transform="rotate(-128.733 207.66 156.426)" fill="#11140F"/>
<rect x="221.096" y="153.225" width="6.06718" height="6.04318" transform="rotate(-128.733 221.096 153.225)" fill="#11140F"/>
<rect x="199.361" y="155.103" width="6.06718" height="6.0432" transform="rotate(-128.733 199.361 155.103)" fill="#11140F"/>
<rect x="141.376" y="53.8359" width="6.06719" height="6.04318" transform="rotate(-128.733 141.376 53.8359)" fill="#11140F"/>
<rect x="134.826" y="74.6451" width="6.0672" height="6.0432" transform="rotate(-128.733 134.826 74.6451)" fill="#11140F"/>
<rect x="216.382" y="157.006" width="6.06718" height="6.0432" transform="rotate(-128.733 216.382 157.006)" fill="#11140F"/>
<rect x="194.647" y="158.884" width="6.06718" height="6.04318" transform="rotate(-128.733 194.647 158.884)" fill="#11140F"/>
<rect x="181.423" y="161.714" width="6.06719" height="6.0432" transform="rotate(-128.733 181.423 161.714)" fill="#11140F"/>
<rect width="6.06717" height="6.0432" transform="matrix(0.625693 0.780069 0.780069 -0.625693 120.684 85.9887)" fill="#11140F"/>
<rect x="171.75" y="177.975" width="6.6016" height="5.65851" transform="rotate(-128.733 171.75 177.975)" fill="#11140F"/>
<rect width="6.0672" height="6.0432" transform="matrix(0.625693 0.780069 0.780069 -0.625693 102.745 92.5994)" fill="#11140F"/>
<rect x="154.271" y="214.966" width="7.54469" height="6.6016" transform="rotate(-128.733 154.271 214.966)" fill="#11140F"/>
<rect width="6.6016" height="6.6016" transform="matrix(0.625693 0.780069 0.780069 -0.625693 62.8078 100.937)" fill="#11140F"/>
<rect x="176.709" y="165.495" width="6.06719" height="6.0432" transform="rotate(-128.733 176.709 165.495)" fill="#11140F"/>
<rect width="6.06717" height="6.0432" transform="matrix(0.625693 0.780069 0.780069 -0.625693 115.97 89.7699)" fill="#11140F"/>
<rect x="166.601" y="182.106" width="6.6016" height="6.6016" transform="rotate(-128.733 166.601 182.106)" fill="#11140F"/>
<rect width="6.0672" height="6.04318" transform="matrix(0.625693 0.780069 0.780069 -0.625693 98.0311 96.3806)" fill="#11140F"/>
<rect x="149.857" y="218.507" width="7.54469" height="5.65851" transform="rotate(-128.733 149.857 218.507)" fill="#11140F"/>
<rect width="6.6016" height="5.65851" transform="matrix(0.625693 0.780069 0.780069 -0.625693 58.3938 104.478)" fill="#11140F"/>
<rect x="160.731" y="193.867" width="6.06719" height="6.04319" transform="rotate(-128.733 160.731 193.867)" fill="#11140F"/>
<rect width="6.06717" height="6.04319" transform="matrix(0.625693 0.780069 0.780069 -0.625693 84.8068 99.2101)" fill="#11140F"/>
<rect x="171.995" y="169.276" width="6.06719" height="6.0432" transform="rotate(-128.733 171.995 169.276)" fill="#11140F"/>
<rect width="6.06717" height="6.0432" transform="matrix(0.625693 0.780069 0.780069 -0.625693 111.256 93.5511)" fill="#11140F"/>
<rect width="6.0672" height="6.0432" transform="matrix(0.625693 0.780069 0.780069 -0.625693 93.317 100.162)" fill="#11140F"/>
<rect x="144.707" y="222.637" width="7.54469" height="6.6016" transform="rotate(-128.733 144.707 222.637)" fill="#11140F"/>
<rect width="6.6016" height="6.6016" transform="matrix(0.625693 0.780069 0.780069 -0.625693 53.244 108.608)" fill="#11140F"/>
<rect x="136.242" y="221.286" width="6.06718" height="6.0432" transform="rotate(-128.733 136.242 221.286)" fill="#11140F"/>
<rect x="127.732" y="220.335" width="6.06719" height="6.0432" transform="rotate(-128.733 127.732 220.335)" fill="#11140F"/>
<rect width="5.65851" height="6.6016" transform="matrix(0.625693 0.780069 0.780069 -0.625693 51.3514 125.843)" fill="#11140F"/>
<rect x="123.936" y="215.602" width="6.06718" height="6.0432" transform="rotate(-128.733 123.936 215.602)" fill="#E2711D"/>
<rect width="6.0672" height="6.0432" transform="matrix(0.625693 0.780069 0.780069 -0.625693 55.6041 130.411)" fill="#E2711D"/>
<rect width="6.06717" height="6.0432" transform="matrix(0.625693 0.780069 0.780069 -0.625693 59.4004 135.144)" fill="#E2711D"/>
<rect width="6.0672" height="6.0432" transform="matrix(0.625693 0.780069 0.780069 -0.625693 67.9105 136.096)" fill="#E2711D"/>
<rect x="121.975" y="193.841" width="6.06719" height="6.04319" transform="rotate(-128.733 121.975 193.841)" fill="#E2711D"/>
<rect width="6.06717" height="6.04319" transform="matrix(0.625693 0.780069 0.780069 -0.625693 76.4209 137.047)" fill="#E2711D"/>
<rect x="118.179" y="189.108" width="6.06719" height="6.04319" transform="rotate(-128.733 118.179 189.108)" fill="#E2711D"/>
<rect width="6.06719" height="6.04319" transform="matrix(0.625693 0.780069 0.780069 -0.625693 80.217 141.78)" fill="#E2711D"/>
<rect x="109.669" y="188.157" width="6.06719" height="6.0432" transform="rotate(-128.733 109.669 188.157)" fill="#E2711D"/>
<rect x="101.158" y="187.205" width="6.06718" height="6.0432" transform="rotate(-128.733 101.158 187.205)" fill="#E2711D"/>
<rect x="97.3622" y="182.472" width="6.06719" height="6.0432" transform="rotate(-128.733 97.3622 182.472)" fill="#E2711D"/>
<rect x="93.566" y="177.739" width="6.06719" height="6.0432" transform="rotate(-128.733 93.566 177.739)" fill="#E2711D"/>
<rect x="89.7699" y="173.007" width="6.06719" height="6.0432" transform="rotate(-128.733 89.7699 173.007)" fill="#E2711D"/>
<rect x="85.9736" y="168.274" width="6.06718" height="6.0432" transform="rotate(-128.733 85.9736 168.274)" fill="#E2711D"/>
<rect x="82.1775" y="163.541" width="6.06719" height="6.0432" transform="rotate(-128.733 82.1775 163.541)" fill="#E2711D"/>
<rect x="83.0953" y="155.027" width="6.06718" height="6.0432" transform="rotate(-128.733 83.0953 155.027)" fill="#E2711D"/>
<rect x="156.016" y="197.648" width="6.06719" height="6.0432" transform="rotate(-128.733 156.016 197.648)" fill="#11140F"/>
<rect width="6.06717" height="6.0432" transform="matrix(0.625693 0.780069 0.780069 -0.625693 80.0927 102.991)" fill="#11140F"/>
<rect x="155.099" y="206.162" width="6.06718" height="6.0432" transform="rotate(-128.733 155.099 206.162)" fill="#11140F"/>
<rect width="6.06719" height="6.0432" transform="matrix(0.625693 0.780069 0.780069 -0.625693 71.5823 102.04)" fill="#11140F"/>
<rect x="123.936" y="215.602" width="6.06718" height="6.0432" transform="rotate(-128.733 123.936 215.602)" fill="#11140F"/>
<rect width="6.6016" height="6.6016" transform="matrix(0.625693 0.780069 0.780069 -0.625693 54.8919 130.257)" fill="#11140F"/>
<rect width="6.6016" height="6.6016" transform="matrix(0.625693 0.780069 0.780069 -0.625693 59.3059 126.717)" fill="#FF9505"/>
<rect width="6.6016" height="6.6016" transform="matrix(0.625693 0.780069 0.780069 -0.625693 55.7654 122.303)" fill="#FF9505"/>
<rect x="119.221" y="219.383" width="6.06718" height="6.04319" transform="rotate(-128.733 119.221 219.383)" fill="#11140F"/>
<rect width="6.6016" height="5.65851" transform="matrix(0.625693 0.780069 0.780069 -0.625693 50.4778 133.798)" fill="#11140F"/>
<rect x="110.711" y="218.432" width="6.06719" height="6.04319" transform="rotate(-128.733 110.711 218.432)" fill="#11140F"/>
<rect width="6.06717" height="6.04319" transform="matrix(0.625693 0.780069 0.780069 -0.625693 49.9722 142.706)" fill="#11140F"/>
<rect x="93.6906" y="216.528" width="6.06719" height="6.04319" transform="rotate(-128.733 93.6906 216.528)" fill="#11140F"/>
<rect x="102.201" y="217.48" width="6.06718" height="6.0432" transform="rotate(-128.733 102.201 217.48)" fill="#11140F"/>
<rect width="6.6016" height="6.6016" transform="matrix(0.625693 0.780069 0.780069 -0.625693 48.5852 151.032)" fill="#11140F"/>
<rect width="6.06719" height="6.04319" transform="matrix(0.625693 0.780069 0.780069 -0.625693 57.689 190.961)" fill="#E2711D"/>
<rect x="85.1803" y="215.577" width="6.06719" height="6.04319" transform="rotate(-128.733 85.1803 215.577)" fill="#11140F"/>
<rect width="6.06718" height="6.04319" transform="matrix(0.625693 0.780069 0.780069 -0.625693 51.0145 172.981)" fill="#11140F"/>
<rect width="6.06719" height="6.04319" transform="matrix(0.625693 0.780069 0.780069 -0.625693 47.2183 168.248)" fill="#11140F"/>
<rect width="6.06719" height="6.04319" transform="matrix(0.625693 0.780069 0.780069 -0.625693 61.4852 195.694)" fill="#E2711D"/>
<rect width="6.06719" height="6.04319" transform="matrix(0.625693 0.780069 0.780069 -0.625693 50.0965 181.495)" fill="#11140F"/>
<rect width="6.06719" height="6.04319" transform="matrix(0.625693 0.780069 0.780069 -0.625693 65.2814 200.427)" fill="#E2711D"/>
<rect width="6.06719" height="6.0432" transform="matrix(0.625693 0.780069 0.780069 -0.625693 60.5672 204.208)" fill="#11140F"/>
<rect width="6.06719" height="6.0432" transform="matrix(0.625693 0.780069 0.780069 -0.625693 51.139 211.77)" fill="#11140F"/>
<rect width="6.06719" height="6.04319" transform="matrix(0.625693 0.780069 0.780069 -0.625693 46.4249 215.551)" fill="#11140F"/>
<rect width="6.06719" height="6.0432" transform="matrix(0.625693 0.780069 0.780069 -0.625693 56.7711 199.475)" fill="#11140F"/>
<rect width="6.06719" height="6.0432" transform="matrix(0.625693 0.780069 0.780069 -0.625693 47.3429 207.037)" fill="#11140F"/>
<rect width="6.06719" height="6.04319" transform="matrix(0.625693 0.780069 0.780069 -0.625693 37.9146 214.6)" fill="#11140F"/>
<rect width="6.06719" height="6.04319" transform="matrix(0.625693 0.780069 0.780069 -0.625693 52.057 203.256)" fill="#11140F"/>
<rect width="6.06719" height="6.04319" transform="matrix(0.625693 0.780069 0.780069 -0.625693 48.2607 198.523)" fill="#11140F"/>
<rect width="6.06719" height="6.0432" transform="matrix(0.625693 0.780069 0.780069 -0.625693 52.9749 194.742)" fill="#11140F"/>
<rect width="6.06719" height="6.0432" transform="matrix(0.625693 0.780069 0.780069 -0.625693 43.5466 202.304)" fill="#11140F"/>
<rect width="6.06719" height="6.04319" transform="matrix(0.625693 0.780069 0.780069 -0.625693 34.1184 209.867)" fill="#11140F"/>
<rect width="6.06718" height="6.0432" transform="matrix(0.625693 0.780069 0.780069 -0.625693 49.1786 190.009)" fill="#11140F"/>
<rect width="6.06718" height="6.0432" transform="matrix(0.625693 0.780069 0.780069 -0.625693 39.7505 197.572)" fill="#11140F"/>
<rect width="6.06718" height="6.04319" transform="matrix(0.625693 0.780069 0.780069 -0.625693 35.0363 201.353)" fill="#11140F"/>
<rect x="81.3841" y="210.844" width="6.06719" height="6.04319" transform="rotate(-128.733 81.3841 210.844)" fill="#11140F"/>
<rect width="6.06718" height="6.04319" transform="matrix(0.625693 0.780069 0.780069 -0.625693 53.8928 186.228)" fill="#E2711D"/>
<rect width="6.06718" height="6.04319" transform="matrix(0.625693 0.780069 0.780069 -0.625693 69.0776 205.159)" fill="#11140F"/>
<rect x="293.644" y="79.4793" width="6.06718" height="6.0432" transform="rotate(-128.733 293.644 79.4793)" fill="#11140F"/>
<rect x="256.849" y="101.215" width="6.06719" height="6.0432" transform="rotate(-128.733 256.849 101.215)" fill="#11140F"/>
<rect width="6.0672" height="6.0432" transform="matrix(0.625693 0.780069 0.780069 -0.625693 220.772 -2.06995)" fill="#11140F"/>
<rect width="6.06717" height="6.0432" transform="matrix(0.625693 0.780069 0.780069 -0.625693 196.11 25.4897)" fill="#11140F"/>
<rect x="303.072" y="71.917" width="6.06718" height="6.0432" transform="rotate(-128.733 303.072 71.917)" fill="#11140F"/>
<rect x="306.76" y="68.9588" width="6.06718" height="6.0432" transform="rotate(-128.733 306.76 68.9588)" fill="#11140F"/>
<rect x="266.277" y="93.6525" width="6.06719" height="6.0432" transform="rotate(-128.733 266.277 93.6525)" fill="#11140F"/>
<rect x="280.419" y="82.3089" width="6.06719" height="6.0432" transform="rotate(-128.733 280.419 82.3089)" fill="#11140F"/>
<rect x="247.42" y="108.777" width="6.06719" height="6.0432" transform="rotate(-128.733 247.42 108.777)" fill="#11140F"/>
<rect x="237.992" y="116.34" width="6.06719" height="6.04318" transform="rotate(-128.733 237.992 116.34)" fill="#11140F"/>
<rect x="228.564" y="123.902" width="6.06719" height="6.0432" transform="rotate(-128.733 228.564 123.902)" fill="#11140F"/>
<rect width="6.06717" height="6.0432" transform="matrix(0.625693 0.780069 0.780069 -0.625693 205.538 17.9274)" fill="#11140F"/>
<rect width="6.06717" height="6.0432" transform="matrix(0.625693 0.780069 0.780069 -0.625693 219.68 6.5838)" fill="#11140F"/>
<rect width="6.06717" height="6.0432" transform="matrix(0.625693 0.780069 0.780069 -0.625693 186.681 33.0521)" fill="#11140F"/>
<rect width="6.06717" height="6.04318" transform="matrix(0.625693 0.780069 0.780069 -0.625693 177.253 40.6145)" fill="#11140F"/>
<rect width="6.06717" height="6.0432" transform="matrix(0.625693 0.780069 0.780069 -0.625693 167.825 48.1768)" fill="#11140F"/>
<rect x="311.582" y="72.8687" width="6.06719" height="6.0432" transform="rotate(-128.733 311.582 72.8687)" fill="#11140F"/>
<rect x="270.991" y="89.8713" width="6.06719" height="6.0432" transform="rotate(-128.733 270.991 89.8713)" fill="#11140F"/>
<rect x="288.929" y="83.2606" width="6.06718" height="6.0432" transform="rotate(-128.733 288.929 83.2606)" fill="#11140F"/>
<rect x="252.135" y="104.996" width="6.06719" height="6.0432" transform="rotate(-128.733 252.135 104.996)" fill="#11140F"/>
<rect width="6.06717" height="6.0432" transform="matrix(0.625693 0.780069 0.780069 -0.625693 210.252 14.1462)" fill="#11140F"/>
<rect width="6.06717" height="6.0432" transform="matrix(0.625693 0.780069 0.780069 -0.625693 224.394 2.80267)" fill="#E2711D"/>
<rect width="6.06717" height="6.0432" transform="matrix(0.625693 0.780069 0.780069 -0.625693 191.396 29.2709)" fill="#11140F"/>
<rect x="298.358" y="75.6982" width="6.06718" height="6.0432" transform="rotate(-128.733 298.358 75.6982)" fill="#11140F"/>
<rect x="261.563" y="97.4336" width="6.06719" height="6.04317" transform="rotate(-128.733 261.563 97.4336)" fill="#11140F"/>
<rect x="275.705" y="86.0901" width="6.06719" height="6.0432" transform="rotate(-128.733 275.705 86.0901)" fill="#11140F"/>
<rect x="242.706" y="112.558" width="6.06719" height="6.0432" transform="rotate(-128.733 242.706 112.558)" fill="#11140F"/>
<rect x="233.278" y="120.121" width="6.06719" height="6.0432" transform="rotate(-128.733 233.278 120.121)" fill="#11140F"/>
<rect x="223.85" y="127.683" width="6.06719" height="6.0432" transform="rotate(-128.733 223.85 127.683)" fill="#11140F"/>
<rect x="219.136" y="131.464" width="6.06719" height="6.0432" transform="rotate(-128.733 219.136 131.464)" fill="#11140F"/>
<rect width="6.06717" height="6.04317" transform="matrix(0.625693 0.780069 0.780069 -0.625693 200.824 21.7086)" fill="#11140F"/>
<rect width="6.06717" height="6.0432" transform="matrix(0.625693 0.780069 0.780069 -0.625693 214.966 10.3651)" fill="#11140F"/>
<rect width="6.06717" height="6.0432" transform="matrix(0.625693 0.780069 0.780069 -0.625693 181.967 36.8333)" fill="#11140F"/>
<rect width="6.06717" height="6.0432" transform="matrix(0.625693 0.780069 0.780069 -0.625693 172.539 44.3957)" fill="#11140F"/>
<rect width="6.06717" height="6.0432" transform="matrix(0.625693 0.780069 0.780069 -0.625693 163.111 51.958)" fill="#11140F"/>
<rect width="6.06717" height="6.0432" transform="matrix(0.625693 0.780069 0.780069 -0.625693 158.397 55.7392)" fill="#11140F"/>
<rect x="136.662" y="57.6171" width="6.06719" height="6.0432" transform="rotate(-128.733 136.662 57.6171)" fill="#11140F"/>
<rect x="130.112" y="78.4263" width="6.0672" height="6.04318" transform="rotate(-128.733 130.112 78.4263)" fill="#11140F"/>
<rect x="161.275" y="68.9859" width="6.0672" height="6.0432" transform="rotate(-128.733 161.275 68.9859)" fill="#11140F"/>
<rect x="146.882" y="80.6516" width="6.6016" height="6.6016" transform="rotate(-128.733 146.882 80.6516)" fill="#11140F"/>
<rect x="132.99" y="91.673" width="6.0672" height="6.0432" transform="rotate(-128.733 132.99 91.673)" fill="#11140F"/>
<rect x="191.644" y="106.849" width="6.06719" height="6.0432" transform="rotate(-128.733 191.644 106.849)" fill="#11140F"/>
<rect x="176.976" y="118.171" width="5.65851" height="6.6016" transform="rotate(-128.733 176.976 118.171)" fill="#11140F"/>
<rect x="163.36" y="129.536" width="6.06719" height="6.0432" transform="rotate(-128.733 163.36 129.536)" fill="#11140F"/>
<rect x="206.829" y="125.78" width="6.06719" height="6.0432" transform="rotate(-128.733 206.829 125.78)" fill="#11140F"/>
<rect x="192.318" y="137.298" width="5.65851" height="6.6016" transform="rotate(-128.733 192.318 137.298)" fill="#11140F"/>
<rect x="178.545" y="148.467" width="6.06719" height="6.0432" transform="rotate(-128.733 178.545 148.467)" fill="#11140F"/>
<rect x="176.46" y="87.9173" width="6.06719" height="6.0432" transform="rotate(-128.733 176.46 87.9173)" fill="#11140F"/>
<rect x="162.224" y="99.779" width="6.6016" height="6.6016" transform="rotate(-128.733 162.224 99.779)" fill="#11140F"/>
<rect x="148.175" y="110.604" width="6.06719" height="6.0432" transform="rotate(-128.733 148.175 110.604)" fill="#11140F"/>
<rect x="214.422" y="135.245" width="6.06719" height="6.0432" transform="rotate(-128.733 214.422 135.245)" fill="#11140F"/>
<rect x="199.989" y="146.862" width="5.65851" height="6.6016" transform="rotate(-128.733 199.989 146.862)" fill="#11140F"/>
<rect x="186.137" y="157.933" width="6.06719" height="6.0432" transform="rotate(-128.733 186.137 157.933)" fill="#11140F"/>
<rect x="153.683" y="59.5204" width="6.0672" height="6.0432" transform="rotate(-128.733 153.683 59.5204)" fill="#11140F"/>
<rect x="139.211" y="71.0878" width="5.65851" height="6.6016" transform="rotate(-128.733 139.211 71.0878)" fill="#11140F"/>
<rect x="184.052" y="97.3829" width="6.06719" height="6.0432" transform="rotate(-128.733 184.052 97.3829)" fill="#11140F"/>
<rect x="169.305" y="108.607" width="5.65851" height="6.6016" transform="rotate(-128.733 169.305 108.607)" fill="#11140F"/>
<rect x="155.767" y="120.07" width="6.06719" height="6.0432" transform="rotate(-128.733 155.767 120.07)" fill="#11140F"/>
<rect x="199.237" y="116.314" width="6.06719" height="6.0432" transform="rotate(-128.733 199.237 116.314)" fill="#11140F"/>
<rect x="184.647" y="127.735" width="5.65851" height="6.6016" transform="rotate(-128.733 184.647 127.735)" fill="#11140F"/>
<rect x="170.952" y="139.001" width="6.06719" height="6.0432" transform="rotate(-128.733 170.952 139.001)" fill="#11140F"/>
<rect x="168.867" y="78.4516" width="6.06719" height="6.0432" transform="rotate(-128.733 168.867 78.4516)" fill="#11140F"/>
<rect x="154.553" y="90.2153" width="6.6016" height="6.6016" transform="rotate(-128.733 154.553 90.2153)" fill="#11140F"/>
<rect x="140.583" y="101.139" width="6.06719" height="6.0432" transform="rotate(-128.733 140.583 101.139)" fill="#11140F"/>
<rect x="218.218" y="139.978" width="6.06718" height="6.0432" transform="rotate(-128.733 218.218 139.978)" fill="#11140F"/>
<rect x="203.53" y="151.276" width="5.65851" height="6.6016" transform="rotate(-128.733 203.53 151.276)" fill="#11140F"/>
<rect x="157.479" y="64.2531" width="6.06717" height="6.0432" transform="rotate(-128.733 157.479 64.2531)" fill="#11140F"/>
<rect x="142.751" y="75.5019" width="5.65851" height="6.6016" transform="rotate(-128.733 142.751 75.5019)" fill="#11140F"/>
<rect x="129.194" y="86.9402" width="6.06717" height="6.0432" transform="rotate(-128.733 129.194 86.9402)" fill="#11140F"/>
<rect x="187.848" y="102.116" width="6.06719" height="6.0432" transform="rotate(-128.733 187.848 102.116)" fill="#11140F"/>
<rect x="173.435" y="113.757" width="6.6016" height="6.6016" transform="rotate(-128.733 173.435 113.757)" fill="#11140F"/>
<rect x="159.564" y="124.803" width="6.06719" height="6.0432" transform="rotate(-128.733 159.564 124.803)" fill="#11140F"/>
<rect x="203.033" y="121.047" width="6.06719" height="6.0432" transform="rotate(-128.733 203.033 121.047)" fill="#11140F"/>
<rect x="188.778" y="132.884" width="6.6016" height="6.6016" transform="rotate(-128.733 188.778 132.884)" fill="#11140F"/>
<rect x="174.748" y="143.734" width="6.06719" height="6.0432" transform="rotate(-128.733 174.748 143.734)" fill="#11140F"/>
<rect x="172.663" y="83.1844" width="6.06718" height="6.0432" transform="rotate(-128.733 172.663 83.1844)" fill="#11140F"/>
<rect x="158.093" y="94.6293" width="5.65851" height="6.6016" transform="rotate(-128.733 158.093 94.6293)" fill="#11140F"/>
<rect x="144.379" y="105.872" width="6.06718" height="6.0432" transform="rotate(-128.733 144.379 105.872)" fill="#11140F"/>
<rect x="210.626" y="130.513" width="6.06718" height="6.0432" transform="rotate(-128.733 210.626 130.513)" fill="#11140F"/>
<rect x="196.449" y="142.448" width="6.6016" height="6.6016" transform="rotate(-128.733 196.449 142.448)" fill="#11140F"/>
<rect x="182.341" y="153.2" width="6.06718" height="6.0432" transform="rotate(-128.733 182.341 153.2)" fill="#11140F"/>
<rect x="149.886" y="54.7876" width="6.06717" height="6.0432" transform="rotate(-128.733 149.886 54.7876)" fill="#11140F"/>
<rect x="135.67" y="66.6738" width="6.6016" height="6.6016" transform="rotate(-128.733 135.67 66.6738)" fill="#11140F"/>
<rect x="180.256" y="92.6501" width="6.06718" height="6.0432" transform="rotate(-128.733 180.256 92.6501)" fill="#11140F"/>
<rect x="165.764" y="104.193" width="5.65851" height="6.6016" transform="rotate(-128.733 165.764 104.193)" fill="#11140F"/>
<rect x="151.971" y="115.337" width="6.06718" height="6.0432" transform="rotate(-128.733 151.971 115.337)" fill="#11140F"/>
<rect x="195.441" y="111.581" width="6.06718" height="6.0432" transform="rotate(-128.733 195.441 111.581)" fill="#11140F"/>
<rect x="181.107" y="123.321" width="6.6016" height="6.6016" transform="rotate(-128.733 181.107 123.321)" fill="#11140F"/>
<rect x="167.156" y="134.269" width="6.06718" height="6.0432" transform="rotate(-128.733 167.156 134.269)" fill="#11140F"/>
<rect x="165.071" y="73.7188" width="6.06717" height="6.0432" transform="rotate(-128.733 165.071 73.7188)" fill="#11140F"/>
<rect x="315.129" y="0.0238037" width="6.06719" height="6.0432" transform="rotate(-128.733 315.129 0.0238037)" fill="#11140F"/>
<rect x="150.422" y="85.0656" width="5.65851" height="6.6016" transform="rotate(-128.733 150.422 85.0656)" fill="#11140F"/>
<rect x="136.786" y="96.4059" width="6.06717" height="6.0432" transform="rotate(-128.733 136.786 96.4059)" fill="#11140F"/>
<rect width="5.65851" height="5.65851" transform="matrix(0.625693 0.780069 0.780069 -0.625693 52.9606 117.298)" fill="#11140F"/>
<rect width="6.06717" height="6.04319" transform="matrix(0.625693 0.780069 0.780069 -0.625693 48.1362 159.734)" fill="#11140F"/>
<rect x="132.544" y="216.676" width="6.06718" height="6.0432" transform="rotate(-128.733 132.544 216.676)" fill="#E2711D"/>
<rect x="140.576" y="217.488" width="5.65851" height="5.65851" transform="rotate(-128.733 140.576 217.488)" fill="#E2711D"/>
<rect x="129.004" y="212.262" width="6.06718" height="6.0432" transform="rotate(-128.733 129.004 212.262)" fill="#E2711D"/>
<rect x="133.499" y="208.657" width="6.06718" height="6.0432" transform="rotate(-128.733 133.499 208.657)" fill="#FF9505"/>
<rect x="135.859" y="211.6" width="6.06718" height="6.0432" transform="rotate(-128.733 135.859 211.6)" fill="#FF9505"/>
<rect x="137.913" y="205.116" width="6.06718" height="6.0432" transform="rotate(-128.733 137.913 205.116)" fill="#FF9505"/>
<rect x="140.273" y="208.059" width="6.06718" height="6.0432" transform="rotate(-128.733 140.273 208.059)" fill="#FF9505"/>
<rect x="145.864" y="205.993" width="8.48777" height="7.54469" transform="rotate(-128.733 145.864 205.993)" fill="#FF9505"/>
<rect x="139.978" y="210.713" width="8.48777" height="7.54469" transform="rotate(-128.733 139.978 210.713)" fill="#FF9505"/>
<rect x="137.036" y="213.074" width="8.48777" height="7.54469" transform="rotate(-128.733 137.036 213.074)" fill="#FF9505"/>
<rect x="125.463" y="207.848" width="6.06718" height="6.0432" transform="rotate(-128.733 125.463 207.848)" fill="#FF9505"/>
<rect x="129.958" y="204.243" width="6.06718" height="6.0432" transform="rotate(-128.733 129.958 204.243)" fill="#FF9505"/>
<rect x="134.372" y="200.702" width="6.06718" height="6.0432" transform="rotate(-128.733 134.372 200.702)" fill="#FF9505"/>
<rect x="140.553" y="199.372" width="7.54469" height="7.54469" transform="rotate(-128.733 140.553 199.372)" fill="#FF9505"/>
<rect x="121.923" y="203.434" width="6.06718" height="6.0432" transform="rotate(-128.733 121.923 203.434)" fill="#FF9505"/>
<rect x="107.19" y="214.042" width="6.06719" height="6.04319" transform="rotate(-128.733 107.19 214.042)" fill="#E2711D"/>
<rect x="97.4755" y="213.493" width="6.06719" height="6.04319" transform="rotate(-128.733 97.4755 213.493)" fill="#E2711D"/>
<rect x="101.685" y="211.204" width="6.6016" height="7.54469" transform="rotate(-128.733 101.685 211.204)" fill="#E2711D"/>
<rect x="106.835" y="207.074" width="6.6016" height="7.54469" transform="rotate(-128.733 106.835 207.074)" fill="#E2711D"/>
<rect x="111.249" y="203.533" width="6.6016" height="7.54469" transform="rotate(-128.733 111.249 203.533)" fill="#E2711D"/>
<rect x="116.398" y="199.403" width="6.6016" height="7.54469" transform="rotate(-128.733 116.398 199.403)" fill="#E2711D"/>
<rect x="117.134" y="198.812" width="13.2032" height="13.2032" transform="rotate(-128.733 117.134 198.812)" fill="#E2711D"/>
<rect x="113.003" y="193.663" width="7.54469" height="5.65851" transform="rotate(-128.733 113.003 193.663)" fill="#E2711D"/>
<rect width="5.65851" height="6.6016" transform="matrix(0.625693 0.780069 0.780069 -0.625693 54.6084 138.947)" fill="#E2711D"/>
<rect x="72.9396" y="191.947" width="22.6341" height="31.1218" transform="rotate(-128.733 72.9396 191.947)" fill="#E2711D"/>
<rect x="89.4619" y="212.545" width="26.4064" height="31.1218" transform="rotate(-128.733 89.4619 212.545)" fill="#E2711D"/>
<rect width="6.6016" height="31.1218" transform="matrix(0.625693 0.780069 0.780069 -0.625693 73.2462 201.372)" fill="#E2711D"/>
<rect width="5.65851" height="31.1218" transform="matrix(0.625693 0.780069 0.780069 -0.625693 58.4942 182.981)" fill="#E2711D"/>
<rect width="5.65851" height="31.1218" transform="matrix(0.625693 0.780069 0.780069 -0.625693 69.7057 196.958)" fill="#E2711D"/>
<rect width="6.6016" height="31.1218" transform="matrix(0.625693 0.780069 0.780069 -0.625693 54.3636 177.831)" fill="#E2711D"/>
<rect width="6.6016" height="36.7803" transform="matrix(0.625693 0.780069 0.780069 -0.625693 52.7158 156.182)" fill="#E2711D"/>
<rect width="6.6016" height="23.5771" transform="matrix(0.625693 0.780069 0.780069 -0.625693 53.7349 146.902)" fill="#E2711D"/>
<rect width="6.6016" height="31.1218" transform="matrix(0.625693 0.780069 0.780069 -0.625693 65.5751 191.809)" fill="#E2711D"/>
<rect width="5.65851" height="31.1218" transform="matrix(0.625693 0.780069 0.780069 -0.625693 62.0347 187.395)" fill="#E2711D"/>
<rect x="125.541" y="207.786" width="6.6016" height="5.65851" transform="rotate(-128.733 125.541 207.786)" fill="#11140F"/>
<rect x="126.414" y="199.832" width="6.6016" height="5.65851" transform="rotate(-128.733 126.414 199.832)" fill="#11140F"/>
<rect x="130.828" y="196.291" width="6.6016" height="5.65851" transform="rotate(-128.733 130.828 196.291)" fill="#11140F"/>
<rect x="136.422" y="194.222" width="9.43086" height="7.54469" transform="rotate(-128.733 136.422 194.222)" fill="#FF9505"/>
<rect x="130.522" y="186.865" width="9.43086" height="7.54469" transform="rotate(-128.733 130.522 186.865)" fill="#FF9505"/>
<rect x="124.621" y="179.509" width="93.3655" height="7.54469" transform="rotate(-128.733 124.621 179.509)" fill="#FF9505"/>
<rect x="150.278" y="202.452" width="121.658" height="7.54469" transform="rotate(-128.733 150.278 202.452)" fill="#FF9505"/>
<rect x="151.887" y="193.908" width="110.341" height="13.2032" transform="rotate(-128.733 151.887 193.908)" fill="#FF9505"/>
<rect x="158.056" y="180.497" width="97.1378" height="17.9186" transform="rotate(-128.733 158.056 180.497)" fill="#FF9505"/>
<rect x="168.493" y="164.871" width="85.8208" height="18.8617" transform="rotate(-128.733 168.493 164.871)" fill="#FF9505"/>
<rect x="190.425" y="154.533" width="97.1378" height="13.2032" transform="rotate(-128.733 190.425 154.533)" fill="#E2711D"/>
<rect x="212.81" y="152.295" width="121.658" height="12.2601" transform="rotate(-128.733 212.81 152.295)" fill="#E2711D"/>
<rect x="369.401" y="58.127" width="170.699" height="12.2601" transform="rotate(-128.733 369.401 58.127)" fill="#E2711D"/>
<rect x="368.627" y="28.5236" width="122.601" height="12.2601" transform="rotate(-128.733 368.627 28.5236)" fill="#FF9505"/>
<rect x="374.06" y="15.7028" width="110.341" height="42.4389" transform="rotate(-128.733 374.06 15.7028)" fill="#FF9505"/>
<rect x="215.576" y="127.106" width="85.8208" height="83.9346" transform="rotate(-128.733 215.576 127.106)" fill="#FF9505"/>
<rect x="284.591" y="79.0026" width="97.1378" height="25.4633" transform="rotate(-128.733 284.591 79.0026)" fill="#FF9505"/>
<rect x="308.585" y="68.2201" width="110.341" height="23.5771" transform="rotate(-128.733 308.585 68.2201)" fill="#FF9505"/>
<rect x="331.108" y="58.6178" width="122.601" height="24.5202" transform="rotate(-128.733 331.108 58.6178)" fill="#FF9505"/>
<rect x="120.942" y="182.459" width="93.3655" height="5.65851" transform="rotate(-128.733 120.942 182.459)" fill="#FF9505"/>
<rect x="114.023" y="184.382" width="48.0974" height="6.6016" transform="rotate(-128.733 114.023 184.382)" fill="#FF9505"/>
<rect x="106.068" y="183.509" width="36.7803" height="6.6016" transform="rotate(-128.733 106.068 183.509)" fill="#FF9505"/>
<rect x="66.977" y="136.28" width="5.65851" height="6.6016" transform="rotate(-128.733 66.977 136.28)" fill="#11140F"/>
<rect x="111.846" y="210.307" width="5.65851" height="17.9186" transform="rotate(-128.733 111.846 210.307)" fill="#E2711D"/>
<rect x="115.387" y="214.722" width="5.65851" height="12.2601" transform="rotate(-128.733 115.387 214.722)" fill="#E2711D"/>
<rect x="127.433" y="190.551" width="13.2032" height="4.71543" transform="rotate(-128.733 127.433 190.551)" fill="#11140F"/>
<rect x="89.078" y="142.733" width="13.2032" height="4.71543" transform="rotate(-128.733 89.078 142.733)" fill="#11140F"/>
<rect x="114.023" y="184.382" width="5.65851" height="11.317" transform="rotate(-128.733 114.023 184.382)" fill="#11140F"/>
<rect x="87.4688" y="151.277" width="5.65851" height="11.317" transform="rotate(-128.733 87.4688 151.277)" fill="#11140F"/>
<rect x="76.2573" y="137.299" width="6.6016" height="11.317" transform="rotate(-128.733 76.2573 137.299)" fill="#11140F"/>
<rect x="66.977" y="136.28" width="5.65851" height="11.317" transform="rotate(-128.733 66.977 136.28)" fill="#11140F"/>
<rect x="106.068" y="183.509" width="36.7803" height="5.65851" transform="rotate(-128.733 106.068 183.509)" fill="#11140F"/>
<rect x="304.455" y="63.0704" width="5.65851" height="6.6016" transform="rotate(-128.733 304.455 63.0704)" fill="#E2711D"/>
<rect x="309.604" y="58.9398" width="5.65851" height="6.6016" transform="rotate(-128.733 309.604 58.9398)" fill="#E2711D"/>
<rect x="217.323" y="111.197" width="5.65851" height="6.6016" transform="rotate(-128.733 217.323 111.197)" fill="#E2711D"/>
<rect x="212.174" y="115.327" width="5.65851" height="6.6016" transform="rotate(-128.733 212.174 115.327)" fill="#E2711D"/>
<rect x="208.495" y="118.278" width="5.65851" height="6.6016" transform="rotate(-128.733 208.495 118.278)" fill="#E2711D"/>
<rect x="208.633" y="110.913" width="5.65851" height="6.6016" transform="rotate(-128.733 208.633 110.913)" fill="#E2711D"/>
<rect x="204.955" y="113.864" width="5.65851" height="6.6016" transform="rotate(-128.733 204.955 113.864)" fill="#E2711D"/>
<rect x="201.414" y="109.45" width="5.65851" height="6.6016" transform="rotate(-128.733 201.414 109.45)" fill="#E2711D"/>
<rect x="197.874" y="105.036" width="5.65851" height="6.6016" transform="rotate(-128.733 197.874 105.036)" fill="#E2711D"/>
<rect x="144.255" y="214.537" width="5.65851" height="6.6016" transform="rotate(-128.733 144.255 214.537)" fill="#E2711D"/>
<rect x="147.933" y="211.587" width="5.65851" height="9.43086" transform="rotate(-128.733 147.933 211.587)" fill="#E2711D"/>
<rect x="151.749" y="201.272" width="5.65851" height="5.65851" transform="rotate(-128.733 151.749 201.272)" fill="#E2711D"/>
<rect x="148.209" y="196.858" width="5.65851" height="5.65851" transform="rotate(-128.733 148.209 196.858)" fill="#E2711D"/>
<rect x="154.232" y="184.773" width="6.6016" height="5.65851" transform="rotate(-128.733 154.232 184.773)" fill="#E2711D"/>
<rect x="165.098" y="159.131" width="6.6016" height="5.65851" transform="rotate(-128.733 165.098 159.131)" fill="#E2711D"/>
<rect x="158.056" y="180.497" width="5.65851" height="5.65851" transform="rotate(-128.733 158.056 180.497)" fill="#E2711D"/>
<rect x="162.47" y="176.956" width="5.65851" height="5.65851" transform="rotate(-128.733 162.47 176.956)" fill="#E2711D"/>
<rect x="166.884" y="173.416" width="5.65851" height="6.6016" transform="rotate(-128.733 166.884 173.416)" fill="#E2711D"/>
<rect x="154.515" y="176.083" width="6.6016" height="5.65851" transform="rotate(-128.733 154.515 176.083)" fill="#E2711D"/>
<rect x="158.929" y="172.542" width="6.6016" height="5.65851" transform="rotate(-128.733 158.929 172.542)" fill="#E2711D"/>
<rect x="163.343" y="169.002" width="6.6016" height="6.6016" transform="rotate(-128.733 163.343 169.002)" fill="#E2711D"/>
<rect x="168.493" y="164.871" width="6.6016" height="6.6016" transform="rotate(-128.733 168.493 164.871)" fill="#E2711D"/>
<rect x="173.643" y="160.741" width="6.6016" height="6.6016" transform="rotate(-128.733 173.643 160.741)" fill="#E2711D"/>
<rect x="178.057" y="157.2" width="6.6016" height="6.6016" transform="rotate(-128.733 178.057 157.2)" fill="#E2711D"/>
<rect x="173.926" y="152.05" width="6.6016" height="6.6016" transform="rotate(-128.733 173.926 152.05)" fill="#E2711D"/>
<rect x="169.796" y="146.901" width="6.6016" height="6.6016" transform="rotate(-128.733 169.796 146.901)" fill="#E2711D"/>
<rect x="166.255" y="142.487" width="6.6016" height="6.6016" transform="rotate(-128.733 166.255 142.487)" fill="#E2711D"/>
<rect x="169.512" y="155.591" width="6.6016" height="6.6016" transform="rotate(-128.733 169.512 155.591)" fill="#E2711D"/>
<rect x="165.382" y="150.441" width="6.6016" height="6.6016" transform="rotate(-128.733 165.382 150.441)" fill="#E2711D"/>
<rect x="152.623" y="193.318" width="5.65851" height="12.2601" transform="rotate(-128.733 152.623 193.318)" fill="#E2711D"/>
<rect x="136.3" y="213.664" width="5.65851" height="5.65851" transform="rotate(-128.733 136.3 213.664)" fill="#E2711D"/>
<rect x="147.335" y="204.813" width="5.65851" height="5.65851" transform="rotate(-128.733 147.335 204.813)" fill="#E2711D"/>
<rect x="300.914" y="58.6564" width="5.65851" height="6.6016" transform="rotate(-128.733 300.914 58.6564)" fill="#E2711D"/>
<rect x="308.585" y="68.2201" width="6.6016" height="41.4958" transform="rotate(-128.733 308.585 68.2201)" fill="#E2711D"/>
<rect x="284.591" y="79.0026" width="5.65851" height="25.4633" transform="rotate(-128.733 284.591 79.0026)" fill="#E2711D"/>
<rect x="281.051" y="74.5886" width="5.65851" height="25.4633" transform="rotate(-128.733 281.051 74.5886)" fill="#E2711D"/>
<rect x="215.576" y="127.106" width="5.65851" height="83.9346" transform="rotate(-128.733 215.576 127.106)" fill="#E2711D"/>
<rect x="212.036" y="122.692" width="5.65851" height="78.2761" transform="rotate(-128.733 212.036 122.692)" fill="#E2711D"/>
<rect x="162.186" y="185.646" width="6.6016" height="5.65851" transform="rotate(-128.733 162.186 185.646)" fill="#11140F"/>
<rect x="128.072" y="155.052" width="2.34179" height="2.30664" transform="rotate(-130.275 128.072 155.052)" fill="#FF0000"/>
<rect x="129.832" y="153.56" width="2.34179" height="2.30664" transform="rotate(-130.275 129.832 153.56)" fill="#FF0000"/>
<rect x="135.111" y="149.087" width="2.34179" height="2.30664" transform="rotate(-130.275 135.111 149.087)" fill="#FF0000"/>
<rect x="131.592" y="152.069" width="2.34179" height="2.30664" transform="rotate(-130.275 131.592 152.069)" fill="#FF0000"/>
<rect x="136.871" y="147.596" width="2.34179" height="2.30664" transform="rotate(-130.275 136.871 147.596)" fill="#FF0000"/>
<rect x="133.351" y="150.578" width="2.34179" height="2.30664" transform="rotate(-130.275 133.351 150.578)" fill="#FF0000"/>
<rect x="138.631" y="146.105" width="2.34179" height="2.30664" transform="rotate(-130.275 138.631 146.105)" fill="#FF0000"/>
<rect x="131.346" y="155.347" width="2.34179" height="2.30664" transform="rotate(-130.275 131.346 155.347)" fill="#FF0000"/>
<rect x="134.619" y="155.643" width="2.34179" height="2.30664" transform="rotate(-130.275 134.619 155.643)" fill="#FF0000"/>
<rect x="137.893" y="155.938" width="2.34179" height="2.30664" transform="rotate(-130.275 137.893 155.938)" fill="#FF0000"/>
<rect x="139.653" y="154.447" width="2.34179" height="2.30664" transform="rotate(-130.275 139.653 154.447)" fill="#FF0000"/>
<rect x="142.927" y="154.742" width="2.34179" height="2.30664" transform="rotate(-130.275 142.927 154.742)" fill="#FF0000"/>
<rect x="146.2" y="155.038" width="2.34179" height="2.30664" transform="rotate(-130.275 146.2 155.038)" fill="#FF0000"/>
<rect x="146.446" y="151.76" width="2.34179" height="2.30664" transform="rotate(-130.275 146.446 151.76)" fill="#FF0000"/>
<rect x="146.692" y="148.482" width="2.34179" height="2.30664" transform="rotate(-130.275 146.692 148.482)" fill="#FF0000"/>
<rect x="146.938" y="145.205" width="2.34179" height="2.30664" transform="rotate(-130.275 146.938 145.205)" fill="#FF0000"/>
<rect x="147.184" y="141.927" width="2.34179" height="2.30664" transform="rotate(-130.275 147.184 141.927)" fill="#FF0000"/>
<rect x="147.43" y="138.649" width="2.34179" height="2.30664" transform="rotate(-130.275 147.43 138.649)" fill="#FF0000"/>
<rect x="147.676" y="135.371" width="2.34179" height="2.30664" transform="rotate(-130.275 147.676 135.371)" fill="#FF0000"/>
<rect x="146.162" y="133.584" width="2.34179" height="2.30664" transform="rotate(-130.275 146.162 133.584)" fill="#FF0000"/>
<rect x="144.649" y="131.798" width="2.34179" height="2.30664" transform="rotate(-130.275 144.649 131.798)" fill="#FF0000"/>
<rect x="143.135" y="130.011" width="2.34179" height="2.30664" transform="rotate(-130.275 143.135 130.011)" fill="#FF0000"/>
<rect x="141.621" y="128.224" width="2.3418" height="2.30664" transform="rotate(-130.275 141.621 128.224)" fill="#FF0000"/>
<rect x="140.107" y="126.438" width="2.34179" height="2.30664" transform="rotate(-130.275 140.107 126.438)" fill="#FF0000"/>
<rect x="138.593" y="124.651" width="2.3418" height="2.30664" transform="rotate(-130.275 138.593 124.651)" fill="#FF0000"/>
<rect x="137.079" y="122.864" width="2.34179" height="2.30664" transform="rotate(-130.275 137.079 122.864)" fill="#FF0000"/>
<rect x="135.565" y="121.078" width="2.34179" height="2.30664" transform="rotate(-130.275 135.565 121.078)" fill="#FF0000"/>
<rect x="132.292" y="120.782" width="2.34179" height="2.30664" transform="rotate(-130.275 132.292 120.782)" fill="#FF0000"/>
<rect x="129.018" y="120.487" width="2.34179" height="2.30664" transform="rotate(-130.275 129.018 120.487)" fill="#FF0000"/>
<rect x="125.744" y="120.191" width="2.34179" height="2.30664" transform="rotate(-130.275 125.744 120.191)" fill="#FF0000"/>
<rect x="122.471" y="119.896" width="2.34179" height="2.30664" transform="rotate(-130.275 122.471 119.896)" fill="#FF0000"/>
<rect x="119.197" y="119.6" width="2.34179" height="2.30664" transform="rotate(-130.275 119.197 119.6)" fill="#FF0000"/>
<rect x="115.923" y="119.305" width="2.34179" height="2.30664" transform="rotate(-130.275 115.923 119.305)" fill="#FF0000"/>
<rect x="115.677" y="122.582" width="2.34179" height="2.30664" transform="rotate(-130.275 115.677 122.582)" fill="#FF0000"/>
<rect x="115.431" y="125.86" width="2.34179" height="2.30664" transform="rotate(-130.275 115.431 125.86)" fill="#FF0000"/>
<rect x="113.671" y="127.351" width="2.34179" height="2.30664" transform="rotate(-130.275 113.671 127.351)" fill="#FF0000"/>
<rect x="113.425" y="130.629" width="2.34179" height="2.30664" transform="rotate(-130.275 113.425 130.629)" fill="#FF0000"/>
<rect x="113.179" y="133.907" width="2.34179" height="2.30664" transform="rotate(-130.275 113.179 133.907)" fill="#FF0000"/>
<rect x="117.475" y="142.545" width="2.3418" height="2.30664" transform="rotate(-130.275 117.475 142.545)" fill="#FF0000"/>
<rect x="126.558" y="153.265" width="2.34179" height="2.30664" transform="rotate(-130.275 126.558 153.265)" fill="#FF0000"/>
<rect x="128.318" y="151.774" width="2.34179" height="2.30664" transform="rotate(-130.275 128.318 151.774)" fill="#FF0000"/>
<rect x="133.597" y="147.3" width="2.34179" height="2.30664" transform="rotate(-130.275 133.597 147.3)" fill="#FF0000"/>
<rect x="130.078" y="150.283" width="2.34179" height="2.30664" transform="rotate(-130.275 130.078 150.283)" fill="#FF0000"/>
<rect x="135.357" y="145.809" width="2.34179" height="2.30664" transform="rotate(-130.275 135.357 145.809)" fill="#FF0000"/>
<rect x="131.838" y="148.791" width="2.34179" height="2.30664" transform="rotate(-130.275 131.838 148.791)" fill="#FF0000"/>
<rect x="137.117" y="144.318" width="2.34179" height="2.30664" transform="rotate(-130.275 137.117 144.318)" fill="#FF0000"/>
<rect x="115.961" y="140.758" width="2.34179" height="2.30664" transform="rotate(-130.275 115.961 140.758)" fill="#FF0000"/>
<rect x="125.044" y="151.478" width="2.34179" height="2.30664" transform="rotate(-130.275 125.044 151.478)" fill="#FF0000"/>
<rect x="126.804" y="149.987" width="2.34179" height="2.30664" transform="rotate(-130.275 126.804 149.987)" fill="#FF0000"/>
<rect x="132.084" y="145.514" width="2.34179" height="2.30664" transform="rotate(-130.275 132.084 145.514)" fill="#FF0000"/>
<rect x="128.564" y="148.496" width="2.34179" height="2.30664" transform="rotate(-130.275 128.564 148.496)" fill="#FF0000"/>
<rect x="133.843" y="144.022" width="2.34179" height="2.30664" transform="rotate(-130.275 133.843 144.022)" fill="#FF0000"/>
<rect x="130.324" y="147.005" width="2.34179" height="2.30664" transform="rotate(-130.275 130.324 147.005)" fill="#FF0000"/>
<rect x="135.603" y="142.531" width="2.34179" height="2.30664" transform="rotate(-130.275 135.603 142.531)" fill="#FF0000"/>
<rect x="114.447" y="138.971" width="2.34179" height="2.30664" transform="rotate(-130.275 114.447 138.971)" fill="#FF0000"/>
<rect x="123.53" y="149.691" width="2.34179" height="2.30664" transform="rotate(-130.275 123.53 149.691)" fill="#FF0000"/>
<rect x="125.29" y="148.2" width="2.34179" height="2.30664" transform="rotate(-130.275 125.29 148.2)" fill="#FF0000"/>
<rect x="140.391" y="144.613" width="2.34179" height="2.30664" transform="rotate(-130.275 140.391 144.613)" fill="#FF0000"/>
<rect x="142.151" y="143.122" width="2.34179" height="2.30664" transform="rotate(-130.275 142.151 143.122)" fill="#FF0000"/>
<rect x="143.911" y="141.631" width="2.34179" height="2.30664" transform="rotate(-130.275 143.911 141.631)" fill="#FF0000"/>
<rect x="145.67" y="140.14" width="2.34179" height="2.30664" transform="rotate(-130.275 145.67 140.14)" fill="#FF0000"/>
<rect x="127.05" y="146.709" width="2.34179" height="2.30664" transform="rotate(-130.275 127.05 146.709)" fill="#FF0000"/>
<rect x="132.33" y="142.236" width="2.34179" height="2.30664" transform="rotate(-130.275 132.33 142.236)" fill="#FF0000"/>
<rect x="128.81" y="145.218" width="2.34179" height="2.30664" transform="rotate(-130.275 128.81 145.218)" fill="#FF0000"/>
<rect x="134.089" y="140.745" width="2.34179" height="2.30664" transform="rotate(-130.275 134.089 140.745)" fill="#FF0000"/>
<rect x="112.933" y="137.185" width="2.34179" height="2.30664" transform="rotate(-130.275 112.933 137.185)" fill="#FF0000"/>
<rect x="123.776" y="146.414" width="2.34179" height="2.30664" transform="rotate(-130.275 123.776 146.414)" fill="#FF0000"/>
<rect x="124.022" y="143.136" width="2.3418" height="2.30664" transform="rotate(-130.275 124.022 143.136)" fill="#FF0000"/>
<rect x="125.536" y="144.923" width="2.34179" height="2.30664" transform="rotate(-130.275 125.536 144.923)" fill="#FF0000"/>
<rect x="120.749" y="142.84" width="2.34179" height="2.30664" transform="rotate(-130.275 120.749 142.84)" fill="#FF0000"/>
<rect x="138.877" y="142.827" width="2.34179" height="2.30664" transform="rotate(-130.275 138.877 142.827)" fill="#FF0000"/>
<rect x="140.637" y="141.336" width="2.34179" height="2.30664" transform="rotate(-130.275 140.637 141.336)" fill="#FF0000"/>
<rect x="142.397" y="139.845" width="2.34179" height="2.30664" transform="rotate(-130.275 142.397 139.845)" fill="#FF0000"/>
<rect x="144.157" y="138.353" width="2.34179" height="2.30664" transform="rotate(-130.275 144.157 138.353)" fill="#FF0000"/>
<rect x="145.916" y="136.862" width="2.34179" height="2.30664" transform="rotate(-130.275 145.916 136.862)" fill="#FF0000"/>
<rect x="130.816" y="140.449" width="2.34179" height="2.30664" transform="rotate(-130.275 130.816 140.449)" fill="#FF0000"/>
<rect x="130.57" y="143.727" width="2.34179" height="2.30664" transform="rotate(-130.275 130.57 143.727)" fill="#FF0000"/>
<rect x="127.296" y="143.431" width="2.34179" height="2.30664" transform="rotate(-130.275 127.296 143.431)" fill="#FF0000"/>
<rect x="137.363" y="141.04" width="2.34179" height="2.30664" transform="rotate(-130.275 137.363 141.04)" fill="#FF0000"/>
<rect x="139.123" y="139.549" width="2.34179" height="2.30664" transform="rotate(-130.275 139.123 139.549)" fill="#FF0000"/>
<rect x="140.883" y="138.058" width="2.34179" height="2.30664" transform="rotate(-130.275 140.883 138.058)" fill="#FF0000"/>
<rect x="142.643" y="136.567" width="2.34179" height="2.30664" transform="rotate(-130.275 142.643 136.567)" fill="#FF0000"/>
<rect x="144.403" y="135.076" width="2.34179" height="2.30664" transform="rotate(-130.275 144.403 135.076)" fill="#FF0000"/>
<rect x="129.302" y="138.662" width="2.3418" height="2.30664" transform="rotate(-130.275 129.302 138.662)" fill="#FF0000"/>
<rect x="129.056" y="141.94" width="2.34179" height="2.30664" transform="rotate(-130.275 129.056 141.94)" fill="#FF0000"/>
<rect x="125.782" y="141.645" width="2.3418" height="2.30664" transform="rotate(-130.275 125.782 141.645)" fill="#FF0000"/>
<rect x="135.849" y="139.254" width="2.34179" height="2.30664" transform="rotate(-130.275 135.849 139.254)" fill="#FF0000"/>
<rect x="137.609" y="137.762" width="2.34179" height="2.30664" transform="rotate(-130.275 137.609 137.762)" fill="#FF0000"/>
<rect x="139.369" y="136.271" width="2.34179" height="2.30664" transform="rotate(-130.275 139.369 136.271)" fill="#FF0000"/>
<rect x="141.129" y="134.78" width="2.34179" height="2.30664" transform="rotate(-130.275 141.129 134.78)" fill="#FF0000"/>
<rect x="142.889" y="133.289" width="2.34179" height="2.30664" transform="rotate(-130.275 142.889 133.289)" fill="#FF0000"/>
<rect x="127.788" y="136.876" width="2.34179" height="2.30664" transform="rotate(-130.275 127.788 136.876)" fill="#FF0000"/>
<rect x="127.542" y="140.154" width="2.3418" height="2.30664" transform="rotate(-130.275 127.542 140.154)" fill="#FF0000"/>
<rect x="124.268" y="139.858" width="2.34179" height="2.30664" transform="rotate(-130.275 124.268 139.858)" fill="#FF0000"/>
<rect x="122.508" y="141.349" width="2.34179" height="2.30664" transform="rotate(-130.275 122.508 141.349)" fill="#FF0000"/>
<rect x="134.335" y="137.467" width="2.34179" height="2.30664" transform="rotate(-130.275 134.335 137.467)" fill="#FF0000"/>
<rect x="136.095" y="135.976" width="2.34179" height="2.30664" transform="rotate(-130.275 136.095 135.976)" fill="#FF0000"/>
<rect x="137.855" y="134.485" width="2.34179" height="2.30664" transform="rotate(-130.275 137.855 134.485)" fill="#FF0000"/>
<rect x="139.615" y="132.993" width="2.34179" height="2.30664" transform="rotate(-130.275 139.615 132.993)" fill="#FF0000"/>
<rect x="141.375" y="131.502" width="2.34179" height="2.30664" transform="rotate(-130.275 141.375 131.502)" fill="#FF0000"/>
<rect x="126.274" y="135.089" width="2.3418" height="2.30664" transform="rotate(-130.275 126.274 135.089)" fill="#FF0000"/>
<rect x="126.028" y="138.367" width="2.34179" height="2.30664" transform="rotate(-130.275 126.028 138.367)" fill="#FF0000"/>
<rect x="122.754" y="138.071" width="2.3418" height="2.30664" transform="rotate(-130.275 122.754 138.071)" fill="#FF0000"/>
<rect x="120.995" y="139.562" width="2.3418" height="2.30664" transform="rotate(-130.275 120.995 139.562)" fill="#FF0000"/>
<rect x="119.235" y="141.054" width="2.3418" height="2.30664" transform="rotate(-130.275 119.235 141.054)" fill="#FF0000"/>
<rect x="144.686" y="153.251" width="2.34179" height="2.30664" transform="rotate(-130.275 144.686 153.251)" fill="#FF0000"/>
<rect x="132.822" y="135.68" width="2.3418" height="2.30664" transform="rotate(-130.275 132.822 135.68)" fill="#FF0000"/>
<rect x="134.581" y="134.189" width="2.3418" height="2.30664" transform="rotate(-130.275 134.581 134.189)" fill="#FF0000"/>
<rect x="136.341" y="132.698" width="2.3418" height="2.30664" transform="rotate(-130.275 136.341 132.698)" fill="#FF0000"/>
<rect x="138.101" y="131.207" width="2.3418" height="2.30664" transform="rotate(-130.275 138.101 131.207)" fill="#FF0000"/>
<rect x="139.861" y="129.716" width="2.3418" height="2.30664" transform="rotate(-130.275 139.861 129.716)" fill="#FF0000"/>
<rect x="124.76" y="133.302" width="2.34179" height="2.30664" transform="rotate(-130.275 124.76 133.302)" fill="#FF0000"/>
<rect x="124.514" y="136.58" width="2.3418" height="2.30664" transform="rotate(-130.275 124.514 136.58)" fill="#FF0000"/>
<rect x="121.241" y="136.285" width="2.34179" height="2.30664" transform="rotate(-130.275 121.241 136.285)" fill="#FF0000"/>
<rect x="119.481" y="137.776" width="2.34179" height="2.30664" transform="rotate(-130.275 119.481 137.776)" fill="#FF0000"/>
<rect x="117.721" y="139.267" width="2.34179" height="2.30664" transform="rotate(-130.275 117.721 139.267)" fill="#FF0000"/>
<rect x="143.173" y="151.465" width="2.34179" height="2.30664" transform="rotate(-130.275 143.173 151.465)" fill="#FF0000"/>
<rect x="141.413" y="152.956" width="2.34179" height="2.30664" transform="rotate(-130.275 141.413 152.956)" fill="#FF0000"/>
<rect x="131.308" y="133.893" width="2.34179" height="2.30664" transform="rotate(-130.275 131.308 133.893)" fill="#FF0000"/>
<rect x="133.068" y="132.402" width="2.34179" height="2.30664" transform="rotate(-130.275 133.068 132.402)" fill="#FF0000"/>
<rect x="134.827" y="130.911" width="2.34179" height="2.30664" transform="rotate(-130.275 134.827 130.911)" fill="#FF0000"/>
<rect x="136.587" y="129.42" width="2.34179" height="2.30664" transform="rotate(-130.275 136.587 129.42)" fill="#FF0000"/>
<rect x="138.347" y="127.929" width="2.34179" height="2.30664" transform="rotate(-130.275 138.347 127.929)" fill="#FF0000"/>
<rect x="123.246" y="131.516" width="2.34179" height="2.30664" transform="rotate(-130.275 123.246 131.516)" fill="#FF0000"/>
<rect x="123" y="134.794" width="2.34179" height="2.30664" transform="rotate(-130.275 123 134.794)" fill="#FF0000"/>
<rect x="119.727" y="134.498" width="2.34179" height="2.30664" transform="rotate(-130.275 119.727 134.498)" fill="#FF0000"/>
<rect x="117.967" y="135.989" width="2.34179" height="2.30664" transform="rotate(-130.275 117.967 135.989)" fill="#FF0000"/>
<rect x="116.207" y="137.48" width="2.34179" height="2.30664" transform="rotate(-130.275 116.207 137.48)" fill="#FF0000"/>
<rect x="141.659" y="149.678" width="2.34179" height="2.30664" transform="rotate(-130.275 141.659 149.678)" fill="#FF0000"/>
<rect x="139.899" y="151.169" width="2.34179" height="2.30664" transform="rotate(-130.275 139.899 151.169)" fill="#FF0000"/>
<rect x="129.794" y="132.107" width="2.3418" height="2.30664" transform="rotate(-130.275 129.794 132.107)" fill="#FF0000"/>
<rect x="131.554" y="130.616" width="2.3418" height="2.30664" transform="rotate(-130.275 131.554 130.616)" fill="#FF0000"/>
<rect x="133.314" y="129.125" width="2.3418" height="2.30664" transform="rotate(-130.275 133.314 129.125)" fill="#FF0000"/>
<rect x="135.073" y="127.633" width="2.3418" height="2.30664" transform="rotate(-130.275 135.073 127.633)" fill="#FF0000"/>
<rect x="136.833" y="126.142" width="2.3418" height="2.30664" transform="rotate(-130.275 136.833 126.142)" fill="#FF0000"/>
<rect x="121.733" y="129.729" width="2.34179" height="2.30664" transform="rotate(-130.275 121.733 129.729)" fill="#FF0000"/>
<rect x="121.487" y="133.007" width="2.34179" height="2.30664" transform="rotate(-130.275 121.487 133.007)" fill="#FF0000"/>
<rect x="118.213" y="132.711" width="2.34179" height="2.30664" transform="rotate(-130.275 118.213 132.711)" fill="#FF0000"/>
<rect x="116.453" y="134.202" width="2.34179" height="2.30664" transform="rotate(-130.275 116.453 134.202)" fill="#FF0000"/>
<rect x="114.693" y="135.694" width="2.34179" height="2.30664" transform="rotate(-130.275 114.693 135.694)" fill="#FF0000"/>
<rect x="140.145" y="147.891" width="2.34179" height="2.30664" transform="rotate(-130.275 140.145 147.891)" fill="#FF0000"/>
<rect x="138.385" y="149.382" width="2.34179" height="2.30664" transform="rotate(-130.275 138.385 149.382)" fill="#FF0000"/>
<rect x="136.625" y="150.874" width="2.34179" height="2.30664" transform="rotate(-130.275 136.625 150.874)" fill="#FF0000"/>
<rect x="136.379" y="154.151" width="2.34179" height="2.30664" transform="rotate(-130.275 136.379 154.151)" fill="#FF0000"/>
<rect x="134.865" y="152.365" width="2.34179" height="2.30664" transform="rotate(-130.275 134.865 152.365)" fill="#FF0000"/>
<rect x="133.105" y="153.856" width="2.34179" height="2.30664" transform="rotate(-130.275 133.105 153.856)" fill="#FF0000"/>
<rect x="144.932" y="149.974" width="2.34179" height="2.30664" transform="rotate(-130.275 144.932 149.974)" fill="#FF0000"/>
<rect x="143.419" y="148.187" width="2.34179" height="2.30664" transform="rotate(-130.275 143.419 148.187)" fill="#FF0000"/>
<rect x="145.179" y="146.696" width="2.34179" height="2.30664" transform="rotate(-130.275 145.179 146.696)" fill="#FF0000"/>
<rect x="143.665" y="144.909" width="2.34179" height="2.30664" transform="rotate(-130.275 143.665 144.909)" fill="#FF0000"/>
<rect x="145.424" y="143.418" width="2.34179" height="2.30664" transform="rotate(-130.275 145.424 143.418)" fill="#FF0000"/>
<rect x="141.905" y="146.4" width="2.34179" height="2.30664" transform="rotate(-130.275 141.905 146.4)" fill="#FF0000"/>
<rect x="138.139" y="152.66" width="2.34179" height="2.30664" transform="rotate(-130.275 138.139 152.66)" fill="#FF0000"/>
<rect x="128.28" y="130.32" width="2.34179" height="2.30664" transform="rotate(-130.275 128.28 130.32)" fill="#FF0000"/>
<rect x="130.04" y="128.829" width="2.34179" height="2.30664" transform="rotate(-130.275 130.04 128.829)" fill="#FF0000"/>
<rect x="131.8" y="127.338" width="2.34179" height="2.30664" transform="rotate(-130.275 131.8 127.338)" fill="#FF0000"/>
<rect x="133.56" y="125.847" width="2.34179" height="2.30664" transform="rotate(-130.275 133.56 125.847)" fill="#FF0000"/>
<rect x="135.319" y="124.356" width="2.34179" height="2.30664" transform="rotate(-130.275 135.319 124.356)" fill="#FF0000"/>
<rect x="120.219" y="127.942" width="2.34179" height="2.30664" transform="rotate(-130.275 120.219 127.942)" fill="#FF0000"/>
<rect x="119.973" y="131.22" width="2.34179" height="2.30664" transform="rotate(-130.275 119.973 131.22)" fill="#FF0000"/>
<rect x="116.699" y="130.925" width="2.34179" height="2.30664" transform="rotate(-130.275 116.699 130.925)" fill="#FF0000"/>
<rect x="114.939" y="132.416" width="2.34179" height="2.30664" transform="rotate(-130.275 114.939 132.416)" fill="#FF0000"/>
<rect x="126.766" y="128.533" width="2.34179" height="2.30664" transform="rotate(-130.275 126.766 128.533)" fill="#FF0000"/>
<rect x="128.526" y="127.042" width="2.34179" height="2.30664" transform="rotate(-130.275 128.526 127.042)" fill="#FF0000"/>
<rect x="130.286" y="125.551" width="2.34179" height="2.30664" transform="rotate(-130.275 130.286 125.551)" fill="#FF0000"/>
<rect x="132.046" y="124.06" width="2.34179" height="2.30664" transform="rotate(-130.275 132.046 124.06)" fill="#FF0000"/>
<rect x="133.805" y="122.569" width="2.34179" height="2.30664" transform="rotate(-130.275 133.805 122.569)" fill="#FF0000"/>
<rect x="118.705" y="126.156" width="2.34179" height="2.30664" transform="rotate(-130.275 118.705 126.156)" fill="#FF0000"/>
<rect x="118.459" y="129.434" width="2.34179" height="2.30664" transform="rotate(-130.275 118.459 129.434)" fill="#FF0000"/>
<rect x="116.945" y="127.647" width="2.34179" height="2.30664" transform="rotate(-130.275 116.945 127.647)" fill="#FF0000"/>
<rect x="117.191" y="124.369" width="2.34179" height="2.30664" transform="rotate(-130.275 117.191 124.369)" fill="#FF0000"/>
<rect x="115.185" y="129.138" width="2.34179" height="2.30664" transform="rotate(-130.275 115.185 129.138)" fill="#FF0000"/>
<rect x="125.252" y="126.747" width="2.34179" height="2.30664" transform="rotate(-130.275 125.252 126.747)" fill="#FF0000"/>
<rect x="127.012" y="125.256" width="2.34179" height="2.30664" transform="rotate(-130.275 127.012 125.256)" fill="#FF0000"/>
<rect x="128.772" y="123.764" width="2.34179" height="2.30664" transform="rotate(-130.275 128.772 123.764)" fill="#FF0000"/>
<rect x="130.532" y="122.273" width="2.34179" height="2.30664" transform="rotate(-130.275 130.532 122.273)" fill="#FF0000"/>
<rect x="123.738" y="124.96" width="2.34179" height="2.30664" transform="rotate(-130.275 123.738 124.96)" fill="#FF0000"/>
<rect x="125.498" y="123.469" width="2.34179" height="2.30664" transform="rotate(-130.275 125.498 123.469)" fill="#FF0000"/>
<rect x="127.258" y="121.978" width="2.34179" height="2.30664" transform="rotate(-130.275 127.258 121.978)" fill="#FF0000"/>
<rect x="122.224" y="123.173" width="2.34179" height="2.30664" transform="rotate(-130.275 122.224 123.173)" fill="#FF0000"/>
<rect x="123.984" y="121.682" width="2.34179" height="2.30664" transform="rotate(-130.275 123.984 121.682)" fill="#FF0000"/>
<rect x="132.576" y="138.958" width="2.34179" height="2.30664" transform="rotate(-130.275 132.576 138.958)" fill="#FF0000"/>
<rect x="131.062" y="137.171" width="2.3418" height="2.30664" transform="rotate(-130.275 131.062 137.171)" fill="#FF0000"/>
<rect x="129.548" y="135.385" width="2.34179" height="2.30664" transform="rotate(-130.275 129.548 135.385)" fill="#FF0000"/>
<rect x="128.034" y="133.598" width="2.3418" height="2.30664" transform="rotate(-130.275 128.034 133.598)" fill="#FF0000"/>
<rect x="126.52" y="131.811" width="2.34179" height="2.30664" transform="rotate(-130.275 126.52 131.811)" fill="#FF0000"/>
<rect x="125.006" y="130.025" width="2.34179" height="2.30664" transform="rotate(-130.275 125.006 130.025)" fill="#FF0000"/>
<rect x="123.492" y="128.238" width="2.34179" height="2.30664" transform="rotate(-130.275 123.492 128.238)" fill="#FF0000"/>
<rect x="121.979" y="126.451" width="2.34179" height="2.30664" transform="rotate(-130.275 121.979 126.451)" fill="#FF0000"/>
<rect x="120.465" y="124.665" width="2.34179" height="2.30664" transform="rotate(-130.275 120.465 124.665)" fill="#FF0000"/>
<rect x="118.951" y="122.878" width="2.34179" height="2.30664" transform="rotate(-130.275 118.951 122.878)" fill="#FF0000"/>
<rect x="120.711" y="121.387" width="2.34179" height="2.30664" transform="rotate(-130.275 120.711 121.387)" fill="#FF0000"/>
<rect x="117.437" y="121.091" width="2.34179" height="2.30664" transform="rotate(-130.275 117.437 121.091)" fill="#FF0000"/>
<rect x="132.33" y="142.236" width="2.34179" height="2.30664" transform="rotate(-130.275 132.33 142.236)" fill="white"/>
<rect x="134.089" y="140.745" width="2.34179" height="2.30664" transform="rotate(-130.275 134.089 140.745)" fill="white"/>
<rect x="135.849" y="139.253" width="2.34179" height="2.30664" transform="rotate(-130.275 135.849 139.253)" fill="white"/>
<rect x="137.609" y="137.762" width="2.34179" height="2.30664" transform="rotate(-130.275 137.609 137.762)" fill="white"/>
<rect x="135.603" y="142.531" width="2.34179" height="2.30664" transform="rotate(-130.275 135.603 142.531)" fill="white"/>
<rect x="137.363" y="141.04" width="2.34179" height="2.30664" transform="rotate(-130.275 137.363 141.04)" fill="white"/>
<rect x="137.117" y="144.318" width="2.34179" height="2.30664" transform="rotate(-130.275 137.117 144.318)" fill="white"/>
<rect x="130.816" y="140.449" width="2.34179" height="2.30664" transform="rotate(-130.275 130.816 140.449)" fill="white"/>
<rect x="132.576" y="138.958" width="2.34179" height="2.30664" transform="rotate(-130.275 132.576 138.958)" fill="white"/>
<rect x="134.335" y="137.467" width="2.34179" height="2.30664" transform="rotate(-130.275 134.335 137.467)" fill="white"/>
<rect x="136.095" y="135.976" width="2.34179" height="2.30664" transform="rotate(-130.275 136.095 135.976)" fill="white"/>
<rect x="129.302" y="138.662" width="2.3418" height="2.30664" transform="rotate(-130.275 129.302 138.662)" fill="white"/>
<rect x="131.062" y="137.171" width="2.3418" height="2.30664" transform="rotate(-130.275 131.062 137.171)" fill="white"/>
<rect x="132.822" y="135.68" width="2.3418" height="2.30664" transform="rotate(-130.275 132.822 135.68)" fill="white"/>
<rect x="134.581" y="134.189" width="2.3418" height="2.30664" transform="rotate(-130.275 134.581 134.189)" fill="white"/>
<rect x="127.788" y="136.876" width="2.34179" height="2.30664" transform="rotate(-130.275 127.788 136.876)" fill="white"/>
<rect x="129.548" y="135.385" width="2.34179" height="2.30664" transform="rotate(-130.275 129.548 135.385)" fill="white"/>
<rect x="131.308" y="133.893" width="2.34179" height="2.30664" transform="rotate(-130.275 131.308 133.893)" fill="white"/>
<rect x="133.068" y="132.402" width="2.34179" height="2.30664" transform="rotate(-130.275 133.068 132.402)" fill="white"/>
<rect x="126.274" y="135.089" width="2.3418" height="2.30664" transform="rotate(-130.275 126.274 135.089)" fill="white"/>
<rect x="128.034" y="133.598" width="2.3418" height="2.30664" transform="rotate(-130.275 128.034 133.598)" fill="white"/>
<rect x="129.794" y="132.107" width="2.3418" height="2.30664" transform="rotate(-130.275 129.794 132.107)" fill="white"/>
<rect x="131.554" y="130.616" width="2.3418" height="2.30664" transform="rotate(-130.275 131.554 130.616)" fill="white"/>
<rect x="126.52" y="131.811" width="2.34179" height="2.30664" transform="rotate(-130.275 126.52 131.811)" fill="white"/>
<rect x="128.28" y="130.32" width="2.34179" height="2.30664" transform="rotate(-130.275 128.28 130.32)" fill="white"/>
<rect x="125.006" y="130.025" width="2.34179" height="2.30664" transform="rotate(-130.275 125.006 130.025)" fill="white"/>
<path fill-rule="evenodd" clip-rule="evenodd" d="M121.937 235.863L41.1483 124.937L51.1084 117.683L51.1084 117.683L52.1657 116.913L43.8578 105.506L59.2134 94.3223L154.696 225.423L139.34 236.606L132.954 227.839L126.847 232.287L121.937 235.863Z" fill="#F694C1"/>
<path fill-rule="evenodd" clip-rule="evenodd" d="M46.932 243.716L8.73907 191.276L15.3324 186.474L5.02046 172.315L11.6136 167.513L7.60323 162.007L34.9214 142.11L102.352 234.695L75.0334 254.591L69.6667 247.222L63.0735 252.024L53.5253 238.914L46.932 243.716Z" fill="#F694C1"/>
<rect width="7.7714" height="8.74283" transform="matrix(0.588721 0.808336 0.808336 -0.588721 1.72095 195.865)" fill="black"/>
<rect width="9.71425" height="8.74283" transform="matrix(0.588721 0.808336 0.808336 -0.588721 6.29608 202.147)" fill="black"/>
<rect width="7.7714" height="8.74283" transform="matrix(0.588721 0.808336 0.808336 -0.588721 16.5903 216.281)" fill="black"/>
<rect width="7.7714" height="8.74283" transform="matrix(0.588721 0.808336 0.808336 -0.588721 21.1655 222.563)" fill="black"/>
<rect width="7.7714" height="8.74283" transform="matrix(0.588721 0.808336 0.808336 -0.588721 25.7407 228.845)" fill="black"/>
<rect width="7.7714" height="8.74283" transform="matrix(0.588721 0.808336 0.808336 -0.588721 30.3159 235.127)" fill="black"/>
<rect width="9.71425" height="8.74283" transform="matrix(0.588721 0.808336 0.808336 -0.588721 34.8911 241.408)" fill="black"/>
<rect width="7.7714" height="7.7714" transform="matrix(0.588721 0.808336 0.808336 -0.588721 4.21289 184.436)" fill="black"/>
<rect width="7.7714" height="7.7714" transform="matrix(0.588721 0.808336 0.808336 -0.588721 -0.362305 178.154)" fill="black"/>
<rect width="7.7714" height="7.7714" transform="matrix(0.588721 0.808336 0.808336 -0.588721 1.34439 167.297)" fill="black"/>
<rect width="7.7714" height="7.7714" transform="matrix(0.588721 0.808336 0.808336 -0.588721 47.6772 244.114)" fill="black"/>
<rect width="7.7714" height="7.7714" transform="matrix(0.588721 0.808336 0.808336 -0.588721 52.2524 250.396)" fill="black"/>
<rect width="7.7714" height="7.7714" transform="matrix(0.588721 0.808336 0.808336 -0.588721 63.1095 252.102)" fill="black"/>
<rect width="7.7714" height="7.7714" transform="matrix(0.588721 0.808336 0.808336 -0.588721 73.9666 253.809)" fill="black"/>
<rect width="7.7714" height="9.71425" transform="matrix(0.588721 0.808336 0.808336 -0.588721 80.2484 249.234)" fill="black"/>
<rect width="7.7714" height="7.7714" transform="matrix(0.588721 0.808336 0.808336 -0.588721 88.1008 243.515)" fill="black"/>
<rect width="7.7714" height="7.7714" transform="matrix(0.588721 0.808336 0.808336 -0.588721 94.3828 238.94)" fill="black"/>
<rect width="7.7714" height="7.7714" transform="matrix(0.588721 0.808336 0.808336 -0.588721 100.665 234.365)" fill="black"/>
<rect width="7.7714" height="7.7714" transform="matrix(0.588721 0.808336 0.808336 -0.588721 106.947 229.789)" fill="black"/>
<rect width="7.7714" height="7.7714" transform="matrix(0.588721 0.808336 0.808336 -0.588721 3.05115 156.44)" fill="black"/>
<rect width="7.7714" height="9.71425" transform="matrix(0.588721 0.808336 0.808336 -0.588721 9.33304 151.864)" fill="black"/>
<rect width="7.7714" height="7.7714" transform="matrix(0.588721 0.808336 0.808336 -0.588721 17.1854 146.145)" fill="black"/>
<rect width="7.7714" height="7.7714" transform="matrix(0.588721 0.808336 0.808336 -0.588721 23.4673 141.57)" fill="black"/>
<rect width="7.7714" height="7.7714" transform="matrix(0.588721 0.808336 0.808336 -0.588721 29.7492 136.995)" fill="black"/>
<rect width="7.7714" height="7.7714" transform="matrix(0.588721 0.808336 0.808336 -0.588721 36.0311 132.42)" fill="black"/>
<rect width="7.7714" height="7.7714" transform="matrix(0.588721 0.808336 0.808336 -0.588721 40.6063 138.702)" fill="black"/>
<rect width="7.7714" height="7.7714" transform="matrix(0.588721 0.808336 0.808336 -0.588721 45.1815 144.984)" fill="black"/>
<rect width="7.7714" height="7.7714" transform="matrix(0.588721 0.808336 0.808336 -0.588721 49.7567 151.266)" fill="black"/>
<rect width="7.7714" height="7.7714" transform="matrix(0.588721 0.808336 0.808336 -0.588721 54.3319 157.547)" fill="black"/>
<rect width="9.71425" height="7.7714" transform="matrix(0.588721 0.808336 0.808336 -0.588721 58.9071 163.829)" fill="black"/>
<rect width="7.7714" height="7.7714" transform="matrix(0.588721 0.808336 0.808336 -0.588721 64.6261 171.682)" fill="black"/>
<rect width="7.7714" height="7.7714" transform="matrix(0.588721 0.808336 0.808336 -0.588721 69.2013 177.964)" fill="black"/>
<rect width="7.7714" height="7.7714" transform="matrix(0.588721 0.808336 0.808336 -0.588721 73.7765 184.246)" fill="black"/>
<rect width="7.7714" height="7.7714" transform="matrix(0.588721 0.808336 0.808336 -0.588721 78.3516 190.527)" fill="black"/>
<rect width="7.7714" height="7.7714" transform="matrix(0.588721 0.808336 0.808336 -0.588721 82.9268 196.809)" fill="black"/>
<rect width="9.71425" height="7.7714" transform="matrix(0.588721 0.808336 0.808336 -0.588721 87.502 203.091)" fill="black"/>
<rect width="7.7714" height="7.7714" transform="matrix(0.588721 0.808336 0.808336 -0.588721 93.221 210.944)" fill="black"/>
<rect width="7.7714" height="7.7714" transform="matrix(0.588721 0.808336 0.808336 -0.588721 97.7961 217.226)" fill="black"/>
<rect width="7.7714" height="7.7714" transform="matrix(0.588721 0.808336 0.808336 -0.588721 102.371 223.507)" fill="black"/>
<rect width="7.7714" height="7.7714" transform="matrix(0.588721 0.808336 0.808336 -0.588721 34.3244 143.277)" fill="black"/>
<rect width="7.7714" height="7.7714" transform="matrix(0.588721 0.808336 0.808336 -0.588721 38.8996 149.559)" fill="black"/>
<rect width="7.7714" height="7.7714" transform="matrix(0.588721 0.808336 0.808336 -0.588721 43.4748 155.841)" fill="black"/>
<rect width="7.7714" height="7.7714" transform="matrix(0.588721 0.808336 0.808336 -0.588721 48.05 162.123)" fill="black"/>
<rect width="9.71425" height="7.7714" transform="matrix(0.588721 0.808336 0.808336 -0.588721 52.6251 168.405)" fill="black"/>
<rect width="7.7714" height="7.7714" transform="matrix(0.588721 0.808336 0.808336 -0.588721 58.3442 176.257)" fill="black"/>
<rect width="7.7714" height="7.7714" transform="matrix(0.588721 0.808336 0.808336 -0.588721 62.9193 182.539)" fill="black"/>
<rect width="7.7714" height="7.7714" transform="matrix(0.588721 0.808336 0.808336 -0.588721 67.4945 188.821)" fill="black"/>
<rect width="7.7714" height="7.7714" transform="matrix(0.588721 0.808336 0.808336 -0.588721 72.0697 195.103)" fill="black"/>
<rect width="7.7714" height="7.7714" transform="matrix(0.588721 0.808336 0.808336 -0.588721 76.6449 201.385)" fill="black"/>
<rect width="9.71425" height="7.7714" transform="matrix(0.588721 0.808336 0.808336 -0.588721 81.2201 207.666)" fill="black"/>
<rect width="7.7714" height="7.7714" transform="matrix(0.588721 0.808336 0.808336 -0.588721 86.9391 215.519)" fill="black"/>
<rect width="7.7714" height="7.7714" transform="matrix(0.588721 0.808336 0.808336 -0.588721 91.5143 221.801)" fill="black"/>
<rect width="7.7714" height="7.7714" transform="matrix(0.588721 0.808336 0.808336 -0.588721 96.0895 228.083)" fill="black"/>
<rect width="7.7714" height="9.71425" transform="matrix(0.588721 0.808336 0.808336 -0.588721 117.804 231.496)" fill="black"/>
<rect width="9.71425" height="7.7714" transform="matrix(0.588721 0.808336 0.808336 -0.588721 130.231 232.059)" fill="black"/>
<rect width="7.7714" height="7.7714" transform="matrix(0.588721 0.808336 0.808336 -0.588721 125.656 225.777)" fill="black"/>
<rect width="7.7714" height="7.7714" transform="matrix(0.588721 0.808336 0.808336 -0.588721 142.232 235.336)" fill="black"/>
<rect width="7.7714" height="7.7714" transform="matrix(0.588721 0.808336 0.808336 -0.588721 129.069 204.063)" fill="black"/>
<rect width="7.7714" height="7.7714" transform="matrix(0.588721 0.808336 0.808336 -0.588721 148.514 230.761)" fill="black"/>
<rect width="7.7714" height="7.7714" transform="matrix(0.588721 0.808336 0.808336 -0.588721 153.089 237.043)" fill="black"/>
<rect width="9.71425" height="9.71425" transform="matrix(0.588721 0.808336 0.808336 -0.588721 36.5941 119.992)" fill="black"/>
<rect width="7.7714" height="7.7714" transform="matrix(0.588721 0.808336 0.808336 -0.588721 39.8713 107.991)" fill="black"/>
<rect width="9.71425" height="7.7714" transform="matrix(0.588721 0.808336 0.808336 -0.588721 44.4464 114.273)" fill="black"/>
<rect width="7.7714" height="7.7714" transform="matrix(0.588721 0.808336 0.808336 -0.588721 47.8599 92.5591)" fill="black"/>
<path d="M52.4351 98.841L57.0102 105.123L63.2922 100.548L58.717 94.2658L52.4351 98.841Z" fill="black"/>
<path d="M57.0103 105.123L62.7292 112.975L69.0111 108.4L63.2922 100.548L57.0103 105.123Z" fill="black"/>
<path d="M62.7292 112.975L67.3044 119.257L73.5863 114.682L69.0111 108.4L62.7292 112.975Z" fill="black"/>
<path d="M67.3044 119.257L71.8796 125.539L78.1615 120.964L73.5863 114.682L67.3044 119.257Z" fill="black"/>
<path d="M71.8796 125.539L76.4548 131.821L82.7367 127.246L78.1615 120.964L71.8796 125.539Z" fill="black"/>
<path d="M76.4548 131.821L81.03 138.103L87.3119 133.528L82.7367 127.246L76.4548 131.821Z" fill="black"/>
<path d="M81.0299 138.103L85.6051 144.385L91.887 139.81L87.3118 133.528L81.0299 138.103Z" fill="black"/>
<path d="M91.8871 139.81L97.6061 147.662L104.673 142.515L98.9542 134.663L91.8871 139.81Z" fill="black"/>
<path d="M97.6061 147.662L102.181 153.944L109.248 148.797L104.673 142.515L97.6061 147.662Z" fill="black"/>
<path d="M102.181 153.944L106.756 160.226L113.824 155.079L109.248 148.797L102.181 153.944Z" fill="black"/>
<path d="M106.756 160.226L111.332 166.508L118.399 161.361L113.824 155.079L106.756 160.226Z" fill="black"/>
<path d="M111.332 166.508L115.907 172.79L122.974 167.643L118.399 161.361L111.332 166.508Z" fill="black"/>
<path d="M111.332 166.508L120.482 179.072L127.549 173.924L118.399 161.361L111.332 166.508Z" fill="black"/>
<path d="M114.2 183.647L129.069 204.063L135.351 199.488L120.482 179.072L114.2 183.647Z" fill="black"/>
<path d="M133.645 210.345L148.514 230.761L154.796 226.186L139.927 205.77L133.645 210.345Z" fill="black"/>
<rect width="7.7714" height="7.7714" transform="matrix(0.588721 0.808336 0.808336 -0.588721 41.578 97.1343)" fill="black"/>
<rect width="7.7714" height="7.7714" transform="matrix(0.588721 0.808336 0.808336 -0.588721 70.1729 136.396)" fill="black"/>
<rect width="7.7714" height="8.74283" transform="matrix(0.588721 0.808336 0.808336 -0.588721 12.0151 209.999)" fill="black"/>
<rect width="7.7714" height="8.74283" transform="matrix(0.588721 0.808336 0.808336 -0.588721 1.72095 195.865)" fill="black"/>
<rect width="9.71425" height="8.74283" transform="matrix(0.588721 0.808336 0.808336 -0.588721 6.29608 202.147)" fill="black"/>
<rect width="7.7714" height="8.74283" transform="matrix(0.588721 0.808336 0.808336 -0.588721 16.5903 216.281)" fill="black"/>
<rect width="7.7714" height="8.74283" transform="matrix(0.588721 0.808336 0.808336 -0.588721 21.1655 222.563)" fill="black"/>
<rect width="7.7714" height="8.74283" transform="matrix(0.588721 0.808336 0.808336 -0.588721 25.7407 228.845)" fill="black"/>
<rect width="7.7714" height="8.74283" transform="matrix(0.588721 0.808336 0.808336 -0.588721 30.3159 235.127)" fill="black"/>
<rect width="9.71425" height="8.74283" transform="matrix(0.588721 0.808336 0.808336 -0.588721 34.8911 241.408)" fill="black"/>
<rect width="7.7714" height="7.7714" transform="matrix(0.588721 0.808336 0.808336 -0.588721 4.21289 184.436)" fill="black"/>
<rect width="7.7714" height="7.7714" transform="matrix(0.588721 0.808336 0.808336 -0.588721 -0.362305 178.154)" fill="black"/>
<rect width="7.7714" height="7.7714" transform="matrix(0.588721 0.808336 0.808336 -0.588721 1.34439 167.297)" fill="black"/>
<rect width="7.7714" height="7.7714" transform="matrix(0.588721 0.808336 0.808336 -0.588721 47.6772 244.114)" fill="black"/>
<rect width="7.7714" height="7.7714" transform="matrix(0.588721 0.808336 0.808336 -0.588721 52.2524 250.396)" fill="black"/>
<rect width="7.7714" height="7.7714" transform="matrix(0.588721 0.808336 0.808336 -0.588721 63.1095 252.102)" fill="black"/>
<rect width="7.7714" height="7.7714" transform="matrix(0.588721 0.808336 0.808336 -0.588721 73.9666 253.809)" fill="black"/>
<rect width="7.7714" height="9.71425" transform="matrix(0.588721 0.808336 0.808336 -0.588721 80.2484 249.234)" fill="black"/>
<rect width="7.7714" height="7.7714" transform="matrix(0.588721 0.808336 0.808336 -0.588721 88.1008 243.515)" fill="black"/>
<rect width="7.7714" height="7.7714" transform="matrix(0.588721 0.808336 0.808336 -0.588721 94.3828 238.94)" fill="black"/>
<rect width="7.7714" height="7.7714" transform="matrix(0.588721 0.808336 0.808336 -0.588721 100.665 234.365)" fill="black"/>
<rect width="7.7714" height="7.7714" transform="matrix(0.588721 0.808336 0.808336 -0.588721 106.947 229.789)" fill="black"/>
<rect width="7.7714" height="7.7714" transform="matrix(0.588721 0.808336 0.808336 -0.588721 3.05115 156.44)" fill="black"/>
<rect width="7.7714" height="9.71425" transform="matrix(0.588721 0.808336 0.808336 -0.588721 9.33304 151.864)" fill="black"/>
<rect width="7.7714" height="7.7714" transform="matrix(0.588721 0.808336 0.808336 -0.588721 17.1854 146.145)" fill="black"/>
<rect width="7.7714" height="7.7714" transform="matrix(0.588721 0.808336 0.808336 -0.588721 23.4673 141.57)" fill="black"/>
<rect width="7.7714" height="7.7714" transform="matrix(0.588721 0.808336 0.808336 -0.588721 29.7492 136.995)" fill="black"/>
<rect width="7.7714" height="7.7714" transform="matrix(0.588721 0.808336 0.808336 -0.588721 36.0311 132.42)" fill="black"/>
<rect width="7.7714" height="7.7714" transform="matrix(0.588721 0.808336 0.808336 -0.588721 40.6063 138.702)" fill="black"/>
<rect width="7.7714" height="7.7714" transform="matrix(0.588721 0.808336 0.808336 -0.588721 45.1815 144.984)" fill="black"/>
<rect width="7.7714" height="7.7714" transform="matrix(0.588721 0.808336 0.808336 -0.588721 49.7567 151.266)" fill="black"/>
<rect width="7.7714" height="7.7714" transform="matrix(0.588721 0.808336 0.808336 -0.588721 54.3319 157.547)" fill="black"/>
<rect width="9.71425" height="7.7714" transform="matrix(0.588721 0.808336 0.808336 -0.588721 58.9071 163.829)" fill="black"/>
<rect width="7.7714" height="7.7714" transform="matrix(0.588721 0.808336 0.808336 -0.588721 64.6261 171.682)" fill="black"/>
<rect width="7.7714" height="7.7714" transform="matrix(0.588721 0.808336 0.808336 -0.588721 69.2013 177.964)" fill="black"/>
<rect width="7.7714" height="7.7714" transform="matrix(0.588721 0.808336 0.808336 -0.588721 73.7765 184.246)" fill="black"/>
<rect width="7.7714" height="7.7714" transform="matrix(0.588721 0.808336 0.808336 -0.588721 78.3516 190.527)" fill="black"/>
<rect width="7.7714" height="7.7714" transform="matrix(0.588721 0.808336 0.808336 -0.588721 82.9268 196.809)" fill="black"/>
<rect width="9.71425" height="7.7714" transform="matrix(0.588721 0.808336 0.808336 -0.588721 87.502 203.091)" fill="black"/>
<rect width="7.7714" height="7.7714" transform="matrix(0.588721 0.808336 0.808336 -0.588721 93.221 210.944)" fill="black"/>
<rect width="7.7714" height="7.7714" transform="matrix(0.588721 0.808336 0.808336 -0.588721 97.7961 217.226)" fill="black"/>
<rect width="7.7714" height="7.7714" transform="matrix(0.588721 0.808336 0.808336 -0.588721 102.371 223.507)" fill="black"/>
<rect width="7.7714" height="7.7714" transform="matrix(0.588721 0.808336 0.808336 -0.588721 34.3244 143.277)" fill="black"/>
<rect width="7.7714" height="7.7714" transform="matrix(0.588721 0.808336 0.808336 -0.588721 38.8996 149.559)" fill="black"/>
<rect width="7.7714" height="7.7714" transform="matrix(0.588721 0.808336 0.808336 -0.588721 43.4748 155.841)" fill="black"/>
<rect width="7.7714" height="7.7714" transform="matrix(0.588721 0.808336 0.808336 -0.588721 48.05 162.123)" fill="black"/>
<rect width="9.71425" height="7.7714" transform="matrix(0.588721 0.808336 0.808336 -0.588721 52.6251 168.405)" fill="black"/>
<rect width="7.7714" height="7.7714" transform="matrix(0.588721 0.808336 0.808336 -0.588721 58.3442 176.257)" fill="black"/>
<rect width="7.7714" height="7.7714" transform="matrix(0.588721 0.808336 0.808336 -0.588721 62.9193 182.539)" fill="black"/>
<rect width="7.7714" height="7.7714" transform="matrix(0.588721 0.808336 0.808336 -0.588721 67.4945 188.821)" fill="black"/>
<rect width="7.7714" height="7.7714" transform="matrix(0.588721 0.808336 0.808336 -0.588721 72.0697 195.103)" fill="black"/>
<rect width="7.7714" height="7.7714" transform="matrix(0.588721 0.808336 0.808336 -0.588721 76.6449 201.385)" fill="black"/>
<rect width="9.71425" height="7.7714" transform="matrix(0.588721 0.808336 0.808336 -0.588721 81.2201 207.666)" fill="black"/>
<rect width="7.7714" height="7.7714" transform="matrix(0.588721 0.808336 0.808336 -0.588721 86.9391 215.519)" fill="black"/>
<rect width="7.7714" height="7.7714" transform="matrix(0.588721 0.808336 0.808336 -0.588721 91.5143 221.801)" fill="black"/>
<rect width="7.7714" height="7.7714" transform="matrix(0.588721 0.808336 0.808336 -0.588721 96.0895 228.083)" fill="black"/>
<rect width="7.7714" height="9.71425" transform="matrix(0.588721 0.808336 0.808336 -0.588721 117.804 231.496)" fill="black"/>
<rect width="9.71425" height="7.7714" transform="matrix(0.588721 0.808336 0.808336 -0.588721 130.231 232.059)" fill="black"/>
<rect width="7.7714" height="7.7714" transform="matrix(0.588721 0.808336 0.808336 -0.588721 125.656 225.777)" fill="black"/>
<rect width="7.7714" height="7.7714" transform="matrix(0.588721 0.808336 0.808336 -0.588721 142.232 235.336)" fill="black"/>
<rect width="7.7714" height="7.7714" transform="matrix(0.588721 0.808336 0.808336 -0.588721 129.069 204.063)" fill="black"/>
<rect width="7.7714" height="7.7714" transform="matrix(0.588721 0.808336 0.808336 -0.588721 148.514 230.761)" fill="black"/>
<rect width="7.7714" height="7.7714" transform="matrix(0.588721 0.808336 0.808336 -0.588721 153.089 237.043)" fill="black"/>
<rect width="9.71425" height="9.71425" transform="matrix(0.588721 0.808336 0.808336 -0.588721 36.5941 119.992)" fill="black"/>
<rect width="7.7714" height="7.7714" transform="matrix(0.588721 0.808336 0.808336 -0.588721 39.8713 107.991)" fill="black"/>
<rect width="9.71425" height="7.7714" transform="matrix(0.588721 0.808336 0.808336 -0.588721 44.4464 114.273)" fill="black"/>
<rect width="7.7714" height="7.7714" transform="matrix(0.588721 0.808336 0.808336 -0.588721 47.8599 92.5591)" fill="black"/>
<path d="M52.4351 98.841L57.0102 105.123L63.2922 100.548L58.717 94.2658L52.4351 98.841Z" fill="black"/>
<path d="M57.0103 105.123L62.7292 112.975L69.0111 108.4L63.2922 100.548L57.0103 105.123Z" fill="black"/>
<path d="M62.7292 112.975L67.3044 119.257L73.5863 114.682L69.0111 108.4L62.7292 112.975Z" fill="black"/>
<path d="M67.3044 119.257L71.8796 125.539L78.1615 120.964L73.5863 114.682L67.3044 119.257Z" fill="black"/>
<path d="M71.8796 125.539L76.4548 131.821L82.7367 127.246L78.1615 120.964L71.8796 125.539Z" fill="black"/>
<path d="M76.4548 131.821L81.03 138.103L87.3119 133.528L82.7367 127.246L76.4548 131.821Z" fill="black"/>
<path d="M81.0299 138.103L85.6051 144.385L91.887 139.81L87.3118 133.528L81.0299 138.103Z" fill="black"/>
<path d="M91.8871 139.81L97.6061 147.662L104.673 142.515L98.9542 134.663L91.8871 139.81Z" fill="black"/>
<path d="M97.6061 147.662L102.181 153.944L109.248 148.797L104.673 142.515L97.6061 147.662Z" fill="black"/>
<path d="M102.181 153.944L106.756 160.226L113.824 155.079L109.248 148.797L102.181 153.944Z" fill="black"/>
<path d="M106.756 160.226L111.332 166.508L118.399 161.361L113.824 155.079L106.756 160.226Z" fill="black"/>
<path d="M111.332 166.508L115.907 172.79L122.974 167.643L118.399 161.361L111.332 166.508Z" fill="black"/>
<path d="M111.332 166.508L120.482 179.072L127.549 173.924L118.399 161.361L111.332 166.508Z" fill="black"/>
<path d="M114.2 183.647L129.069 204.063L135.351 199.488L120.482 179.072L114.2 183.647Z" fill="black"/>
<path d="M133.645 210.345L148.514 230.761L154.796 226.186L139.927 205.77L133.645 210.345Z" fill="black"/>
<rect width="7.7714" height="7.7714" transform="matrix(0.588721 0.808336 0.808336 -0.588721 41.578 97.1343)" fill="black"/>
<rect width="7.7714" height="7.7714" transform="matrix(0.588721 0.808336 0.808336 -0.588721 70.1729 136.396)" fill="black"/>
<rect width="7.7714" height="8.74283" transform="matrix(0.588721 0.808336 0.808336 -0.588721 12.0151 209.999)" fill="black"/>
<rect x="198.101" y="53.0412" width="4.17954" height="4.17955" transform="rotate(50.6395 198.101 53.0412)" fill="#FF90B3"/>
<rect x="194.869" y="55.6918" width="4.17954" height="4.17953" transform="rotate(50.6395 194.869 55.6918)" fill="#FF90B3"/>
<rect x="188.987" y="55.111" width="4.17953" height="4.17953" transform="rotate(50.6395 188.987 55.111)" fill="#FF90B3"/>
<rect x="185.755" y="57.7617" width="4.17953" height="4.17953" transform="rotate(50.6395 185.755 57.7617)" fill="#FF90B3"/>
<rect x="182.524" y="60.4123" width="4.17953" height="4.17953" transform="rotate(50.6395 182.524 60.4123)" fill="#FF90B3"/>
<rect x="179.292" y="63.063" width="4.17953" height="4.17955" transform="rotate(50.6395 179.292 63.063)" fill="#FF90B3"/>
<rect x="228.747" y="103.583" width="4.17954" height="4.17953" transform="rotate(50.6395 228.747 103.583)" fill="#FF90B3"/>
<rect x="225.515" y="106.234" width="4.17954" height="4.17953" transform="rotate(50.6395 225.515 106.234)" fill="#FF90B3"/>
<rect x="222.284" y="108.885" width="4.17954" height="4.17953" transform="rotate(50.6395 222.284 108.885)" fill="#FF90B3"/>
<rect x="219.052" y="111.535" width="4.17954" height="4.17955" transform="rotate(50.6395 219.052 111.535)" fill="#FF90B3"/>
<rect x="178.712" y="68.9451" width="4.17954" height="4.17952" transform="rotate(50.6395 178.712 68.9451)" fill="#FF90B3"/>
<rect x="175.48" y="71.5958" width="4.17954" height="4.17955" transform="rotate(50.6395 175.48 71.5958)" fill="#FF90B3"/>
<rect x="174.899" y="77.4779" width="4.17954" height="4.17952" transform="rotate(50.6395 174.899 77.4779)" fill="#FF90B3"/>
<rect x="177.55" y="80.7094" width="4.17953" height="4.17952" transform="rotate(50.6395 177.55 80.7094)" fill="#FF90B3"/>
<rect x="203.983" y="53.622" width="4.17954" height="4.17953" transform="rotate(50.6395 203.983 53.622)" fill="#FF90B3"/>
<rect x="206.633" y="56.8535" width="4.17953" height="4.17953" transform="rotate(50.6395 206.633 56.8535)" fill="#FF90B3"/>
<rect x="206.053" y="62.7357" width="4.17953" height="4.17955" transform="rotate(50.6395 206.053 62.7357)" fill="#FF90B3"/>
<rect x="205.472" y="68.6178" width="4.17954" height="4.17953" transform="rotate(50.6395 205.472 68.6178)" fill="#FF90B3"/>
<rect x="204.891" y="74.5" width="4.17953" height="4.17953" transform="rotate(50.6395 204.891 74.5)" fill="#FF90B3"/>
<rect x="221.376" y="88.0068" width="4.17953" height="4.17953" transform="rotate(50.6395 221.376 88.0068)" fill="#FF90B3"/>
<rect x="218.725" y="84.7753" width="4.17954" height="4.17953" transform="rotate(50.6395 218.725 84.7753)" fill="#FF90B3"/>
<rect x="212.843" y="84.1945" width="4.17953" height="4.17953" transform="rotate(50.6395 212.843 84.1945)" fill="#FF90B3"/>
<rect x="210.192" y="80.963" width="4.17953" height="4.17953" transform="rotate(50.6395 210.192 80.963)" fill="#FF90B3"/>
<rect x="207.542" y="77.7315" width="4.17953" height="4.17953" transform="rotate(50.6395 207.542 77.7315)" fill="#FF90B3"/>
<rect x="201.659" y="77.1506" width="4.17953" height="4.17953" transform="rotate(50.6395 201.659 77.1506)" fill="#FF90B3"/>
<rect x="209.611" y="86.8451" width="4.17953" height="4.17953" transform="rotate(50.6395 209.611 86.8451)" fill="#FF90B3"/>
<rect x="206.961" y="83.6136" width="4.17953" height="4.17953" transform="rotate(50.6395 206.961 83.6136)" fill="#FF90B3"/>
<rect x="204.31" y="80.3821" width="4.17953" height="4.17953" transform="rotate(50.6395 204.31 80.3821)" fill="#FF90B3"/>
<rect x="198.428" y="79.8013" width="4.17953" height="4.17953" transform="rotate(50.6395 198.428 79.8013)" fill="#FF90B3"/>
<rect x="206.38" y="89.4958" width="4.17953" height="4.17953" transform="rotate(50.6395 206.38 89.4958)" fill="#FF90B3"/>
<rect x="203.729" y="86.2643" width="4.17953" height="4.17953" transform="rotate(50.6395 203.729 86.2643)" fill="#FF90B3"/>
<rect x="201.079" y="83.0328" width="4.17953" height="4.17953" transform="rotate(50.6395 201.079 83.0328)" fill="#FF90B3"/>
<rect x="218.144" y="90.6574" width="4.17953" height="4.17953" transform="rotate(50.6395 218.144 90.6574)" fill="#FF90B3"/>
<rect x="226.096" y="100.352" width="4.17953" height="4.17953" transform="rotate(50.6395 226.096 100.352)" fill="#FF90B3"/>
<rect x="223.445" y="97.1205" width="4.17953" height="4.17953" transform="rotate(50.6395 223.445 97.1205)" fill="#FF90B3"/>
<rect x="220.795" y="93.8889" width="4.17954" height="4.17953" transform="rotate(50.6395 220.795 93.8889)" fill="#FF90B3"/>
<rect x="224.026" y="91.2383" width="4.17954" height="4.17953" transform="rotate(50.6395 224.026 91.2383)" fill="#FF90B3"/>
<rect x="224.026" y="91.2383" width="8.35908" height="4.17953" transform="rotate(50.6395 224.026 91.2383)" fill="#FF90B3"/>
<rect x="224.026" y="91.2383" width="12.5386" height="4.17953" transform="rotate(50.6395 224.026 91.2383)" fill="#FF90B3"/>
<rect x="227.258" y="88.5876" width="12.5386" height="4.17955" transform="rotate(50.6395 227.258 88.5876)" fill="#FF90B3"/>
<rect x="214.913" y="93.3081" width="4.17953" height="4.17953" transform="rotate(50.6395 214.913 93.3081)" fill="#FF90B3"/>
<rect x="222.865" y="103.003" width="4.17953" height="4.17953" transform="rotate(50.6395 222.865 103.003)" fill="#FF90B3"/>
<rect x="220.214" y="99.7711" width="4.17953" height="4.17953" transform="rotate(50.6395 220.214 99.7711)" fill="#FF90B3"/>
<rect x="217.563" y="96.5396" width="4.17954" height="4.17953" transform="rotate(50.6395 217.563 96.5396)" fill="#FF90B3"/>
<rect x="211.681" y="95.9587" width="4.17953" height="4.17953" transform="rotate(50.6395 211.681 95.9587)" fill="#FF90B3"/>
<rect x="219.633" y="105.653" width="4.17953" height="4.17953" transform="rotate(50.6395 219.633 105.653)" fill="#FF90B3"/>
<rect x="216.982" y="102.422" width="4.17953" height="4.17953" transform="rotate(50.6395 216.982 102.422)" fill="#FF90B3"/>
<rect x="214.332" y="99.1902" width="4.17954" height="4.17953" transform="rotate(50.6395 214.332 99.1902)" fill="#FF90B3"/>
<rect x="208.45" y="98.6094" width="4.17953" height="4.17955" transform="rotate(50.6395 208.45 98.6094)" fill="#FF90B3"/>
<rect x="216.402" y="108.304" width="4.17953" height="4.17955" transform="rotate(50.6395 216.402 108.304)" fill="#FF90B3"/>
<rect x="213.751" y="105.072" width="4.17953" height="4.17955" transform="rotate(50.6395 213.751 105.072)" fill="#FF90B3"/>
<rect x="211.1" y="101.841" width="4.17954" height="4.17955" transform="rotate(50.6395 211.1 101.841)" fill="#FF90B3"/>
<rect x="205.218" y="101.26" width="4.17953" height="4.17952" transform="rotate(50.6395 205.218 101.26)" fill="#FF90B3"/>
<rect x="213.17" y="110.955" width="4.17953" height="4.17952" transform="rotate(50.6395 213.17 110.955)" fill="#FF90B3"/>
<rect x="210.519" y="107.723" width="4.17953" height="4.17952" transform="rotate(50.6395 210.519 107.723)" fill="#FF90B3"/>
<rect x="207.869" y="104.492" width="4.17954" height="4.17952" transform="rotate(50.6395 207.869 104.492)" fill="#FF90B3"/>
<rect x="201.987" y="103.911" width="4.17953" height="4.17955" transform="rotate(50.6395 201.987 103.911)" fill="#FF90B3"/>
<rect x="209.939" y="113.605" width="4.17953" height="4.17955" transform="rotate(50.6395 209.939 113.605)" fill="#FF90B3"/>
<rect x="207.288" y="110.374" width="4.17953" height="4.17955" transform="rotate(50.6395 207.288 110.374)" fill="#FF90B3"/>
<rect x="204.637" y="107.142" width="4.17954" height="4.17955" transform="rotate(50.6395 204.637 107.142)" fill="#FF90B3"/>
<rect x="191.638" y="58.3425" width="4.17954" height="4.17953" transform="rotate(50.6395 191.638 58.3425)" fill="#FF90B3"/>
<rect x="199.59" y="68.037" width="4.17953" height="4.17953" transform="rotate(50.6395 199.59 68.037)" fill="#FF90B3"/>
<rect x="196.939" y="64.8055" width="4.17953" height="4.17953" transform="rotate(50.6395 196.939 64.8055)" fill="#FF90B3"/>
<rect x="194.288" y="61.574" width="4.17954" height="4.17953" transform="rotate(50.6395 194.288 61.574)" fill="#FF90B3"/>
<rect x="202.821" y="65.3863" width="4.17953" height="4.17953" transform="rotate(50.6395 202.821 65.3863)" fill="#FF90B3"/>
<rect x="200.17" y="62.1548" width="4.17953" height="4.17953" transform="rotate(50.6395 200.17 62.1548)" fill="#FF90B3"/>
<rect x="197.52" y="58.9233" width="4.17954" height="4.17953" transform="rotate(50.6395 197.52 58.9233)" fill="#FF90B3"/>
<rect x="206.053" y="62.7357" width="4.17953" height="4.17955" transform="rotate(50.6395 206.053 62.7357)" fill="#FF90B3"/>
<rect x="203.402" y="59.5042" width="4.17953" height="4.17955" transform="rotate(50.6395 203.402 59.5042)" fill="#FF90B3"/>
<rect x="200.751" y="56.2727" width="4.17954" height="4.17955" transform="rotate(50.6395 200.751 56.2727)" fill="#FF90B3"/>
<rect x="188.406" y="60.9931" width="4.17954" height="4.17953" transform="rotate(50.6395 188.406 60.9931)" fill="#FF90B3"/>
<rect x="196.358" y="70.6876" width="4.17953" height="4.17953" transform="rotate(50.6395 196.358 70.6876)" fill="#FF90B3"/>
<rect x="193.707" y="67.4561" width="4.17953" height="4.17953" transform="rotate(50.6395 193.707 67.4561)" fill="#FF90B3"/>
<rect x="191.057" y="64.2246" width="4.17954" height="4.17953" transform="rotate(50.6395 191.057 64.2246)" fill="#FF90B3"/>
<rect x="185.175" y="63.6438" width="4.17954" height="4.17953" transform="rotate(50.6395 185.175 63.6438)" fill="#FF90B3"/>
<rect x="193.127" y="73.3383" width="4.17953" height="4.17953" transform="rotate(50.6395 193.127 73.3383)" fill="#FF90B3"/>
<rect x="190.476" y="70.1068" width="4.17953" height="4.17953" transform="rotate(50.6395 190.476 70.1068)" fill="#FF90B3"/>
<rect x="187.825" y="66.8753" width="4.17954" height="4.17953" transform="rotate(50.6395 187.825 66.8753)" fill="#FF90B3"/>
<rect x="181.943" y="66.2944" width="4.17954" height="4.17955" transform="rotate(50.6395 181.943 66.2944)" fill="#FF90B3"/>
<rect x="189.895" y="75.9889" width="4.17953" height="4.17955" transform="rotate(50.6395 189.895 75.9889)" fill="#FF90B3"/>
<rect x="187.244" y="72.7574" width="4.17953" height="4.17955" transform="rotate(50.6395 187.244 72.7574)" fill="#FF90B3"/>
<rect x="184.594" y="69.5259" width="4.17954" height="4.17955" transform="rotate(50.6395 184.594 69.5259)" fill="#FF90B3"/>
<rect x="186.664" y="78.6396" width="4.17953" height="4.17952" transform="rotate(50.6395 186.664 78.6396)" fill="#FF90B3"/>
<rect x="184.013" y="75.4081" width="4.17953" height="4.17952" transform="rotate(50.6395 184.013 75.4081)" fill="#FF90B3"/>
<rect x="181.362" y="72.1766" width="4.17954" height="4.17952" transform="rotate(50.6395 181.362 72.1766)" fill="#FF90B3"/>
<rect x="183.432" y="81.2903" width="4.17953" height="4.17955" transform="rotate(50.6395 183.432 81.2903)" fill="#FF90B3"/>
<rect x="180.781" y="78.0587" width="4.17953" height="4.17955" transform="rotate(50.6395 180.781 78.0587)" fill="#FF90B3"/>
<rect x="178.131" y="74.8272" width="4.17954" height="4.17955" transform="rotate(50.6395 178.131 74.8272)" fill="#FF90B3"/>
<rect x="230.489" y="85.937" width="4.17954" height="4.17953" transform="rotate(50.6395 230.489 85.937)" fill="#FF90B3"/>
<rect x="233.14" y="89.1685" width="4.17953" height="4.17953" transform="rotate(50.6395 233.14 89.1685)" fill="#FF90B3"/>
<rect x="235.791" y="92.4" width="4.17953" height="4.17953" transform="rotate(50.6395 235.791 92.4)" fill="#FF90B3"/>
<rect x="201.406" y="109.793" width="4.17954" height="4.17952" transform="rotate(50.6395 201.406 109.793)" fill="#FF90B3"/>
<rect x="204.057" y="113.024" width="4.17953" height="4.17952" transform="rotate(50.6395 204.057 113.024)" fill="#FF90B3"/>
<rect x="206.707" y="116.256" width="4.17953" height="4.17952" transform="rotate(50.6395 206.707 116.256)" fill="#FF90B3"/>
<rect x="183.432" y="81.2903" width="4.17953" height="4.17955" transform="rotate(50.6395 183.432 81.2903)" fill="#FF90B3"/>
<rect x="194.616" y="88.3341" width="4.17953" height="4.17952" transform="rotate(50.6395 194.616 88.3341)" fill="#FF90B3"/>
<rect x="197.266" y="91.5656" width="4.17953" height="4.17952" transform="rotate(50.6395 197.266 91.5656)" fill="#FF90B3"/>
<rect x="210.773" y="75.0808" width="4.17953" height="4.17953" transform="rotate(50.6395 210.773 75.0808)" fill="#FF90B3"/>
<rect x="213.424" y="78.3123" width="4.17953" height="4.17953" transform="rotate(50.6395 213.424 78.3123)" fill="#FF90B3"/>
<rect x="205.799" y="95.3779" width="4.17954" height="4.17955" transform="rotate(50.6395 205.799 95.3779)" fill="#FF90B3"/>
<rect x="189.314" y="81.8711" width="4.17954" height="4.17952" transform="rotate(50.6395 189.314 81.8711)" fill="#FF90B3"/>
<rect x="201.987" y="103.911" width="4.17953" height="4.17955" transform="rotate(50.6395 201.987 103.911)" fill="#FF90B3"/>
<rect x="202.568" y="98.0286" width="8.35908" height="4.17952" transform="rotate(50.6395 202.568 98.0286)" fill="#FF90B3"/>
<rect x="192.546" y="79.2204" width="8.35908" height="4.17955" transform="rotate(50.6395 192.546 79.2204)" fill="#FF90B3"/>
<rect x="197.847" y="85.6834" width="12.5386" height="4.17955" transform="rotate(50.6395 197.847 85.6834)" fill="#FF90B3"/>
</g>
<defs>
<clipPath id="clip0_407_34779">
<rect width="415" height="365" fill="white" transform="translate(0 -107)"/>
</clipPath>
</defs>
</svg>
