<svg width="109" height="47" viewBox="0 0 109 47" fill="none" xmlns="http://www.w3.org/2000/svg">
<rect x="25.7195" y="15.7515" width="5.25" height="5.2" transform="rotate(-11.5381 25.7195 15.7515)" fill="#1E1E1E"/>
<rect x="26.7596" y="20.8464" width="5.25" height="5.2" transform="rotate(-11.5381 26.7596 20.8464)" fill="#1E1E1E"/>
<rect x="6.18396" y="25.0469" width="5.25" height="5.2" transform="rotate(-11.5381 6.18396 25.0469)" fill="#1E1E1E"/>
<rect x="6.18396" y="25.0469" width="10.5" height="5.2" transform="rotate(-11.5381 6.18396 25.0469)" fill="#1E1E1E"/>
<rect x="8.26416" y="35.2366" width="15.75" height="5.2" transform="rotate(-11.5381 8.26416 35.2366)" fill="#1E1E1E"/>
<rect x="7.22412" y="30.1416" width="15.75" height="5.2" transform="rotate(-11.5381 7.22412 30.1416)" fill="#1E1E1E"/>
<rect x="27.7997" y="25.9412" width="5.25" height="5.2" transform="rotate(-11.5381 27.7997 25.9412)" fill="#1E1E1E"/>
<rect x="42.1914" y="17.696" width="5.25" height="5.2" transform="rotate(-11.5381 42.1914 17.696)" fill="#1E1E1E"/>
<rect x="43.2314" y="22.791" width="5.25" height="5.2" transform="rotate(-11.5381 43.2314 22.791)" fill="#1E1E1E"/>
<rect x="21.6157" y="21.8965" width="5.25" height="5.2" transform="rotate(-11.5381 21.6157 21.8965)" fill="#1E1E1E"/>
<rect x="22.6559" y="26.9915" width="5.25" height="5.2" transform="rotate(-11.5381 22.6559 26.9915)" fill="#1E1E1E"/>
<rect x="26.7596" y="20.8464" width="5.25" height="5.2" transform="rotate(-11.5381 26.7596 20.8464)" fill="#1E1E1E"/>
<rect x="27.7997" y="25.9412" width="5.25" height="5.2" transform="rotate(-11.5381 27.7997 25.9412)" fill="#1E1E1E"/>
<rect x="37.0475" y="18.7461" width="5.25" height="5.2" transform="rotate(-11.5381 37.0475 18.7461)" fill="#1E1E1E"/>
<rect x="38.0875" y="23.8411" width="5.25" height="5.2" transform="rotate(-11.5381 38.0875 23.8411)" fill="#1E1E1E"/>
<rect x="31.9036" y="19.7961" width="5.25" height="5.2" transform="rotate(-11.5381 31.9036 19.7961)" fill="#1E1E1E"/>
<rect x="32.9436" y="24.8911" width="5.25" height="5.2" transform="rotate(-11.5381 32.9436 24.8911)" fill="#1E1E1E"/>
<rect x="28.8398" y="31.0361" width="5.25" height="5.2" transform="rotate(-11.5381 28.8398 31.0361)" fill="#1E1E1E"/>
<rect x="28.8398" y="31.0361" width="5.25" height="5.2" transform="rotate(-11.5381 28.8398 31.0361)" fill="#1E1E1E"/>
<rect x="39.1277" y="28.936" width="5.25" height="5.2" transform="rotate(-11.5381 39.1277 28.936)" fill="#1E1E1E"/>
<rect x="33.9838" y="29.9861" width="5.25" height="5.2" transform="rotate(-11.5381 33.9838 29.9861)" fill="#1E1E1E"/>
<rect x="23.6959" y="32.0862" width="5.25" height="5.2" transform="rotate(-11.5381 23.6959 32.0862)" fill="#1E1E1E"/>
<rect x="24.7361" y="37.1812" width="5.25" height="5.2" transform="rotate(-11.5381 24.7361 37.1812)" fill="#1E1E1E"/>
<rect x="84.3827" y="14.3901" width="5.25" height="5.2" transform="rotate(-11.5381 84.3827 14.3901)" fill="#1E1E1E"/>
<rect x="91.6068" y="23.5298" width="5.25" height="5.2" transform="rotate(-11.5381 91.6068 23.5298)" fill="#1E1E1E"/>
<rect x="82.3025" y="4.2002" width="5.25" height="5.2" transform="rotate(-11.5381 82.3025 4.2002)" fill="#1E1E1E"/>
<rect x="83.3427" y="9.29517" width="5.25" height="5.2" transform="rotate(-11.5381 83.3427 9.29517)" fill="#1E1E1E"/>
<rect x="85.4229" y="19.4851" width="5.25" height="5.2" transform="rotate(-11.5381 85.4229 19.4851)" fill="#1E1E1E"/>
<rect x="85.4229" y="19.4851" width="5.25" height="5.2" transform="rotate(-11.5381 85.4229 19.4851)" fill="#1E1E1E"/>
<rect x="79.2388" y="15.4402" width="5.25" height="5.2" transform="rotate(-11.5381 79.2388 15.4402)" fill="#1E1E1E"/>
<rect x="78.1987" y="10.3452" width="5.25" height="5.2" transform="rotate(-11.5381 78.1987 10.3452)" fill="#1E1E1E"/>
<rect x="80.2789" y="20.5352" width="5.25" height="5.2" transform="rotate(-11.5381 80.2789 20.5352)" fill="#1E1E1E"/>
<rect x="80.2789" y="20.5352" width="5.25" height="5.2" transform="rotate(-11.5381 80.2789 20.5352)" fill="#1E1E1E"/>
<rect x="89.5266" y="13.3401" width="5.25" height="5.2" transform="rotate(-11.5381 89.5266 13.3401)" fill="#1E1E1E"/>
<rect x="88.4866" y="8.24512" width="5.25" height="5.2" transform="rotate(-11.5381 88.4866 8.24512)" fill="#1E1E1E"/>
<rect x="90.5668" y="18.4351" width="5.25" height="5.2" transform="rotate(-11.5381 90.5668 18.4351)" fill="#1E1E1E"/>
<rect x="90.5668" y="18.4351" width="5.25" height="5.2" transform="rotate(-11.5381 90.5668 18.4351)" fill="#1E1E1E"/>
<rect x="68.951" y="17.5405" width="5.25" height="5.2" transform="rotate(-11.5381 68.951 17.5405)" fill="#1E1E1E"/>
<rect x="67.9109" y="12.4456" width="5.25" height="5.2" transform="rotate(-11.5381 67.9109 12.4456)" fill="#1E1E1E"/>
<rect x="63.8071" y="18.5906" width="5.25" height="5.2" transform="rotate(-11.5381 63.8071 18.5906)" fill="#1E1E1E"/>
<rect x="62.767" y="13.4956" width="5.25" height="5.2" transform="rotate(-11.5381 62.767 13.4956)" fill="#1E1E1E"/>
<rect x="94.6705" y="12.29" width="5.25" height="5.2" transform="rotate(-11.5381 94.6705 12.29)" fill="#1E1E1E"/>
<rect x="93.6305" y="7.19507" width="5.25" height="5.2" transform="rotate(-11.5381 93.6305 7.19507)" fill="#1E1E1E"/>
<rect x="69.9911" y="22.6353" width="5.25" height="5.2" transform="rotate(-11.5381 69.9911 22.6353)" fill="#1E1E1E"/>
<rect x="69.9911" y="22.6353" width="5.25" height="5.2" transform="rotate(-11.5381 69.9911 22.6353)" fill="#1E1E1E"/>
<rect x="74.0948" y="16.4902" width="5.25" height="5.2" transform="rotate(-11.5381 74.0948 16.4902)" fill="#1E1E1E"/>
<rect x="73.0548" y="11.3955" width="5.25" height="5.2" transform="rotate(-11.5381 73.0548 11.3955)" fill="#1E1E1E"/>
<rect x="75.135" y="21.5852" width="5.25" height="5.2" transform="rotate(-11.5381 75.135 21.5852)" fill="#1E1E1E"/>
<rect x="75.135" y="21.5852" width="5.25" height="5.2" transform="rotate(-11.5381 75.135 21.5852)" fill="#1E1E1E"/>
<rect x="10.2878" y="18.9019" width="5.25" height="5.2" transform="rotate(-11.5381 10.2878 18.9019)" fill="#1E1E1E"/>
<rect x="30.8634" y="14.7014" width="5.25" height="5.2" transform="rotate(-11.5381 30.8634 14.7014)" fill="#1E1E1E"/>
<rect x="20.5757" y="16.8015" width="5.25" height="5.2" transform="rotate(-11.5381 20.5757 16.8015)" fill="#1E1E1E"/>
<rect x="15.4318" y="17.8516" width="5.25" height="5.2" transform="rotate(-11.5381 15.4318 17.8516)" fill="#1E1E1E"/>
<rect x="16.4718" y="22.9465" width="5.25" height="5.2" transform="rotate(-11.5381 16.4718 22.9465)" fill="#1E1E1E"/>
<rect x="5.14392" y="19.9519" width="5.25" height="5.2" transform="rotate(-11.5381 5.14392 19.9519)" fill="#1E1E1E"/>
<rect y="21.002" width="5.25" height="5.2" transform="rotate(-11.5381 0 21.002)" fill="#1E1E1E"/>
<rect x="1.04016" y="26.0969" width="5.25" height="5.2" transform="rotate(-11.5381 1.04016 26.0969)" fill="#1E1E1E"/>
<rect x="7.22412" y="30.1416" width="5.25" height="5.2" transform="rotate(-11.5381 7.22412 30.1416)" fill="#1E1E1E"/>
<rect x="13.4081" y="34.1865" width="5.25" height="5.2" transform="rotate(-11.5381 13.4081 34.1865)" fill="#1E1E1E"/>
<rect x="19.5922" y="38.2312" width="5.25" height="5.2" transform="rotate(-11.5381 19.5922 38.2312)" fill="#1E1E1E"/>
<rect x="29.88" y="36.1311" width="5.25" height="5.2" transform="rotate(-11.5381 29.88 36.1311)" fill="#1E1E1E"/>
<rect x="35.0238" y="35.0811" width="5.25" height="5.2" transform="rotate(-11.5381 35.0238 35.0811)" fill="#1E1E1E"/>
<rect x="40.1677" y="34.031" width="5.25" height="5.2" transform="rotate(-11.5381 40.1677 34.031)" fill="#1E1E1E"/>
<rect x="76.1752" y="26.6802" width="5.25" height="5.2" transform="rotate(-11.5381 76.1752 26.6802)" fill="#1E1E1E"/>
<rect x="71.0312" y="27.7302" width="5.25" height="5.2" transform="rotate(-11.5381 71.0312 27.7302)" fill="#1E1E1E"/>
<rect x="81.319" y="25.6301" width="5.25" height="5.2" transform="rotate(-11.5381 81.319 25.6301)" fill="#1E1E1E"/>
<rect x="86.4629" y="24.5801" width="5.25" height="5.2" transform="rotate(-11.5381 86.4629 24.5801)" fill="#1E1E1E"/>
<rect x="91.6068" y="23.5298" width="5.25" height="5.2" transform="rotate(-11.5381 91.6068 23.5298)" fill="#1E1E1E"/>
<rect x="95.7107" y="17.3848" width="5.25" height="5.2" transform="rotate(-11.5381 95.7107 17.3848)" fill="#1E1E1E"/>
<rect x="99.8145" y="11.2397" width="5.25" height="5.2" transform="rotate(-11.5381 99.8145 11.2397)" fill="#1E1E1E"/>
<rect x="98.7743" y="6.14502" width="5.25" height="5.2" transform="rotate(-11.5381 98.7743 6.14502)" fill="#1E1E1E"/>
<rect x="44.2716" y="27.886" width="5.25" height="5.2" transform="rotate(-11.5381 44.2716 27.886)" fill="#1E1E1E"/>
<rect x="64.8472" y="23.6855" width="5.25" height="5.2" transform="rotate(-11.5381 64.8472 23.6855)" fill="#1E1E1E"/>
<rect x="48.3754" y="21.741" width="5.25" height="5.2" transform="rotate(-11.5381 48.3754 21.741)" fill="#1E1E1E"/>
<rect x="47.3353" y="16.646" width="5.25" height="5.2" transform="rotate(-11.5381 47.3353 16.646)" fill="#1E1E1E"/>
<rect x="58.6632" y="19.6406" width="5.25" height="5.2" transform="rotate(-11.5381 58.6632 19.6406)" fill="#1E1E1E"/>
<rect x="57.623" y="14.5457" width="5.25" height="5.2" transform="rotate(-11.5381 57.623 14.5457)" fill="#1E1E1E"/>
<rect x="10.2878" y="18.9019" width="5.25" height="5.2" transform="rotate(-11.5381 10.2878 18.9019)" fill="#1E1E1E"/>
<rect x="36.0073" y="13.6511" width="5.25" height="5.2" transform="rotate(-11.5381 36.0073 13.6511)" fill="#1E1E1E"/>
<rect x="46.2952" y="11.551" width="5.25" height="5.2" transform="rotate(-11.5381 46.2952 11.551)" fill="#1E1E1E"/>
<rect x="41.1512" y="12.6011" width="5.25" height="5.2" transform="rotate(-11.5381 41.1512 12.6011)" fill="#1E1E1E"/>
<rect x="51.4391" y="10.501" width="5.25" height="5.2" transform="rotate(-11.5381 51.4391 10.501)" fill="#1E1E1E"/>
<rect x="61.7269" y="8.40063" width="5.25" height="5.2" transform="rotate(-11.5381 61.7269 8.40063)" fill="#1E1E1E"/>
<rect x="56.583" y="9.45093" width="5.25" height="5.2" transform="rotate(-11.5381 56.583 9.45093)" fill="#1E1E1E"/>
<rect x="66.8708" y="7.35059" width="5.25" height="5.2" transform="rotate(-11.5381 66.8708 7.35059)" fill="#1E1E1E"/>
<rect x="77.1586" y="5.25049" width="5.25" height="5.2" transform="rotate(-11.5381 77.1586 5.25049)" fill="#1E1E1E"/>
<rect x="72.0146" y="6.30054" width="5.25" height="5.2" transform="rotate(-11.5381 72.0146 6.30054)" fill="#1E1E1E"/>
<rect x="87.4464" y="3.15015" width="5.25" height="5.2" transform="rotate(-11.5381 87.4464 3.15015)" fill="#1E1E1E"/>
<rect x="97.7343" y="1.05005" width="5.25" height="5.2" transform="rotate(-11.5381 97.7343 1.05005)" fill="#1E1E1E"/>
<rect x="92.5903" y="2.1001" width="5.25" height="5.2" transform="rotate(-11.5381 92.5903 2.1001)" fill="#1E1E1E"/>
<rect x="16.4718" y="22.9465" width="5.25" height="5.2" transform="rotate(-11.5381 16.4718 22.9465)" fill="white"/>
<rect x="22.6559" y="26.9915" width="5.25" height="5.2" transform="rotate(-11.5381 22.6559 26.9915)" fill="white"/>
<path d="M28.8398 31.0361L33.9838 29.986L35.0239 35.0809L29.8799 36.1311L28.8398 31.0361Z" fill="white"/>
</svg>
