<svg width="87" height="63" viewBox="0 0 87 63" fill="none" xmlns="http://www.w3.org/2000/svg">
<rect x="18.478" y="11.2488" width="3.76191" height="3.76923" transform="rotate(-10.7713 18.478 11.2488)" fill="#E73939"/>
<rect x="19.1826" y="14.9517" width="3.76191" height="3.76923" transform="rotate(-10.7713 19.1826 14.9517)" fill="#E73939"/>
<rect x="21.2959" y="26.0601" width="3.76191" height="3.76923" transform="rotate(-10.7713 21.2959 26.0601)" fill="#E73939"/>
<rect x="19.887" y="18.6545" width="3.76191" height="3.76923" transform="rotate(-10.7713 19.887 18.6545)" fill="#E73939"/>
<rect x="22.0002" y="29.7629" width="3.76191" height="3.76923" transform="rotate(-10.7713 22.0002 29.7629)" fill="#E73939"/>
<rect x="20.5913" y="22.3574" width="3.76191" height="3.76923" transform="rotate(-10.7713 20.5913 22.3574)" fill="#E73939"/>
<rect x="22.7046" y="33.4658" width="3.76191" height="3.76923" transform="rotate(-10.7713 22.7046 33.4658)" fill="#E73939"/>
<rect x="15.4868" y="15.6548" width="3.76191" height="3.76923" transform="rotate(-10.7713 15.4868 15.6548)" fill="#E73939"/>
<rect x="12.4958" y="20.0605" width="3.7619" height="3.76923" transform="rotate(-10.7713 12.4958 20.0605)" fill="#E73939"/>
<rect x="9.50464" y="24.4666" width="3.76191" height="3.76923" transform="rotate(-10.7713 9.50464 24.4666)" fill="#E73939"/>
<rect x="10.209" y="28.1694" width="3.76191" height="3.76923" transform="rotate(-10.7713 10.209 28.1694)" fill="#E73939"/>
<rect x="7.21777" y="32.5752" width="3.7619" height="3.76923" transform="rotate(-10.7713 7.21777 32.5752)" fill="#E73939"/>
<rect x="4.22656" y="36.9812" width="3.7619" height="3.76923" transform="rotate(-10.7713 4.22656 36.9812)" fill="#E73939"/>
<rect x="8.62671" y="39.981" width="3.7619" height="3.76923" transform="rotate(-10.7713 8.62671 39.981)" fill="#E73939"/>
<rect x="13.0266" y="42.9807" width="3.76191" height="3.76923" transform="rotate(-10.7713 13.0266 42.9807)" fill="#E73939"/>
<rect x="17.4268" y="45.9805" width="3.7619" height="3.76923" transform="rotate(-10.7713 17.4268 45.9805)" fill="#E73939"/>
<rect x="21.8267" y="48.9802" width="3.76191" height="3.76923" transform="rotate(-10.7713 21.8267 48.9802)" fill="#E73939"/>
<rect x="26.2268" y="51.98" width="3.76191" height="3.76923" transform="rotate(-10.7713 26.2268 51.98)" fill="#E73939"/>
<rect x="30.627" y="54.9797" width="3.7619" height="3.76923" transform="rotate(-10.7713 30.627 54.9797)" fill="#E73939"/>
<rect x="34.3225" y="54.2766" width="3.7619" height="3.76923" transform="rotate(-10.7713 34.3225 54.2766)" fill="#E73939"/>
<rect x="38.0181" y="53.5735" width="3.76191" height="3.76923" transform="rotate(-10.7713 38.0181 53.5735)" fill="#E73939"/>
<rect x="41.7139" y="52.8704" width="3.76191" height="3.76923" transform="rotate(-10.7713 41.7139 52.8704)" fill="#E73939"/>
<rect x="45.4094" y="52.1675" width="3.76191" height="3.76923" transform="rotate(-10.7713 45.4094 52.1675)" fill="#E73939"/>
<rect x="49.105" y="51.4644" width="3.76191" height="3.76923" transform="rotate(-10.7713 49.105 51.4644)" fill="#E73939"/>
<rect x="52.8005" y="50.7612" width="3.7619" height="3.76923" transform="rotate(-10.7713 52.8005 50.7612)" fill="#E73939"/>
<rect x="56.4963" y="50.0583" width="3.76191" height="3.76923" transform="rotate(-10.7713 56.4963 50.0583)" fill="#E73939"/>
<rect x="60.1919" y="49.3552" width="3.76191" height="3.76923" transform="rotate(-10.7713 60.1919 49.3552)" fill="#E73939"/>
<rect x="63.1831" y="44.9492" width="3.7619" height="3.76923" transform="rotate(-10.7713 63.1831 44.9492)" fill="#E73939"/>
<rect x="66.1743" y="40.5435" width="3.76191" height="3.76923" transform="rotate(-10.7713 66.1743 40.5435)" fill="#E73939"/>
<rect x="69.1655" y="36.1375" width="3.76191" height="3.76923" transform="rotate(-10.7713 69.1655 36.1375)" fill="#E73939"/>
<rect x="72.1567" y="31.7317" width="3.7619" height="3.76923" transform="rotate(-10.7713 72.1567 31.7317)" fill="#E73939"/>
<rect x="75.1479" y="27.3257" width="3.76191" height="3.76923" transform="rotate(-10.7713 75.1479 27.3257)" fill="#E73939"/>
<rect x="78.1392" y="22.9199" width="3.7619" height="3.76923" transform="rotate(-10.7713 78.1392 22.9199)" fill="#E73939"/>
<rect x="73.739" y="19.9202" width="3.76191" height="3.76923" transform="rotate(-10.7713 73.739 19.9202)" fill="#E73939"/>
<rect x="69.3389" y="16.9204" width="3.7619" height="3.76923" transform="rotate(-10.7713 69.3389 16.9204)" fill="#E73939"/>
<rect x="68.6345" y="13.2175" width="3.7619" height="3.76923" transform="rotate(-10.7713 68.6345 13.2175)" fill="#E73939"/>
<rect x="64.2344" y="10.2178" width="3.76191" height="3.76923" transform="rotate(-10.7713 64.2344 10.2178)" fill="#E73939"/>
<rect x="59.8345" y="7.21802" width="3.76191" height="3.76923" transform="rotate(-10.7713 59.8345 7.21802)" fill="#E73939"/>
<rect x="44.3474" y="6.32739" width="3.7619" height="3.76923" transform="rotate(-10.7713 44.3474 6.32739)" fill="#E73939"/>
<rect x="22.1738" y="10.5459" width="3.7619" height="3.76923" transform="rotate(-10.7713 22.1738 10.5459)" fill="#E73939"/>
<rect x="22.8782" y="14.2485" width="3.7619" height="3.76923" transform="rotate(-10.7713 22.8782 14.2485)" fill="#E73939"/>
<rect x="24.9915" y="25.3572" width="3.7619" height="3.76923" transform="rotate(-10.7713 24.9915 25.3572)" fill="#E73939"/>
<rect x="23.5825" y="17.9514" width="3.7619" height="3.76923" transform="rotate(-10.7713 23.5825 17.9514)" fill="#E73939"/>
<rect x="25.6958" y="29.0598" width="3.7619" height="3.76923" transform="rotate(-10.7713 25.6958 29.0598)" fill="#E73939"/>
<rect x="24.2871" y="21.6543" width="3.7619" height="3.76923" transform="rotate(-10.7713 24.2871 21.6543)" fill="#E73939"/>
<rect x="26.4004" y="32.7627" width="3.7619" height="3.76923" transform="rotate(-10.7713 26.4004 32.7627)" fill="#E73939"/>
<rect x="48.0432" y="5.62427" width="3.76191" height="3.76923" transform="rotate(-10.7713 48.0432 5.62427)" fill="#E73939"/>
<rect x="25.8694" y="9.84277" width="3.7619" height="3.76923" transform="rotate(-10.7713 25.8694 9.84277)" fill="#E73939"/>
<rect x="26.5737" y="13.5457" width="3.7619" height="3.76923" transform="rotate(-10.7713 26.5737 13.5457)" fill="#E73939"/>
<rect x="28.687" y="24.6541" width="3.7619" height="3.76923" transform="rotate(-10.7713 28.687 24.6541)" fill="#E73939"/>
<rect x="27.2783" y="17.2483" width="3.7619" height="3.76923" transform="rotate(-10.7713 27.2783 17.2483)" fill="#E73939"/>
<rect x="29.3916" y="28.3569" width="3.7619" height="3.76923" transform="rotate(-10.7713 29.3916 28.3569)" fill="#E73939"/>
<rect x="27.9827" y="20.9512" width="3.7619" height="3.76923" transform="rotate(-10.7713 27.9827 20.9512)" fill="#E73939"/>
<rect x="30.0959" y="32.0596" width="3.7619" height="3.76923" transform="rotate(-10.7713 30.0959 32.0596)" fill="#E73939"/>
<rect x="51.7388" y="4.92139" width="3.76191" height="3.76923" transform="rotate(-10.7713 51.7388 4.92139)" fill="#E73939"/>
<rect x="29.5649" y="9.13965" width="3.76191" height="3.76923" transform="rotate(-10.7713 29.5649 9.13965)" fill="#E73939"/>
<rect x="30.2695" y="12.8425" width="3.76191" height="3.76923" transform="rotate(-10.7713 30.2695 12.8425)" fill="#E73939"/>
<rect x="23.4092" y="37.1687" width="3.76191" height="3.76923" transform="rotate(-10.7713 23.4092 37.1687)" fill="#E73939"/>
<rect x="24.1135" y="40.8713" width="3.76191" height="3.76923" transform="rotate(-10.7713 24.1135 40.8713)" fill="#E73939"/>
<rect x="24.8179" y="44.5742" width="3.76191" height="3.76923" transform="rotate(-10.7713 24.8179 44.5742)" fill="#E73939"/>
<rect x="25.5225" y="48.2771" width="3.76191" height="3.76923" transform="rotate(-10.7713 25.5225 48.2771)" fill="#E73939"/>
<rect x="30.9739" y="16.5454" width="3.76191" height="3.76923" transform="rotate(-10.7713 30.9739 16.5454)" fill="#E73939"/>
<rect x="33.0872" y="27.6538" width="3.76191" height="3.76923" transform="rotate(-10.7713 33.0872 27.6538)" fill="#E73939"/>
<rect x="31.6782" y="20.248" width="3.76191" height="3.76923" transform="rotate(-10.7713 31.6782 20.248)" fill="#E73939"/>
<rect x="33.7915" y="31.3567" width="3.76191" height="3.76923" transform="rotate(-10.7713 33.7915 31.3567)" fill="#E73939"/>
<rect x="55.4343" y="4.21826" width="3.7619" height="3.76923" transform="rotate(-10.7713 55.4343 4.21826)" fill="#E73939"/>
<rect x="33.9651" y="12.1394" width="3.76191" height="3.76923" transform="rotate(-10.7713 33.9651 12.1394)" fill="#E73939"/>
<rect x="38.365" y="15.1392" width="3.76191" height="3.76923" transform="rotate(-10.7713 38.365 15.1392)" fill="#E73939"/>
<rect x="34.6694" y="15.8423" width="3.76191" height="3.76923" transform="rotate(-10.7713 34.6694 15.8423)" fill="#E73939"/>
<rect x="41.3562" y="10.7334" width="3.76191" height="3.76923" transform="rotate(-10.7713 41.3562 10.7334)" fill="#E73939"/>
<rect x="27.1047" y="36.4656" width="3.7619" height="3.76923" transform="rotate(-10.7713 27.1047 36.4656)" fill="#E73939"/>
<rect x="27.8091" y="40.1685" width="3.7619" height="3.76923" transform="rotate(-10.7713 27.8091 40.1685)" fill="#E73939"/>
<rect x="28.5137" y="43.8711" width="3.7619" height="3.76923" transform="rotate(-10.7713 28.5137 43.8711)" fill="#E73939"/>
<rect x="29.218" y="47.574" width="3.7619" height="3.76923" transform="rotate(-10.7713 29.218 47.574)" fill="#E73939"/>
<rect x="29.9224" y="51.2769" width="3.7619" height="3.76923" transform="rotate(-10.7713 29.9224 51.2769)" fill="#E73939"/>
<rect x="36.7827" y="26.9507" width="3.76191" height="3.76923" transform="rotate(-10.7713 36.7827 26.9507)" fill="#E73939"/>
<rect x="32.3828" y="23.9509" width="3.76191" height="3.76923" transform="rotate(-10.7713 32.3828 23.9509)" fill="#E73939"/>
<rect x="35.3738" y="19.5452" width="3.76191" height="3.76923" transform="rotate(-10.7713 35.3738 19.5452)" fill="#E73939"/>
<rect x="30.8003" y="35.7625" width="3.7619" height="3.76923" transform="rotate(-10.7713 30.8003 35.7625)" fill="#E73939"/>
<rect x="31.5049" y="39.4653" width="3.7619" height="3.76923" transform="rotate(-10.7713 31.5049 39.4653)" fill="#E73939"/>
<rect x="32.2092" y="43.1682" width="3.7619" height="3.76923" transform="rotate(-10.7713 32.2092 43.1682)" fill="#E73939"/>
<rect x="32.9136" y="46.8708" width="3.7619" height="3.76923" transform="rotate(-10.7713 32.9136 46.8708)" fill="#E73939"/>
<rect x="33.6182" y="50.5737" width="3.7619" height="3.76923" transform="rotate(-10.7713 33.6182 50.5737)" fill="#E73939"/>
<rect x="40.4783" y="26.2476" width="3.76191" height="3.76923" transform="rotate(-10.7713 40.4783 26.2476)" fill="#E73939"/>
<rect x="36.0784" y="23.2478" width="3.76191" height="3.76923" transform="rotate(-10.7713 36.0784 23.2478)" fill="#E73939"/>
<rect x="39.0696" y="18.842" width="3.76191" height="3.76923" transform="rotate(-10.7713 39.0696 18.842)" fill="#E73939"/>
<rect x="34.4961" y="35.0593" width="3.76191" height="3.76923" transform="rotate(-10.7713 34.4961 35.0593)" fill="#E73939"/>
<rect x="35.2004" y="38.7622" width="3.76191" height="3.76923" transform="rotate(-10.7713 35.2004 38.7622)" fill="#E73939"/>
<rect x="35.9048" y="42.4651" width="3.76191" height="3.76923" transform="rotate(-10.7713 35.9048 42.4651)" fill="#E73939"/>
<rect x="36.6094" y="46.168" width="3.76191" height="3.76923" transform="rotate(-10.7713 36.6094 46.168)" fill="#E73939"/>
<rect x="37.3137" y="49.8706" width="3.76191" height="3.76923" transform="rotate(-10.7713 37.3137 49.8706)" fill="#E73939"/>
<rect x="44.1741" y="25.5447" width="3.76191" height="3.76923" transform="rotate(-10.7713 44.1741 25.5447)" fill="#E73939"/>
<rect x="39.7739" y="22.5449" width="3.76191" height="3.76923" transform="rotate(-10.7713 39.7739 22.5449)" fill="#E73939"/>
<rect x="42.7651" y="18.1389" width="3.76191" height="3.76923" transform="rotate(-10.7713 42.7651 18.1389)" fill="#E73939"/>
<rect x="42.0608" y="14.436" width="3.76191" height="3.76923" transform="rotate(-10.7713 42.0608 14.436)" fill="#E73939"/>
<rect x="38.1917" y="34.3564" width="3.76191" height="3.76923" transform="rotate(-10.7713 38.1917 34.3564)" fill="#E73939"/>
<rect x="38.896" y="38.0591" width="3.76191" height="3.76923" transform="rotate(-10.7713 38.896 38.0591)" fill="#E73939"/>
<rect x="39.6006" y="41.762" width="3.76191" height="3.76923" transform="rotate(-10.7713 39.6006 41.762)" fill="#E73939"/>
<rect x="40.3049" y="45.4648" width="3.76191" height="3.76923" transform="rotate(-10.7713 40.3049 45.4648)" fill="#E73939"/>
<rect x="41.0093" y="49.1677" width="3.76191" height="3.76923" transform="rotate(-10.7713 41.0093 49.1677)" fill="#E73939"/>
<rect x="47.8696" y="24.8416" width="3.7619" height="3.76923" transform="rotate(-10.7713 47.8696 24.8416)" fill="#E73939"/>
<rect x="43.4695" y="21.8418" width="3.76191" height="3.76923" transform="rotate(-10.7713 43.4695 21.8418)" fill="#E73939"/>
<rect x="46.4607" y="17.4358" width="3.7619" height="3.76923" transform="rotate(-10.7713 46.4607 17.4358)" fill="#E73939"/>
<rect x="45.7563" y="13.7332" width="3.7619" height="3.76923" transform="rotate(-10.7713 45.7563 13.7332)" fill="#E73939"/>
<rect x="45.052" y="10.0303" width="3.7619" height="3.76923" transform="rotate(-10.7713 45.052 10.0303)" fill="#E73939"/>
<rect x="7.92212" y="36.2781" width="3.7619" height="3.76923" transform="rotate(-10.7713 7.92212 36.2781)" fill="#E73939"/>
<rect x="41.8872" y="33.6533" width="3.76191" height="3.76923" transform="rotate(-10.7713 41.8872 33.6533)" fill="#E73939"/>
<rect x="42.5916" y="37.3562" width="3.76191" height="3.76923" transform="rotate(-10.7713 42.5916 37.3562)" fill="#E73939"/>
<rect x="43.2961" y="41.0588" width="3.76191" height="3.76923" transform="rotate(-10.7713 43.2961 41.0588)" fill="#E73939"/>
<rect x="44.0005" y="44.7617" width="3.76191" height="3.76923" transform="rotate(-10.7713 44.0005 44.7617)" fill="#E73939"/>
<rect x="44.7048" y="48.4646" width="3.76191" height="3.76923" transform="rotate(-10.7713 44.7048 48.4646)" fill="#E73939"/>
<rect x="51.5652" y="24.1384" width="3.76191" height="3.76923" transform="rotate(-10.7713 51.5652 24.1384)" fill="#E73939"/>
<rect x="47.1653" y="21.1387" width="3.7619" height="3.76923" transform="rotate(-10.7713 47.1653 21.1387)" fill="#E73939"/>
<rect x="50.1565" y="16.7329" width="3.76191" height="3.76923" transform="rotate(-10.7713 50.1565 16.7329)" fill="#E73939"/>
<rect x="49.4519" y="13.03" width="3.76191" height="3.76923" transform="rotate(-10.7713 49.4519 13.03)" fill="#E73939"/>
<rect x="48.7476" y="9.32715" width="3.76191" height="3.76923" transform="rotate(-10.7713 48.7476 9.32715)" fill="#E73939"/>
<rect x="11.6179" y="35.575" width="3.76191" height="3.76923" transform="rotate(-10.7713 11.6179 35.575)" fill="#E73939"/>
<rect x="10.9133" y="31.8721" width="3.76191" height="3.76923" transform="rotate(-10.7713 10.9133 31.8721)" fill="#E73939"/>
<rect x="45.5828" y="32.9502" width="3.76191" height="3.76923" transform="rotate(-10.7713 45.5828 32.9502)" fill="#E73939"/>
<rect x="46.2874" y="36.6531" width="3.76191" height="3.76923" transform="rotate(-10.7713 46.2874 36.6531)" fill="#E73939"/>
<rect x="46.9917" y="40.356" width="3.76191" height="3.76923" transform="rotate(-10.7713 46.9917 40.356)" fill="#E73939"/>
<rect x="47.696" y="44.0586" width="3.76191" height="3.76923" transform="rotate(-10.7713 47.696 44.0586)" fill="#E73939"/>
<rect x="48.4006" y="47.7615" width="3.76191" height="3.76923" transform="rotate(-10.7713 48.4006 47.7615)" fill="#E73939"/>
<rect x="55.261" y="23.4355" width="3.76191" height="3.76923" transform="rotate(-10.7713 55.261 23.4355)" fill="#E73939"/>
<rect x="50.8608" y="20.4358" width="3.76191" height="3.76923" transform="rotate(-10.7713 50.8608 20.4358)" fill="#E73939"/>
<rect x="53.8521" y="16.0298" width="3.76191" height="3.76923" transform="rotate(-10.7713 53.8521 16.0298)" fill="#E73939"/>
<rect x="53.1477" y="12.3269" width="3.76191" height="3.76923" transform="rotate(-10.7713 53.1477 12.3269)" fill="#E73939"/>
<rect x="52.4431" y="8.62427" width="3.76191" height="3.76923" transform="rotate(-10.7713 52.4431 8.62427)" fill="#E73939"/>
<rect x="15.3135" y="34.8718" width="3.7619" height="3.76923" transform="rotate(-10.7713 15.3135 34.8718)" fill="#E73939"/>
<rect x="14.6091" y="31.1692" width="3.7619" height="3.76923" transform="rotate(-10.7713 14.6091 31.1692)" fill="#E73939"/>
<rect x="49.2786" y="32.2471" width="3.7619" height="3.76923" transform="rotate(-10.7713 49.2786 32.2471)" fill="#E73939"/>
<rect x="49.9829" y="35.95" width="3.7619" height="3.76923" transform="rotate(-10.7713 49.9829 35.95)" fill="#E73939"/>
<rect x="50.6873" y="39.6528" width="3.7619" height="3.76923" transform="rotate(-10.7713 50.6873 39.6528)" fill="#E73939"/>
<rect x="51.3918" y="43.3557" width="3.7619" height="3.76923" transform="rotate(-10.7713 51.3918 43.3557)" fill="#E73939"/>
<rect x="52.0962" y="47.0586" width="3.7619" height="3.76923" transform="rotate(-10.7713 52.0962 47.0586)" fill="#E73939"/>
<rect x="58.9565" y="22.7324" width="3.7619" height="3.76923" transform="rotate(-10.7713 58.9565 22.7324)" fill="#E73939"/>
<rect x="54.5564" y="19.7327" width="3.76191" height="3.76923" transform="rotate(-10.7713 54.5564 19.7327)" fill="#E73939"/>
<rect x="57.5476" y="15.3267" width="3.7619" height="3.76923" transform="rotate(-10.7713 57.5476 15.3267)" fill="#E73939"/>
<rect x="56.8433" y="11.624" width="3.7619" height="3.76923" transform="rotate(-10.7713 56.8433 11.624)" fill="#E73939"/>
<rect x="56.1387" y="7.92114" width="3.7619" height="3.76923" transform="rotate(-10.7713 56.1387 7.92114)" fill="#E73939"/>
<rect x="19.009" y="34.1689" width="3.76191" height="3.76923" transform="rotate(-10.7713 19.009 34.1689)" fill="#E73939"/>
<rect x="18.3047" y="30.4661" width="3.76191" height="3.76923" transform="rotate(-10.7713 18.3047 30.4661)" fill="#E73939"/>
<rect x="17.6001" y="26.7632" width="3.76191" height="3.76923" transform="rotate(-10.7713 17.6001 26.7632)" fill="#E73939"/>
<rect x="13.2002" y="23.7634" width="3.7619" height="3.76923" transform="rotate(-10.7713 13.2002 23.7634)" fill="#E73939"/>
<rect x="16.8958" y="23.0603" width="3.76191" height="3.76923" transform="rotate(-10.7713 16.8958 23.0603)" fill="#E73939"/>
<rect x="16.1914" y="19.3577" width="3.76191" height="3.76923" transform="rotate(-10.7713 16.1914 19.3577)" fill="#E73939"/>
<rect x="12.3223" y="39.2778" width="3.76191" height="3.76923" transform="rotate(-10.7713 12.3223 39.2778)" fill="#E73939"/>
<rect x="16.0178" y="38.5747" width="3.7619" height="3.76923" transform="rotate(-10.7713 16.0178 38.5747)" fill="#E73939"/>
<rect x="16.7224" y="42.2776" width="3.7619" height="3.76923" transform="rotate(-10.7713 16.7224 42.2776)" fill="#E73939"/>
<rect x="20.418" y="41.5745" width="3.76191" height="3.76923" transform="rotate(-10.7713 20.418 41.5745)" fill="#E73939"/>
<rect x="21.1223" y="45.2773" width="3.76191" height="3.76923" transform="rotate(-10.7713 21.1223 45.2773)" fill="#E73939"/>
<rect x="19.7134" y="37.8716" width="3.76191" height="3.76923" transform="rotate(-10.7713 19.7134 37.8716)" fill="#E73939"/>
<rect x="13.9045" y="27.4663" width="3.7619" height="3.76923" transform="rotate(-10.7713 13.9045 27.4663)" fill="#E73939"/>
<rect x="52.9741" y="31.5442" width="3.76191" height="3.76923" transform="rotate(-10.7713 52.9741 31.5442)" fill="#E73939"/>
<rect x="53.6785" y="35.2471" width="3.76191" height="3.76923" transform="rotate(-10.7713 53.6785 35.2471)" fill="#E73939"/>
<rect x="54.3831" y="38.9497" width="3.76191" height="3.76923" transform="rotate(-10.7713 54.3831 38.9497)" fill="#E73939"/>
<rect x="55.0874" y="42.6526" width="3.76191" height="3.76923" transform="rotate(-10.7713 55.0874 42.6526)" fill="#E73939"/>
<rect x="55.7917" y="46.3555" width="3.76191" height="3.76923" transform="rotate(-10.7713 55.7917 46.3555)" fill="#E73939"/>
<rect x="62.6521" y="22.0293" width="3.76191" height="3.76923" transform="rotate(-10.7713 62.6521 22.0293)" fill="#E73939"/>
<rect x="58.252" y="19.0295" width="3.7619" height="3.76923" transform="rotate(-10.7713 58.252 19.0295)" fill="#E73939"/>
<rect x="61.2432" y="14.6238" width="3.76191" height="3.76923" transform="rotate(-10.7713 61.2432 14.6238)" fill="#E73939"/>
<rect x="60.5388" y="10.9209" width="3.76191" height="3.76923" transform="rotate(-10.7713 60.5388 10.9209)" fill="#E73939"/>
<rect x="56.6697" y="30.8411" width="3.76191" height="3.76923" transform="rotate(-10.7713 56.6697 30.8411)" fill="#E73939"/>
<rect x="57.3743" y="34.5439" width="3.76191" height="3.76923" transform="rotate(-10.7713 57.3743 34.5439)" fill="#E73939"/>
<rect x="58.0786" y="38.2468" width="3.76191" height="3.76923" transform="rotate(-10.7713 58.0786 38.2468)" fill="#E73939"/>
<rect x="58.783" y="41.9495" width="3.76191" height="3.76923" transform="rotate(-10.7713 58.783 41.9495)" fill="#E73939"/>
<rect x="59.4875" y="45.6523" width="3.76191" height="3.76923" transform="rotate(-10.7713 59.4875 45.6523)" fill="#E73939"/>
<rect x="66.3477" y="21.3262" width="3.76191" height="3.76923" transform="rotate(-10.7713 66.3477 21.3262)" fill="#E73939"/>
<rect x="61.9478" y="18.3264" width="3.76191" height="3.76923" transform="rotate(-10.7713 61.9478 18.3264)" fill="#E73939"/>
<rect x="65.6433" y="17.6235" width="3.76191" height="3.76923" transform="rotate(-10.7713 65.6433 17.6235)" fill="#E73939"/>
<rect x="70.0435" y="20.6233" width="3.7619" height="3.76923" transform="rotate(-10.7713 70.0435 20.6233)" fill="#E73939"/>
<rect x="64.939" y="13.9207" width="3.76191" height="3.76923" transform="rotate(-10.7713 64.939 13.9207)" fill="#E73939"/>
<rect x="60.3655" y="30.1379" width="3.7619" height="3.76923" transform="rotate(-10.7713 60.3655 30.1379)" fill="#E73939"/>
<rect x="61.0698" y="33.8408" width="3.7619" height="3.76923" transform="rotate(-10.7713 61.0698 33.8408)" fill="#E73939"/>
<rect x="61.7742" y="37.5437" width="3.7619" height="3.76923" transform="rotate(-10.7713 61.7742 37.5437)" fill="#E73939"/>
<rect x="62.4788" y="41.2466" width="3.7619" height="3.76923" transform="rotate(-10.7713 62.4788 41.2466)" fill="#E73939"/>
<rect x="64.061" y="29.4351" width="3.76191" height="3.76923" transform="rotate(-10.7713 64.061 29.4351)" fill="#E73939"/>
<rect x="64.7654" y="33.1377" width="3.76191" height="3.76923" transform="rotate(-10.7713 64.7654 33.1377)" fill="#E73939"/>
<rect x="65.4697" y="36.8406" width="3.76191" height="3.76923" transform="rotate(-10.7713 65.4697 36.8406)" fill="#E73939"/>
<rect x="67.7566" y="28.7319" width="3.76191" height="3.76923" transform="rotate(-10.7713 67.7566 28.7319)" fill="#E73939"/>
<rect x="68.4609" y="32.4348" width="3.76191" height="3.76923" transform="rotate(-10.7713 68.4609 32.4348)" fill="#E73939"/>
<rect x="37.4873" y="30.6536" width="3.76191" height="3.76923" transform="rotate(-10.7713 37.4873 30.6536)" fill="#E73939"/>
<rect x="41.1829" y="29.9504" width="3.76191" height="3.76923" transform="rotate(-10.7713 41.1829 29.9504)" fill="#E73939"/>
<rect x="44.8784" y="29.2473" width="3.76191" height="3.76923" transform="rotate(-10.7713 44.8784 29.2473)" fill="#E73939"/>
<rect x="48.574" y="28.5444" width="3.7619" height="3.76923" transform="rotate(-10.7713 48.574 28.5444)" fill="#E73939"/>
<rect x="52.2698" y="27.8413" width="3.76191" height="3.76923" transform="rotate(-10.7713 52.2698 27.8413)" fill="#E73939"/>
<rect x="55.9653" y="27.1382" width="3.76191" height="3.76923" transform="rotate(-10.7713 55.9653 27.1382)" fill="#E73939"/>
<rect x="59.6609" y="26.4353" width="3.7619" height="3.76923" transform="rotate(-10.7713 59.6609 26.4353)" fill="#E73939"/>
<rect x="63.3564" y="25.7322" width="3.76191" height="3.76923" transform="rotate(-10.7713 63.3564 25.7322)" fill="#E73939"/>
<rect x="67.0522" y="25.0291" width="3.76191" height="3.76923" transform="rotate(-10.7713 67.0522 25.0291)" fill="#E73939"/>
<rect x="70.7478" y="24.3259" width="3.7619" height="3.76923" transform="rotate(-10.7713 70.7478 24.3259)" fill="#E73939"/>
<rect x="71.4521" y="28.0288" width="3.7619" height="3.76923" transform="rotate(-10.7713 71.4521 28.0288)" fill="#E73939"/>
<rect x="74.4434" y="23.623" width="3.76191" height="3.76923" transform="rotate(-10.7713 74.4434 23.623)" fill="#E73939"/>
<rect x="33.0872" y="27.6538" width="3.76191" height="3.76923" transform="rotate(-10.7713 33.0872 27.6538)" fill="#F27C7C"/>
<rect x="33.7915" y="31.3564" width="3.76191" height="3.76923" transform="rotate(-10.7713 33.7915 31.3564)" fill="#F27C7C"/>
<rect x="34.4958" y="35.0593" width="3.76191" height="3.76923" transform="rotate(-10.7713 34.4958 35.0593)" fill="#F27C7C"/>
<rect x="35.2004" y="38.7622" width="3.76191" height="3.76923" transform="rotate(-10.7713 35.2004 38.7622)" fill="#E86767"/>
<rect x="30.0959" y="32.0596" width="3.7619" height="3.76923" transform="rotate(-10.7713 30.0959 32.0596)" fill="#F27C7C"/>
<rect x="30.8003" y="35.7625" width="3.7619" height="3.76923" transform="rotate(-10.7713 30.8003 35.7625)" fill="#F27C7C"/>
<rect x="26.4001" y="32.7627" width="3.7619" height="3.76923" transform="rotate(-10.7713 26.4001 32.7627)" fill="#F27C7C"/>
<rect x="36.7827" y="26.9507" width="3.76191" height="3.76923" transform="rotate(-10.7713 36.7827 26.9507)" fill="#F27C7C"/>
<rect x="37.4871" y="30.6536" width="3.76191" height="3.76923" transform="rotate(-10.7713 37.4871 30.6536)" fill="#F27C7C"/>
<rect x="38.1917" y="34.3562" width="3.76191" height="3.76923" transform="rotate(-10.7713 38.1917 34.3562)" fill="#F27C7C"/>
<rect x="38.896" y="38.0591" width="3.76191" height="3.76923" transform="rotate(-10.7713 38.896 38.0591)" fill="#E86767"/>
<rect x="40.4783" y="26.2476" width="3.76191" height="3.76923" transform="rotate(-10.7713 40.4783 26.2476)" fill="#F27C7C"/>
<rect x="41.1826" y="29.9504" width="3.76191" height="3.76923" transform="rotate(-10.7713 41.1826 29.9504)" fill="#F27C7C"/>
<rect x="41.8872" y="33.6533" width="3.76191" height="3.76923" transform="rotate(-10.7713 41.8872 33.6533)" fill="#F27C7C"/>
<rect x="42.5916" y="37.356" width="3.76191" height="3.76923" transform="rotate(-10.7713 42.5916 37.356)" fill="#E86767"/>
<rect x="44.1738" y="25.5444" width="3.76191" height="3.76923" transform="rotate(-10.7713 44.1738 25.5444)" fill="#F27C7C"/>
<rect x="44.8784" y="29.2473" width="3.76191" height="3.76923" transform="rotate(-10.7713 44.8784 29.2473)" fill="#F27C7C"/>
<rect x="45.5828" y="32.9502" width="3.76191" height="3.76923" transform="rotate(-10.7713 45.5828 32.9502)" fill="#F27C7C"/>
<rect x="46.2871" y="36.6531" width="3.76191" height="3.76923" transform="rotate(-10.7713 46.2871 36.6531)" fill="#E86767"/>
<rect x="47.8696" y="24.8416" width="3.7619" height="3.76923" transform="rotate(-10.7713 47.8696 24.8416)" fill="#F27C7C"/>
<rect x="48.574" y="28.5442" width="3.7619" height="3.76923" transform="rotate(-10.7713 48.574 28.5442)" fill="#F27C7C"/>
<rect x="49.2783" y="32.2471" width="3.7619" height="3.76923" transform="rotate(-10.7713 49.2783 32.2471)" fill="#F27C7C"/>
<rect x="49.9829" y="35.95" width="3.7619" height="3.76923" transform="rotate(-10.7713 49.9829 35.95)" fill="#E86767"/>
<rect x="52.2695" y="27.8413" width="3.76191" height="3.76923" transform="rotate(-10.7713 52.2695 27.8413)" fill="#F27C7C"/>
<rect x="52.9741" y="31.5439" width="3.76191" height="3.76923" transform="rotate(-10.7713 52.9741 31.5439)" fill="#F27C7C"/>
<rect x="55.9653" y="27.1382" width="3.76191" height="3.76923" transform="rotate(-10.7713 55.9653 27.1382)" fill="#F27C7C"/>
</svg>
